%TF.GenerationSoftware,KiCad,Pcbnew,7.0.6*%
%TF.CreationDate,2023-08-11T19:56:51+07:00*%
%TF.ProjectId,keyboard_pcb,6b657962-6f61-4726-945f-7063622e6b69,rev1.0*%
%TF.SameCoordinates,Original*%
%TF.FileFunction,Soldermask,Bot*%
%TF.FilePolarity,Negative*%
%FSLAX46Y46*%
G04 Gerber Fmt 4.6, Leading zero omitted, Abs format (unit mm)*
G04 Created by KiCad (PCBNEW 7.0.6) date 2023-08-11 19:56:51*
%MOMM*%
%LPD*%
G01*
G04 APERTURE LIST*
G04 Aperture macros list*
%AMRotRect*
0 Rectangle, with rotation*
0 The origin of the aperture is its center*
0 $1 length*
0 $2 width*
0 $3 Rotation angle, in degrees counterclockwise*
0 Add horizontal line*
21,1,$1,$2,0,0,$3*%
G04 Aperture macros list end*
%ADD10R,2.400000X2.400000*%
%ADD11R,1.900000X2.000000*%
%ADD12R,2.500000X2.500000*%
%ADD13R,2.000000X2.000000*%
%ADD14C,1.900000*%
%ADD15C,1.700000*%
%ADD16C,3.000000*%
%ADD17C,0.100000*%
%ADD18C,4.000000*%
%ADD19RotRect,2.000000X2.000000X350.000000*%
%ADD20RotRect,2.500000X2.500000X350.000000*%
%ADD21RotRect,1.900000X2.000000X350.000000*%
%ADD22RotRect,2.400000X2.400000X350.000000*%
%ADD23RotRect,2.000000X2.000000X335.000000*%
%ADD24RotRect,2.500000X2.500000X335.000000*%
%ADD25RotRect,1.900000X2.000000X335.000000*%
%ADD26RotRect,2.400000X2.400000X335.000000*%
%ADD27RotRect,2.000000X2.000000X5.000000*%
%ADD28RotRect,2.500000X2.500000X5.000000*%
%ADD29RotRect,1.900000X2.000000X5.000000*%
%ADD30RotRect,2.400000X2.400000X5.000000*%
%ADD31O,2.000000X1.600000*%
%ADD32C,0.800000*%
%ADD33R,1.700000X1.700000*%
G04 APERTURE END LIST*
D10*
%TO.C,K03*%
X156576000Y-40894000D03*
D11*
X153676000Y-51874000D03*
D12*
X143976000Y-43434000D03*
D13*
X142776000Y-49674000D03*
D14*
X156376000Y-45974000D03*
D15*
X155956000Y-45974000D03*
D16*
X155876000Y-49674000D03*
D17*
X154701000Y-43394000D03*
D16*
X154686000Y-43434000D03*
X154686000Y-43434000D03*
X153416000Y-40894000D03*
X150876000Y-51874000D03*
D18*
X150876000Y-45974000D03*
D16*
X148336000Y-40894000D03*
X147066000Y-43433999D03*
D17*
X147051000Y-43394000D03*
D16*
X145876000Y-49674000D03*
D15*
X145796000Y-45974000D03*
D14*
X145376000Y-45974000D03*
%TD*%
%TO.C,K31*%
X183333557Y-111794935D03*
D15*
X183747177Y-111867867D03*
D16*
X183183463Y-115525548D03*
D17*
X185431123Y-109544992D03*
D16*
X185438949Y-109586988D03*
X187130721Y-107306110D03*
D18*
X188750000Y-112750000D03*
D16*
X187725476Y-118560366D03*
X192133544Y-108188243D03*
X192943184Y-110910188D03*
X192943184Y-110910188D03*
D17*
X192964902Y-110873400D03*
D16*
X193031541Y-117262030D03*
D15*
X193752823Y-113632133D03*
D14*
X194166443Y-113705065D03*
D19*
X180130559Y-114987238D03*
D20*
X182395893Y-109050416D03*
D21*
X190482937Y-119046581D03*
D22*
X195245537Y-108736971D03*
%TD*%
D14*
%TO.C,K32*%
X204516407Y-116955700D03*
D15*
X204897056Y-117133199D03*
D16*
X203405873Y-120520348D03*
D17*
X207124828Y-115325311D03*
D16*
X207121518Y-115367902D03*
X209345979Y-113602606D03*
D18*
X209501100Y-119280100D03*
D16*
X207007652Y-124627316D03*
X213950023Y-115749507D03*
X214027583Y-118588254D03*
X214027583Y-118588254D03*
D17*
X214058082Y-118558341D03*
D16*
X212468951Y-124746530D03*
D15*
X214105144Y-121427001D03*
D14*
X214485793Y-121604500D03*
D23*
X200596319Y-119210231D03*
D24*
X204321027Y-114062012D03*
D25*
X209545314Y-125810647D03*
D26*
X216813955Y-117084981D03*
%TD*%
D14*
%TO.C,K30*%
X161367329Y-112695857D03*
D15*
X161785731Y-112659251D03*
D16*
X162187903Y-116338199D03*
D17*
X162811093Y-109979688D03*
D16*
X162829523Y-110018228D03*
X163873314Y-107377207D03*
D18*
X166846400Y-112216500D03*
D16*
X167360619Y-118094049D03*
X168933983Y-106934455D03*
X170420526Y-109354102D03*
X170420526Y-109354102D03*
D17*
X170431983Y-109312947D03*
D16*
X172149850Y-115466642D03*
D15*
X171907069Y-111773749D03*
D14*
X172325471Y-111737143D03*
D27*
X159099699Y-116608382D03*
D28*
X159751281Y-110287540D03*
D29*
X170149964Y-117850013D03*
D30*
X172081959Y-106659043D03*
%TD*%
D10*
%TO.C,K25*%
X195630000Y-85664000D03*
D11*
X192730000Y-96644000D03*
D12*
X183030000Y-88204000D03*
D13*
X181830000Y-94444000D03*
D14*
X195430000Y-90744000D03*
D15*
X195010000Y-90744000D03*
D16*
X194930000Y-94444000D03*
D17*
X193755000Y-88164000D03*
D16*
X193740000Y-88204000D03*
X193740000Y-88204000D03*
X192470000Y-85664000D03*
X189930000Y-96644000D03*
D18*
X189930000Y-90744000D03*
D16*
X187390000Y-85664000D03*
X186120000Y-88203999D03*
D17*
X186105000Y-88164000D03*
D16*
X184930000Y-94444000D03*
D15*
X184850000Y-90744000D03*
D14*
X184430000Y-90744000D03*
%TD*%
D10*
%TO.C,K24*%
X176054000Y-84564000D03*
D11*
X173154000Y-95544000D03*
D12*
X163454000Y-87104000D03*
D13*
X162254000Y-93344000D03*
D14*
X175854000Y-89644000D03*
D15*
X175434000Y-89644000D03*
D16*
X175354000Y-93344000D03*
D17*
X174179000Y-87064000D03*
D16*
X174164000Y-87104000D03*
X174164000Y-87104000D03*
X172894000Y-84564000D03*
X170354000Y-95544000D03*
D18*
X170354000Y-89644000D03*
D16*
X167814000Y-84564000D03*
X166544000Y-87103999D03*
D17*
X166529000Y-87064000D03*
D16*
X165354000Y-93344000D03*
D15*
X165274000Y-89644000D03*
D14*
X164854000Y-89644000D03*
%TD*%
D10*
%TO.C,K23*%
X156530000Y-79818000D03*
D11*
X153630000Y-90798000D03*
D12*
X143930000Y-82358000D03*
D13*
X142730000Y-88598000D03*
D14*
X156330000Y-84898000D03*
D15*
X155910000Y-84898000D03*
D16*
X155830000Y-88598000D03*
D17*
X154655000Y-82318000D03*
D16*
X154640000Y-82358000D03*
X154640000Y-82358000D03*
X153370000Y-79818000D03*
X150830000Y-90798000D03*
D18*
X150830000Y-84898000D03*
D16*
X148290000Y-79818000D03*
X147020000Y-82357999D03*
D17*
X147005000Y-82318000D03*
D16*
X145830000Y-88598000D03*
D15*
X145750000Y-84898000D03*
D14*
X145330000Y-84898000D03*
%TD*%
D10*
%TO.C,K22*%
X136966000Y-84974000D03*
D11*
X134066000Y-95954000D03*
D12*
X124366000Y-87514000D03*
D13*
X123166000Y-93754000D03*
D14*
X136766000Y-90054000D03*
D15*
X136346000Y-90054000D03*
D16*
X136266000Y-93754000D03*
D17*
X135091000Y-87474000D03*
D16*
X135076000Y-87514000D03*
X135076000Y-87514000D03*
X133806000Y-84974000D03*
X131266000Y-95954000D03*
D18*
X131266000Y-90054000D03*
D16*
X128726000Y-84974000D03*
X127456000Y-87513999D03*
D17*
X127441000Y-87474000D03*
D16*
X126266000Y-93754000D03*
D15*
X126186000Y-90054000D03*
D14*
X125766000Y-90054000D03*
%TD*%
D10*
%TO.C,K21*%
X117567000Y-97310000D03*
D11*
X114667000Y-108290000D03*
D12*
X104967000Y-99850000D03*
D13*
X103767000Y-106090000D03*
D14*
X117367000Y-102390000D03*
D15*
X116947000Y-102390000D03*
D16*
X116867000Y-106090000D03*
D17*
X115692000Y-99810000D03*
D16*
X115677000Y-99850000D03*
X115677000Y-99850000D03*
X114407000Y-97310000D03*
X111867000Y-108290000D03*
D18*
X111867000Y-102390000D03*
D16*
X109327000Y-97310000D03*
X108057000Y-99849999D03*
D17*
X108042000Y-99810000D03*
D16*
X106867000Y-106090000D03*
D15*
X106787000Y-102390000D03*
D14*
X106367000Y-102390000D03*
%TD*%
D10*
%TO.C,K20*%
X98257000Y-97234000D03*
D11*
X95357000Y-108214000D03*
D12*
X85657000Y-99774000D03*
D13*
X84457000Y-106014000D03*
D14*
X98057000Y-102314000D03*
D15*
X97637000Y-102314000D03*
D16*
X97557000Y-106014000D03*
D17*
X96382000Y-99734000D03*
D16*
X96367000Y-99774000D03*
X96367000Y-99774000D03*
X95097000Y-97234000D03*
X92557000Y-108214000D03*
D18*
X92557000Y-102314000D03*
D16*
X90017000Y-97234000D03*
X88747000Y-99773999D03*
D17*
X88732000Y-99734000D03*
D16*
X87557000Y-106014000D03*
D15*
X87477000Y-102314000D03*
D14*
X87057000Y-102314000D03*
%TD*%
%TO.C,K15*%
X184604000Y-71374000D03*
D15*
X185024000Y-71374000D03*
D16*
X185104000Y-75074000D03*
D17*
X186279000Y-68794000D03*
D16*
X186294000Y-68833999D03*
X187564000Y-66294000D03*
D18*
X190104000Y-71374000D03*
D16*
X190104000Y-77274000D03*
X192644000Y-66294000D03*
X193914000Y-68834000D03*
X193914000Y-68834000D03*
D17*
X193929000Y-68794000D03*
D16*
X195104000Y-75074000D03*
D15*
X195184000Y-71374000D03*
D14*
X195604000Y-71374000D03*
D13*
X182004000Y-75074000D03*
D12*
X183204000Y-68834000D03*
D11*
X192904000Y-77274000D03*
D10*
X195804000Y-66294000D03*
%TD*%
D14*
%TO.C,K14*%
X165028000Y-70274000D03*
D15*
X165448000Y-70274000D03*
D16*
X165528000Y-73974000D03*
D17*
X166703000Y-67694000D03*
D16*
X166718000Y-67733999D03*
X167988000Y-65194000D03*
D18*
X170528000Y-70274000D03*
D16*
X170528000Y-76174000D03*
X173068000Y-65194000D03*
X174338000Y-67734000D03*
X174338000Y-67734000D03*
D17*
X174353000Y-67694000D03*
D16*
X175528000Y-73974000D03*
D15*
X175608000Y-70274000D03*
D14*
X176028000Y-70274000D03*
D13*
X162428000Y-73974000D03*
D12*
X163628000Y-67734000D03*
D11*
X173328000Y-76174000D03*
D10*
X176228000Y-65194000D03*
%TD*%
D14*
%TO.C,K13*%
X145504000Y-65528000D03*
D15*
X145924000Y-65528000D03*
D16*
X146004000Y-69228000D03*
D17*
X147179000Y-62948000D03*
D16*
X147194000Y-62987999D03*
X148464000Y-60448000D03*
D18*
X151004000Y-65528000D03*
D16*
X151004000Y-71428000D03*
X153544000Y-60448000D03*
X154814000Y-62988000D03*
X154814000Y-62988000D03*
D17*
X154829000Y-62948000D03*
D16*
X156004000Y-69228000D03*
D15*
X156084000Y-65528000D03*
D14*
X156504000Y-65528000D03*
D13*
X142904000Y-69228000D03*
D12*
X144104000Y-62988000D03*
D11*
X153804000Y-71428000D03*
D10*
X156704000Y-60448000D03*
%TD*%
D14*
%TO.C,K12*%
X125940000Y-70684000D03*
D15*
X126360000Y-70684000D03*
D16*
X126440000Y-74384000D03*
D17*
X127615000Y-68104000D03*
D16*
X127630000Y-68143999D03*
X128900000Y-65604000D03*
D18*
X131440000Y-70684000D03*
D16*
X131440000Y-76584000D03*
X133980000Y-65604000D03*
X135250000Y-68144000D03*
X135250000Y-68144000D03*
D17*
X135265000Y-68104000D03*
D16*
X136440000Y-74384000D03*
D15*
X136520000Y-70684000D03*
D14*
X136940000Y-70684000D03*
D13*
X123340000Y-74384000D03*
D12*
X124540000Y-68144000D03*
D11*
X134240000Y-76584000D03*
D10*
X137140000Y-65604000D03*
%TD*%
D14*
%TO.C,K11*%
X106541000Y-83020000D03*
D15*
X106961000Y-83020000D03*
D16*
X107041000Y-86720000D03*
D17*
X108216000Y-80440000D03*
D16*
X108231000Y-80479999D03*
X109501000Y-77940000D03*
D18*
X112041000Y-83020000D03*
D16*
X112041000Y-88920000D03*
X114581000Y-77940000D03*
X115851000Y-80480000D03*
X115851000Y-80480000D03*
D17*
X115866000Y-80440000D03*
D16*
X117041000Y-86720000D03*
D15*
X117121000Y-83020000D03*
D14*
X117541000Y-83020000D03*
D13*
X103941000Y-86720000D03*
D12*
X105141000Y-80480000D03*
D11*
X114841000Y-88920000D03*
D10*
X117741000Y-77940000D03*
%TD*%
D14*
%TO.C,K10*%
X87231000Y-82944000D03*
D15*
X87651000Y-82944000D03*
D16*
X87731000Y-86644000D03*
D17*
X88906000Y-80364000D03*
D16*
X88921000Y-80403999D03*
X90191000Y-77864000D03*
D18*
X92731000Y-82944000D03*
D16*
X92731000Y-88844000D03*
X95271000Y-77864000D03*
X96541000Y-80404000D03*
X96541000Y-80404000D03*
D17*
X96556000Y-80364000D03*
D16*
X97731000Y-86644000D03*
D15*
X97811000Y-82944000D03*
D14*
X98231000Y-82944000D03*
D13*
X84631000Y-86644000D03*
D12*
X85831000Y-80404000D03*
D11*
X95531000Y-88844000D03*
D10*
X98431000Y-77864000D03*
%TD*%
%TO.C,K05*%
X195676000Y-46740000D03*
D11*
X192776000Y-57720000D03*
D12*
X183076000Y-49280000D03*
D13*
X181876000Y-55520000D03*
D14*
X195476000Y-51820000D03*
D15*
X195056000Y-51820000D03*
D16*
X194976000Y-55520000D03*
D17*
X193801000Y-49240000D03*
D16*
X193786000Y-49280000D03*
X193786000Y-49280000D03*
X192516000Y-46740000D03*
X189976000Y-57720000D03*
D18*
X189976000Y-51820000D03*
D16*
X187436000Y-46740000D03*
X186166000Y-49279999D03*
D17*
X186151000Y-49240000D03*
D16*
X184976000Y-55520000D03*
D15*
X184896000Y-51820000D03*
D14*
X184476000Y-51820000D03*
%TD*%
D10*
%TO.C,K04*%
X176100000Y-45640000D03*
D11*
X173200000Y-56620000D03*
D12*
X163500000Y-48180000D03*
D13*
X162300000Y-54420000D03*
D14*
X175900000Y-50720000D03*
D15*
X175480000Y-50720000D03*
D16*
X175400000Y-54420000D03*
D17*
X174225000Y-48140000D03*
D16*
X174210000Y-48180000D03*
X174210000Y-48180000D03*
X172940000Y-45640000D03*
X170400000Y-56620000D03*
D18*
X170400000Y-50720000D03*
D16*
X167860000Y-45640000D03*
X166590000Y-48179999D03*
D17*
X166575000Y-48140000D03*
D16*
X165400000Y-54420000D03*
D15*
X165320000Y-50720000D03*
D14*
X164900000Y-50720000D03*
%TD*%
D10*
%TO.C,K02*%
X137012000Y-46050000D03*
D11*
X134112000Y-57030000D03*
D12*
X124412000Y-48590000D03*
D13*
X123212000Y-54830000D03*
D14*
X136812000Y-51130000D03*
D15*
X136392000Y-51130000D03*
D16*
X136312000Y-54830000D03*
D17*
X135137000Y-48550000D03*
D16*
X135122000Y-48590000D03*
X135122000Y-48590000D03*
X133852000Y-46050000D03*
X131312000Y-57030000D03*
D18*
X131312000Y-51130000D03*
D16*
X128772000Y-46050000D03*
X127502000Y-48589999D03*
D17*
X127487000Y-48550000D03*
D16*
X126312000Y-54830000D03*
D15*
X126232000Y-51130000D03*
D14*
X125812000Y-51130000D03*
%TD*%
D10*
%TO.C,K01*%
X117613000Y-58386000D03*
D11*
X114713000Y-69366000D03*
D12*
X105013000Y-60926000D03*
D13*
X103813000Y-67166000D03*
D14*
X117413000Y-63466000D03*
D15*
X116993000Y-63466000D03*
D16*
X116913000Y-67166000D03*
D17*
X115738000Y-60886000D03*
D16*
X115723000Y-60926000D03*
X115723000Y-60926000D03*
X114453000Y-58386000D03*
X111913000Y-69366000D03*
D18*
X111913000Y-63466000D03*
D16*
X109373000Y-58386000D03*
X108103000Y-60925999D03*
D17*
X108088000Y-60886000D03*
D16*
X106913000Y-67166000D03*
D15*
X106833000Y-63466000D03*
D14*
X106413000Y-63466000D03*
%TD*%
D10*
%TO.C,K00*%
X98303000Y-58310000D03*
D11*
X95403000Y-69290000D03*
D12*
X85703000Y-60850000D03*
D13*
X84503000Y-67090000D03*
D14*
X98103000Y-63390000D03*
D15*
X97683000Y-63390000D03*
D16*
X97603000Y-67090000D03*
D17*
X96428000Y-60810000D03*
D16*
X96413000Y-60850000D03*
X96413000Y-60850000D03*
X95143000Y-58310000D03*
X92603000Y-69290000D03*
D18*
X92603000Y-63390000D03*
D16*
X90063000Y-58310000D03*
X88793000Y-60849999D03*
D17*
X88778000Y-60810000D03*
D16*
X87603000Y-67090000D03*
D15*
X87523000Y-63390000D03*
D14*
X87103000Y-63390000D03*
%TD*%
D31*
%TO.C,J1*%
X225580000Y-102444000D03*
X222580000Y-109144000D03*
X222580000Y-102444000D03*
X225580000Y-109144000D03*
X218580000Y-102444000D03*
X218580000Y-109144000D03*
X217480000Y-107044000D03*
X217480000Y-104544000D03*
D32*
X227180000Y-104744000D03*
X220180000Y-106844000D03*
X220180000Y-104744000D03*
X227180000Y-106844000D03*
%TD*%
D15*
%TO.C,U1*%
X221000000Y-47380000D03*
X208420000Y-47360000D03*
X221000000Y-49920000D03*
X208420000Y-49900000D03*
X221000000Y-52460000D03*
X208420000Y-52440000D03*
X208420000Y-54980000D03*
X221000000Y-55000000D03*
X221000000Y-57540000D03*
X208420000Y-57520000D03*
X208420000Y-60060000D03*
X221000000Y-60080000D03*
X208420000Y-62600000D03*
X221000000Y-62620000D03*
X221000000Y-65160000D03*
X208420000Y-65140000D03*
X221000000Y-67700000D03*
X208420000Y-67680000D03*
X208420000Y-70220000D03*
X221000000Y-70240000D03*
X221000000Y-72780000D03*
X208420000Y-72760000D03*
X221000000Y-75320000D03*
X208420000Y-75300000D03*
X208420000Y-77840000D03*
X221000000Y-77860000D03*
X208420000Y-80380000D03*
X221000000Y-80400000D03*
X208420000Y-82920000D03*
X221000000Y-82940000D03*
X208420000Y-85460000D03*
X221000000Y-85480000D03*
X208420000Y-88000000D03*
X221000000Y-88020000D03*
X221000000Y-90560000D03*
X208420000Y-90540000D03*
X221000000Y-93100000D03*
X208420000Y-93080000D03*
X208420000Y-95620000D03*
X221000000Y-95640000D03*
X205760000Y-95640000D03*
X223660000Y-95620000D03*
X205760000Y-93100000D03*
X223660000Y-93080000D03*
X223660000Y-90540000D03*
X205760000Y-90560000D03*
X205760000Y-88020000D03*
X223660000Y-88000000D03*
X205760000Y-85480000D03*
X223660000Y-85460000D03*
X223660000Y-82920000D03*
X205760000Y-82940000D03*
X223660000Y-80380000D03*
X205760000Y-80400000D03*
X205760000Y-77860000D03*
X223660000Y-77840000D03*
X223660000Y-75300000D03*
X205760000Y-75320000D03*
X223660000Y-72760000D03*
X205760000Y-72780000D03*
X205760000Y-70240000D03*
X223660000Y-70220000D03*
X223660000Y-67680000D03*
X205760000Y-67700000D03*
X205760000Y-65160000D03*
X223660000Y-65140000D03*
X205760000Y-62620000D03*
X223660000Y-62600000D03*
X205760000Y-60080000D03*
X223660000Y-60060000D03*
X223660000Y-57520000D03*
X205760000Y-57540000D03*
X205760000Y-55000000D03*
X223660000Y-54980000D03*
X223660000Y-52440000D03*
X205760000Y-52460000D03*
X205760000Y-49920000D03*
X223660000Y-49900000D03*
D33*
X223660000Y-47360000D03*
X205760000Y-47380000D03*
%TD*%
M02*
