M48
; DRILL file {KiCad 7.0.6} date Fri Aug 11 19:57:15 2023
; FORMAT={-:-/ absolute / inch / decimal}
; #@! TF.CreationDate,2023-08-11T19:57:15+07:00
; #@! TF.GenerationSoftware,Kicad,Pcbnew,7.0.6
; #@! TF.FileFunction,Plated,1,2,PTH
FMAT,2
INCH
; #@! TA.AperFunction,Plated,PTH,ViaDrill
T1C0.0157
; #@! TA.AperFunction,Plated,PTH,ComponentDrill
T2C0.0354
; #@! TA.AperFunction,Plated,PTH,ComponentDrill
T3C0.0394
%
G90
G05
T1
X3.348Y-3.834
X3.3498Y-2.2957
X3.3547Y-3.0695
X3.5337Y-4.3237
X3.5356Y-2.7915
X3.5406Y-3.5619
X3.7346Y-4.3573
X3.8229Y-2.7949
X3.868Y-4.3341
X3.8684Y-3.5663
X3.9396Y-3.834
X3.9423Y-2.3197
X3.9469Y-3.0774
X4.0315Y-2.2937
X4.0326Y-2.7949
X4.0915Y-3.8355
X4.1388Y-3.3132
X4.294Y-4.3267
X4.2958Y-2.8118
X4.4833Y-3.4056
X4.6919Y-4.0063
X4.7043Y-2.2749
X4.7344Y-3.8281
X4.7508Y-2.3987
X4.7558Y-3.1685
X4.846Y-2.992
X4.8613Y-3.3608
X4.8622Y-1.8216
X5.0646Y-3.0784
X5.2313Y-2.1635
X5.2792Y-3.8602
X5.464Y-3.359
X5.4667Y-1.8389
X5.5194Y-2.6828
X5.5194Y-2.8132
X5.595Y-1.61
X5.6402Y-2.9748
X5.6501Y-2.5529
X5.7123Y-3.0711
X6.0193Y-2.7286
X6.0293Y-3.491
X6.1005Y-2.1387
X6.211Y-4.2361
X6.2361Y-1.6368
X6.2789Y-2.6193
X6.2832Y-3.2424
X6.2908Y-2.4762
X6.3018Y-2.2936
X6.4074Y-1.8135
X6.41Y-2.5849
X6.4105Y-3.3293
X6.422Y-3.0636
X6.5984Y-2.2936
X6.6035Y-3.0636
X6.6772Y-4.5639
X6.8275Y-3.8391
X6.8504Y-4.1788
X6.9829Y-3.8391
X7.0037Y-3.3559
X7.0043Y-1.8037
X7.0092Y-2.5923
X7.071Y-2.2724
X7.1254Y-3.8787
X7.1649Y-4.1927
X7.1819Y-3.3764
X7.1833Y-2.6066
X7.4617Y-4.586
X7.5335Y-3.7151
X7.5362Y-2.1777
X7.5531Y-2.9362
X7.6497Y-3.8317
X7.7079Y-3.8441
X7.7088Y-3.1098
X7.728Y-3.2475
X7.7621Y-3.2908
X7.775Y-1.8671
X7.7807Y-2.6157
X7.7831Y-3.3756
X7.7836Y-4.8315
X7.797Y-4.4034
X7.8371Y-2.4655
X7.8848Y-3.1813
X7.9794Y-1.8718
X7.9882Y-2.4205
X8.0517Y-4.3341
X8.063Y-3.9958
X8.2496Y-4.8112
X8.2592Y-3.7146
X8.5365Y-4.8097
X8.6231Y-4.6394
X8.6268Y-4.1528
X8.6635Y-3.7133
T3
X8.1008Y-1.8654
X8.1008Y-1.9654
X8.1008Y-2.0654
X8.1008Y-2.1654
X8.1008Y-2.2654
X8.1008Y-2.3654
X8.1008Y-2.4654
X8.1008Y-2.5654
X8.1008Y-2.6654
X8.1008Y-2.7654
X8.1008Y-2.8654
X8.1008Y-2.9654
X8.1008Y-3.0654
X8.1008Y-3.1654
X8.1008Y-3.2654
X8.1008Y-3.3654
X8.1008Y-3.4654
X8.1008Y-3.5654
X8.1008Y-3.6654
X8.1008Y-3.7654
X8.2055Y-1.8646
X8.2055Y-1.9646
X8.2055Y-2.0646
X8.2055Y-2.1646
X8.2055Y-2.2646
X8.2055Y-2.3646
X8.2055Y-2.4646
X8.2055Y-2.5646
X8.2055Y-2.6646
X8.2055Y-2.7646
X8.2055Y-2.8646
X8.2055Y-2.9646
X8.2055Y-3.0646
X8.2055Y-3.1646
X8.2055Y-3.2646
X8.2055Y-3.3646
X8.2055Y-3.4646
X8.2055Y-3.5646
X8.2055Y-3.6646
X8.2055Y-3.7646
X8.7008Y-1.8654
X8.7008Y-1.9654
X8.7008Y-2.0654
X8.7008Y-2.1654
X8.7008Y-2.2654
X8.7008Y-2.3654
X8.7008Y-2.4654
X8.7008Y-2.5654
X8.7008Y-2.6654
X8.7008Y-2.7654
X8.7008Y-2.8654
X8.7008Y-2.9654
X8.7008Y-3.0654
X8.7008Y-3.1654
X8.7008Y-3.2654
X8.7008Y-3.3654
X8.7008Y-3.4654
X8.7008Y-3.5654
X8.7008Y-3.6654
X8.7008Y-3.7654
X8.8055Y-1.8646
X8.8055Y-1.9646
X8.8055Y-2.0646
X8.8055Y-2.1646
X8.8055Y-2.2646
X8.8055Y-2.3646
X8.8055Y-2.4646
X8.8055Y-2.5646
X8.8055Y-2.6646
X8.8055Y-2.7646
X8.8055Y-2.8646
X8.8055Y-2.9646
X8.8055Y-3.0646
X8.8055Y-3.1646
X8.8055Y-3.2646
X8.8055Y-3.3646
X8.8055Y-3.4646
X8.8055Y-3.5646
X8.8055Y-3.6646
X8.8055Y-3.7646
T2
G00X8.5701Y-4.1159
M15
G01X8.5543Y-4.1159
M16
G05
G00X8.5701Y-4.2143
M15
G01X8.5543Y-4.2143
M16
G05
G00X8.6134Y-4.0332
M15
G01X8.5976Y-4.0332
M16
G05
G00X8.6134Y-4.297
M15
G01X8.5976Y-4.297
M16
G05
G00X8.7709Y-4.0332
M15
G01X8.7551Y-4.0332
M16
G05
G00X8.7709Y-4.297
M15
G01X8.7551Y-4.297
M16
G05
G00X8.889Y-4.0332
M15
G01X8.8732Y-4.0332
M16
G05
G00X8.889Y-4.297
M15
G01X8.8732Y-4.297
M16
G05
T0
M30
