%TF.GenerationSoftware,KiCad,Pcbnew,7.0.6*%
%TF.CreationDate,2023-08-11T19:56:51+07:00*%
%TF.ProjectId,keyboard_pcb,6b657962-6f61-4726-945f-7063622e6b69,rev1.0*%
%TF.SameCoordinates,Original*%
%TF.FileFunction,Copper,L1,Top*%
%TF.FilePolarity,Positive*%
%FSLAX46Y46*%
G04 Gerber Fmt 4.6, Leading zero omitted, Abs format (unit mm)*
G04 Created by KiCad (PCBNEW 7.0.6) date 2023-08-11 19:56:51*
%MOMM*%
%LPD*%
G01*
G04 APERTURE LIST*
G04 Aperture macros list*
%AMRotRect*
0 Rectangle, with rotation*
0 The origin of the aperture is its center*
0 $1 length*
0 $2 width*
0 $3 Rotation angle, in degrees counterclockwise*
0 Add horizontal line*
21,1,$1,$2,0,0,$3*%
G04 Aperture macros list end*
%TA.AperFunction,SMDPad,CuDef*%
%ADD10R,2.500000X2.500000*%
%TD*%
%TA.AperFunction,SMDPad,CuDef*%
%ADD11R,1.800000X2.000000*%
%TD*%
%TA.AperFunction,SMDPad,CuDef*%
%ADD12R,2.000000X2.000000*%
%TD*%
%TA.AperFunction,SMDPad,CuDef*%
%ADD13R,2.400000X2.400000*%
%TD*%
%TA.AperFunction,SMDPad,CuDef*%
%ADD14RotRect,2.400000X2.400000X350.000000*%
%TD*%
%TA.AperFunction,SMDPad,CuDef*%
%ADD15RotRect,2.000000X2.000000X350.000000*%
%TD*%
%TA.AperFunction,SMDPad,CuDef*%
%ADD16RotRect,1.800000X2.000000X350.000000*%
%TD*%
%TA.AperFunction,SMDPad,CuDef*%
%ADD17RotRect,2.500000X2.500000X350.000000*%
%TD*%
%TA.AperFunction,SMDPad,CuDef*%
%ADD18RotRect,2.400000X2.400000X335.000000*%
%TD*%
%TA.AperFunction,SMDPad,CuDef*%
%ADD19RotRect,2.000000X2.000000X335.000000*%
%TD*%
%TA.AperFunction,SMDPad,CuDef*%
%ADD20RotRect,1.800000X2.000000X335.000000*%
%TD*%
%TA.AperFunction,SMDPad,CuDef*%
%ADD21RotRect,2.500000X2.500000X335.000000*%
%TD*%
%TA.AperFunction,SMDPad,CuDef*%
%ADD22RotRect,2.400000X2.400000X5.000000*%
%TD*%
%TA.AperFunction,SMDPad,CuDef*%
%ADD23RotRect,2.000000X2.000000X5.000000*%
%TD*%
%TA.AperFunction,SMDPad,CuDef*%
%ADD24RotRect,1.800000X2.000000X5.000000*%
%TD*%
%TA.AperFunction,SMDPad,CuDef*%
%ADD25RotRect,2.500000X2.500000X5.000000*%
%TD*%
%TA.AperFunction,ComponentPad*%
%ADD26O,2.000000X1.600000*%
%TD*%
%TA.AperFunction,ComponentPad*%
%ADD27C,1.700000*%
%TD*%
%TA.AperFunction,ComponentPad*%
%ADD28R,1.700000X1.700000*%
%TD*%
%TA.AperFunction,ViaPad*%
%ADD29C,0.800000*%
%TD*%
%TA.AperFunction,Conductor*%
%ADD30C,0.250000*%
%TD*%
G04 APERTURE END LIST*
D10*
%TO.P,K03,2*%
%TO.N,GND*%
X157776000Y-43433999D03*
D11*
X148076000Y-51874000D03*
D12*
%TO.P,K03,1*%
%TO.N,/k03*%
X158976000Y-49674000D03*
D13*
X145176000Y-40894000D03*
%TD*%
D14*
%TO.P,K31,1*%
%TO.N,/k31*%
X184018729Y-106757382D03*
D15*
X196084445Y-117800339D03*
D16*
%TO.P,K31,2*%
%TO.N,GND*%
X184968014Y-118074151D03*
D17*
X195986240Y-111446760D03*
%TD*%
D18*
%TO.P,K32,1*%
%TO.N,/k32*%
X206482046Y-112267132D03*
D19*
X215278506Y-126056647D03*
D20*
%TO.P,K32,2*%
%TO.N,GND*%
X204469990Y-123443985D03*
D21*
X216828075Y-119894143D03*
%TD*%
D22*
%TO.P,K30,1*%
%TO.N,/k30*%
X160725339Y-107652619D03*
D23*
X175238053Y-115196459D03*
D24*
%TO.P,K30,2*%
%TO.N,GND*%
X164571274Y-118338085D03*
D25*
X173498768Y-109084790D03*
%TD*%
D10*
%TO.P,K25,2*%
%TO.N,GND*%
X196830000Y-88203999D03*
D11*
X187130000Y-96644000D03*
D12*
%TO.P,K25,1*%
%TO.N,/k25*%
X198030000Y-94444000D03*
D13*
X184230000Y-85664000D03*
%TD*%
D10*
%TO.P,K24,2*%
%TO.N,GND*%
X177254000Y-87103999D03*
D11*
X167554000Y-95544000D03*
D12*
%TO.P,K24,1*%
%TO.N,/k24*%
X178454000Y-93344000D03*
D13*
X164654000Y-84564000D03*
%TD*%
D10*
%TO.P,K23,2*%
%TO.N,GND*%
X157730000Y-82357999D03*
D11*
X148030000Y-90798000D03*
D12*
%TO.P,K23,1*%
%TO.N,/k23*%
X158930000Y-88598000D03*
D13*
X145130000Y-79818000D03*
%TD*%
D10*
%TO.P,K22,2*%
%TO.N,GND*%
X138166000Y-87513999D03*
D11*
X128466000Y-95954000D03*
D12*
%TO.P,K22,1*%
%TO.N,/k22*%
X139366000Y-93754000D03*
D13*
X125566000Y-84974000D03*
%TD*%
D10*
%TO.P,K21,2*%
%TO.N,GND*%
X118767000Y-99849999D03*
D11*
X109067000Y-108290000D03*
D12*
%TO.P,K21,1*%
%TO.N,/k21*%
X119967000Y-106090000D03*
D13*
X106167000Y-97310000D03*
%TD*%
D10*
%TO.P,K20,2*%
%TO.N,GND*%
X99457000Y-99773999D03*
D11*
X89757000Y-108214000D03*
D12*
%TO.P,K20,1*%
%TO.N,/k20*%
X100657000Y-106014000D03*
D13*
X86857000Y-97234000D03*
%TD*%
%TO.P,K15,1*%
%TO.N,/k15*%
X184404000Y-66294000D03*
D12*
X198204000Y-75074000D03*
D11*
%TO.P,K15,2*%
%TO.N,GND*%
X187304000Y-77274000D03*
D10*
X197004000Y-68833999D03*
%TD*%
D13*
%TO.P,K14,1*%
%TO.N,/k14*%
X164828000Y-65194000D03*
D12*
X178628000Y-73974000D03*
D11*
%TO.P,K14,2*%
%TO.N,GND*%
X167728000Y-76174000D03*
D10*
X177428000Y-67733999D03*
%TD*%
D13*
%TO.P,K13,1*%
%TO.N,/k13*%
X145304000Y-60448000D03*
D12*
X159104000Y-69228000D03*
D11*
%TO.P,K13,2*%
%TO.N,GND*%
X148204000Y-71428000D03*
D10*
X157904000Y-62987999D03*
%TD*%
D13*
%TO.P,K12,1*%
%TO.N,/k12*%
X125740000Y-65604000D03*
D12*
X139540000Y-74384000D03*
D11*
%TO.P,K12,2*%
%TO.N,GND*%
X128640000Y-76584000D03*
D10*
X138340000Y-68143999D03*
%TD*%
D13*
%TO.P,K11,1*%
%TO.N,/k11*%
X106341000Y-77940000D03*
D12*
X120141000Y-86720000D03*
D11*
%TO.P,K11,2*%
%TO.N,GND*%
X109241000Y-88920000D03*
D10*
X118941000Y-80479999D03*
%TD*%
D13*
%TO.P,K10,1*%
%TO.N,/k10*%
X87031000Y-77864000D03*
D12*
X100831000Y-86644000D03*
D11*
%TO.P,K10,2*%
%TO.N,GND*%
X89931000Y-88844000D03*
D10*
X99631000Y-80403999D03*
%TD*%
%TO.P,K05,2*%
%TO.N,GND*%
X196876000Y-49279999D03*
D11*
X187176000Y-57720000D03*
D12*
%TO.P,K05,1*%
%TO.N,/k05*%
X198076000Y-55520000D03*
D13*
X184276000Y-46740000D03*
%TD*%
D10*
%TO.P,K04,2*%
%TO.N,GND*%
X177300000Y-48179999D03*
D11*
X167600000Y-56620000D03*
D12*
%TO.P,K04,1*%
%TO.N,/k04*%
X178500000Y-54420000D03*
D13*
X164700000Y-45640000D03*
%TD*%
D10*
%TO.P,K02,2*%
%TO.N,GND*%
X138212000Y-48589999D03*
D11*
X128512000Y-57030000D03*
D12*
%TO.P,K02,1*%
%TO.N,/k02*%
X139412000Y-54830000D03*
D13*
X125612000Y-46050000D03*
%TD*%
D10*
%TO.P,K01,2*%
%TO.N,GND*%
X118813000Y-60925999D03*
D11*
X109113000Y-69366000D03*
D12*
%TO.P,K01,1*%
%TO.N,/k01*%
X120013000Y-67166000D03*
D13*
X106213000Y-58386000D03*
%TD*%
D10*
%TO.P,K00,2*%
%TO.N,GND*%
X99503000Y-60849999D03*
D11*
X89803000Y-69290000D03*
D12*
%TO.P,K00,1*%
%TO.N,/k00*%
X100703000Y-67090000D03*
D13*
X86903000Y-58310000D03*
%TD*%
D26*
%TO.P,J1,4,RING2*%
%TO.N,/TX*%
X225580000Y-102444000D03*
X222580000Y-109144000D03*
%TO.P,J1,3,RING1*%
%TO.N,/RX*%
X222580000Y-102444000D03*
X225580000Y-109144000D03*
%TO.P,J1,2,TIP*%
%TO.N,GND*%
X218580000Y-102444000D03*
X218580000Y-109144000D03*
%TO.P,J1,1,SLEEVE*%
%TO.N,+3V3*%
X217480000Y-107044000D03*
X217480000Y-104544000D03*
%TD*%
D27*
%TO.P,U1,40,5V*%
%TO.N,unconnected-(U1-5V-Pad40)*%
X221000000Y-47380000D03*
X208420000Y-47360000D03*
%TO.P,U1,39,GND*%
%TO.N,GND*%
X221000000Y-49920000D03*
X208420000Y-49900000D03*
%TO.P,U1,38,3V3*%
%TO.N,+3V3*%
X221000000Y-52460000D03*
X208420000Y-52440000D03*
%TO.P,U1,37,PB10*%
%TO.N,/k01*%
X208420000Y-54980000D03*
X221000000Y-55000000D03*
%TO.P,U1,36,PB2*%
%TO.N,unconnected-(U1-PB2-Pad36)*%
X221000000Y-57540000D03*
X208420000Y-57520000D03*
%TO.P,U1,35,PB1*%
%TO.N,/k00*%
X208420000Y-60060000D03*
X221000000Y-60080000D03*
%TO.P,U1,34,PB0*%
%TO.N,/k25*%
X208420000Y-62600000D03*
X221000000Y-62620000D03*
%TO.P,U1,33,PA7*%
%TO.N,/k24*%
X221000000Y-65160000D03*
X208420000Y-65140000D03*
%TO.P,U1,32,PA6*%
%TO.N,/k23*%
X221000000Y-67700000D03*
X208420000Y-67680000D03*
%TO.P,U1,31,PA5*%
%TO.N,/k22*%
X208420000Y-70220000D03*
X221000000Y-70240000D03*
%TO.P,U1,30,PA4*%
%TO.N,/k21*%
X221000000Y-72780000D03*
X208420000Y-72760000D03*
%TO.P,U1,29,PA3*%
%TO.N,/k20*%
X221000000Y-75320000D03*
X208420000Y-75300000D03*
%TO.P,U1,28,PA2*%
%TO.N,/k30*%
X208420000Y-77840000D03*
X221000000Y-77860000D03*
%TO.P,U1,27,PA1*%
%TO.N,/k31*%
X208420000Y-80380000D03*
X221000000Y-80400000D03*
%TO.P,U1,26,PA0*%
%TO.N,/k32*%
X208420000Y-82920000D03*
X221000000Y-82940000D03*
%TO.P,U1,25,RES*%
%TO.N,unconnected-(U1-RES-Pad25)*%
X208420000Y-85460000D03*
X221000000Y-85480000D03*
%TO.P,U1,24,PC15*%
%TO.N,unconnected-(U1-PC15-Pad24)*%
X208420000Y-88000000D03*
X221000000Y-88020000D03*
%TO.P,U1,23,PC14*%
%TO.N,unconnected-(U1-PC14-Pad23)*%
X221000000Y-90560000D03*
X208420000Y-90540000D03*
%TO.P,U1,22,PC13*%
%TO.N,unconnected-(U1-PC13-Pad22)*%
X221000000Y-93100000D03*
X208420000Y-93080000D03*
%TO.P,U1,21,VBat*%
%TO.N,unconnected-(U1-VBat-Pad21)*%
X208420000Y-95620000D03*
X221000000Y-95640000D03*
%TO.P,U1,20,3V3*%
%TO.N,+3V3*%
X205760000Y-95640000D03*
X223660000Y-95620000D03*
%TO.P,U1,19,GND*%
%TO.N,GND*%
X205760000Y-93100000D03*
X223660000Y-93080000D03*
%TO.P,U1,18,5V*%
%TO.N,unconnected-(U1-5V-Pad18)*%
X223660000Y-90540000D03*
X205760000Y-90560000D03*
%TO.P,U1,17,PB9*%
%TO.N,/k10*%
X205760000Y-88020000D03*
X223660000Y-88000000D03*
%TO.P,U1,16,PB8*%
%TO.N,/k11*%
X205760000Y-85480000D03*
X223660000Y-85460000D03*
%TO.P,U1,15,PB7*%
%TO.N,/RX*%
X223660000Y-82920000D03*
X205760000Y-82940000D03*
%TO.P,U1,14,PB6*%
%TO.N,/TX*%
X223660000Y-80380000D03*
X205760000Y-80400000D03*
%TO.P,U1,13,PB5*%
%TO.N,/k12*%
X205760000Y-77860000D03*
X223660000Y-77840000D03*
%TO.P,U1,12,PB4*%
%TO.N,/k13*%
X223660000Y-75300000D03*
X205760000Y-75320000D03*
%TO.P,U1,11,PB3*%
%TO.N,/k14*%
X223660000Y-72760000D03*
X205760000Y-72780000D03*
%TO.P,U1,10,PA15*%
%TO.N,/k15*%
X205760000Y-70240000D03*
X223660000Y-70220000D03*
%TO.P,U1,9,PA12*%
%TO.N,unconnected-(U1-PA12-Pad9)*%
X223660000Y-67680000D03*
X205760000Y-67700000D03*
%TO.P,U1,8,PA11*%
%TO.N,unconnected-(U1-PA11-Pad8)*%
X205760000Y-65160000D03*
X223660000Y-65140000D03*
%TO.P,U1,7,PA10*%
%TO.N,unconnected-(U1-PA10-Pad7)*%
X205760000Y-62620000D03*
X223660000Y-62600000D03*
%TO.P,U1,6,PA9*%
%TO.N,unconnected-(U1-PA9-Pad6)*%
X205760000Y-60080000D03*
X223660000Y-60060000D03*
%TO.P,U1,5,PA8*%
%TO.N,/k02*%
X223660000Y-57520000D03*
X205760000Y-57540000D03*
%TO.P,U1,4,PB15*%
%TO.N,/k03*%
X205760000Y-55000000D03*
X223660000Y-54980000D03*
%TO.P,U1,3,PB14*%
%TO.N,/k04*%
X223660000Y-52440000D03*
X205760000Y-52460000D03*
%TO.P,U1,2,PB13*%
%TO.N,/k05*%
X205760000Y-49920000D03*
X223660000Y-49900000D03*
D28*
%TO.P,U1,1,PB12*%
%TO.N,unconnected-(U1-PB12-Pad1)*%
X223660000Y-47360000D03*
X205760000Y-47380000D03*
%TD*%
D29*
%TO.N,/k32*%
X204512000Y-110086000D03*
%TO.N,/k31*%
X181988000Y-106494000D03*
%TO.N,/k30*%
X157760000Y-107598000D03*
%TO.N,/k25*%
X182419000Y-85760300D03*
%TO.N,/k24*%
X162826000Y-84564000D03*
X197157000Y-83587100D03*
%TO.N,/k23*%
X145092000Y-78005100D03*
X159484000Y-66529300D03*
%TO.N,/k22*%
X123476000Y-85364100D03*
X196292000Y-82485600D03*
%TO.N,/k21*%
X103923000Y-97422100D03*
X209783000Y-94350000D03*
%TO.N,/k20*%
X85039800Y-97384100D03*
X204800000Y-101494000D03*
%TO.N,/k15*%
X182455000Y-66207300D03*
%TO.N,/k14*%
X162813000Y-65657300D03*
%TO.N,/k13*%
X143512000Y-64842800D03*
X200275000Y-80805200D03*
X143261000Y-75559900D03*
%TO.N,/k12*%
X123088000Y-75997400D03*
%TO.N,/k11*%
X105125000Y-84155500D03*
%TO.N,/k10*%
X85210100Y-77965700D03*
%TO.N,/k04*%
X162749000Y-46063600D03*
%TO.N,/k03*%
X142114000Y-40894000D03*
%TO.N,/k02*%
X123499000Y-46268600D03*
%TO.N,/k01*%
X102399000Y-58260100D03*
X199062000Y-62623100D03*
%TO.N,/k00*%
X85084200Y-58310000D03*
X202901000Y-61480900D03*
%TO.N,GND*%
X220054000Y-94319000D03*
X219121000Y-105481000D03*
X100252000Y-78164700D03*
X89931000Y-90471600D03*
X120798000Y-80480000D03*
X113877000Y-86502800D03*
X140193000Y-68144000D03*
X159786000Y-62896300D03*
X152890000Y-69305200D03*
X178034000Y-65844700D03*
X167728000Y-77814900D03*
X197631000Y-66438700D03*
X191850000Y-74578400D03*
X174000000Y-106142000D03*
X169601000Y-115922000D03*
X219026000Y-117841000D03*
X209541000Y-122204000D03*
X198044000Y-111846000D03*
X189527000Y-116484000D03*
X89803000Y-70904500D03*
X97102700Y-70989600D03*
X100135000Y-58920700D03*
X102427000Y-70989600D03*
X109113000Y-71419900D03*
X128640000Y-78192000D03*
X120671000Y-60926000D03*
X119489000Y-57782700D03*
X132876000Y-54951700D03*
X138853000Y-46709000D03*
X167600000Y-58258500D03*
X160065000Y-58258500D03*
X177910000Y-45813700D03*
X179603000Y-57720000D03*
X191420000Y-55314300D03*
X197486000Y-47424400D03*
X89757000Y-109823000D03*
X94858000Y-110676000D03*
X100065000Y-97384100D03*
X98257000Y-90583500D03*
X109067000Y-109898000D03*
X98247400Y-110085000D03*
X119173000Y-101761000D03*
X134092000Y-98048100D03*
X120255000Y-97233200D03*
X138785000Y-85319100D03*
X140193000Y-71456000D03*
X153144000Y-88670600D03*
X159594000Y-82358000D03*
X173419000Y-97513600D03*
X177895000Y-85240600D03*
X163119000Y-77814900D03*
X191351000Y-94363200D03*
X197690000Y-85739400D03*
X195803000Y-78989200D03*
X154953000Y-54323800D03*
X158396000Y-41575200D03*
X216828000Y-122167000D03*
X202676000Y-47543800D03*
X177366000Y-97513600D03*
X180984000Y-98518700D03*
X197703000Y-122721000D03*
X195780000Y-97640300D03*
X194303000Y-97325700D03*
%TD*%
D30*
%TO.N,unconnected-(U1-5V-Pad40)*%
X220980000Y-47360000D02*
X221000000Y-47380000D01*
X208420000Y-47360000D02*
X220980000Y-47360000D01*
%TO.N,unconnected-(U1-PB2-Pad36)*%
X220980000Y-57520000D02*
X221000000Y-57540000D01*
X208420000Y-57520000D02*
X220980000Y-57520000D01*
%TO.N,unconnected-(U1-RES-Pad25)*%
X208440000Y-85480000D02*
X208420000Y-85460000D01*
X221000000Y-85480000D02*
X208440000Y-85480000D01*
%TO.N,unconnected-(U1-PC15-Pad24)*%
X208440000Y-88020000D02*
X208420000Y-88000000D01*
X221000000Y-88020000D02*
X208440000Y-88020000D01*
%TO.N,unconnected-(U1-PC14-Pad23)*%
X220980000Y-90540000D02*
X221000000Y-90560000D01*
X208420000Y-90540000D02*
X220980000Y-90540000D01*
%TO.N,unconnected-(U1-PC13-Pad22)*%
X220980000Y-93080000D02*
X221000000Y-93100000D01*
X208420000Y-93080000D02*
X220980000Y-93080000D01*
%TO.N,unconnected-(U1-VBat-Pad21)*%
X208440000Y-95640000D02*
X208420000Y-95620000D01*
X221000000Y-95640000D02*
X208440000Y-95640000D01*
%TO.N,unconnected-(U1-5V-Pad18)*%
X222449400Y-91750600D02*
X223660000Y-90540000D01*
X206950600Y-91750600D02*
X222449400Y-91750600D01*
X205760000Y-90560000D02*
X206950600Y-91750600D01*
%TO.N,unconnected-(U1-PA12-Pad9)*%
X222449000Y-68890600D02*
X223660000Y-67680000D01*
X206951000Y-68890600D02*
X222449000Y-68890600D01*
X205760000Y-67700000D02*
X206951000Y-68890600D01*
%TO.N,unconnected-(U1-PA11-Pad8)*%
X207010000Y-66410000D02*
X205760000Y-65160000D01*
X222390000Y-66410000D02*
X207010000Y-66410000D01*
X223660000Y-65140000D02*
X222390000Y-66410000D01*
%TO.N,unconnected-(U1-PA10-Pad7)*%
X207010000Y-63870000D02*
X205760000Y-62620000D01*
X222390000Y-63870000D02*
X207010000Y-63870000D01*
X223660000Y-62600000D02*
X222390000Y-63870000D01*
%TO.N,unconnected-(U1-PA9-Pad6)*%
X222456000Y-61264000D02*
X223660000Y-60060000D01*
X206944000Y-61264000D02*
X222456000Y-61264000D01*
X205760000Y-60080000D02*
X206944000Y-61264000D01*
%TO.N,unconnected-(U1-PB12-Pad1)*%
X206937000Y-47380000D02*
X205760000Y-47380000D01*
X206937000Y-47600700D02*
X206937000Y-47380000D01*
X207907000Y-48570600D02*
X206937000Y-47600700D01*
X221493000Y-48570600D02*
X207907000Y-48570600D01*
X222483000Y-47580700D02*
X221493000Y-48570600D01*
X222483000Y-47360000D02*
X222483000Y-47580700D01*
X223660000Y-47360000D02*
X222483000Y-47360000D01*
%TO.N,/k32*%
X208440000Y-82940000D02*
X208420000Y-82920000D01*
X221000000Y-82940000D02*
X208440000Y-82940000D01*
X205821000Y-110086000D02*
X206966000Y-111230000D01*
X204512000Y-110086000D02*
X205821000Y-110086000D01*
X206482000Y-112267000D02*
X206966000Y-111230000D01*
X206482000Y-112267000D02*
X206482000Y-112267100D01*
X215278300Y-126056600D02*
X215278200Y-126056500D01*
X215278500Y-126056600D02*
X215278300Y-126056600D01*
X216043000Y-124416000D02*
X215278200Y-126056500D01*
X219782000Y-120678000D02*
X216043000Y-124416000D01*
X219782000Y-117522000D02*
X219782000Y-120678000D01*
X213758000Y-111498000D02*
X219782000Y-117522000D01*
X208481000Y-111498000D02*
X213758000Y-111498000D01*
X207362000Y-110380000D02*
X208481000Y-111498000D01*
X206966000Y-111230000D02*
X207362000Y-110380000D01*
X215278200Y-126056500D02*
X215278000Y-126057000D01*
%TO.N,/k31*%
X208440000Y-80400000D02*
X208420000Y-80380000D01*
X221000000Y-80400000D02*
X208440000Y-80400000D01*
X182899000Y-107404000D02*
X181988000Y-106494000D01*
X196084100Y-117800300D02*
X196084000Y-117800200D01*
X196084400Y-117800300D02*
X196084100Y-117800300D01*
X196084000Y-117800000D02*
X196084000Y-117800200D01*
X182899000Y-107878000D02*
X182899000Y-107404000D01*
X181778000Y-108998000D02*
X182899000Y-107878000D01*
X181778000Y-112412000D02*
X181778000Y-108998000D01*
X182751000Y-113385000D02*
X181778000Y-112412000D01*
X185110000Y-113385000D02*
X182751000Y-113385000D01*
X187306000Y-115582000D02*
X185110000Y-113385000D01*
X189706000Y-115582000D02*
X187306000Y-115582000D01*
X190382000Y-116257000D02*
X189706000Y-115582000D01*
X190382000Y-117550000D02*
X190382000Y-116257000D01*
X192178000Y-119347000D02*
X190382000Y-117550000D01*
X194538000Y-119347000D02*
X192178000Y-119347000D01*
X194547000Y-119338000D02*
X194538000Y-119347000D01*
X195813000Y-119338000D02*
X194547000Y-119338000D01*
X196084000Y-117800200D02*
X195813000Y-119338000D01*
X184018700Y-106757400D02*
X184018700Y-106757300D01*
X183372000Y-107404000D02*
X184018700Y-106757300D01*
X182899000Y-107404000D02*
X183372000Y-107404000D01*
X184018700Y-106757300D02*
X184019000Y-106757000D01*
%TO.N,/k30*%
X208440000Y-77860000D02*
X208420000Y-77840000D01*
X221000000Y-77860000D02*
X208440000Y-77860000D01*
X160725000Y-107598000D02*
X157760000Y-107598000D01*
X175112000Y-113759000D02*
X175238000Y-115196000D01*
X175238000Y-113633000D02*
X175112000Y-113759000D01*
X175238000Y-106271000D02*
X175238000Y-113633000D01*
X173758000Y-104791000D02*
X175238000Y-106271000D01*
X163478000Y-104791000D02*
X173758000Y-104791000D01*
X160725000Y-107544000D02*
X163478000Y-104791000D01*
X160725000Y-107598000D02*
X160725000Y-107544000D01*
X160725000Y-107598000D02*
X160725000Y-107625500D01*
X160725000Y-107625500D02*
X160725000Y-107653000D01*
X160725300Y-107625800D02*
X160725300Y-107652600D01*
X160725000Y-107625500D02*
X160725300Y-107625800D01*
X175238000Y-115196400D02*
X175238000Y-115196000D01*
X175238100Y-115196500D02*
X175238000Y-115196400D01*
%TO.N,/k25*%
X208440000Y-62620000D02*
X208420000Y-62600000D01*
X221000000Y-62620000D02*
X208440000Y-62620000D01*
X182607000Y-91103100D02*
X182607000Y-85760300D01*
X183823000Y-92319100D02*
X182607000Y-91103100D01*
X187027000Y-92319100D02*
X183823000Y-92319100D01*
X188029000Y-93321000D02*
X187027000Y-92319100D01*
X191336000Y-93321000D02*
X188029000Y-93321000D01*
X192078000Y-94062100D02*
X191336000Y-93321000D01*
X192078000Y-94528600D02*
X192078000Y-94062100D01*
X194070000Y-96520900D02*
X192078000Y-94528600D01*
X195790000Y-96520900D02*
X194070000Y-96520900D01*
X197867000Y-94444100D02*
X195790000Y-96520900D01*
X197867000Y-94444000D02*
X197867000Y-94444100D01*
X198030000Y-94444000D02*
X197867000Y-94444000D01*
X182703000Y-85664000D02*
X182607000Y-85760300D01*
X184230000Y-85664000D02*
X182703000Y-85664000D01*
X182607000Y-85760300D02*
X182419000Y-85760300D01*
%TO.N,/k24*%
X220980000Y-65140000D02*
X221000000Y-65160000D01*
X208420000Y-65140000D02*
X220980000Y-65140000D01*
X163127000Y-84564000D02*
X162826000Y-84564000D01*
X163127000Y-90096200D02*
X163127000Y-84564000D01*
X164250000Y-91219100D02*
X163127000Y-90096200D01*
X167451000Y-91219100D02*
X164250000Y-91219100D01*
X168453000Y-92220900D02*
X167451000Y-91219100D01*
X171294000Y-92220900D02*
X168453000Y-92220900D01*
X171294000Y-92221000D02*
X171294000Y-92220900D01*
X174494000Y-95420900D02*
X171294000Y-92221000D01*
X176214000Y-95420900D02*
X174494000Y-95420900D01*
X178291000Y-93344100D02*
X176214000Y-95420900D01*
X178291000Y-93344000D02*
X178291000Y-93344100D01*
X178454000Y-93344000D02*
X178291000Y-93344000D01*
X164654000Y-84564000D02*
X163127000Y-84564000D01*
X183394000Y-83587100D02*
X197157000Y-83587100D01*
X179781000Y-87199800D02*
X183394000Y-83587100D01*
X179781000Y-90690200D02*
X179781000Y-87199800D01*
X178454000Y-92017100D02*
X179781000Y-90690200D01*
X178454000Y-93344000D02*
X178454000Y-92017100D01*
%TO.N,/k23*%
X220980000Y-67680000D02*
X221000000Y-67700000D01*
X208420000Y-67680000D02*
X220980000Y-67680000D01*
X145130000Y-78042600D02*
X145092000Y-78005100D01*
X145130000Y-79818000D02*
X145130000Y-78042600D01*
X158930000Y-87271100D02*
X158930000Y-88598000D01*
X160358000Y-85842800D02*
X158930000Y-87271100D01*
X160358000Y-82017900D02*
X160358000Y-85842800D01*
X156005000Y-77664300D02*
X160358000Y-82017900D01*
X145433000Y-77664300D02*
X156005000Y-77664300D01*
X145092000Y-78005100D02*
X145433000Y-77664300D01*
X207523000Y-67680000D02*
X208420000Y-67680000D01*
X206366000Y-66523100D02*
X207523000Y-67680000D01*
X204070000Y-66523100D02*
X206366000Y-66523100D01*
X199426000Y-61878800D02*
X204070000Y-66523100D01*
X164135000Y-61878800D02*
X199426000Y-61878800D01*
X159484000Y-66529300D02*
X164135000Y-61878800D01*
%TO.N,/k22*%
X208440000Y-70240000D02*
X208420000Y-70220000D01*
X221000000Y-70240000D02*
X208440000Y-70240000D01*
X139203000Y-93754000D02*
X139366000Y-93754000D01*
X139203000Y-93754100D02*
X139203000Y-93754000D01*
X137126000Y-95830900D02*
X139203000Y-93754100D01*
X135406000Y-95830900D02*
X137126000Y-95830900D01*
X132206000Y-92631000D02*
X135406000Y-95830900D01*
X132206000Y-92630900D02*
X132206000Y-92631000D01*
X129365000Y-92630900D02*
X132206000Y-92630900D01*
X128363000Y-91629100D02*
X129365000Y-92630900D01*
X125161000Y-91629100D02*
X128363000Y-91629100D01*
X123649000Y-90117400D02*
X125161000Y-91629100D01*
X123649000Y-85364100D02*
X123649000Y-90117400D01*
X163804000Y-82485600D02*
X196292000Y-82485600D01*
X160898000Y-85392200D02*
X163804000Y-82485600D01*
X160898000Y-89132100D02*
X160898000Y-85392200D01*
X156276000Y-93754000D02*
X160898000Y-89132100D01*
X139366000Y-93754000D02*
X156276000Y-93754000D01*
X123476000Y-85364100D02*
X123649000Y-85364100D01*
X124039000Y-84974000D02*
X125566000Y-84974000D01*
X123649000Y-85364100D02*
X124039000Y-84974000D01*
%TO.N,/k21*%
X220980000Y-72760000D02*
X221000000Y-72780000D01*
X208420000Y-72760000D02*
X220980000Y-72760000D01*
X104640000Y-97310000D02*
X105404000Y-97310000D01*
X104528000Y-97422100D02*
X104640000Y-97310000D01*
X103923000Y-97422100D02*
X104528000Y-97422100D01*
X208024000Y-94350000D02*
X209783000Y-94350000D01*
X206937000Y-95437000D02*
X208024000Y-94350000D01*
X206937000Y-96139200D02*
X206937000Y-95437000D01*
X204301000Y-98775300D02*
X206937000Y-96139200D01*
X181756000Y-98775300D02*
X204301000Y-98775300D01*
X181756000Y-98775400D02*
X181756000Y-98775300D01*
X181286000Y-99245600D02*
X181756000Y-98775400D01*
X120346000Y-99245600D02*
X181286000Y-99245600D01*
X120346000Y-98418200D02*
X120346000Y-99245600D01*
X117154000Y-95225200D02*
X120346000Y-98418200D01*
X107488000Y-95225200D02*
X117154000Y-95225200D01*
X105404000Y-97310000D02*
X107488000Y-95225200D01*
X119967000Y-104763000D02*
X119967000Y-106090000D01*
X120346000Y-104384000D02*
X119967000Y-104763000D01*
X120346000Y-99245600D02*
X120346000Y-104384000D01*
X106167000Y-97310000D02*
X105404000Y-97310000D01*
%TO.N,/k20*%
X220980000Y-75300000D02*
X221000000Y-75320000D01*
X208420000Y-75300000D02*
X220980000Y-75300000D01*
X85330100Y-97234000D02*
X86857000Y-97234000D01*
X85180000Y-97384100D02*
X85330100Y-97234000D01*
X85039800Y-97384100D02*
X85180000Y-97384100D01*
X98576600Y-108094000D02*
X100657000Y-106014000D01*
X96471000Y-108094000D02*
X98576600Y-108094000D01*
X94395200Y-106019000D02*
X96471000Y-108094000D01*
X91783400Y-106019000D02*
X94395200Y-106019000D01*
X89653900Y-103889000D02*
X91783400Y-106019000D01*
X86472200Y-103889000D02*
X89653900Y-103889000D01*
X85039800Y-102457000D02*
X86472200Y-103889000D01*
X85039800Y-97384100D02*
X85039800Y-102457000D01*
X101984000Y-106014000D02*
X100657000Y-106014000D01*
X104033000Y-103965000D02*
X101984000Y-106014000D01*
X108964000Y-103965000D02*
X104033000Y-103965000D01*
X111093000Y-106095000D02*
X108964000Y-103965000D01*
X113705000Y-106095000D02*
X111093000Y-106095000D01*
X115781000Y-108170000D02*
X113705000Y-106095000D01*
X138434000Y-108170000D02*
X115781000Y-108170000D01*
X145110000Y-101494000D02*
X138434000Y-108170000D01*
X204800000Y-101494000D02*
X145110000Y-101494000D01*
%TO.N,/k15*%
X205760000Y-71190100D02*
X205760000Y-70240000D01*
X222448000Y-71432100D02*
X223660000Y-70220000D01*
X206002000Y-71432100D02*
X222448000Y-71432100D01*
X205760000Y-71190100D02*
X206002000Y-71432100D01*
X203415000Y-71190100D02*
X205760000Y-71190100D01*
X199531000Y-75074000D02*
X203415000Y-71190100D01*
X198204000Y-75074000D02*
X199531000Y-75074000D01*
X199737000Y-64217100D02*
X205760000Y-70240000D01*
X186481000Y-64217100D02*
X199737000Y-64217100D01*
X184404000Y-66294000D02*
X186481000Y-64217100D01*
X182790000Y-66207300D02*
X182455000Y-66207300D01*
X182877000Y-66294000D02*
X182790000Y-66207300D01*
X184404000Y-66294000D02*
X182877000Y-66294000D01*
%TO.N,/k14*%
X205760000Y-73218900D02*
X205760000Y-72780000D01*
X206512000Y-73970600D02*
X205760000Y-73218900D01*
X222449000Y-73970600D02*
X206512000Y-73970600D01*
X223660000Y-72760000D02*
X222449000Y-73970600D01*
X178628000Y-72647100D02*
X178628000Y-73974000D01*
X179005000Y-72270200D02*
X178628000Y-72647100D01*
X179005000Y-65739700D02*
X179005000Y-72270200D01*
X176379000Y-63114100D02*
X179005000Y-65739700D01*
X166908000Y-63114100D02*
X176379000Y-63114100D01*
X164828000Y-65194000D02*
X166908000Y-63114100D01*
X162838000Y-65657300D02*
X162813000Y-65657300D01*
X163301000Y-65194000D02*
X162838000Y-65657300D01*
X164828000Y-65194000D02*
X163301000Y-65194000D01*
X179955000Y-73974000D02*
X178628000Y-73974000D01*
X185727000Y-79746300D02*
X179955000Y-73974000D01*
X198473000Y-79746300D02*
X185727000Y-79746300D01*
X205000000Y-73218900D02*
X198473000Y-79746300D01*
X205760000Y-73218900D02*
X205000000Y-73218900D01*
%TO.N,/k13*%
X206948000Y-76507700D02*
X205760000Y-75320000D01*
X222452000Y-76507700D02*
X206948000Y-76507700D01*
X223660000Y-75300000D02*
X222452000Y-76507700D01*
X143967000Y-64842800D02*
X143512000Y-64842800D01*
X143967000Y-61784600D02*
X145304000Y-60448000D01*
X143967000Y-64842800D02*
X143967000Y-61784600D01*
X143967000Y-66171200D02*
X143967000Y-64842800D01*
X144899000Y-67103100D02*
X143967000Y-66171200D01*
X148101000Y-67103100D02*
X144899000Y-67103100D01*
X149138000Y-68139700D02*
X148101000Y-67103100D01*
X154155000Y-68139700D02*
X149138000Y-68139700D01*
X155144000Y-67151100D02*
X154155000Y-68139700D01*
X157027000Y-67151100D02*
X155144000Y-67151100D01*
X159104000Y-69228000D02*
X157027000Y-67151100D01*
X164266000Y-80805200D02*
X200275000Y-80805200D01*
X159021000Y-75559900D02*
X164266000Y-80805200D01*
X143261000Y-75559900D02*
X159021000Y-75559900D01*
%TO.N,/k12*%
X207010000Y-79110000D02*
X205760000Y-77860000D01*
X222390000Y-79110000D02*
X207010000Y-79110000D01*
X223660000Y-77840000D02*
X222390000Y-79110000D01*
X123088000Y-74506600D02*
X123088000Y-75997400D01*
X125335000Y-72259100D02*
X123088000Y-74506600D01*
X128537000Y-72259100D02*
X125335000Y-72259100D01*
X129539000Y-73260900D02*
X128537000Y-72259100D01*
X132380000Y-73260900D02*
X129539000Y-73260900D01*
X132380000Y-73261000D02*
X132380000Y-73260900D01*
X135580000Y-76460900D02*
X132380000Y-73261000D01*
X137300000Y-76460900D02*
X135580000Y-76460900D01*
X139377000Y-74384100D02*
X137300000Y-76460900D01*
X139377000Y-74384000D02*
X139377000Y-74384100D01*
X139540000Y-74384000D02*
X139377000Y-74384000D01*
X124403000Y-66940600D02*
X125740000Y-65604000D01*
X124403000Y-71327200D02*
X124403000Y-66940600D01*
X125335000Y-72259100D02*
X124403000Y-71327200D01*
X158658000Y-74384000D02*
X139540000Y-74384000D01*
X164511000Y-80237700D02*
X158658000Y-74384000D01*
X198620000Y-80237700D02*
X164511000Y-80237700D01*
X200998000Y-77860000D02*
X198620000Y-80237700D01*
X205760000Y-77860000D02*
X200998000Y-77860000D01*
%TO.N,/k11*%
X105010000Y-84039900D02*
X105125000Y-84155500D01*
X105010000Y-79271400D02*
X105010000Y-84039900D01*
X106341000Y-77940000D02*
X105010000Y-79271400D01*
X207010000Y-86730000D02*
X205760000Y-85480000D01*
X222390000Y-86730000D02*
X207010000Y-86730000D01*
X223660000Y-85460000D02*
X222390000Y-86730000D01*
X118035000Y-84614300D02*
X120141000Y-86720000D01*
X114738000Y-84614300D02*
X118035000Y-84614300D01*
X113755000Y-85596900D02*
X114738000Y-84614300D01*
X110140000Y-85596900D02*
X113755000Y-85596900D01*
X109138000Y-84595100D02*
X110140000Y-85596900D01*
X105565000Y-84595100D02*
X109138000Y-84595100D01*
X105125000Y-84155500D02*
X105565000Y-84595100D01*
X202728000Y-85480000D02*
X205760000Y-85480000D01*
X198505000Y-81257100D02*
X202728000Y-85480000D01*
X163854000Y-81257100D02*
X198505000Y-81257100D01*
X159354000Y-76757100D02*
X163854000Y-81257100D01*
X142596000Y-76757100D02*
X159354000Y-76757100D01*
X137171000Y-82182600D02*
X142596000Y-76757100D01*
X124786000Y-82182600D02*
X137171000Y-82182600D01*
X121468000Y-85500400D02*
X124786000Y-82182600D01*
X121468000Y-86720000D02*
X121468000Y-85500400D01*
X120141000Y-86720000D02*
X121468000Y-86720000D01*
%TO.N,/k10*%
X86346000Y-78549000D02*
X85793400Y-78549000D01*
X87031000Y-77864000D02*
X86346000Y-78549000D01*
X85793400Y-78549000D02*
X85210100Y-77965700D01*
X206959000Y-89219300D02*
X205760000Y-88020000D01*
X222441000Y-89219300D02*
X206959000Y-89219300D01*
X223660000Y-88000000D02*
X222441000Y-89219300D01*
X96645000Y-88724400D02*
X97475000Y-88724400D01*
X94569200Y-86648600D02*
X96645000Y-88724400D01*
X91957400Y-86648600D02*
X94569200Y-86648600D01*
X89827900Y-84519100D02*
X91957400Y-86648600D01*
X86566100Y-84519100D02*
X89827900Y-84519100D01*
X85660900Y-83613900D02*
X86566100Y-84519100D01*
X85660900Y-78681500D02*
X85660900Y-83613900D01*
X85793400Y-78549000D02*
X85660900Y-78681500D01*
X98750600Y-88724400D02*
X100831000Y-86644000D01*
X97475000Y-88724400D02*
X98750600Y-88724400D01*
X204629000Y-88020000D02*
X205760000Y-88020000D01*
X198318000Y-81709000D02*
X204629000Y-88020000D01*
X163667000Y-81709000D02*
X198318000Y-81709000D01*
X159167000Y-77209000D02*
X163667000Y-81709000D01*
X144816000Y-77209000D02*
X159167000Y-77209000D01*
X139232000Y-82793400D02*
X144816000Y-77209000D01*
X124814000Y-82793400D02*
X139232000Y-82793400D01*
X122605000Y-85002000D02*
X124814000Y-82793400D01*
X122605000Y-86809000D02*
X122605000Y-85002000D01*
X118087000Y-91327600D02*
X122605000Y-86809000D01*
X97941800Y-91327600D02*
X118087000Y-91327600D01*
X97475000Y-90860800D02*
X97941800Y-91327600D01*
X97475000Y-88724400D02*
X97475000Y-90860800D01*
%TO.N,/k05*%
X207010000Y-51170000D02*
X205760000Y-49920000D01*
X222390000Y-51170000D02*
X207010000Y-51170000D01*
X223660000Y-49900000D02*
X222390000Y-51170000D01*
X205003000Y-49920000D02*
X205760000Y-49920000D01*
X199403000Y-55520000D02*
X205003000Y-49920000D01*
X198076000Y-55520000D02*
X199403000Y-55520000D01*
X186378000Y-44637800D02*
X184276000Y-46740000D01*
X200798000Y-44637800D02*
X186378000Y-44637800D01*
X205760000Y-49600100D02*
X200798000Y-44637800D01*
X205760000Y-49920000D02*
X205760000Y-49600100D01*
%TO.N,/k04*%
X163173000Y-45640000D02*
X163937000Y-45640000D01*
X162750000Y-46063600D02*
X163173000Y-45640000D01*
X162749000Y-46063600D02*
X162750000Y-46063600D01*
X205760000Y-52898900D02*
X205760000Y-52460000D01*
X206512000Y-53650600D02*
X205760000Y-52898900D01*
X222449000Y-53650600D02*
X206512000Y-53650600D01*
X223660000Y-52440000D02*
X222449000Y-53650600D01*
X166056000Y-43520100D02*
X163937000Y-45640000D01*
X176693000Y-43520100D02*
X166056000Y-43520100D01*
X178877000Y-45703700D02*
X176693000Y-43520100D01*
X178877000Y-52716200D02*
X178877000Y-45703700D01*
X178500000Y-53093100D02*
X178877000Y-52716200D01*
X178500000Y-54420000D02*
X178500000Y-53093100D01*
X178500000Y-57679400D02*
X178500000Y-54420000D01*
X180665000Y-59844300D02*
X178500000Y-57679400D01*
X198815000Y-59844300D02*
X180665000Y-59844300D01*
X205760000Y-52898900D02*
X198815000Y-59844300D01*
X164700000Y-45640000D02*
X163937000Y-45640000D01*
%TO.N,/k03*%
X205760000Y-55438900D02*
X205760000Y-55000000D01*
X206520000Y-56199300D02*
X205760000Y-55438900D01*
X222441000Y-56199300D02*
X206520000Y-56199300D01*
X223660000Y-54980000D02*
X222441000Y-56199300D01*
X145176000Y-40894000D02*
X143649000Y-40894000D01*
X143649000Y-40894000D02*
X142114000Y-40894000D01*
X143649000Y-46453600D02*
X143649000Y-40894000D01*
X144745000Y-47549100D02*
X143649000Y-46453600D01*
X147973000Y-47549100D02*
X144745000Y-47549100D01*
X148975000Y-48550900D02*
X147973000Y-47549100D01*
X151816000Y-48550900D02*
X148975000Y-48550900D01*
X151816000Y-48551000D02*
X151816000Y-48550900D01*
X155016000Y-51750900D02*
X151816000Y-48551000D01*
X156736000Y-51750900D02*
X155016000Y-51750900D01*
X158813000Y-49674100D02*
X156736000Y-51750900D01*
X158813000Y-49674000D02*
X158813000Y-49674100D01*
X158976000Y-49674000D02*
X158813000Y-49674000D01*
X160303000Y-49674000D02*
X158976000Y-49674000D01*
X162924000Y-52295000D02*
X160303000Y-49674000D01*
X167497000Y-52295000D02*
X162924000Y-52295000D01*
X169626000Y-54424600D02*
X167497000Y-52295000D01*
X171277000Y-54424600D02*
X169626000Y-54424600D01*
X177149000Y-60296200D02*
X171277000Y-54424600D01*
X200903000Y-60296200D02*
X177149000Y-60296200D01*
X205760000Y-55438900D02*
X200903000Y-60296200D01*
%TO.N,/k02*%
X206951000Y-58730600D02*
X205760000Y-57540000D01*
X222449000Y-58730600D02*
X206951000Y-58730600D01*
X223660000Y-57520000D02*
X222449000Y-58730600D01*
X123866000Y-51376200D02*
X123866000Y-46268600D01*
X125195000Y-52705100D02*
X123866000Y-51376200D01*
X128409000Y-52705100D02*
X125195000Y-52705100D01*
X129411000Y-53707000D02*
X128409000Y-52705100D01*
X132660000Y-53707000D02*
X129411000Y-53707000D01*
X133763000Y-54810900D02*
X132660000Y-53707000D01*
X133763000Y-55218500D02*
X133763000Y-54810900D01*
X135452000Y-56906900D02*
X133763000Y-55218500D01*
X137172000Y-56906900D02*
X135452000Y-56906900D01*
X139249000Y-54830100D02*
X137172000Y-56906900D01*
X139249000Y-54830000D02*
X139249000Y-54830100D01*
X139412000Y-54830000D02*
X139249000Y-54830000D01*
X153387000Y-54830000D02*
X139412000Y-54830000D01*
X159307000Y-60749600D02*
X153387000Y-54830000D01*
X202550000Y-60749600D02*
X159307000Y-60749600D01*
X205760000Y-57540000D02*
X202550000Y-60749600D01*
X123499000Y-46268600D02*
X123866000Y-46268600D01*
X124085000Y-46050000D02*
X125612000Y-46050000D01*
X123866000Y-46268600D02*
X124085000Y-46050000D01*
%TO.N,/k01*%
X208440000Y-55000000D02*
X208420000Y-54980000D01*
X221000000Y-55000000D02*
X208440000Y-55000000D01*
X104686000Y-58386000D02*
X105450000Y-58386000D01*
X104560000Y-58260100D02*
X104686000Y-58386000D01*
X102399000Y-58260100D02*
X104560000Y-58260100D01*
X121432000Y-60501100D02*
X121432000Y-63475200D01*
X120280000Y-59349100D02*
X121432000Y-60501100D01*
X118633000Y-59349100D02*
X120280000Y-59349100D01*
X115582000Y-56297400D02*
X118633000Y-59349100D01*
X107538000Y-56297400D02*
X115582000Y-56297400D01*
X105450000Y-58386000D02*
X107538000Y-56297400D01*
X120013000Y-65839100D02*
X120013000Y-67166000D01*
X121432000Y-64420000D02*
X120013000Y-65839100D01*
X121432000Y-63475200D02*
X121432000Y-64420000D01*
X164513000Y-62623100D02*
X199062000Y-62623100D01*
X161396000Y-65740200D02*
X164513000Y-62623100D01*
X161396000Y-69424100D02*
X161396000Y-65740200D01*
X157281000Y-73539300D02*
X161396000Y-69424100D01*
X141229000Y-73539300D02*
X157281000Y-73539300D01*
X139440000Y-71750300D02*
X141229000Y-73539300D01*
X139440000Y-70737400D02*
X139440000Y-71750300D01*
X140944000Y-69233300D02*
X139440000Y-70737400D01*
X140944000Y-67760200D02*
X140944000Y-69233300D01*
X136659000Y-63475200D02*
X140944000Y-67760200D01*
X121432000Y-63475200D02*
X136659000Y-63475200D01*
X106213000Y-58386000D02*
X105450000Y-58386000D01*
%TO.N,/k00*%
X85084200Y-58310000D02*
X86903000Y-58310000D01*
X208440000Y-60080000D02*
X208420000Y-60060000D01*
X221000000Y-60080000D02*
X208440000Y-60080000D01*
X98622600Y-69170400D02*
X100703000Y-67090000D01*
X96517000Y-69170400D02*
X98622600Y-69170400D01*
X94441200Y-67094600D02*
X96517000Y-69170400D01*
X91829400Y-67094600D02*
X94441200Y-67094600D01*
X89699900Y-64965100D02*
X91829400Y-67094600D01*
X86425500Y-64965100D02*
X89699900Y-64965100D01*
X85084200Y-63623800D02*
X86425500Y-64965100D01*
X85084200Y-58310000D02*
X85084200Y-63623800D01*
X89371800Y-55841200D02*
X86903000Y-58310000D01*
X116518000Y-55841200D02*
X89371800Y-55841200D01*
X119539000Y-58862700D02*
X116518000Y-55841200D01*
X121071000Y-58862700D02*
X119539000Y-58862700D01*
X121367000Y-59158900D02*
X121071000Y-58862700D01*
X132410000Y-59158900D02*
X121367000Y-59158900D01*
X133207000Y-58362100D02*
X132410000Y-59158900D01*
X154395000Y-58362100D02*
X133207000Y-58362100D01*
X157443000Y-61409700D02*
X154395000Y-58362100D01*
X202830000Y-61409700D02*
X157443000Y-61409700D01*
X202901000Y-61480900D02*
X202830000Y-61409700D01*
%TO.N,/RX*%
X222449000Y-84130600D02*
X223660000Y-82920000D01*
X206951000Y-84130600D02*
X222449000Y-84130600D01*
X205760000Y-82940000D02*
X206951000Y-84130600D01*
X225580000Y-106571000D02*
X225580000Y-109144000D01*
X222580000Y-103571000D02*
X225580000Y-106571000D01*
X222580000Y-102444000D02*
X222580000Y-103571000D01*
%TO.N,/TX*%
X222449000Y-81590600D02*
X223660000Y-80380000D01*
X206951000Y-81590600D02*
X222449000Y-81590600D01*
X205760000Y-80400000D02*
X206951000Y-81590600D01*
%TO.N,+3V3*%
X220980000Y-52440000D02*
X221000000Y-52460000D01*
X208420000Y-52440000D02*
X220980000Y-52440000D01*
%TO.N,GND*%
X222421000Y-94319000D02*
X223660000Y-93080000D01*
X220054000Y-94319000D02*
X222421000Y-94319000D01*
X208440000Y-49920000D02*
X208420000Y-49900000D01*
X221000000Y-49920000D02*
X208440000Y-49920000D01*
X218580000Y-103571000D02*
X218580000Y-102444000D01*
X219121000Y-104112000D02*
X218580000Y-103571000D01*
X219121000Y-105481000D02*
X219121000Y-104112000D01*
X99631000Y-78785800D02*
X99631000Y-80404000D01*
X100252000Y-78164700D02*
X99631000Y-78785800D01*
X89931000Y-90471600D02*
X89931000Y-88844000D01*
X110331000Y-86502800D02*
X113877000Y-86502800D01*
X109241000Y-87593100D02*
X110331000Y-86502800D01*
X109241000Y-88828200D02*
X109241000Y-87593100D01*
X138340000Y-68144000D02*
X140193000Y-68144000D01*
X118941000Y-80480000D02*
X120798000Y-80480000D01*
X123517000Y-80480000D02*
X120798000Y-80480000D01*
X127413000Y-76584000D02*
X123517000Y-80480000D01*
X128640000Y-76584000D02*
X127413000Y-76584000D01*
X159481000Y-62988000D02*
X157904000Y-62988000D01*
X159573000Y-62896300D02*
X159481000Y-62988000D01*
X159786000Y-62896300D02*
X159573000Y-62896300D01*
X177428000Y-66157100D02*
X177428000Y-67734000D01*
X177721000Y-66157100D02*
X177428000Y-66157100D01*
X178034000Y-65844700D02*
X177721000Y-66157100D01*
X167728000Y-77814900D02*
X167728000Y-76174000D01*
X197004000Y-67065500D02*
X197004000Y-68834000D01*
X197631000Y-66438700D02*
X197004000Y-67065500D01*
X188673000Y-74578400D02*
X191850000Y-74578400D01*
X187304000Y-75947100D02*
X188673000Y-74578400D01*
X187304000Y-77274000D02*
X187304000Y-75947100D01*
X89803000Y-70904500D02*
X89803000Y-69290000D01*
X99782700Y-59273100D02*
X100135000Y-58920700D01*
X99503000Y-59273100D02*
X99782700Y-59273100D01*
X99503000Y-60850000D02*
X99503000Y-59273100D01*
X102427000Y-70989600D02*
X97102700Y-70989600D01*
X128640000Y-78192000D02*
X128640000Y-76584000D01*
X118813000Y-60926000D02*
X120671000Y-60926000D01*
X129263000Y-54951700D02*
X132876000Y-54951700D01*
X128512000Y-55703100D02*
X129263000Y-54951700D01*
X128512000Y-57030000D02*
X128512000Y-55703100D01*
X138548000Y-47013100D02*
X138853000Y-46709000D01*
X138212000Y-47013100D02*
X138548000Y-47013100D01*
X138212000Y-48590000D02*
X138212000Y-47013100D01*
X143073000Y-51874000D02*
X148076000Y-51874000D01*
X139789000Y-48590000D02*
X143073000Y-51874000D01*
X138212000Y-48590000D02*
X139789000Y-48590000D01*
X167600000Y-58258500D02*
X167600000Y-56620000D01*
X160065000Y-58258500D02*
X167600000Y-58258500D01*
X177300000Y-46424000D02*
X177910000Y-45813700D01*
X177300000Y-48180000D02*
X177300000Y-46424000D01*
X179603000Y-57720000D02*
X187176000Y-57720000D01*
X188255000Y-55314300D02*
X191420000Y-55314300D01*
X187176000Y-56393100D02*
X188255000Y-55314300D01*
X187176000Y-57720000D02*
X187176000Y-56393100D01*
X196876000Y-50856900D02*
X196876000Y-49280000D01*
X197040000Y-51021400D02*
X196876000Y-50856900D01*
X197040000Y-52414900D02*
X197040000Y-51021400D01*
X196060000Y-53395000D02*
X197040000Y-52414900D01*
X193339000Y-53395000D02*
X196060000Y-53395000D01*
X191420000Y-55314300D02*
X193339000Y-53395000D01*
X89757000Y-109823000D02*
X89757000Y-108214000D01*
X99457000Y-97991900D02*
X100065000Y-97384100D01*
X99457000Y-99774000D02*
X99457000Y-97991900D01*
X107486000Y-90583500D02*
X98257000Y-90583500D01*
X109241000Y-88828200D02*
X107486000Y-90583500D01*
X109067000Y-109898000D02*
X109067000Y-108290000D01*
X97656300Y-110676000D02*
X94858000Y-110676000D01*
X98247400Y-110085000D02*
X97656300Y-110676000D01*
X106045000Y-110085000D02*
X98247400Y-110085000D01*
X107840000Y-108290000D02*
X106045000Y-110085000D01*
X109067000Y-108290000D02*
X107840000Y-108290000D01*
X119101000Y-101761000D02*
X119173000Y-101761000D01*
X118767000Y-101427000D02*
X119101000Y-101761000D01*
X118767000Y-99850000D02*
X118767000Y-101427000D01*
X128466000Y-97280900D02*
X128466000Y-95954000D01*
X129233000Y-98048100D02*
X128466000Y-97280900D01*
X134092000Y-98048100D02*
X129233000Y-98048100D01*
X125960000Y-97233200D02*
X120255000Y-97233200D01*
X127239000Y-95954000D02*
X125960000Y-97233200D01*
X128466000Y-95954000D02*
X127239000Y-95954000D01*
X138167000Y-85937100D02*
X138785000Y-85319100D01*
X138166000Y-85937100D02*
X138167000Y-85937100D01*
X138166000Y-87514000D02*
X138166000Y-85937100D01*
X148204000Y-71428000D02*
X148204000Y-71303400D01*
X148051000Y-71456000D02*
X140193000Y-71456000D01*
X148204000Y-71303400D02*
X148051000Y-71456000D01*
X148030000Y-89471100D02*
X148030000Y-90798000D01*
X148830000Y-88670600D02*
X148030000Y-89471100D01*
X153144000Y-88670600D02*
X148830000Y-88670600D01*
X157730000Y-82358000D02*
X159594000Y-82358000D01*
X177608000Y-85527100D02*
X177895000Y-85240600D01*
X177254000Y-85527100D02*
X177608000Y-85527100D01*
X177254000Y-87104000D02*
X177254000Y-85527100D01*
X173249000Y-97683400D02*
X173419000Y-97513600D01*
X168366000Y-97683400D02*
X173249000Y-97683400D01*
X167554000Y-96870900D02*
X168366000Y-97683400D01*
X167554000Y-95544000D02*
X167554000Y-96870900D01*
X187130000Y-96644000D02*
X186932000Y-96644000D01*
X189213000Y-94363200D02*
X191351000Y-94363200D01*
X186932000Y-96644000D02*
X189213000Y-94363200D01*
X197690000Y-88204000D02*
X197690000Y-85739400D01*
X196830000Y-88204000D02*
X197690000Y-88204000D01*
X200864000Y-88204000D02*
X205760000Y-93100000D01*
X197690000Y-88204000D02*
X200864000Y-88204000D01*
X149199000Y-54323800D02*
X154953000Y-54323800D01*
X148076000Y-53200900D02*
X149199000Y-54323800D01*
X148076000Y-51874000D02*
X148076000Y-53200900D01*
X158114000Y-41857100D02*
X158396000Y-41575200D01*
X157776000Y-41857100D02*
X158114000Y-41857100D01*
X157776000Y-43434000D02*
X157776000Y-41857100D01*
X191850000Y-75037000D02*
X195803000Y-78989200D01*
X191850000Y-74578400D02*
X191850000Y-75037000D01*
X167728000Y-77814900D02*
X163119000Y-77814900D01*
X197327000Y-47703100D02*
X197486000Y-47543800D01*
X196876000Y-47703100D02*
X197327000Y-47703100D01*
X196876000Y-49280000D02*
X196876000Y-47703100D01*
X197486000Y-47543800D02*
X202676000Y-47543800D01*
X197486000Y-47543800D02*
X197486000Y-47424400D01*
X177366000Y-97513600D02*
X173419000Y-97513600D01*
X180984000Y-97513600D02*
X180984000Y-98518700D01*
X185034000Y-97513600D02*
X180984000Y-97513600D01*
X185903000Y-96644000D02*
X185034000Y-97513600D01*
X186932000Y-96644000D02*
X185903000Y-96644000D01*
X180984000Y-97513600D02*
X177366000Y-97513600D01*
X205587000Y-122204000D02*
X209541000Y-122204000D01*
X205220000Y-121837000D02*
X205587000Y-122204000D01*
X204470000Y-123444000D02*
X205220000Y-121837000D01*
X102858000Y-71419900D02*
X109113000Y-71419900D01*
X102427000Y-70989600D02*
X102858000Y-71419900D01*
X202920000Y-122721000D02*
X204470000Y-123444000D01*
X197703000Y-122721000D02*
X202920000Y-122721000D01*
X194618000Y-97640300D02*
X194303000Y-97325700D01*
X195780000Y-97640300D02*
X194618000Y-97640300D01*
X109172000Y-71479300D02*
X109113000Y-71419900D01*
X112754000Y-71479300D02*
X109172000Y-71479300D01*
X114002000Y-70231200D02*
X112754000Y-71479300D01*
X114002000Y-68466900D02*
X114002000Y-70231200D01*
X112780000Y-67244600D02*
X114002000Y-68466900D01*
X109908000Y-67244600D02*
X112780000Y-67244600D01*
X109113000Y-68039100D02*
X109908000Y-67244600D01*
X109113000Y-69366000D02*
X109113000Y-68039100D01*
X126532000Y-57782700D02*
X119489000Y-57782700D01*
X127285000Y-57030000D02*
X126532000Y-57782700D01*
X128512000Y-57030000D02*
X127285000Y-57030000D01*
X149000000Y-69305200D02*
X152890000Y-69305200D01*
X148204000Y-70101100D02*
X149000000Y-69305200D01*
X148204000Y-71303400D02*
X148204000Y-70101100D01*
X109241000Y-88920000D02*
X109241000Y-88828200D01*
X173349000Y-107376000D02*
X173424000Y-108230500D01*
X173499000Y-107227000D02*
X173349000Y-107376000D01*
X173499000Y-106643000D02*
X173499000Y-107227000D01*
X174000000Y-106142000D02*
X173499000Y-106643000D01*
X173424000Y-108230500D02*
X173499000Y-109085000D01*
X173498800Y-108305300D02*
X173498800Y-109084800D01*
X173424000Y-108230500D02*
X173498800Y-108305300D01*
X164571000Y-118338000D02*
X164508500Y-117623500D01*
X166594000Y-115922000D02*
X169601000Y-115922000D01*
X165606000Y-116909000D02*
X166594000Y-115922000D01*
X164446000Y-116909000D02*
X165606000Y-116909000D01*
X164508500Y-117623500D02*
X164446000Y-116909000D01*
X164571300Y-117686300D02*
X164571300Y-118338100D01*
X164508500Y-117623500D02*
X164571300Y-117686300D01*
X216828000Y-122167000D02*
X216828000Y-121030500D01*
X218881000Y-117841000D02*
X219026000Y-117841000D01*
X218777000Y-117945000D02*
X218881000Y-117841000D01*
X217737000Y-117945000D02*
X218777000Y-117945000D01*
X216828000Y-119894000D02*
X217737000Y-117945000D01*
X216828000Y-121030500D02*
X216828000Y-119894000D01*
X216828100Y-121030400D02*
X216828100Y-119894100D01*
X216828000Y-121030500D02*
X216828100Y-121030400D01*
X195986000Y-111447000D02*
X196899500Y-111608000D01*
X197890000Y-111846000D02*
X198044000Y-111846000D01*
X197813000Y-111769000D02*
X197890000Y-111846000D01*
X196899500Y-111608000D02*
X197813000Y-111769000D01*
X196147400Y-111608000D02*
X195986200Y-111446800D01*
X196899500Y-111608000D02*
X196147400Y-111608000D01*
X186559000Y-116484000D02*
X189527000Y-116484000D01*
X186488000Y-116554000D02*
X186559000Y-116484000D01*
X185236000Y-116554000D02*
X186488000Y-116554000D01*
X184968000Y-118074000D02*
X185236000Y-116554000D01*
X184968000Y-118074000D02*
X184968000Y-118074200D01*
%TD*%
M02*
