%TF.GenerationSoftware,KiCad,Pcbnew,7.0.6*%
%TF.CreationDate,2023-08-11T19:56:51+07:00*%
%TF.ProjectId,keyboard_pcb,6b657962-6f61-4726-945f-7063622e6b69,rev1.0*%
%TF.SameCoordinates,Original*%
%TF.FileFunction,Legend,Top*%
%TF.FilePolarity,Positive*%
%FSLAX46Y46*%
G04 Gerber Fmt 4.6, Leading zero omitted, Abs format (unit mm)*
G04 Created by KiCad (PCBNEW 7.0.6) date 2023-08-11 19:56:51*
%MOMM*%
%LPD*%
G01*
G04 APERTURE LIST*
%ADD10C,0.150000*%
%ADD11C,0.120000*%
G04 APERTURE END LIST*
D10*
%TO.C,K03*%
X156964999Y-41054000D02*
G75*
G03*
X154701000Y-39170001I-2073999J-190000D01*
G01*
X151076000Y-49543999D02*
G75*
G03*
X153445999Y-47374000I100000J2269999D01*
G01*
X154376000Y-52003999D02*
G75*
G03*
X153155999Y-53423999I100000J-1320001D01*
G01*
X153360999Y-45053999D02*
G75*
G03*
X151101000Y-43174001I-2069999J-190001D01*
G01*
X158151000Y-47374000D02*
X158176000Y-51973999D01*
X156976000Y-45078000D02*
X153366000Y-45078000D01*
X156976000Y-41124000D02*
X156976000Y-45069000D01*
X154376000Y-51999000D02*
X158151000Y-51999000D01*
X153451000Y-47349000D02*
X158151000Y-47349000D01*
X153156000Y-53474000D02*
X153156000Y-54174000D01*
X148601000Y-54199000D02*
X153151000Y-54199000D01*
X148601000Y-49549000D02*
X151151000Y-49549000D01*
X148576001Y-49574000D02*
X148576001Y-54174000D01*
X146076000Y-43124000D02*
X151126000Y-43170000D01*
X146076000Y-43078000D02*
X146076000Y-39170000D01*
X146076000Y-39170000D02*
X154701000Y-39170000D01*
%TO.C,K31*%
X185204425Y-105215857D02*
X193698392Y-106713572D01*
X184525808Y-109064485D02*
X185204425Y-105215857D01*
X184517820Y-109109787D02*
X189483111Y-110032011D01*
X185859810Y-115895917D02*
X185061028Y-120426033D01*
X185888770Y-115875638D02*
X188400030Y-116318441D01*
X185081306Y-120454994D02*
X189562181Y-121245093D01*
X189693000Y-120531976D02*
X189571447Y-121221341D01*
X191047114Y-114551255D02*
X195675710Y-115367401D01*
X191150597Y-119291235D02*
X194868246Y-119946757D01*
X195599521Y-109032936D02*
X194914479Y-112918003D01*
X194912916Y-112926866D02*
X191357760Y-112299996D01*
X195671369Y-115392021D02*
X194897208Y-119926477D01*
X191357003Y-112275492D02*
G75*
G03*
X189457797Y-110031609I-2071545J172338D01*
G01*
X191149729Y-119296158D02*
G75*
G03*
X189701683Y-120482734I-130735J-1317312D01*
G01*
X188327038Y-116300492D02*
G75*
G03*
X191037847Y-114575007I492662J2218147D01*
G01*
X195600844Y-108962090D02*
G75*
G03*
X193698392Y-106713572I-2075485J173033D01*
G01*
%TO.C,K32*%
X208026317Y-111085014D02*
X215843222Y-114730097D01*
X206374725Y-114626865D02*
X208026317Y-111085014D01*
X206355285Y-114668555D02*
X210912699Y-116844468D01*
X205895167Y-121570786D02*
X203951123Y-125739802D01*
X205928389Y-121558694D02*
X208239474Y-122636370D01*
X203963215Y-125773025D02*
X208086915Y-127695938D01*
X208397845Y-127040978D02*
X208102012Y-127675393D01*
X211253742Y-121614515D02*
X215513389Y-123600821D01*
X210126902Y-126219768D02*
X213548214Y-127815152D01*
X217079276Y-117462479D02*
X215412047Y-121037863D01*
X215408243Y-121046020D02*
X212136472Y-119520368D01*
X215502824Y-123623479D02*
X213581438Y-127803059D01*
X212142083Y-119496502D02*
G75*
G03*
X210888350Y-116837528I-1956354J702620D01*
G01*
X210124789Y-126224299D02*
G75*
G03*
X208418976Y-126995661I-467225J-1238589D01*
G01*
X208173615Y-122600141D02*
G75*
G03*
X211238644Y-121635060I1049974J2015055D01*
G01*
X217098889Y-117394388D02*
G75*
G03*
X215843222Y-114730097I-1959979J704312D01*
G01*
%TO.C,K30*%
X161471658Y-105856739D02*
X170063837Y-105105021D01*
X161812262Y-109749868D02*
X161471658Y-105856739D01*
X161816272Y-109795693D02*
X166851064Y-109401381D01*
X164868914Y-116003259D02*
X165269830Y-120585755D01*
X164891639Y-115976175D02*
X167431935Y-115753928D01*
X165296913Y-120608481D02*
X169829599Y-120211922D01*
X169771392Y-119489245D02*
X169832401Y-120186581D01*
X169531440Y-113361842D02*
X174213556Y-112952210D01*
X170858195Y-117913528D02*
X174618830Y-117584515D01*
X172500482Y-106853306D02*
X172844312Y-110783294D01*
X172845096Y-110792260D02*
X169248833Y-111106892D01*
X174215734Y-112977115D02*
X174641556Y-117557430D01*
X169241760Y-111083418D02*
G75*
G03*
X166826508Y-109407545I-2045563J-369690D01*
G01*
X170858631Y-117918508D02*
G75*
G03*
X169767034Y-119439434I214665J-1306262D01*
G01*
X167356785Y-115755483D02*
G75*
G03*
X169528638Y-113387182I-98224J2270077D01*
G01*
X172483422Y-106784531D02*
G75*
G03*
X170063837Y-105105022I-2049547J-370038D01*
G01*
%TO.C,K25*%
X196018999Y-85824000D02*
G75*
G03*
X193755000Y-83940001I-2073999J-190000D01*
G01*
X190130000Y-94313999D02*
G75*
G03*
X192499999Y-92144000I100000J2269999D01*
G01*
X193430000Y-96773999D02*
G75*
G03*
X192209999Y-98193999I100000J-1320001D01*
G01*
X192414999Y-89823999D02*
G75*
G03*
X190155000Y-87944001I-2069999J-190001D01*
G01*
X197205000Y-92144000D02*
X197230000Y-96743999D01*
X196030000Y-89848000D02*
X192420000Y-89848000D01*
X196030000Y-85894000D02*
X196030000Y-89839000D01*
X193430000Y-96769000D02*
X197205000Y-96769000D01*
X192505000Y-92119000D02*
X197205000Y-92119000D01*
X192210000Y-98244000D02*
X192210000Y-98944000D01*
X187655000Y-98969000D02*
X192205000Y-98969000D01*
X187655000Y-94319000D02*
X190205000Y-94319000D01*
X187630001Y-94344000D02*
X187630001Y-98944000D01*
X185130000Y-87894000D02*
X190180000Y-87940000D01*
X185130000Y-87848000D02*
X185130000Y-83940000D01*
X185130000Y-83940000D02*
X193755000Y-83940000D01*
%TO.C,K24*%
X176442999Y-84724000D02*
G75*
G03*
X174179000Y-82840001I-2073999J-190000D01*
G01*
X170554000Y-93213999D02*
G75*
G03*
X172923999Y-91044000I100000J2269999D01*
G01*
X173854000Y-95673999D02*
G75*
G03*
X172633999Y-97093999I100000J-1320001D01*
G01*
X172838999Y-88723999D02*
G75*
G03*
X170579000Y-86844001I-2069999J-190001D01*
G01*
X177629000Y-91044000D02*
X177654000Y-95643999D01*
X176454000Y-88748000D02*
X172844000Y-88748000D01*
X176454000Y-84794000D02*
X176454000Y-88739000D01*
X173854000Y-95669000D02*
X177629000Y-95669000D01*
X172929000Y-91019000D02*
X177629000Y-91019000D01*
X172634000Y-97144000D02*
X172634000Y-97844000D01*
X168079000Y-97869000D02*
X172629000Y-97869000D01*
X168079000Y-93219000D02*
X170629000Y-93219000D01*
X168054001Y-93244000D02*
X168054001Y-97844000D01*
X165554000Y-86794000D02*
X170604000Y-86840000D01*
X165554000Y-86748000D02*
X165554000Y-82840000D01*
X165554000Y-82840000D02*
X174179000Y-82840000D01*
%TO.C,K23*%
X156918999Y-79978000D02*
G75*
G03*
X154655000Y-78094001I-2073999J-190000D01*
G01*
X151030000Y-88467999D02*
G75*
G03*
X153399999Y-86298000I100000J2269999D01*
G01*
X154330000Y-90927999D02*
G75*
G03*
X153109999Y-92347999I100000J-1320001D01*
G01*
X153314999Y-83977999D02*
G75*
G03*
X151055000Y-82098001I-2069999J-190001D01*
G01*
X158105000Y-86298000D02*
X158130000Y-90897999D01*
X156930000Y-84002000D02*
X153320000Y-84002000D01*
X156930000Y-80048000D02*
X156930000Y-83993000D01*
X154330000Y-90923000D02*
X158105000Y-90923000D01*
X153405000Y-86273000D02*
X158105000Y-86273000D01*
X153110000Y-92398000D02*
X153110000Y-93098000D01*
X148555000Y-93123000D02*
X153105000Y-93123000D01*
X148555000Y-88473000D02*
X151105000Y-88473000D01*
X148530001Y-88498000D02*
X148530001Y-93098000D01*
X146030000Y-82048000D02*
X151080000Y-82094000D01*
X146030000Y-82002000D02*
X146030000Y-78094000D01*
X146030000Y-78094000D02*
X154655000Y-78094000D01*
%TO.C,K22*%
X137354999Y-85134000D02*
G75*
G03*
X135091000Y-83250001I-2073999J-190000D01*
G01*
X131466000Y-93623999D02*
G75*
G03*
X133835999Y-91454000I100000J2269999D01*
G01*
X134766000Y-96083999D02*
G75*
G03*
X133545999Y-97503999I100000J-1320001D01*
G01*
X133750999Y-89133999D02*
G75*
G03*
X131491000Y-87254001I-2069999J-190001D01*
G01*
X138541000Y-91454000D02*
X138566000Y-96053999D01*
X137366000Y-89158000D02*
X133756000Y-89158000D01*
X137366000Y-85204000D02*
X137366000Y-89149000D01*
X134766000Y-96079000D02*
X138541000Y-96079000D01*
X133841000Y-91429000D02*
X138541000Y-91429000D01*
X133546000Y-97554000D02*
X133546000Y-98254000D01*
X128991000Y-98279000D02*
X133541000Y-98279000D01*
X128991000Y-93629000D02*
X131541000Y-93629000D01*
X128966001Y-93654000D02*
X128966001Y-98254000D01*
X126466000Y-87204000D02*
X131516000Y-87250000D01*
X126466000Y-87158000D02*
X126466000Y-83250000D01*
X126466000Y-83250000D02*
X135091000Y-83250000D01*
%TO.C,K21*%
X117955999Y-97470000D02*
G75*
G03*
X115692000Y-95586001I-2073999J-190000D01*
G01*
X112067000Y-105959999D02*
G75*
G03*
X114436999Y-103790000I100000J2269999D01*
G01*
X115367000Y-108419999D02*
G75*
G03*
X114146999Y-109839999I100000J-1320001D01*
G01*
X114351999Y-101469999D02*
G75*
G03*
X112092000Y-99590001I-2069999J-190001D01*
G01*
X119142000Y-103790000D02*
X119167000Y-108389999D01*
X117967000Y-101494000D02*
X114357000Y-101494000D01*
X117967000Y-97540000D02*
X117967000Y-101485000D01*
X115367000Y-108415000D02*
X119142000Y-108415000D01*
X114442000Y-103765000D02*
X119142000Y-103765000D01*
X114147000Y-109890000D02*
X114147000Y-110590000D01*
X109592000Y-110615000D02*
X114142000Y-110615000D01*
X109592000Y-105965000D02*
X112142000Y-105965000D01*
X109567001Y-105990000D02*
X109567001Y-110590000D01*
X107067000Y-99540000D02*
X112117000Y-99586000D01*
X107067000Y-99494000D02*
X107067000Y-95586000D01*
X107067000Y-95586000D02*
X115692000Y-95586000D01*
%TO.C,K20*%
X98645999Y-97394000D02*
G75*
G03*
X96382000Y-95510001I-2073999J-190000D01*
G01*
X92757000Y-105883999D02*
G75*
G03*
X95126999Y-103714000I100000J2269999D01*
G01*
X96057000Y-108343999D02*
G75*
G03*
X94836999Y-109763999I100000J-1320001D01*
G01*
X95041999Y-101393999D02*
G75*
G03*
X92782000Y-99514001I-2069999J-190001D01*
G01*
X99832000Y-103714000D02*
X99857000Y-108313999D01*
X98657000Y-101418000D02*
X95047000Y-101418000D01*
X98657000Y-97464000D02*
X98657000Y-101409000D01*
X96057000Y-108339000D02*
X99832000Y-108339000D01*
X95132000Y-103689000D02*
X99832000Y-103689000D01*
X94837000Y-109814000D02*
X94837000Y-110514000D01*
X90282000Y-110539000D02*
X94832000Y-110539000D01*
X90282000Y-105889000D02*
X92832000Y-105889000D01*
X90257001Y-105914000D02*
X90257001Y-110514000D01*
X87757000Y-99464000D02*
X92807000Y-99510000D01*
X87757000Y-99418000D02*
X87757000Y-95510000D01*
X87757000Y-95510000D02*
X96382000Y-95510000D01*
%TO.C,K15*%
X185304000Y-64570000D02*
X193929000Y-64570000D01*
X185304000Y-68478000D02*
X185304000Y-64570000D01*
X185304000Y-68524000D02*
X190354000Y-68570000D01*
X187804001Y-74974000D02*
X187804001Y-79574000D01*
X187829000Y-74949000D02*
X190379000Y-74949000D01*
X187829000Y-79599000D02*
X192379000Y-79599000D01*
X192384000Y-78874000D02*
X192384000Y-79574000D01*
X192679000Y-72749000D02*
X197379000Y-72749000D01*
X193604000Y-77399000D02*
X197379000Y-77399000D01*
X196204000Y-66524000D02*
X196204000Y-70469000D01*
X196204000Y-70478000D02*
X192594000Y-70478000D01*
X197379000Y-72774000D02*
X197404000Y-77373999D01*
X192588999Y-70453999D02*
G75*
G03*
X190329000Y-68574001I-2069999J-190001D01*
G01*
X193604000Y-77403999D02*
G75*
G03*
X192383999Y-78823999I100000J-1320001D01*
G01*
X190304000Y-74943999D02*
G75*
G03*
X192673999Y-72774000I100000J2269999D01*
G01*
X196192999Y-66454000D02*
G75*
G03*
X193929000Y-64570001I-2073999J-190000D01*
G01*
%TO.C,K14*%
X165728000Y-63470000D02*
X174353000Y-63470000D01*
X165728000Y-67378000D02*
X165728000Y-63470000D01*
X165728000Y-67424000D02*
X170778000Y-67470000D01*
X168228001Y-73874000D02*
X168228001Y-78474000D01*
X168253000Y-73849000D02*
X170803000Y-73849000D01*
X168253000Y-78499000D02*
X172803000Y-78499000D01*
X172808000Y-77774000D02*
X172808000Y-78474000D01*
X173103000Y-71649000D02*
X177803000Y-71649000D01*
X174028000Y-76299000D02*
X177803000Y-76299000D01*
X176628000Y-65424000D02*
X176628000Y-69369000D01*
X176628000Y-69378000D02*
X173018000Y-69378000D01*
X177803000Y-71674000D02*
X177828000Y-76273999D01*
X173012999Y-69353999D02*
G75*
G03*
X170753000Y-67474001I-2069999J-190001D01*
G01*
X174028000Y-76303999D02*
G75*
G03*
X172807999Y-77723999I100000J-1320001D01*
G01*
X170728000Y-73843999D02*
G75*
G03*
X173097999Y-71674000I100000J2269999D01*
G01*
X176616999Y-65354000D02*
G75*
G03*
X174353000Y-63470001I-2073999J-190000D01*
G01*
%TO.C,K13*%
X146204000Y-58724000D02*
X154829000Y-58724000D01*
X146204000Y-62632000D02*
X146204000Y-58724000D01*
X146204000Y-62678000D02*
X151254000Y-62724000D01*
X148704001Y-69128000D02*
X148704001Y-73728000D01*
X148729000Y-69103000D02*
X151279000Y-69103000D01*
X148729000Y-73753000D02*
X153279000Y-73753000D01*
X153284000Y-73028000D02*
X153284000Y-73728000D01*
X153579000Y-66903000D02*
X158279000Y-66903000D01*
X154504000Y-71553000D02*
X158279000Y-71553000D01*
X157104000Y-60678000D02*
X157104000Y-64623000D01*
X157104000Y-64632000D02*
X153494000Y-64632000D01*
X158279000Y-66928000D02*
X158304000Y-71527999D01*
X153488999Y-64607999D02*
G75*
G03*
X151229000Y-62728001I-2069999J-190001D01*
G01*
X154504000Y-71557999D02*
G75*
G03*
X153283999Y-72977999I100000J-1320001D01*
G01*
X151204000Y-69097999D02*
G75*
G03*
X153573999Y-66928000I100000J2269999D01*
G01*
X157092999Y-60608000D02*
G75*
G03*
X154829000Y-58724001I-2073999J-190000D01*
G01*
%TO.C,K12*%
X126640000Y-63880000D02*
X135265000Y-63880000D01*
X126640000Y-67788000D02*
X126640000Y-63880000D01*
X126640000Y-67834000D02*
X131690000Y-67880000D01*
X129140001Y-74284000D02*
X129140001Y-78884000D01*
X129165000Y-74259000D02*
X131715000Y-74259000D01*
X129165000Y-78909000D02*
X133715000Y-78909000D01*
X133720000Y-78184000D02*
X133720000Y-78884000D01*
X134015000Y-72059000D02*
X138715000Y-72059000D01*
X134940000Y-76709000D02*
X138715000Y-76709000D01*
X137540000Y-65834000D02*
X137540000Y-69779000D01*
X137540000Y-69788000D02*
X133930000Y-69788000D01*
X138715000Y-72084000D02*
X138740000Y-76683999D01*
X133924999Y-69763999D02*
G75*
G03*
X131665000Y-67884001I-2069999J-190001D01*
G01*
X134940000Y-76713999D02*
G75*
G03*
X133719999Y-78133999I100000J-1320001D01*
G01*
X131640000Y-74253999D02*
G75*
G03*
X134009999Y-72084000I100000J2269999D01*
G01*
X137528999Y-65764000D02*
G75*
G03*
X135265000Y-63880001I-2073999J-190000D01*
G01*
%TO.C,K11*%
X107241000Y-76216000D02*
X115866000Y-76216000D01*
X107241000Y-80124000D02*
X107241000Y-76216000D01*
X107241000Y-80170000D02*
X112291000Y-80216000D01*
X109741001Y-86620000D02*
X109741001Y-91220000D01*
X109766000Y-86595000D02*
X112316000Y-86595000D01*
X109766000Y-91245000D02*
X114316000Y-91245000D01*
X114321000Y-90520000D02*
X114321000Y-91220000D01*
X114616000Y-84395000D02*
X119316000Y-84395000D01*
X115541000Y-89045000D02*
X119316000Y-89045000D01*
X118141000Y-78170000D02*
X118141000Y-82115000D01*
X118141000Y-82124000D02*
X114531000Y-82124000D01*
X119316000Y-84420000D02*
X119341000Y-89019999D01*
X114525999Y-82099999D02*
G75*
G03*
X112266000Y-80220001I-2069999J-190001D01*
G01*
X115541000Y-89049999D02*
G75*
G03*
X114320999Y-90469999I100000J-1320001D01*
G01*
X112241000Y-86589999D02*
G75*
G03*
X114610999Y-84420000I100000J2269999D01*
G01*
X118129999Y-78100000D02*
G75*
G03*
X115866000Y-76216001I-2073999J-190000D01*
G01*
%TO.C,K10*%
X87931000Y-76140000D02*
X96556000Y-76140000D01*
X87931000Y-80048000D02*
X87931000Y-76140000D01*
X87931000Y-80094000D02*
X92981000Y-80140000D01*
X90431001Y-86544000D02*
X90431001Y-91144000D01*
X90456000Y-86519000D02*
X93006000Y-86519000D01*
X90456000Y-91169000D02*
X95006000Y-91169000D01*
X95011000Y-90444000D02*
X95011000Y-91144000D01*
X95306000Y-84319000D02*
X100006000Y-84319000D01*
X96231000Y-88969000D02*
X100006000Y-88969000D01*
X98831000Y-78094000D02*
X98831000Y-82039000D01*
X98831000Y-82048000D02*
X95221000Y-82048000D01*
X100006000Y-84344000D02*
X100031000Y-88943999D01*
X95215999Y-82023999D02*
G75*
G03*
X92956000Y-80144001I-2069999J-190001D01*
G01*
X96231000Y-88973999D02*
G75*
G03*
X95010999Y-90393999I100000J-1320001D01*
G01*
X92931000Y-86513999D02*
G75*
G03*
X95300999Y-84344000I100000J2269999D01*
G01*
X98819999Y-78024000D02*
G75*
G03*
X96556000Y-76140001I-2073999J-190000D01*
G01*
%TO.C,K05*%
X196064999Y-46900000D02*
G75*
G03*
X193801000Y-45016001I-2073999J-190000D01*
G01*
X190176000Y-55389999D02*
G75*
G03*
X192545999Y-53220000I100000J2269999D01*
G01*
X193476000Y-57849999D02*
G75*
G03*
X192255999Y-59269999I100000J-1320001D01*
G01*
X192460999Y-50899999D02*
G75*
G03*
X190201000Y-49020001I-2069999J-190001D01*
G01*
X197251000Y-53220000D02*
X197276000Y-57819999D01*
X196076000Y-50924000D02*
X192466000Y-50924000D01*
X196076000Y-46970000D02*
X196076000Y-50915000D01*
X193476000Y-57845000D02*
X197251000Y-57845000D01*
X192551000Y-53195000D02*
X197251000Y-53195000D01*
X192256000Y-59320000D02*
X192256000Y-60020000D01*
X187701000Y-60045000D02*
X192251000Y-60045000D01*
X187701000Y-55395000D02*
X190251000Y-55395000D01*
X187676001Y-55420000D02*
X187676001Y-60020000D01*
X185176000Y-48970000D02*
X190226000Y-49016000D01*
X185176000Y-48924000D02*
X185176000Y-45016000D01*
X185176000Y-45016000D02*
X193801000Y-45016000D01*
%TO.C,K04*%
X176488999Y-45800000D02*
G75*
G03*
X174225000Y-43916001I-2073999J-190000D01*
G01*
X170600000Y-54289999D02*
G75*
G03*
X172969999Y-52120000I100000J2269999D01*
G01*
X173900000Y-56749999D02*
G75*
G03*
X172679999Y-58169999I100000J-1320001D01*
G01*
X172884999Y-49799999D02*
G75*
G03*
X170625000Y-47920001I-2069999J-190001D01*
G01*
X177675000Y-52120000D02*
X177700000Y-56719999D01*
X176500000Y-49824000D02*
X172890000Y-49824000D01*
X176500000Y-45870000D02*
X176500000Y-49815000D01*
X173900000Y-56745000D02*
X177675000Y-56745000D01*
X172975000Y-52095000D02*
X177675000Y-52095000D01*
X172680000Y-58220000D02*
X172680000Y-58920000D01*
X168125000Y-58945000D02*
X172675000Y-58945000D01*
X168125000Y-54295000D02*
X170675000Y-54295000D01*
X168100001Y-54320000D02*
X168100001Y-58920000D01*
X165600000Y-47870000D02*
X170650000Y-47916000D01*
X165600000Y-47824000D02*
X165600000Y-43916000D01*
X165600000Y-43916000D02*
X174225000Y-43916000D01*
%TO.C,K02*%
X137400999Y-46210000D02*
G75*
G03*
X135137000Y-44326001I-2073999J-190000D01*
G01*
X131512000Y-54699999D02*
G75*
G03*
X133881999Y-52530000I100000J2269999D01*
G01*
X134812000Y-57159999D02*
G75*
G03*
X133591999Y-58579999I100000J-1320001D01*
G01*
X133796999Y-50209999D02*
G75*
G03*
X131537000Y-48330001I-2069999J-190001D01*
G01*
X138587000Y-52530000D02*
X138612000Y-57129999D01*
X137412000Y-50234000D02*
X133802000Y-50234000D01*
X137412000Y-46280000D02*
X137412000Y-50225000D01*
X134812000Y-57155000D02*
X138587000Y-57155000D01*
X133887000Y-52505000D02*
X138587000Y-52505000D01*
X133592000Y-58630000D02*
X133592000Y-59330000D01*
X129037000Y-59355000D02*
X133587000Y-59355000D01*
X129037000Y-54705000D02*
X131587000Y-54705000D01*
X129012001Y-54730000D02*
X129012001Y-59330000D01*
X126512000Y-48280000D02*
X131562000Y-48326000D01*
X126512000Y-48234000D02*
X126512000Y-44326000D01*
X126512000Y-44326000D02*
X135137000Y-44326000D01*
%TO.C,K01*%
X118001999Y-58546000D02*
G75*
G03*
X115738000Y-56662001I-2073999J-190000D01*
G01*
X112113000Y-67035999D02*
G75*
G03*
X114482999Y-64866000I100000J2269999D01*
G01*
X115413000Y-69495999D02*
G75*
G03*
X114192999Y-70915999I100000J-1320001D01*
G01*
X114397999Y-62545999D02*
G75*
G03*
X112138000Y-60666001I-2069999J-190001D01*
G01*
X119188000Y-64866000D02*
X119213000Y-69465999D01*
X118013000Y-62570000D02*
X114403000Y-62570000D01*
X118013000Y-58616000D02*
X118013000Y-62561000D01*
X115413000Y-69491000D02*
X119188000Y-69491000D01*
X114488000Y-64841000D02*
X119188000Y-64841000D01*
X114193000Y-70966000D02*
X114193000Y-71666000D01*
X109638000Y-71691000D02*
X114188000Y-71691000D01*
X109638000Y-67041000D02*
X112188000Y-67041000D01*
X109613001Y-67066000D02*
X109613001Y-71666000D01*
X107113000Y-60616000D02*
X112163000Y-60662000D01*
X107113000Y-60570000D02*
X107113000Y-56662000D01*
X107113000Y-56662000D02*
X115738000Y-56662000D01*
%TO.C,K00*%
X98691999Y-58470000D02*
G75*
G03*
X96428000Y-56586001I-2073999J-190000D01*
G01*
X92803000Y-66959999D02*
G75*
G03*
X95172999Y-64790000I100000J2269999D01*
G01*
X96103000Y-69419999D02*
G75*
G03*
X94882999Y-70839999I100000J-1320001D01*
G01*
X95087999Y-62469999D02*
G75*
G03*
X92828000Y-60590001I-2069999J-190001D01*
G01*
X99878000Y-64790000D02*
X99903000Y-69389999D01*
X98703000Y-62494000D02*
X95093000Y-62494000D01*
X98703000Y-58540000D02*
X98703000Y-62485000D01*
X96103000Y-69415000D02*
X99878000Y-69415000D01*
X95178000Y-64765000D02*
X99878000Y-64765000D01*
X94883000Y-70890000D02*
X94883000Y-71590000D01*
X90328000Y-71615000D02*
X94878000Y-71615000D01*
X90328000Y-66965000D02*
X92878000Y-66965000D01*
X90303001Y-66990000D02*
X90303001Y-71590000D01*
X87803000Y-60540000D02*
X92853000Y-60586000D01*
X87803000Y-60494000D02*
X87803000Y-56586000D01*
X87803000Y-56586000D02*
X96428000Y-56586000D01*
%TO.C,J1*%
X230780000Y-109644000D02*
X230780000Y-104044000D01*
X228780000Y-104044000D02*
X230780000Y-104044000D01*
X228780000Y-109894000D02*
X216680000Y-109894000D01*
X228780000Y-103794000D02*
X216680000Y-103794000D01*
X228780000Y-109644000D02*
X230780000Y-109644000D01*
X228780000Y-109894000D02*
X228780000Y-103794000D01*
X216680000Y-109894000D02*
X216680000Y-103794000D01*
D11*
%TO.C,U1*%
X224990000Y-48630000D02*
X222330000Y-48630000D01*
X224990000Y-46030000D02*
X223660000Y-46030000D01*
X207150000Y-46090000D02*
X207150000Y-96890000D01*
X222330000Y-48630000D02*
X222330000Y-96950000D01*
X209690000Y-96890000D02*
X209690000Y-46090000D01*
X209690000Y-46090000D02*
X207150000Y-46090000D01*
X224990000Y-47360000D02*
X224990000Y-46030000D01*
X209690000Y-96890000D02*
X207150000Y-96890000D01*
X224990000Y-96950000D02*
X224990000Y-48630000D01*
X222330000Y-96950000D02*
X224990000Y-96950000D01*
%TD*%
M02*
