%TF.GenerationSoftware,KiCad,Pcbnew,7.0.6*%
%TF.CreationDate,2023-08-21T12:13:53+07:00*%
%TF.ProjectId,GlupV1,476c7570-5631-42e6-9b69-6361645f7063,rev?*%
%TF.SameCoordinates,Original*%
%TF.FileFunction,Paste,Bot*%
%TF.FilePolarity,Positive*%
%FSLAX46Y46*%
G04 Gerber Fmt 4.6, Leading zero omitted, Abs format (unit mm)*
G04 Created by KiCad (PCBNEW 7.0.6) date 2023-08-21 12:13:53*
%MOMM*%
%LPD*%
G01*
G04 APERTURE LIST*
G04 Aperture macros list*
%AMRotRect*
0 Rectangle, with rotation*
0 The origin of the aperture is its center*
0 $1 length*
0 $2 width*
0 $3 Rotation angle, in degrees counterclockwise*
0 Add horizontal line*
21,1,$1,$2,0,0,$3*%
G04 Aperture macros list end*
%ADD10R,0.700000X1.500000*%
%ADD11R,2.000000X2.000000*%
%ADD12R,2.500000X2.500000*%
%ADD13R,1.900000X2.000000*%
%ADD14R,2.400000X2.400000*%
%ADD15R,1.300000X0.950000*%
%ADD16RotRect,1.300000X0.950000X345.000000*%
%ADD17RotRect,1.300000X0.950000X330.000000*%
%ADD18RotRect,0.700000X1.500000X345.000000*%
%ADD19RotRect,2.000000X2.000000X165.000000*%
%ADD20RotRect,2.500000X2.500000X165.000000*%
%ADD21RotRect,1.900000X2.000000X165.000000*%
%ADD22RotRect,2.400000X2.400000X165.000000*%
%ADD23RotRect,0.700000X1.500000X330.000000*%
%ADD24RotRect,2.000000X2.000000X150.000000*%
%ADD25RotRect,2.500000X2.500000X150.000000*%
%ADD26RotRect,1.900000X2.000000X150.000000*%
%ADD27RotRect,2.400000X2.400000X150.000000*%
G04 APERTURE END LIST*
D10*
%TO.C,SW9*%
X88130000Y-85280000D03*
D11*
X88530000Y-91480000D03*
D12*
X89730000Y-85240000D03*
D13*
X99430000Y-93680000D03*
D14*
X102330000Y-82700000D03*
D10*
X103830000Y-82680000D03*
%TD*%
%TO.C,SW13*%
X112835400Y-105766000D03*
D11*
X113235400Y-111966000D03*
D12*
X114435400Y-105726000D03*
D13*
X124135400Y-114166000D03*
D14*
X127035400Y-103186000D03*
D10*
X128535400Y-103166000D03*
%TD*%
D15*
%TO.C,D14*%
X142125000Y-56134000D03*
X138575000Y-56134000D03*
%TD*%
%TO.C,D16*%
X142515000Y-78930000D03*
X138965000Y-78930000D03*
%TD*%
D10*
%TO.C,SW6*%
X68200000Y-97256000D03*
D11*
X68600000Y-103456000D03*
D12*
X69800000Y-97216000D03*
D13*
X79500000Y-105656000D03*
D14*
X82400000Y-94676000D03*
D10*
X83900000Y-94656000D03*
%TD*%
%TO.C,SW5*%
X68150000Y-77356000D03*
D11*
X68550000Y-83556000D03*
D12*
X69750000Y-77316000D03*
D13*
X79450000Y-85756000D03*
D14*
X82350000Y-74776000D03*
D10*
X83850000Y-74756000D03*
%TD*%
D15*
%TO.C,D11*%
X122435000Y-50110000D03*
X118885000Y-50110000D03*
%TD*%
D10*
%TO.C,SW4*%
X68170000Y-57306000D03*
D11*
X68570000Y-63506000D03*
D12*
X69770000Y-57266000D03*
D13*
X79470000Y-65706000D03*
D14*
X82370000Y-54726000D03*
D10*
X83870000Y-54706000D03*
%TD*%
D15*
%TO.C,D20*%
X162080000Y-82910000D03*
X158530000Y-82910000D03*
%TD*%
%TO.C,D13*%
X127255000Y-100320000D03*
X123705000Y-100320000D03*
%TD*%
%TO.C,D7*%
X102359000Y-57150000D03*
X98809000Y-57150000D03*
%TD*%
%TO.C,D1*%
X60165000Y-79356000D03*
X56615000Y-79356000D03*
%TD*%
D10*
%TO.C,SW11*%
X108270000Y-55540000D03*
D11*
X108670000Y-61740000D03*
D12*
X109870000Y-55500000D03*
D13*
X119570000Y-63940000D03*
D14*
X122470000Y-52960000D03*
D10*
X123970000Y-52940000D03*
%TD*%
%TO.C,SW3*%
X45780000Y-106906000D03*
D11*
X46180000Y-113106000D03*
D12*
X47380000Y-106866000D03*
D13*
X57080000Y-115306000D03*
D14*
X59980000Y-104326000D03*
D10*
X61480000Y-104306000D03*
%TD*%
D16*
%TO.C,D17*%
X152106026Y-105440912D03*
X148676990Y-104522104D03*
%TD*%
D10*
%TO.C,SW20*%
X148210000Y-88430000D03*
D11*
X148610000Y-94630000D03*
D12*
X149810000Y-88390000D03*
D13*
X159510000Y-96830000D03*
D14*
X162410000Y-85850000D03*
D10*
X163910000Y-85830000D03*
%TD*%
D15*
%TO.C,D9*%
X102520000Y-79810000D03*
X98970000Y-79810000D03*
%TD*%
%TO.C,D5*%
X82315000Y-71930000D03*
X78765000Y-71930000D03*
%TD*%
D10*
%TO.C,SW15*%
X128150000Y-64340000D03*
D11*
X128550000Y-70540000D03*
D12*
X129750000Y-64300000D03*
D13*
X139450000Y-72740000D03*
D14*
X142350000Y-61760000D03*
D10*
X143850000Y-61740000D03*
%TD*%
%TO.C,SW8*%
X88240000Y-65260000D03*
D11*
X88640000Y-71460000D03*
D12*
X89840000Y-65220000D03*
D13*
X99540000Y-73660000D03*
D14*
X102440000Y-62680000D03*
D10*
X103940000Y-62660000D03*
%TD*%
%TO.C,SW12*%
X108360000Y-75620000D03*
D11*
X108760000Y-81820000D03*
D12*
X109960000Y-75580000D03*
D13*
X119660000Y-84020000D03*
D14*
X122560000Y-73040000D03*
D10*
X124060000Y-73020000D03*
%TD*%
D15*
%TO.C,D19*%
X162530000Y-63040000D03*
X158980000Y-63040000D03*
%TD*%
D17*
%TO.C,D21*%
X174820000Y-116380000D03*
X171745610Y-114605000D03*
%TD*%
D15*
%TO.C,D8*%
X102590000Y-59780000D03*
X99040000Y-59780000D03*
%TD*%
D10*
%TO.C,SW2*%
X45840000Y-86890000D03*
D11*
X46240000Y-93090000D03*
D12*
X47440000Y-86850000D03*
D13*
X57140000Y-95290000D03*
D14*
X60040000Y-84310000D03*
D10*
X61540000Y-84290000D03*
%TD*%
D15*
%TO.C,D4*%
X82285000Y-69342000D03*
X78735000Y-69342000D03*
%TD*%
D18*
%TO.C,SW17*%
X136772878Y-107031924D03*
D19*
X135554570Y-113124191D03*
D20*
X138328712Y-107407397D03*
D21*
X145513760Y-118070356D03*
D22*
X151156778Y-108215065D03*
D18*
X152610843Y-108583975D03*
%TD*%
D15*
%TO.C,D10*%
X122425000Y-47498000D03*
X118875000Y-47498000D03*
%TD*%
D10*
%TO.C,SW19*%
X148280000Y-68520000D03*
D11*
X148680000Y-74720000D03*
D12*
X149880000Y-68480000D03*
D13*
X159580000Y-76920000D03*
D14*
X162480000Y-65940000D03*
D10*
X163980000Y-65920000D03*
%TD*%
D15*
%TO.C,D12*%
X122560000Y-70140000D03*
X119010000Y-70140000D03*
%TD*%
D10*
%TO.C,SW18*%
X148280000Y-48510000D03*
D11*
X148680000Y-54710000D03*
D12*
X149880000Y-48470000D03*
D13*
X159580000Y-56910000D03*
D14*
X162480000Y-45930000D03*
D10*
X163980000Y-45910000D03*
%TD*%
%TO.C,SW10*%
X108270000Y-35560000D03*
D11*
X108670000Y-41760000D03*
D12*
X109870000Y-35520000D03*
D13*
X119570000Y-43960000D03*
D14*
X122470000Y-32980000D03*
D10*
X123970000Y-32960000D03*
%TD*%
D23*
%TO.C,SW21*%
X159733884Y-114015336D03*
D24*
X156980294Y-119584694D03*
D25*
X161139525Y-114780695D03*
D26*
X165319971Y-126939950D03*
D27*
X173321445Y-118880991D03*
D23*
X174630483Y-119613670D03*
%TD*%
D15*
%TO.C,D2*%
X60120000Y-81436000D03*
X56570000Y-81436000D03*
%TD*%
%TO.C,D18*%
X162814000Y-60452000D03*
X159264000Y-60452000D03*
%TD*%
D10*
%TO.C,SW14*%
X128170000Y-44350000D03*
D11*
X128570000Y-50550000D03*
D12*
X129770000Y-44310000D03*
D13*
X139470000Y-52750000D03*
D14*
X142370000Y-41770000D03*
D10*
X143870000Y-41750000D03*
%TD*%
D15*
%TO.C,D3*%
X60270000Y-101406000D03*
X56720000Y-101406000D03*
%TD*%
%TO.C,D6*%
X82215000Y-91900000D03*
X78665000Y-91900000D03*
%TD*%
%TO.C,D15*%
X142075000Y-58840000D03*
X138525000Y-58840000D03*
%TD*%
D10*
%TO.C,SW16*%
X128230000Y-84430000D03*
D11*
X128630000Y-90630000D03*
D12*
X129830000Y-84390000D03*
D13*
X139530000Y-92830000D03*
D14*
X142430000Y-81850000D03*
D10*
X143930000Y-81830000D03*
%TD*%
%TO.C,SW7*%
X88270000Y-45250000D03*
D11*
X88670000Y-51450000D03*
D12*
X89870000Y-45210000D03*
D13*
X99570000Y-53650000D03*
D14*
X102470000Y-42670000D03*
D10*
X103970000Y-42650000D03*
%TD*%
%TO.C,SW1*%
X45868000Y-66917500D03*
D11*
X46268000Y-73117500D03*
D12*
X47468000Y-66877500D03*
D13*
X57168000Y-75317500D03*
D14*
X60068000Y-64337500D03*
D10*
X61568000Y-64317500D03*
%TD*%
M02*
