%TF.GenerationSoftware,KiCad,Pcbnew,7.0.6*%
%TF.CreationDate,2023-08-21T12:13:53+07:00*%
%TF.ProjectId,GlupV1,476c7570-5631-42e6-9b69-6361645f7063,rev?*%
%TF.SameCoordinates,Original*%
%TF.FileFunction,Legend,Bot*%
%TF.FilePolarity,Positive*%
%FSLAX46Y46*%
G04 Gerber Fmt 4.6, Leading zero omitted, Abs format (unit mm)*
G04 Created by KiCad (PCBNEW 7.0.6) date 2023-08-21 12:13:53*
%MOMM*%
%LPD*%
G01*
G04 APERTURE LIST*
G04 Aperture macros list*
%AMRotRect*
0 Rectangle, with rotation*
0 The origin of the aperture is its center*
0 $1 length*
0 $2 width*
0 $3 Rotation angle, in degrees counterclockwise*
0 Add horizontal line*
21,1,$1,$2,0,0,$3*%
G04 Aperture macros list end*
%ADD10C,0.150000*%
%ADD11C,1.524000*%
%ADD12C,1.900000*%
%ADD13C,1.700000*%
%ADD14C,3.000000*%
%ADD15C,0.100000*%
%ADD16C,4.000000*%
%ADD17R,0.700000X1.500000*%
%ADD18R,2.000000X2.000000*%
%ADD19R,2.500000X2.500000*%
%ADD20R,1.900000X2.000000*%
%ADD21R,2.400000X2.400000*%
%ADD22R,1.397000X1.397000*%
%ADD23R,1.300000X0.950000*%
%ADD24C,1.397000*%
%ADD25C,2.000000*%
%ADD26RotRect,1.397000X1.397000X345.000000*%
%ADD27RotRect,1.300000X0.950000X345.000000*%
%ADD28RotRect,1.397000X1.397000X330.000000*%
%ADD29RotRect,1.300000X0.950000X330.000000*%
%ADD30RotRect,0.700000X1.500000X345.000000*%
%ADD31RotRect,2.000000X2.000000X165.000000*%
%ADD32RotRect,2.500000X2.500000X165.000000*%
%ADD33RotRect,1.900000X2.000000X165.000000*%
%ADD34RotRect,2.400000X2.400000X165.000000*%
%ADD35C,1.200000*%
%ADD36R,2.100000X0.800000*%
%ADD37RotRect,0.700000X1.500000X330.000000*%
%ADD38RotRect,2.000000X2.000000X150.000000*%
%ADD39RotRect,2.500000X2.500000X150.000000*%
%ADD40RotRect,1.900000X2.000000X150.000000*%
%ADD41RotRect,2.400000X2.400000X150.000000*%
G04 APERTURE END LIST*
D10*
X187292295Y-80458095D02*
X186911342Y-80191428D01*
X187292295Y-80000952D02*
X186492295Y-80000952D01*
X186492295Y-80000952D02*
X186492295Y-80305714D01*
X186492295Y-80305714D02*
X186530390Y-80381904D01*
X186530390Y-80381904D02*
X186568485Y-80419999D01*
X186568485Y-80419999D02*
X186644676Y-80458095D01*
X186644676Y-80458095D02*
X186758961Y-80458095D01*
X186758961Y-80458095D02*
X186835152Y-80419999D01*
X186835152Y-80419999D02*
X186873247Y-80381904D01*
X186873247Y-80381904D02*
X186911342Y-80305714D01*
X186911342Y-80305714D02*
X186911342Y-80000952D01*
X186873247Y-80800952D02*
X186873247Y-81067618D01*
X187292295Y-81181904D02*
X187292295Y-80800952D01*
X187292295Y-80800952D02*
X186492295Y-80800952D01*
X186492295Y-80800952D02*
X186492295Y-81181904D01*
X187254200Y-81486666D02*
X187292295Y-81600952D01*
X187292295Y-81600952D02*
X187292295Y-81791428D01*
X187292295Y-81791428D02*
X187254200Y-81867619D01*
X187254200Y-81867619D02*
X187216104Y-81905714D01*
X187216104Y-81905714D02*
X187139914Y-81943809D01*
X187139914Y-81943809D02*
X187063723Y-81943809D01*
X187063723Y-81943809D02*
X186987533Y-81905714D01*
X186987533Y-81905714D02*
X186949438Y-81867619D01*
X186949438Y-81867619D02*
X186911342Y-81791428D01*
X186911342Y-81791428D02*
X186873247Y-81639047D01*
X186873247Y-81639047D02*
X186835152Y-81562857D01*
X186835152Y-81562857D02*
X186797057Y-81524762D01*
X186797057Y-81524762D02*
X186720866Y-81486666D01*
X186720866Y-81486666D02*
X186644676Y-81486666D01*
X186644676Y-81486666D02*
X186568485Y-81524762D01*
X186568485Y-81524762D02*
X186530390Y-81562857D01*
X186530390Y-81562857D02*
X186492295Y-81639047D01*
X186492295Y-81639047D02*
X186492295Y-81829524D01*
X186492295Y-81829524D02*
X186530390Y-81943809D01*
X186873247Y-82286667D02*
X186873247Y-82553333D01*
X187292295Y-82667619D02*
X187292295Y-82286667D01*
X187292295Y-82286667D02*
X186492295Y-82286667D01*
X186492295Y-82286667D02*
X186492295Y-82667619D01*
X186492295Y-82896191D02*
X186492295Y-83353334D01*
X187292295Y-83124762D02*
X186492295Y-83124762D01*
%TO.C,SW9*%
X89355000Y-89180000D02*
X89330001Y-93780000D01*
X90530000Y-82930000D02*
X90530000Y-86875000D01*
X90530000Y-86884000D02*
X94140000Y-86884000D01*
X93130000Y-93805000D02*
X89355000Y-93805000D01*
X94055000Y-89155000D02*
X89355000Y-89155000D01*
X94350000Y-95280000D02*
X94350000Y-95980000D01*
X98905000Y-91355000D02*
X96355000Y-91355000D01*
X98905000Y-96005000D02*
X94355000Y-96005000D01*
X98930000Y-91379999D02*
X98930000Y-95980000D01*
X101430000Y-80976000D02*
X92805000Y-80976000D01*
X101430000Y-84884000D02*
X101430000Y-80976000D01*
X101430000Y-84930000D02*
X96380000Y-84976000D01*
X92805000Y-80976001D02*
G75*
G03*
X90541001Y-82860000I-190000J-2073999D01*
G01*
X94350000Y-95230000D02*
G75*
G03*
X93130000Y-93810000I-1320000J100000D01*
G01*
X96405000Y-84980001D02*
G75*
G03*
X94145001Y-86859999I-190001J-2069997D01*
G01*
X94060001Y-89180000D02*
G75*
G03*
X96430000Y-91349999I2269999J100000D01*
G01*
%TO.C,SW13*%
X114060400Y-109666000D02*
X114035401Y-114266000D01*
X115235400Y-103416000D02*
X115235400Y-107361000D01*
X115235400Y-107370000D02*
X118845400Y-107370000D01*
X117835400Y-114291000D02*
X114060400Y-114291000D01*
X118760400Y-109641000D02*
X114060400Y-109641000D01*
X119055400Y-115766000D02*
X119055400Y-116466000D01*
X123610400Y-111841000D02*
X121060400Y-111841000D01*
X123610400Y-116491000D02*
X119060400Y-116491000D01*
X123635400Y-111865999D02*
X123635400Y-116466000D01*
X126135400Y-101462000D02*
X117510400Y-101462000D01*
X126135400Y-105370000D02*
X126135400Y-101462000D01*
X126135400Y-105416000D02*
X121085400Y-105462000D01*
X117510400Y-101462001D02*
G75*
G03*
X115246401Y-103346000I-190000J-2073999D01*
G01*
X119055400Y-115716000D02*
G75*
G03*
X117835400Y-114296000I-1320000J100000D01*
G01*
X121110400Y-105466001D02*
G75*
G03*
X118850401Y-107345999I-190001J-2069997D01*
G01*
X118765401Y-109666000D02*
G75*
G03*
X121135400Y-111835999I2269999J100000D01*
G01*
%TO.C,D14*%
X143050000Y-56884000D02*
X143050000Y-55384000D01*
X143050000Y-55384000D02*
X137650000Y-55384000D01*
X140850000Y-56634000D02*
X140850000Y-55634000D01*
X140750000Y-56134000D02*
X139850000Y-56634000D01*
X139850000Y-56634000D02*
X139850000Y-55634000D01*
X139850000Y-55634000D02*
X140750000Y-56134000D01*
X137650000Y-56884000D02*
X143050000Y-56884000D01*
X137650000Y-55384000D02*
X137650000Y-56884000D01*
%TO.C,RSW1*%
X188730000Y-78620000D02*
X188030000Y-78620000D01*
X188730000Y-78620000D02*
X188730000Y-84520000D01*
X188730000Y-78620000D02*
X188730000Y-84620000D01*
X185230000Y-78620000D02*
X185830000Y-78620000D01*
X188730000Y-84620000D02*
X188030000Y-84620000D01*
X185230000Y-84620000D02*
X185230000Y-78620000D01*
X185230000Y-84620000D02*
X185830000Y-84620000D01*
%TO.C,U1*%
X168830000Y-41370000D02*
X186610000Y-41370000D01*
X168830000Y-43910000D02*
X171370000Y-43910000D01*
X168830000Y-74390000D02*
X168830000Y-41370000D01*
X168830000Y-74390000D02*
X168830000Y-43910000D01*
X171370000Y-43910000D02*
X171370000Y-74390000D01*
X171370000Y-74390000D02*
X168830000Y-74390000D01*
X184070000Y-43910000D02*
X186610000Y-43910000D01*
X184070000Y-74390000D02*
X184070000Y-43910000D01*
X186610000Y-41370000D02*
X186610000Y-74390000D01*
X186610000Y-43910000D02*
X186610000Y-74390000D01*
X186610000Y-74390000D02*
X184070000Y-74390000D01*
%TO.C,D16*%
X143440000Y-79680000D02*
X143440000Y-78180000D01*
X143440000Y-78180000D02*
X138040000Y-78180000D01*
X141240000Y-79430000D02*
X141240000Y-78430000D01*
X141140000Y-78930000D02*
X140240000Y-79430000D01*
X140240000Y-79430000D02*
X140240000Y-78430000D01*
X140240000Y-78430000D02*
X141140000Y-78930000D01*
X138040000Y-79680000D02*
X143440000Y-79680000D01*
X138040000Y-78180000D02*
X138040000Y-79680000D01*
%TO.C,SW6*%
X69425000Y-101156000D02*
X69400001Y-105756000D01*
X70600000Y-94906000D02*
X70600000Y-98851000D01*
X70600000Y-98860000D02*
X74210000Y-98860000D01*
X73200000Y-105781000D02*
X69425000Y-105781000D01*
X74125000Y-101131000D02*
X69425000Y-101131000D01*
X74420000Y-107256000D02*
X74420000Y-107956000D01*
X78975000Y-103331000D02*
X76425000Y-103331000D01*
X78975000Y-107981000D02*
X74425000Y-107981000D01*
X79000000Y-103355999D02*
X79000000Y-107956000D01*
X81500000Y-92952000D02*
X72875000Y-92952000D01*
X81500000Y-96860000D02*
X81500000Y-92952000D01*
X81500000Y-96906000D02*
X76450000Y-96952000D01*
X72875000Y-92952001D02*
G75*
G03*
X70611001Y-94836000I-190000J-2073999D01*
G01*
X74420000Y-107206000D02*
G75*
G03*
X73200000Y-105786000I-1320000J100000D01*
G01*
X76475000Y-96956001D02*
G75*
G03*
X74215001Y-98835999I-190001J-2069997D01*
G01*
X74130001Y-101156000D02*
G75*
G03*
X76500000Y-103325999I2269999J100000D01*
G01*
%TO.C,SW5*%
X69375000Y-81256000D02*
X69350001Y-85856000D01*
X70550000Y-75006000D02*
X70550000Y-78951000D01*
X70550000Y-78960000D02*
X74160000Y-78960000D01*
X73150000Y-85881000D02*
X69375000Y-85881000D01*
X74075000Y-81231000D02*
X69375000Y-81231000D01*
X74370000Y-87356000D02*
X74370000Y-88056000D01*
X78925000Y-83431000D02*
X76375000Y-83431000D01*
X78925000Y-88081000D02*
X74375000Y-88081000D01*
X78950000Y-83455999D02*
X78950000Y-88056000D01*
X81450000Y-73052000D02*
X72825000Y-73052000D01*
X81450000Y-76960000D02*
X81450000Y-73052000D01*
X81450000Y-77006000D02*
X76400000Y-77052000D01*
X72825000Y-73052001D02*
G75*
G03*
X70561001Y-74936000I-190000J-2073999D01*
G01*
X74370000Y-87306000D02*
G75*
G03*
X73150000Y-85886000I-1320000J100000D01*
G01*
X76425000Y-77056001D02*
G75*
G03*
X74165001Y-78935999I-190001J-2069997D01*
G01*
X74080001Y-81256000D02*
G75*
G03*
X76450000Y-83425999I2269999J100000D01*
G01*
%TO.C,D11*%
X123360000Y-50860000D02*
X123360000Y-49360000D01*
X123360000Y-49360000D02*
X117960000Y-49360000D01*
X121160000Y-50610000D02*
X121160000Y-49610000D01*
X121060000Y-50110000D02*
X120160000Y-50610000D01*
X120160000Y-50610000D02*
X120160000Y-49610000D01*
X120160000Y-49610000D02*
X121060000Y-50110000D01*
X117960000Y-50860000D02*
X123360000Y-50860000D01*
X117960000Y-49360000D02*
X117960000Y-50860000D01*
%TO.C,SW4*%
X69395000Y-61206000D02*
X69370001Y-65806000D01*
X70570000Y-54956000D02*
X70570000Y-58901000D01*
X70570000Y-58910000D02*
X74180000Y-58910000D01*
X73170000Y-65831000D02*
X69395000Y-65831000D01*
X74095000Y-61181000D02*
X69395000Y-61181000D01*
X74390000Y-67306000D02*
X74390000Y-68006000D01*
X78945000Y-63381000D02*
X76395000Y-63381000D01*
X78945000Y-68031000D02*
X74395000Y-68031000D01*
X78970000Y-63405999D02*
X78970000Y-68006000D01*
X81470000Y-53002000D02*
X72845000Y-53002000D01*
X81470000Y-56910000D02*
X81470000Y-53002000D01*
X81470000Y-56956000D02*
X76420000Y-57002000D01*
X72845000Y-53002001D02*
G75*
G03*
X70581001Y-54886000I-190000J-2073999D01*
G01*
X74390000Y-67256000D02*
G75*
G03*
X73170000Y-65836000I-1320000J100000D01*
G01*
X76445000Y-57006001D02*
G75*
G03*
X74185001Y-58885999I-190001J-2069997D01*
G01*
X74100001Y-61206000D02*
G75*
G03*
X76470000Y-63375999I2269999J100000D01*
G01*
%TO.C,D20*%
X163005000Y-83660000D02*
X163005000Y-82160000D01*
X163005000Y-82160000D02*
X157605000Y-82160000D01*
X160805000Y-83410000D02*
X160805000Y-82410000D01*
X160705000Y-82910000D02*
X159805000Y-83410000D01*
X159805000Y-83410000D02*
X159805000Y-82410000D01*
X159805000Y-82410000D02*
X160705000Y-82910000D01*
X157605000Y-83660000D02*
X163005000Y-83660000D01*
X157605000Y-82160000D02*
X157605000Y-83660000D01*
%TO.C,D13*%
X128180000Y-101070000D02*
X128180000Y-99570000D01*
X128180000Y-99570000D02*
X122780000Y-99570000D01*
X125980000Y-100820000D02*
X125980000Y-99820000D01*
X125880000Y-100320000D02*
X124980000Y-100820000D01*
X124980000Y-100820000D02*
X124980000Y-99820000D01*
X124980000Y-99820000D02*
X125880000Y-100320000D01*
X122780000Y-101070000D02*
X128180000Y-101070000D01*
X122780000Y-99570000D02*
X122780000Y-101070000D01*
%TO.C,D7*%
X103284000Y-57900000D02*
X103284000Y-56400000D01*
X103284000Y-56400000D02*
X97884000Y-56400000D01*
X101084000Y-57650000D02*
X101084000Y-56650000D01*
X100984000Y-57150000D02*
X100084000Y-57650000D01*
X100084000Y-57650000D02*
X100084000Y-56650000D01*
X100084000Y-56650000D02*
X100984000Y-57150000D01*
X97884000Y-57900000D02*
X103284000Y-57900000D01*
X97884000Y-56400000D02*
X97884000Y-57900000D01*
%TO.C,D1*%
X61090000Y-80106000D02*
X61090000Y-78606000D01*
X61090000Y-78606000D02*
X55690000Y-78606000D01*
X58890000Y-79856000D02*
X58890000Y-78856000D01*
X58790000Y-79356000D02*
X57890000Y-79856000D01*
X57890000Y-79856000D02*
X57890000Y-78856000D01*
X57890000Y-78856000D02*
X58790000Y-79356000D01*
X55690000Y-80106000D02*
X61090000Y-80106000D01*
X55690000Y-78606000D02*
X55690000Y-80106000D01*
%TO.C,SW11*%
X109495000Y-59440000D02*
X109470001Y-64040000D01*
X110670000Y-53190000D02*
X110670000Y-57135000D01*
X110670000Y-57144000D02*
X114280000Y-57144000D01*
X113270000Y-64065000D02*
X109495000Y-64065000D01*
X114195000Y-59415000D02*
X109495000Y-59415000D01*
X114490000Y-65540000D02*
X114490000Y-66240000D01*
X119045000Y-61615000D02*
X116495000Y-61615000D01*
X119045000Y-66265000D02*
X114495000Y-66265000D01*
X119070000Y-61639999D02*
X119070000Y-66240000D01*
X121570000Y-51236000D02*
X112945000Y-51236000D01*
X121570000Y-55144000D02*
X121570000Y-51236000D01*
X121570000Y-55190000D02*
X116520000Y-55236000D01*
X112945000Y-51236001D02*
G75*
G03*
X110681001Y-53120000I-190000J-2073999D01*
G01*
X114490000Y-65490000D02*
G75*
G03*
X113270000Y-64070000I-1320000J100000D01*
G01*
X116545000Y-55240001D02*
G75*
G03*
X114285001Y-57119999I-190001J-2069997D01*
G01*
X114200001Y-59440000D02*
G75*
G03*
X116570000Y-61609999I2269999J100000D01*
G01*
%TO.C,SW3*%
X47005000Y-110806000D02*
X46980001Y-115406000D01*
X48180000Y-104556000D02*
X48180000Y-108501000D01*
X48180000Y-108510000D02*
X51790000Y-108510000D01*
X50780000Y-115431000D02*
X47005000Y-115431000D01*
X51705000Y-110781000D02*
X47005000Y-110781000D01*
X52000000Y-116906000D02*
X52000000Y-117606000D01*
X56555000Y-112981000D02*
X54005000Y-112981000D01*
X56555000Y-117631000D02*
X52005000Y-117631000D01*
X56580000Y-113005999D02*
X56580000Y-117606000D01*
X59080000Y-102602000D02*
X50455000Y-102602000D01*
X59080000Y-106510000D02*
X59080000Y-102602000D01*
X59080000Y-106556000D02*
X54030000Y-106602000D01*
X50455000Y-102602001D02*
G75*
G03*
X48191001Y-104486000I-190000J-2073999D01*
G01*
X52000000Y-116856000D02*
G75*
G03*
X50780000Y-115436000I-1320000J100000D01*
G01*
X54055000Y-106606001D02*
G75*
G03*
X51795001Y-108485999I-190001J-2069997D01*
G01*
X51710001Y-110806000D02*
G75*
G03*
X54080000Y-112975999I2269999J100000D01*
G01*
%TO.C,D17*%
X152805393Y-106404764D02*
X153193622Y-104955875D01*
X153193622Y-104955875D02*
X147977623Y-103558252D01*
X150745061Y-105593880D02*
X151003880Y-104627955D01*
X150777878Y-105085036D02*
X149779136Y-105335061D01*
X149779136Y-105335061D02*
X150037955Y-104369136D01*
X150037955Y-104369136D02*
X150777878Y-105085036D01*
X147589394Y-105007141D02*
X152805393Y-106404764D01*
X147977623Y-103558252D02*
X147589394Y-105007141D01*
%TO.C,SW20*%
X149435000Y-92330000D02*
X149410001Y-96930000D01*
X150610000Y-86080000D02*
X150610000Y-90025000D01*
X150610000Y-90034000D02*
X154220000Y-90034000D01*
X153210000Y-96955000D02*
X149435000Y-96955000D01*
X154135000Y-92305000D02*
X149435000Y-92305000D01*
X154430000Y-98430000D02*
X154430000Y-99130000D01*
X158985000Y-94505000D02*
X156435000Y-94505000D01*
X158985000Y-99155000D02*
X154435000Y-99155000D01*
X159010000Y-94529999D02*
X159010000Y-99130000D01*
X161510000Y-84126000D02*
X152885000Y-84126000D01*
X161510000Y-88034000D02*
X161510000Y-84126000D01*
X161510000Y-88080000D02*
X156460000Y-88126000D01*
X152885000Y-84126001D02*
G75*
G03*
X150621001Y-86010000I-190000J-2073999D01*
G01*
X154430000Y-98380000D02*
G75*
G03*
X153210000Y-96960000I-1320000J100000D01*
G01*
X156485000Y-88130001D02*
G75*
G03*
X154225001Y-90009999I-190001J-2069997D01*
G01*
X154140001Y-92330000D02*
G75*
G03*
X156510000Y-94499999I2269999J100000D01*
G01*
%TO.C,D9*%
X103445000Y-80560000D02*
X103445000Y-79060000D01*
X103445000Y-79060000D02*
X98045000Y-79060000D01*
X101245000Y-80310000D02*
X101245000Y-79310000D01*
X101145000Y-79810000D02*
X100245000Y-80310000D01*
X100245000Y-80310000D02*
X100245000Y-79310000D01*
X100245000Y-79310000D02*
X101145000Y-79810000D01*
X98045000Y-80560000D02*
X103445000Y-80560000D01*
X98045000Y-79060000D02*
X98045000Y-80560000D01*
%TO.C,D5*%
X83240000Y-72680000D02*
X83240000Y-71180000D01*
X83240000Y-71180000D02*
X77840000Y-71180000D01*
X81040000Y-72430000D02*
X81040000Y-71430000D01*
X80940000Y-71930000D02*
X80040000Y-72430000D01*
X80040000Y-72430000D02*
X80040000Y-71430000D01*
X80040000Y-71430000D02*
X80940000Y-71930000D01*
X77840000Y-72680000D02*
X83240000Y-72680000D01*
X77840000Y-71180000D02*
X77840000Y-72680000D01*
%TO.C,SW15*%
X129375000Y-68240000D02*
X129350001Y-72840000D01*
X130550000Y-61990000D02*
X130550000Y-65935000D01*
X130550000Y-65944000D02*
X134160000Y-65944000D01*
X133150000Y-72865000D02*
X129375000Y-72865000D01*
X134075000Y-68215000D02*
X129375000Y-68215000D01*
X134370000Y-74340000D02*
X134370000Y-75040000D01*
X138925000Y-70415000D02*
X136375000Y-70415000D01*
X138925000Y-75065000D02*
X134375000Y-75065000D01*
X138950000Y-70439999D02*
X138950000Y-75040000D01*
X141450000Y-60036000D02*
X132825000Y-60036000D01*
X141450000Y-63944000D02*
X141450000Y-60036000D01*
X141450000Y-63990000D02*
X136400000Y-64036000D01*
X132825000Y-60036001D02*
G75*
G03*
X130561001Y-61920000I-190000J-2073999D01*
G01*
X134370000Y-74290000D02*
G75*
G03*
X133150000Y-72870000I-1320000J100000D01*
G01*
X136425000Y-64040001D02*
G75*
G03*
X134165001Y-65919999I-190001J-2069997D01*
G01*
X134080001Y-68240000D02*
G75*
G03*
X136450000Y-70409999I2269999J100000D01*
G01*
%TO.C,SW8*%
X89465000Y-69160000D02*
X89440001Y-73760000D01*
X90640000Y-62910000D02*
X90640000Y-66855000D01*
X90640000Y-66864000D02*
X94250000Y-66864000D01*
X93240000Y-73785000D02*
X89465000Y-73785000D01*
X94165000Y-69135000D02*
X89465000Y-69135000D01*
X94460000Y-75260000D02*
X94460000Y-75960000D01*
X99015000Y-71335000D02*
X96465000Y-71335000D01*
X99015000Y-75985000D02*
X94465000Y-75985000D01*
X99040000Y-71359999D02*
X99040000Y-75960000D01*
X101540000Y-60956000D02*
X92915000Y-60956000D01*
X101540000Y-64864000D02*
X101540000Y-60956000D01*
X101540000Y-64910000D02*
X96490000Y-64956000D01*
X92915000Y-60956001D02*
G75*
G03*
X90651001Y-62840000I-190000J-2073999D01*
G01*
X94460000Y-75210000D02*
G75*
G03*
X93240000Y-73790000I-1320000J100000D01*
G01*
X96515000Y-64960001D02*
G75*
G03*
X94255001Y-66839999I-190001J-2069997D01*
G01*
X94170001Y-69160000D02*
G75*
G03*
X96540000Y-71329999I2269999J100000D01*
G01*
%TO.C,SW12*%
X109585000Y-79520000D02*
X109560001Y-84120000D01*
X110760000Y-73270000D02*
X110760000Y-77215000D01*
X110760000Y-77224000D02*
X114370000Y-77224000D01*
X113360000Y-84145000D02*
X109585000Y-84145000D01*
X114285000Y-79495000D02*
X109585000Y-79495000D01*
X114580000Y-85620000D02*
X114580000Y-86320000D01*
X119135000Y-81695000D02*
X116585000Y-81695000D01*
X119135000Y-86345000D02*
X114585000Y-86345000D01*
X119160000Y-81719999D02*
X119160000Y-86320000D01*
X121660000Y-71316000D02*
X113035000Y-71316000D01*
X121660000Y-75224000D02*
X121660000Y-71316000D01*
X121660000Y-75270000D02*
X116610000Y-75316000D01*
X113035000Y-71316001D02*
G75*
G03*
X110771001Y-73200000I-190000J-2073999D01*
G01*
X114580000Y-85570000D02*
G75*
G03*
X113360000Y-84150000I-1320000J100000D01*
G01*
X116635000Y-75320001D02*
G75*
G03*
X114375001Y-77199999I-190001J-2069997D01*
G01*
X114290001Y-79520000D02*
G75*
G03*
X116660000Y-81689999I2269999J100000D01*
G01*
%TO.C,D19*%
X163455000Y-63790000D02*
X163455000Y-62290000D01*
X163455000Y-62290000D02*
X158055000Y-62290000D01*
X161255000Y-63540000D02*
X161255000Y-62540000D01*
X161155000Y-63040000D02*
X160255000Y-63540000D01*
X160255000Y-63540000D02*
X160255000Y-62540000D01*
X160255000Y-62540000D02*
X161155000Y-63040000D01*
X158055000Y-63790000D02*
X163455000Y-63790000D01*
X158055000Y-62290000D02*
X158055000Y-63790000D01*
%TO.C,D21*%
X175246074Y-117492019D02*
X175996074Y-116192981D01*
X175996074Y-116192981D02*
X171319536Y-113492981D01*
X173465818Y-116175513D02*
X173965818Y-115309487D01*
X173629215Y-115692500D02*
X172599792Y-115675513D01*
X172599792Y-115675513D02*
X173099792Y-114809487D01*
X173099792Y-114809487D02*
X173629215Y-115692500D01*
X170569536Y-114792019D02*
X175246074Y-117492019D01*
X171319536Y-113492981D02*
X170569536Y-114792019D01*
%TO.C,D8*%
X103515000Y-60530000D02*
X103515000Y-59030000D01*
X103515000Y-59030000D02*
X98115000Y-59030000D01*
X101315000Y-60280000D02*
X101315000Y-59280000D01*
X101215000Y-59780000D02*
X100315000Y-60280000D01*
X100315000Y-60280000D02*
X100315000Y-59280000D01*
X100315000Y-59280000D02*
X101215000Y-59780000D01*
X98115000Y-60530000D02*
X103515000Y-60530000D01*
X98115000Y-59030000D02*
X98115000Y-60530000D01*
%TO.C,SW2*%
X47065000Y-90790000D02*
X47040001Y-95390000D01*
X48240000Y-84540000D02*
X48240000Y-88485000D01*
X48240000Y-88494000D02*
X51850000Y-88494000D01*
X50840000Y-95415000D02*
X47065000Y-95415000D01*
X51765000Y-90765000D02*
X47065000Y-90765000D01*
X52060000Y-96890000D02*
X52060000Y-97590000D01*
X56615000Y-92965000D02*
X54065000Y-92965000D01*
X56615000Y-97615000D02*
X52065000Y-97615000D01*
X56640000Y-92989999D02*
X56640000Y-97590000D01*
X59140000Y-82586000D02*
X50515000Y-82586000D01*
X59140000Y-86494000D02*
X59140000Y-82586000D01*
X59140000Y-86540000D02*
X54090000Y-86586000D01*
X50515000Y-82586001D02*
G75*
G03*
X48251001Y-84470000I-190000J-2073999D01*
G01*
X52060000Y-96840000D02*
G75*
G03*
X50840000Y-95420000I-1320000J100000D01*
G01*
X54115000Y-86590001D02*
G75*
G03*
X51855001Y-88469999I-190001J-2069997D01*
G01*
X51770001Y-90790000D02*
G75*
G03*
X54140000Y-92959999I2269999J100000D01*
G01*
%TO.C,D4*%
X83210000Y-70092000D02*
X83210000Y-68592000D01*
X83210000Y-68592000D02*
X77810000Y-68592000D01*
X81010000Y-69842000D02*
X81010000Y-68842000D01*
X80910000Y-69342000D02*
X80010000Y-69842000D01*
X80010000Y-69842000D02*
X80010000Y-68842000D01*
X80010000Y-68842000D02*
X80910000Y-69342000D01*
X77810000Y-70092000D02*
X83210000Y-70092000D01*
X77810000Y-68592000D02*
X77810000Y-70092000D01*
%TO.C,SW17*%
X136946743Y-111116088D02*
X135732028Y-115552876D01*
X139699325Y-105383164D02*
X138678284Y-109193741D01*
X138675954Y-109202434D02*
X142162947Y-110136771D01*
X139396075Y-116560536D02*
X135749705Y-115583495D01*
X141493065Y-112308389D02*
X136953213Y-111091939D01*
X140192746Y-118301036D02*
X140011573Y-118977184D01*
X145608403Y-115688698D02*
X143145292Y-115028710D01*
X144404895Y-120180253D02*
X140009932Y-119002627D01*
X145626081Y-115719316D02*
X144435513Y-120162576D01*
X150733649Y-106316872D02*
X142402538Y-104084558D01*
X149722184Y-110091710D02*
X150733649Y-106316872D01*
X149710278Y-110136143D02*
X144820447Y-108873539D01*
X142402538Y-104084557D02*
G75*
G03*
X139728067Y-105318396I-720316J-1954155D01*
G01*
X140205687Y-118252740D02*
G75*
G03*
X139394781Y-116565366I-1249140J438234D01*
G01*
X144843560Y-108883874D02*
G75*
G03*
X142173989Y-110114882I-719282J-1950288D01*
G01*
X141491425Y-112333831D02*
G75*
G03*
X143219031Y-115043290I2218532J-490927D01*
G01*
%TO.C,D10*%
X123350000Y-48248000D02*
X123350000Y-46748000D01*
X123350000Y-46748000D02*
X117950000Y-46748000D01*
X121150000Y-47998000D02*
X121150000Y-46998000D01*
X121050000Y-47498000D02*
X120150000Y-47998000D01*
X120150000Y-47998000D02*
X120150000Y-46998000D01*
X120150000Y-46998000D02*
X121050000Y-47498000D01*
X117950000Y-48248000D02*
X123350000Y-48248000D01*
X117950000Y-46748000D02*
X117950000Y-48248000D01*
%TO.C,SW19*%
X149505000Y-72420000D02*
X149480001Y-77020000D01*
X150680000Y-66170000D02*
X150680000Y-70115000D01*
X150680000Y-70124000D02*
X154290000Y-70124000D01*
X153280000Y-77045000D02*
X149505000Y-77045000D01*
X154205000Y-72395000D02*
X149505000Y-72395000D01*
X154500000Y-78520000D02*
X154500000Y-79220000D01*
X159055000Y-74595000D02*
X156505000Y-74595000D01*
X159055000Y-79245000D02*
X154505000Y-79245000D01*
X159080000Y-74619999D02*
X159080000Y-79220000D01*
X161580000Y-64216000D02*
X152955000Y-64216000D01*
X161580000Y-68124000D02*
X161580000Y-64216000D01*
X161580000Y-68170000D02*
X156530000Y-68216000D01*
X152955000Y-64216001D02*
G75*
G03*
X150691001Y-66100000I-190000J-2073999D01*
G01*
X154500000Y-78470000D02*
G75*
G03*
X153280000Y-77050000I-1320000J100000D01*
G01*
X156555000Y-68220001D02*
G75*
G03*
X154295001Y-70099999I-190001J-2069997D01*
G01*
X154210001Y-72420000D02*
G75*
G03*
X156580000Y-74589999I2269999J100000D01*
G01*
%TO.C,D12*%
X123485000Y-70890000D02*
X123485000Y-69390000D01*
X123485000Y-69390000D02*
X118085000Y-69390000D01*
X121285000Y-70640000D02*
X121285000Y-69640000D01*
X121185000Y-70140000D02*
X120285000Y-70640000D01*
X120285000Y-70640000D02*
X120285000Y-69640000D01*
X120285000Y-69640000D02*
X121185000Y-70140000D01*
X118085000Y-70890000D02*
X123485000Y-70890000D01*
X118085000Y-69390000D02*
X118085000Y-70890000D01*
%TO.C,J2*%
X186957500Y-86445000D02*
X186957500Y-86945000D01*
X174957500Y-86445000D02*
X186957500Y-86445000D01*
X186957500Y-86945000D02*
X188857500Y-86945000D01*
X188857500Y-86995000D02*
X188857500Y-91945000D01*
X186957500Y-91945000D02*
X188857500Y-91945000D01*
X186957500Y-92445000D02*
X186957500Y-91945000D01*
X186957500Y-92445000D02*
X174957500Y-92445000D01*
X174957500Y-92445000D02*
X174957500Y-86445000D01*
%TO.C,SW18*%
X149505000Y-52410000D02*
X149480001Y-57010000D01*
X150680000Y-46160000D02*
X150680000Y-50105000D01*
X150680000Y-50114000D02*
X154290000Y-50114000D01*
X153280000Y-57035000D02*
X149505000Y-57035000D01*
X154205000Y-52385000D02*
X149505000Y-52385000D01*
X154500000Y-58510000D02*
X154500000Y-59210000D01*
X159055000Y-54585000D02*
X156505000Y-54585000D01*
X159055000Y-59235000D02*
X154505000Y-59235000D01*
X159080000Y-54609999D02*
X159080000Y-59210000D01*
X161580000Y-44206000D02*
X152955000Y-44206000D01*
X161580000Y-48114000D02*
X161580000Y-44206000D01*
X161580000Y-48160000D02*
X156530000Y-48206000D01*
X152955000Y-44206001D02*
G75*
G03*
X150691001Y-46090000I-190000J-2073999D01*
G01*
X154500000Y-58460000D02*
G75*
G03*
X153280000Y-57040000I-1320000J100000D01*
G01*
X156555000Y-48210001D02*
G75*
G03*
X154295001Y-50089999I-190001J-2069997D01*
G01*
X154210001Y-52410000D02*
G75*
G03*
X156580000Y-54579999I2269999J100000D01*
G01*
%TO.C,SW10*%
X109495000Y-39460000D02*
X109470001Y-44060000D01*
X110670000Y-33210000D02*
X110670000Y-37155000D01*
X110670000Y-37164000D02*
X114280000Y-37164000D01*
X113270000Y-44085000D02*
X109495000Y-44085000D01*
X114195000Y-39435000D02*
X109495000Y-39435000D01*
X114490000Y-45560000D02*
X114490000Y-46260000D01*
X119045000Y-41635000D02*
X116495000Y-41635000D01*
X119045000Y-46285000D02*
X114495000Y-46285000D01*
X119070000Y-41659999D02*
X119070000Y-46260000D01*
X121570000Y-31256000D02*
X112945000Y-31256000D01*
X121570000Y-35164000D02*
X121570000Y-31256000D01*
X121570000Y-35210000D02*
X116520000Y-35256000D01*
X112945000Y-31256001D02*
G75*
G03*
X110681001Y-33140000I-190000J-2073999D01*
G01*
X114490000Y-45510000D02*
G75*
G03*
X113270000Y-44090000I-1320000J100000D01*
G01*
X116545000Y-35260001D02*
G75*
G03*
X114285001Y-37139999I-190001J-2069997D01*
G01*
X114200001Y-39460000D02*
G75*
G03*
X116570000Y-41629999I2269999J100000D01*
G01*
%TO.C,SW21*%
X158844765Y-118005336D02*
X156523115Y-121976553D01*
X162987345Y-113180177D02*
X161014845Y-116596647D01*
X161010345Y-116604441D02*
X164136697Y-118409441D01*
X159801511Y-123898203D02*
X156532265Y-122010703D01*
X162927585Y-120333685D02*
X158857265Y-117983685D01*
X160120562Y-125785591D02*
X159770562Y-126391808D01*
X166027808Y-124663941D02*
X163819443Y-123388941D01*
X163702808Y-128690959D02*
X159762392Y-126415959D01*
X166036959Y-124698091D02*
X163736958Y-128681808D01*
X173404022Y-116937963D02*
X165934553Y-112625463D01*
X171450022Y-120322390D02*
X173404022Y-116937963D01*
X171427022Y-120362228D02*
X167030594Y-117877065D01*
X165934553Y-112625463D02*
G75*
G03*
X163031871Y-113125055I-1201545J-1701137D01*
G01*
X160145562Y-125742289D02*
G75*
G03*
X159799011Y-123902533I-1093153J746602D01*
G01*
X167050244Y-117893029D02*
G75*
G03*
X164153029Y-118391156I-1199544J-1697673D01*
G01*
X162919415Y-120357836D02*
G75*
G03*
X163886895Y-123422110I2015877J-1048397D01*
G01*
%TO.C,D2*%
X61045000Y-82186000D02*
X61045000Y-80686000D01*
X61045000Y-80686000D02*
X55645000Y-80686000D01*
X58845000Y-81936000D02*
X58845000Y-80936000D01*
X58745000Y-81436000D02*
X57845000Y-81936000D01*
X57845000Y-81936000D02*
X57845000Y-80936000D01*
X57845000Y-80936000D02*
X58745000Y-81436000D01*
X55645000Y-82186000D02*
X61045000Y-82186000D01*
X55645000Y-80686000D02*
X55645000Y-82186000D01*
%TO.C,D18*%
X163739000Y-61202000D02*
X163739000Y-59702000D01*
X163739000Y-59702000D02*
X158339000Y-59702000D01*
X161539000Y-60952000D02*
X161539000Y-59952000D01*
X161439000Y-60452000D02*
X160539000Y-60952000D01*
X160539000Y-60952000D02*
X160539000Y-59952000D01*
X160539000Y-59952000D02*
X161439000Y-60452000D01*
X158339000Y-61202000D02*
X163739000Y-61202000D01*
X158339000Y-59702000D02*
X158339000Y-61202000D01*
%TO.C,SW14*%
X129395000Y-48250000D02*
X129370001Y-52850000D01*
X130570000Y-42000000D02*
X130570000Y-45945000D01*
X130570000Y-45954000D02*
X134180000Y-45954000D01*
X133170000Y-52875000D02*
X129395000Y-52875000D01*
X134095000Y-48225000D02*
X129395000Y-48225000D01*
X134390000Y-54350000D02*
X134390000Y-55050000D01*
X138945000Y-50425000D02*
X136395000Y-50425000D01*
X138945000Y-55075000D02*
X134395000Y-55075000D01*
X138970000Y-50449999D02*
X138970000Y-55050000D01*
X141470000Y-40046000D02*
X132845000Y-40046000D01*
X141470000Y-43954000D02*
X141470000Y-40046000D01*
X141470000Y-44000000D02*
X136420000Y-44046000D01*
X132845000Y-40046001D02*
G75*
G03*
X130581001Y-41930000I-190000J-2073999D01*
G01*
X134390000Y-54300000D02*
G75*
G03*
X133170000Y-52880000I-1320000J100000D01*
G01*
X136445000Y-44050001D02*
G75*
G03*
X134185001Y-45929999I-190001J-2069997D01*
G01*
X134100001Y-48250000D02*
G75*
G03*
X136470000Y-50419999I2269999J100000D01*
G01*
%TO.C,D3*%
X61195000Y-102156000D02*
X61195000Y-100656000D01*
X61195000Y-100656000D02*
X55795000Y-100656000D01*
X58995000Y-101906000D02*
X58995000Y-100906000D01*
X58895000Y-101406000D02*
X57995000Y-101906000D01*
X57995000Y-101906000D02*
X57995000Y-100906000D01*
X57995000Y-100906000D02*
X58895000Y-101406000D01*
X55795000Y-102156000D02*
X61195000Y-102156000D01*
X55795000Y-100656000D02*
X55795000Y-102156000D01*
%TO.C,D6*%
X83140000Y-92650000D02*
X83140000Y-91150000D01*
X83140000Y-91150000D02*
X77740000Y-91150000D01*
X80940000Y-92400000D02*
X80940000Y-91400000D01*
X80840000Y-91900000D02*
X79940000Y-92400000D01*
X79940000Y-92400000D02*
X79940000Y-91400000D01*
X79940000Y-91400000D02*
X80840000Y-91900000D01*
X77740000Y-92650000D02*
X83140000Y-92650000D01*
X77740000Y-91150000D02*
X77740000Y-92650000D01*
%TO.C,D15*%
X143000000Y-59590000D02*
X143000000Y-58090000D01*
X143000000Y-58090000D02*
X137600000Y-58090000D01*
X140800000Y-59340000D02*
X140800000Y-58340000D01*
X140700000Y-58840000D02*
X139800000Y-59340000D01*
X139800000Y-59340000D02*
X139800000Y-58340000D01*
X139800000Y-58340000D02*
X140700000Y-58840000D01*
X137600000Y-59590000D02*
X143000000Y-59590000D01*
X137600000Y-58090000D02*
X137600000Y-59590000D01*
%TO.C,SW16*%
X129455000Y-88330000D02*
X129430001Y-92930000D01*
X130630000Y-82080000D02*
X130630000Y-86025000D01*
X130630000Y-86034000D02*
X134240000Y-86034000D01*
X133230000Y-92955000D02*
X129455000Y-92955000D01*
X134155000Y-88305000D02*
X129455000Y-88305000D01*
X134450000Y-94430000D02*
X134450000Y-95130000D01*
X139005000Y-90505000D02*
X136455000Y-90505000D01*
X139005000Y-95155000D02*
X134455000Y-95155000D01*
X139030000Y-90529999D02*
X139030000Y-95130000D01*
X141530000Y-80126000D02*
X132905000Y-80126000D01*
X141530000Y-84034000D02*
X141530000Y-80126000D01*
X141530000Y-84080000D02*
X136480000Y-84126000D01*
X132905000Y-80126001D02*
G75*
G03*
X130641001Y-82010000I-190000J-2073999D01*
G01*
X134450000Y-94380000D02*
G75*
G03*
X133230000Y-92960000I-1320000J100000D01*
G01*
X136505000Y-84130001D02*
G75*
G03*
X134245001Y-86009999I-190001J-2069997D01*
G01*
X134160001Y-88330000D02*
G75*
G03*
X136530000Y-90499999I2269999J100000D01*
G01*
%TO.C,SW7*%
X89495000Y-49150000D02*
X89470001Y-53750000D01*
X90670000Y-42900000D02*
X90670000Y-46845000D01*
X90670000Y-46854000D02*
X94280000Y-46854000D01*
X93270000Y-53775000D02*
X89495000Y-53775000D01*
X94195000Y-49125000D02*
X89495000Y-49125000D01*
X94490000Y-55250000D02*
X94490000Y-55950000D01*
X99045000Y-51325000D02*
X96495000Y-51325000D01*
X99045000Y-55975000D02*
X94495000Y-55975000D01*
X99070000Y-51349999D02*
X99070000Y-55950000D01*
X101570000Y-40946000D02*
X92945000Y-40946000D01*
X101570000Y-44854000D02*
X101570000Y-40946000D01*
X101570000Y-44900000D02*
X96520000Y-44946000D01*
X92945000Y-40946001D02*
G75*
G03*
X90681001Y-42830000I-190000J-2073999D01*
G01*
X94490000Y-55200000D02*
G75*
G03*
X93270000Y-53780000I-1320000J100000D01*
G01*
X96545000Y-44950001D02*
G75*
G03*
X94285001Y-46829999I-190001J-2069997D01*
G01*
X94200001Y-49150000D02*
G75*
G03*
X96570000Y-51319999I2269999J100000D01*
G01*
%TO.C,SW1*%
X47093000Y-70817500D02*
X47068001Y-75417500D01*
X48268000Y-64567500D02*
X48268000Y-68512500D01*
X48268000Y-68521500D02*
X51878000Y-68521500D01*
X50868000Y-75442500D02*
X47093000Y-75442500D01*
X51793000Y-70792500D02*
X47093000Y-70792500D01*
X52088000Y-76917500D02*
X52088000Y-77617500D01*
X56643000Y-72992500D02*
X54093000Y-72992500D01*
X56643000Y-77642500D02*
X52093000Y-77642500D01*
X56668000Y-73017499D02*
X56668000Y-77617500D01*
X59168000Y-62613500D02*
X50543000Y-62613500D01*
X59168000Y-66521500D02*
X59168000Y-62613500D01*
X59168000Y-66567500D02*
X54118000Y-66613500D01*
X50543000Y-62613501D02*
G75*
G03*
X48279001Y-64497500I-190000J-2073999D01*
G01*
X52088000Y-76867500D02*
G75*
G03*
X50868000Y-75447500I-1320000J100000D01*
G01*
X54143000Y-66617501D02*
G75*
G03*
X51883001Y-68497499I-190001J-2069997D01*
G01*
X51798001Y-70817500D02*
G75*
G03*
X54168000Y-72987499I2269999J100000D01*
G01*
%TD*%
D11*
%TO.C,U1*%
X186638815Y-46375745D03*
X186638815Y-48915745D03*
X186638815Y-51455745D03*
X186638815Y-53995745D03*
X186638815Y-56535745D03*
X186638815Y-59075745D03*
X186638815Y-61615745D03*
X186638815Y-64155745D03*
X186638815Y-66695745D03*
X186638815Y-69235745D03*
X186638815Y-71775745D03*
X186638815Y-74315745D03*
X171398815Y-74315745D03*
X171398815Y-71775745D03*
X171398815Y-69235745D03*
X171398815Y-66695745D03*
X171398815Y-64155745D03*
X171398815Y-61615745D03*
X171398815Y-59075745D03*
X171398815Y-56535745D03*
X171398815Y-53995745D03*
X171398815Y-51455745D03*
X171398815Y-48915745D03*
X171398815Y-46375745D03*
%TD*%
%LPC*%
D12*
%TO.C,SW9*%
X91130000Y-87780000D03*
D13*
X91550000Y-87780000D03*
D14*
X91630000Y-91480000D03*
D15*
X92805000Y-85200000D03*
D14*
X92820000Y-85239999D03*
X94090000Y-82700000D03*
D16*
X96630000Y-87780000D03*
D14*
X96630000Y-93680000D03*
X99170000Y-82700000D03*
X100440000Y-85240000D03*
X100440000Y-85240000D03*
D15*
X100455000Y-85200000D03*
D14*
X101630000Y-91480000D03*
D13*
X101710000Y-87780000D03*
D12*
X102130000Y-87780000D03*
D17*
X88130000Y-85280000D03*
D18*
X88530000Y-91480000D03*
D19*
X89730000Y-85240000D03*
D20*
X99430000Y-93680000D03*
D21*
X102330000Y-82700000D03*
D17*
X103830000Y-82680000D03*
%TD*%
D12*
%TO.C,SW13*%
X115835400Y-108266000D03*
D13*
X116255400Y-108266000D03*
D14*
X116335400Y-111966000D03*
D15*
X117510400Y-105686000D03*
D14*
X117525400Y-105725999D03*
X118795400Y-103186000D03*
D16*
X121335400Y-108266000D03*
D14*
X121335400Y-114166000D03*
X123875400Y-103186000D03*
X125145400Y-105726000D03*
X125145400Y-105726000D03*
D15*
X125160400Y-105686000D03*
D14*
X126335400Y-111966000D03*
D13*
X126415400Y-108266000D03*
D12*
X126835400Y-108266000D03*
D17*
X112835400Y-105766000D03*
D18*
X113235400Y-111966000D03*
D19*
X114435400Y-105726000D03*
D20*
X124135400Y-114166000D03*
D21*
X127035400Y-103186000D03*
D17*
X128535400Y-103166000D03*
%TD*%
D22*
%TO.C,D14*%
X144160000Y-56134000D03*
D23*
X142125000Y-56134000D03*
X138575000Y-56134000D03*
D24*
X136540000Y-56134000D03*
%TD*%
D25*
%TO.C,RSW1*%
X186930000Y-78370000D03*
X186930000Y-84870000D03*
%TD*%
D11*
%TO.C,U1*%
X170100000Y-45180000D03*
X186638815Y-46375745D03*
X170100000Y-47720000D03*
X186638815Y-48915745D03*
X170100000Y-50260000D03*
X186638815Y-51455745D03*
X170100000Y-52800000D03*
X186638815Y-53995745D03*
X170100000Y-55340000D03*
X186638815Y-56535745D03*
X170100000Y-57880000D03*
X186638815Y-59075745D03*
X170100000Y-60420000D03*
X186638815Y-61615745D03*
X170100000Y-62960000D03*
X186638815Y-64155745D03*
X170100000Y-65500000D03*
X186638815Y-66695745D03*
X170100000Y-68040000D03*
X186638815Y-69235745D03*
X170100000Y-70580000D03*
X186638815Y-71775745D03*
X170100000Y-73120000D03*
X186638815Y-74315745D03*
X171398815Y-74315745D03*
X185340000Y-73120000D03*
X171398815Y-71775745D03*
X185340000Y-70580000D03*
X171398815Y-69235745D03*
X185340000Y-68040000D03*
X171398815Y-66695745D03*
X185340000Y-65500000D03*
X171398815Y-64155745D03*
X185340000Y-62960000D03*
X171398815Y-61615745D03*
X185340000Y-60420000D03*
X171398815Y-59075745D03*
X185340000Y-57880000D03*
X171398815Y-56535745D03*
X185340000Y-55340000D03*
X171398815Y-53995745D03*
X185340000Y-52800000D03*
X171398815Y-51455745D03*
X185340000Y-50260000D03*
X171398815Y-48915745D03*
X185340000Y-47720000D03*
X171398815Y-46375745D03*
X185340000Y-45180000D03*
%TD*%
D22*
%TO.C,D16*%
X144550000Y-78930000D03*
D23*
X142515000Y-78930000D03*
X138965000Y-78930000D03*
D24*
X136930000Y-78930000D03*
%TD*%
D16*
%TO.C,MH1*%
X66080000Y-116780000D03*
%TD*%
%TO.C,MH2*%
X66080000Y-46760000D03*
%TD*%
D12*
%TO.C,SW6*%
X71200000Y-99756000D03*
D13*
X71620000Y-99756000D03*
D14*
X71700000Y-103456000D03*
D15*
X72875000Y-97176000D03*
D14*
X72890000Y-97215999D03*
X74160000Y-94676000D03*
D16*
X76700000Y-99756000D03*
D14*
X76700000Y-105656000D03*
X79240000Y-94676000D03*
X80510000Y-97216000D03*
X80510000Y-97216000D03*
D15*
X80525000Y-97176000D03*
D14*
X81700000Y-103456000D03*
D13*
X81780000Y-99756000D03*
D12*
X82200000Y-99756000D03*
D17*
X68200000Y-97256000D03*
D18*
X68600000Y-103456000D03*
D19*
X69800000Y-97216000D03*
D20*
X79500000Y-105656000D03*
D21*
X82400000Y-94676000D03*
D17*
X83900000Y-94656000D03*
%TD*%
D12*
%TO.C,SW5*%
X71150000Y-79856000D03*
D13*
X71570000Y-79856000D03*
D14*
X71650000Y-83556000D03*
D15*
X72825000Y-77276000D03*
D14*
X72840000Y-77315999D03*
X74110000Y-74776000D03*
D16*
X76650000Y-79856000D03*
D14*
X76650000Y-85756000D03*
X79190000Y-74776000D03*
X80460000Y-77316000D03*
X80460000Y-77316000D03*
D15*
X80475000Y-77276000D03*
D14*
X81650000Y-83556000D03*
D13*
X81730000Y-79856000D03*
D12*
X82150000Y-79856000D03*
D17*
X68150000Y-77356000D03*
D18*
X68550000Y-83556000D03*
D19*
X69750000Y-77316000D03*
D20*
X79450000Y-85756000D03*
D21*
X82350000Y-74776000D03*
D17*
X83850000Y-74756000D03*
%TD*%
D22*
%TO.C,D11*%
X124470000Y-50110000D03*
D23*
X122435000Y-50110000D03*
X118885000Y-50110000D03*
D24*
X116850000Y-50110000D03*
%TD*%
D12*
%TO.C,SW4*%
X71170000Y-59806000D03*
D13*
X71590000Y-59806000D03*
D14*
X71670000Y-63506000D03*
D15*
X72845000Y-57226000D03*
D14*
X72860000Y-57265999D03*
X74130000Y-54726000D03*
D16*
X76670000Y-59806000D03*
D14*
X76670000Y-65706000D03*
X79210000Y-54726000D03*
X80480000Y-57266000D03*
X80480000Y-57266000D03*
D15*
X80495000Y-57226000D03*
D14*
X81670000Y-63506000D03*
D13*
X81750000Y-59806000D03*
D12*
X82170000Y-59806000D03*
D17*
X68170000Y-57306000D03*
D18*
X68570000Y-63506000D03*
D19*
X69770000Y-57266000D03*
D20*
X79470000Y-65706000D03*
D21*
X82370000Y-54726000D03*
D17*
X83870000Y-54706000D03*
%TD*%
D22*
%TO.C,D20*%
X164115000Y-82910000D03*
D23*
X162080000Y-82910000D03*
X158530000Y-82910000D03*
D24*
X156495000Y-82910000D03*
%TD*%
D22*
%TO.C,D13*%
X129290000Y-100320000D03*
D23*
X127255000Y-100320000D03*
X123705000Y-100320000D03*
D24*
X121670000Y-100320000D03*
%TD*%
D22*
%TO.C,D7*%
X104394000Y-57150000D03*
D23*
X102359000Y-57150000D03*
X98809000Y-57150000D03*
D24*
X96774000Y-57150000D03*
%TD*%
D22*
%TO.C,D1*%
X62200000Y-79356000D03*
D23*
X60165000Y-79356000D03*
X56615000Y-79356000D03*
D24*
X54580000Y-79356000D03*
%TD*%
D12*
%TO.C,SW11*%
X111270000Y-58040000D03*
D13*
X111690000Y-58040000D03*
D14*
X111770000Y-61740000D03*
D15*
X112945000Y-55460000D03*
D14*
X112960000Y-55499999D03*
X114230000Y-52960000D03*
D16*
X116770000Y-58040000D03*
D14*
X116770000Y-63940000D03*
X119310000Y-52960000D03*
X120580000Y-55500000D03*
X120580000Y-55500000D03*
D15*
X120595000Y-55460000D03*
D14*
X121770000Y-61740000D03*
D13*
X121850000Y-58040000D03*
D12*
X122270000Y-58040000D03*
D17*
X108270000Y-55540000D03*
D18*
X108670000Y-61740000D03*
D19*
X109870000Y-55500000D03*
D20*
X119570000Y-63940000D03*
D21*
X122470000Y-52960000D03*
D17*
X123970000Y-52940000D03*
%TD*%
D12*
%TO.C,SW3*%
X48780000Y-109406000D03*
D13*
X49200000Y-109406000D03*
D14*
X49280000Y-113106000D03*
D15*
X50455000Y-106826000D03*
D14*
X50470000Y-106865999D03*
X51740000Y-104326000D03*
D16*
X54280000Y-109406000D03*
D14*
X54280000Y-115306000D03*
X56820000Y-104326000D03*
X58090000Y-106866000D03*
X58090000Y-106866000D03*
D15*
X58105000Y-106826000D03*
D14*
X59280000Y-113106000D03*
D13*
X59360000Y-109406000D03*
D12*
X59780000Y-109406000D03*
D17*
X45780000Y-106906000D03*
D18*
X46180000Y-113106000D03*
D19*
X47380000Y-106866000D03*
D20*
X57080000Y-115306000D03*
D21*
X59980000Y-104326000D03*
D17*
X61480000Y-104306000D03*
%TD*%
D26*
%TO.C,D17*%
X154071685Y-105967609D03*
D27*
X152106026Y-105440912D03*
X148676990Y-104522104D03*
D24*
X146711331Y-103995407D03*
%TD*%
D16*
%TO.C,MH4*%
X107340000Y-114900000D03*
%TD*%
D12*
%TO.C,SW20*%
X151210000Y-90930000D03*
D13*
X151630000Y-90930000D03*
D14*
X151710000Y-94630000D03*
D15*
X152885000Y-88350000D03*
D14*
X152900000Y-88389999D03*
X154170000Y-85850000D03*
D16*
X156710000Y-90930000D03*
D14*
X156710000Y-96830000D03*
X159250000Y-85850000D03*
X160520000Y-88390000D03*
X160520000Y-88390000D03*
D15*
X160535000Y-88350000D03*
D14*
X161710000Y-94630000D03*
D13*
X161790000Y-90930000D03*
D12*
X162210000Y-90930000D03*
D17*
X148210000Y-88430000D03*
D18*
X148610000Y-94630000D03*
D19*
X149810000Y-88390000D03*
D20*
X159510000Y-96830000D03*
D21*
X162410000Y-85850000D03*
D17*
X163910000Y-85830000D03*
%TD*%
D22*
%TO.C,D9*%
X104555000Y-79810000D03*
D23*
X102520000Y-79810000D03*
X98970000Y-79810000D03*
D24*
X96935000Y-79810000D03*
%TD*%
D22*
%TO.C,D5*%
X84350000Y-71930000D03*
D23*
X82315000Y-71930000D03*
X78765000Y-71930000D03*
D24*
X76730000Y-71930000D03*
%TD*%
D12*
%TO.C,SW15*%
X131150000Y-66840000D03*
D13*
X131570000Y-66840000D03*
D14*
X131650000Y-70540000D03*
D15*
X132825000Y-64260000D03*
D14*
X132840000Y-64299999D03*
X134110000Y-61760000D03*
D16*
X136650000Y-66840000D03*
D14*
X136650000Y-72740000D03*
X139190000Y-61760000D03*
X140460000Y-64300000D03*
X140460000Y-64300000D03*
D15*
X140475000Y-64260000D03*
D14*
X141650000Y-70540000D03*
D13*
X141730000Y-66840000D03*
D12*
X142150000Y-66840000D03*
D17*
X128150000Y-64340000D03*
D18*
X128550000Y-70540000D03*
D19*
X129750000Y-64300000D03*
D20*
X139450000Y-72740000D03*
D21*
X142350000Y-61760000D03*
D17*
X143850000Y-61740000D03*
%TD*%
D12*
%TO.C,SW8*%
X91240000Y-67760000D03*
D13*
X91660000Y-67760000D03*
D14*
X91740000Y-71460000D03*
D15*
X92915000Y-65180000D03*
D14*
X92930000Y-65219999D03*
X94200000Y-62680000D03*
D16*
X96740000Y-67760000D03*
D14*
X96740000Y-73660000D03*
X99280000Y-62680000D03*
X100550000Y-65220000D03*
X100550000Y-65220000D03*
D15*
X100565000Y-65180000D03*
D14*
X101740000Y-71460000D03*
D13*
X101820000Y-67760000D03*
D12*
X102240000Y-67760000D03*
D17*
X88240000Y-65260000D03*
D18*
X88640000Y-71460000D03*
D19*
X89840000Y-65220000D03*
D20*
X99540000Y-73660000D03*
D21*
X102440000Y-62680000D03*
D17*
X103940000Y-62660000D03*
%TD*%
D12*
%TO.C,SW12*%
X111360000Y-78120000D03*
D13*
X111780000Y-78120000D03*
D14*
X111860000Y-81820000D03*
D15*
X113035000Y-75540000D03*
D14*
X113050000Y-75579999D03*
X114320000Y-73040000D03*
D16*
X116860000Y-78120000D03*
D14*
X116860000Y-84020000D03*
X119400000Y-73040000D03*
X120670000Y-75580000D03*
X120670000Y-75580000D03*
D15*
X120685000Y-75540000D03*
D14*
X121860000Y-81820000D03*
D13*
X121940000Y-78120000D03*
D12*
X122360000Y-78120000D03*
D17*
X108360000Y-75620000D03*
D18*
X108760000Y-81820000D03*
D19*
X109960000Y-75580000D03*
D20*
X119660000Y-84020000D03*
D21*
X122560000Y-73040000D03*
D17*
X124060000Y-73020000D03*
%TD*%
D22*
%TO.C,D19*%
X164565000Y-63040000D03*
D23*
X162530000Y-63040000D03*
X158980000Y-63040000D03*
D24*
X156945000Y-63040000D03*
%TD*%
D28*
%TO.C,D21*%
X176582362Y-117397500D03*
D29*
X174820000Y-116380000D03*
X171745610Y-114605000D03*
D24*
X169983248Y-113587500D03*
%TD*%
D22*
%TO.C,D8*%
X104625000Y-59780000D03*
D23*
X102590000Y-59780000D03*
X99040000Y-59780000D03*
D24*
X97005000Y-59780000D03*
%TD*%
D16*
%TO.C,MH3*%
X148336000Y-39624000D03*
%TD*%
D12*
%TO.C,SW2*%
X48840000Y-89390000D03*
D13*
X49260000Y-89390000D03*
D14*
X49340000Y-93090000D03*
D15*
X50515000Y-86810000D03*
D14*
X50530000Y-86849999D03*
X51800000Y-84310000D03*
D16*
X54340000Y-89390000D03*
D14*
X54340000Y-95290000D03*
X56880000Y-84310000D03*
X58150000Y-86850000D03*
X58150000Y-86850000D03*
D15*
X58165000Y-86810000D03*
D14*
X59340000Y-93090000D03*
D13*
X59420000Y-89390000D03*
D12*
X59840000Y-89390000D03*
D17*
X45840000Y-86890000D03*
D18*
X46240000Y-93090000D03*
D19*
X47440000Y-86850000D03*
D20*
X57140000Y-95290000D03*
D21*
X60040000Y-84310000D03*
D17*
X61540000Y-84290000D03*
%TD*%
D22*
%TO.C,D4*%
X84320000Y-69342000D03*
D23*
X82285000Y-69342000D03*
X78735000Y-69342000D03*
D24*
X76700000Y-69342000D03*
%TD*%
D16*
%TO.C,MH5*%
X165540000Y-102860000D03*
%TD*%
D12*
%TO.C,SW17*%
X139023608Y-110223195D03*
D13*
X139429297Y-110331899D03*
D14*
X138548940Y-113926530D03*
D15*
X141309287Y-108164629D03*
D14*
X141313423Y-108207147D03*
X143197549Y-106082396D03*
D16*
X144336200Y-111646700D03*
D14*
X142809168Y-117345662D03*
X148104452Y-107397197D03*
X148673778Y-110179349D03*
X148673778Y-110179349D03*
D15*
X148698619Y-110144594D03*
D14*
X148208199Y-116514721D03*
D13*
X149243103Y-112961501D03*
D12*
X149648792Y-113070205D03*
D30*
X136772878Y-107031924D03*
D31*
X135554570Y-113124191D03*
D32*
X138328712Y-107407397D03*
D33*
X145513760Y-118070356D03*
D34*
X151156778Y-108215065D03*
D30*
X152610843Y-108583975D03*
%TD*%
D22*
%TO.C,D10*%
X124460000Y-47498000D03*
D23*
X122425000Y-47498000D03*
X118875000Y-47498000D03*
D24*
X116840000Y-47498000D03*
%TD*%
D12*
%TO.C,SW19*%
X151280000Y-71020000D03*
D13*
X151700000Y-71020000D03*
D14*
X151780000Y-74720000D03*
D15*
X152955000Y-68440000D03*
D14*
X152970000Y-68479999D03*
X154240000Y-65940000D03*
D16*
X156780000Y-71020000D03*
D14*
X156780000Y-76920000D03*
X159320000Y-65940000D03*
X160590000Y-68480000D03*
X160590000Y-68480000D03*
D15*
X160605000Y-68440000D03*
D14*
X161780000Y-74720000D03*
D13*
X161860000Y-71020000D03*
D12*
X162280000Y-71020000D03*
D17*
X148280000Y-68520000D03*
D18*
X148680000Y-74720000D03*
D19*
X149880000Y-68480000D03*
D20*
X159580000Y-76920000D03*
D21*
X162480000Y-65940000D03*
D17*
X163980000Y-65920000D03*
%TD*%
D22*
%TO.C,D12*%
X124595000Y-70140000D03*
D23*
X122560000Y-70140000D03*
X119010000Y-70140000D03*
D24*
X116975000Y-70140000D03*
%TD*%
D35*
%TO.C,J2*%
X185457500Y-89445000D03*
X178457500Y-89445000D03*
X185457500Y-91195000D03*
X178457500Y-91195000D03*
D36*
X175157500Y-89095000D03*
X175157500Y-91545000D03*
X183657500Y-87345000D03*
X183657500Y-93295000D03*
X180657500Y-87345000D03*
X180657500Y-93295000D03*
X176657500Y-87345000D03*
X176657500Y-93295000D03*
%TD*%
D12*
%TO.C,SW18*%
X151280000Y-51010000D03*
D13*
X151700000Y-51010000D03*
D14*
X151780000Y-54710000D03*
D15*
X152955000Y-48430000D03*
D14*
X152970000Y-48469999D03*
X154240000Y-45930000D03*
D16*
X156780000Y-51010000D03*
D14*
X156780000Y-56910000D03*
X159320000Y-45930000D03*
X160590000Y-48470000D03*
X160590000Y-48470000D03*
D15*
X160605000Y-48430000D03*
D14*
X161780000Y-54710000D03*
D13*
X161860000Y-51010000D03*
D12*
X162280000Y-51010000D03*
D17*
X148280000Y-48510000D03*
D18*
X148680000Y-54710000D03*
D19*
X149880000Y-48470000D03*
D20*
X159580000Y-56910000D03*
D21*
X162480000Y-45930000D03*
D17*
X163980000Y-45910000D03*
%TD*%
D12*
%TO.C,SW10*%
X111270000Y-38060000D03*
D13*
X111690000Y-38060000D03*
D14*
X111770000Y-41760000D03*
D15*
X112945000Y-35480000D03*
D14*
X112960000Y-35519999D03*
X114230000Y-32980000D03*
D16*
X116770000Y-38060000D03*
D14*
X116770000Y-43960000D03*
X119310000Y-32980000D03*
X120580000Y-35520000D03*
X120580000Y-35520000D03*
D15*
X120595000Y-35480000D03*
D14*
X121770000Y-41760000D03*
D13*
X121850000Y-38060000D03*
D12*
X122270000Y-38060000D03*
D17*
X108270000Y-35560000D03*
D18*
X108670000Y-41760000D03*
D19*
X109870000Y-35520000D03*
D20*
X119570000Y-43960000D03*
D21*
X122470000Y-32980000D03*
D17*
X123970000Y-32960000D03*
%TD*%
D12*
%TO.C,SW21*%
X161081960Y-117680400D03*
D13*
X161445691Y-117890400D03*
D14*
X159664973Y-121134694D03*
D15*
X163822553Y-116283554D03*
D14*
X163815544Y-116325695D03*
X166185395Y-114760991D03*
D16*
X165845100Y-120430400D03*
D14*
X162895100Y-125539950D03*
X170584805Y-117300991D03*
X170414657Y-120135695D03*
X170414657Y-120135695D03*
D15*
X170447647Y-120108554D03*
D14*
X168325227Y-126134694D03*
D13*
X170244509Y-122970400D03*
D12*
X170608240Y-123180400D03*
D37*
X159733884Y-114015336D03*
D38*
X156980294Y-119584694D03*
D39*
X161139525Y-114780695D03*
D40*
X165319971Y-126939950D03*
D41*
X173321445Y-118880991D03*
D37*
X174630483Y-119613670D03*
%TD*%
D22*
%TO.C,D2*%
X62155000Y-81436000D03*
D23*
X60120000Y-81436000D03*
X56570000Y-81436000D03*
D24*
X54535000Y-81436000D03*
%TD*%
D22*
%TO.C,D18*%
X164849000Y-60452000D03*
D23*
X162814000Y-60452000D03*
X159264000Y-60452000D03*
D24*
X157229000Y-60452000D03*
%TD*%
D12*
%TO.C,SW14*%
X131170000Y-46850000D03*
D13*
X131590000Y-46850000D03*
D14*
X131670000Y-50550000D03*
D15*
X132845000Y-44270000D03*
D14*
X132860000Y-44309999D03*
X134130000Y-41770000D03*
D16*
X136670000Y-46850000D03*
D14*
X136670000Y-52750000D03*
X139210000Y-41770000D03*
X140480000Y-44310000D03*
X140480000Y-44310000D03*
D15*
X140495000Y-44270000D03*
D14*
X141670000Y-50550000D03*
D13*
X141750000Y-46850000D03*
D12*
X142170000Y-46850000D03*
D17*
X128170000Y-44350000D03*
D18*
X128570000Y-50550000D03*
D19*
X129770000Y-44310000D03*
D20*
X139470000Y-52750000D03*
D21*
X142370000Y-41770000D03*
D17*
X143870000Y-41750000D03*
%TD*%
D22*
%TO.C,D3*%
X62305000Y-101406000D03*
D23*
X60270000Y-101406000D03*
X56720000Y-101406000D03*
D24*
X54685000Y-101406000D03*
%TD*%
D22*
%TO.C,D6*%
X84250000Y-91900000D03*
D23*
X82215000Y-91900000D03*
X78665000Y-91900000D03*
D24*
X76630000Y-91900000D03*
%TD*%
D22*
%TO.C,D15*%
X144110000Y-58840000D03*
D23*
X142075000Y-58840000D03*
X138525000Y-58840000D03*
D24*
X136490000Y-58840000D03*
%TD*%
D12*
%TO.C,SW16*%
X131230000Y-86930000D03*
D13*
X131650000Y-86930000D03*
D14*
X131730000Y-90630000D03*
D15*
X132905000Y-84350000D03*
D14*
X132920000Y-84389999D03*
X134190000Y-81850000D03*
D16*
X136730000Y-86930000D03*
D14*
X136730000Y-92830000D03*
X139270000Y-81850000D03*
X140540000Y-84390000D03*
X140540000Y-84390000D03*
D15*
X140555000Y-84350000D03*
D14*
X141730000Y-90630000D03*
D13*
X141810000Y-86930000D03*
D12*
X142230000Y-86930000D03*
D17*
X128230000Y-84430000D03*
D18*
X128630000Y-90630000D03*
D19*
X129830000Y-84390000D03*
D20*
X139530000Y-92830000D03*
D21*
X142430000Y-81850000D03*
D17*
X143930000Y-81830000D03*
%TD*%
D12*
%TO.C,SW7*%
X91270000Y-47750000D03*
D13*
X91690000Y-47750000D03*
D14*
X91770000Y-51450000D03*
D15*
X92945000Y-45170000D03*
D14*
X92960000Y-45209999D03*
X94230000Y-42670000D03*
D16*
X96770000Y-47750000D03*
D14*
X96770000Y-53650000D03*
X99310000Y-42670000D03*
X100580000Y-45210000D03*
X100580000Y-45210000D03*
D15*
X100595000Y-45170000D03*
D14*
X101770000Y-51450000D03*
D13*
X101850000Y-47750000D03*
D12*
X102270000Y-47750000D03*
D17*
X88270000Y-45250000D03*
D18*
X88670000Y-51450000D03*
D19*
X89870000Y-45210000D03*
D20*
X99570000Y-53650000D03*
D21*
X102470000Y-42670000D03*
D17*
X103970000Y-42650000D03*
%TD*%
D12*
%TO.C,SW1*%
X48868000Y-69417500D03*
D13*
X49288000Y-69417500D03*
D14*
X49368000Y-73117500D03*
D15*
X50543000Y-66837500D03*
D14*
X50558000Y-66877499D03*
X51828000Y-64337500D03*
D16*
X54368000Y-69417500D03*
D14*
X54368000Y-75317500D03*
X56908000Y-64337500D03*
X58178000Y-66877500D03*
X58178000Y-66877500D03*
D15*
X58193000Y-66837500D03*
D14*
X59368000Y-73117500D03*
D13*
X59448000Y-69417500D03*
D12*
X59868000Y-69417500D03*
D17*
X45868000Y-66917500D03*
D18*
X46268000Y-73117500D03*
D19*
X47468000Y-66877500D03*
D20*
X57168000Y-75317500D03*
D21*
X60068000Y-64337500D03*
D17*
X61568000Y-64317500D03*
%TD*%
%LPD*%
M02*
