M48
; DRILL file {KiCad 7.0.6} date Mon Aug 21 12:13:53 2023
; FORMAT={-:-/ absolute / inch / decimal}
; #@! TF.CreationDate,2023-08-21T12:13:53+07:00
; #@! TF.GenerationSoftware,Kicad,Pcbnew,7.0.6
; #@! TF.FileFunction,Plated,1,2,PTH
FMAT,2
INCH
; #@! TA.AperFunction,Plated,PTH,ComponentDrill
T1C0.0118
; #@! TA.AperFunction,Plated,PTH,ViaDrill
T2C0.0157
; #@! TA.AperFunction,Plated,PTH,ComponentDrill
T3C0.0320
; #@! TA.AperFunction,Plated,PTH,ComponentDrill
T4C0.0512
%
G90
G05
T2
X1.8083Y-3.317
X1.8091Y-4.1013
X1.8102Y-2.5319
X2.2485Y-3.6611
X2.2493Y-4.4454
X2.2504Y-2.876
X2.4085Y-3.6097
X2.4093Y-4.394
X2.4104Y-2.8246
X2.4635Y-3.3174
X2.4643Y-4.1017
X2.4654Y-2.5323
X2.6894Y-3.7249
X2.6902Y-2.9332
X2.6914Y-2.1588
X3.1296Y-4.069
X3.1304Y-3.2773
X3.1316Y-2.5029
X3.2896Y-4.0176
X3.2904Y-3.2259
X3.2915Y-2.4515
X3.3446Y-3.7253
X3.3454Y-2.9336
X3.3465Y-2.1592
X3.4729Y-3.2505
X3.478Y-1.6784
X3.478Y-2.4682
X3.9131Y-3.5946
X3.9182Y-2.0225
X3.9182Y-2.8123
X4.073Y-3.5432
X4.0782Y-1.9711
X4.0782Y-2.7609
X4.128Y-3.2509
X4.1331Y-1.6788
X4.1331Y-2.4686
X4.2666Y-1.291
X4.2694Y-2.084
X4.2737Y-2.8655
X4.4413Y-4.0602
X4.7068Y-1.6351
X4.7095Y-2.4281
X4.7139Y-3.2095
X4.8591Y-4.4084
X4.8667Y-1.5837
X4.8695Y-2.3767
X4.8738Y-3.1581
X4.9217Y-1.2914
X4.9245Y-2.0844
X4.9288Y-2.8658
X5.0517Y-1.6438
X5.0517Y-2.4316
X5.052Y-3.2253
X5.0972Y-4.3213
X5.11Y-4.06
X5.4024Y-4.1126
X5.4918Y-1.9879
X5.4918Y-2.7757
X5.4922Y-3.5694
X5.6518Y-1.9365
X5.6518Y-2.7243
X5.6522Y-3.518
X5.7068Y-1.6442
X5.7068Y-2.432
X5.7072Y-3.2257
X5.7346Y-4.5134
X5.8391Y-3.3792
X5.8434Y-2.5981
X5.8481Y-1.806
X5.963Y-4.5213
X6.0693Y-4.3016
X6.2792Y-3.7233
X6.2835Y-2.9422
X6.2883Y-2.1501
X6.3441Y-4.4024
X6.4392Y-3.6719
X6.4435Y-2.8908
X6.4482Y-2.0987
X6.4697Y-4.8586
X6.4942Y-3.3796
X6.4985Y-2.5985
X6.5032Y-1.8064
X6.7598Y-4.9618
X6.8165Y-2.7846
X6.8287Y-2.3973
X6.8521Y-1.7973
X6.87Y-2.7258
X6.89Y-2.6258
X6.8933Y-1.7973
X6.92Y-2.5258
X6.9256Y-4.7429
X6.9326Y-1.7973
X6.972Y-1.7973
X6.98Y-2.3787
X7.0Y-2.3258
X7.0113Y-1.7973
X7.05Y-2.2258
X7.0507Y-1.7973
X7.08Y-1.8543
X7.1071Y-2.9543
X7.118Y-2.1258
X7.1465Y-2.9543
X7.213Y-1.8829
X7.2169Y-1.9252
X7.2197Y-2.024
X7.2213Y-2.1073
X7.2235Y-2.5088
X7.2272Y-2.2244
X7.2311Y-2.7138
X7.2322Y-2.615
X7.2335Y-3.3699
X7.2383Y-2.3211
X7.2401Y-2.9229
T3
X2.147Y-3.2061
X2.1488Y-3.1243
X2.153Y-3.9924
X2.447Y-3.2061
X2.4488Y-3.1243
X2.453Y-3.9924
X3.0169Y-3.6181
X3.0197Y-2.73
X3.0209Y-2.8319
X3.3169Y-3.6181
X3.3197Y-2.73
X3.3209Y-2.8319
X3.81Y-2.25
X3.8163Y-3.1421
X3.8191Y-2.3535
X4.11Y-2.25
X4.1163Y-3.1421
X4.1191Y-2.3535
X4.6Y-1.87
X4.6004Y-1.9728
X4.6053Y-2.7614
X4.7902Y-3.9496
X4.9Y-1.87
X4.9004Y-1.9728
X4.9053Y-2.7614
X5.0902Y-3.9496
X5.3736Y-2.3165
X5.3756Y-2.21
X5.3909Y-3.1075
X5.6736Y-2.3165
X5.6756Y-2.21
X5.6909Y-3.1075
X5.776Y-4.0943
X6.0658Y-4.172
X6.1612Y-3.2642
X6.1789Y-2.4819
X6.1901Y-2.38
X6.4612Y-3.2642
X6.4789Y-2.4819
X6.4901Y-2.38
X6.6923Y-4.4719
X6.6969Y-1.7787
X6.6969Y-1.8787
X6.6969Y-1.9787
X6.6969Y-2.0787
X6.6969Y-2.1787
X6.6969Y-2.2787
X6.6969Y-2.3787
X6.6969Y-2.4787
X6.6969Y-2.5787
X6.6969Y-2.6787
X6.6969Y-2.7787
X6.6969Y-2.8787
X6.748Y-1.8258
X6.748Y-1.9258
X6.748Y-2.0258
X6.748Y-2.1258
X6.748Y-2.2258
X6.748Y-2.3258
X6.748Y-2.4258
X6.748Y-2.5258
X6.748Y-2.6258
X6.748Y-2.7258
X6.748Y-2.8258
X6.748Y-2.9258
X6.9521Y-4.6219
X7.2969Y-1.7787
X7.2969Y-1.8787
X7.2969Y-1.9787
X7.2969Y-2.0787
X7.2969Y-2.1787
X7.2969Y-2.2787
X7.2969Y-2.3787
X7.2969Y-2.4787
X7.2969Y-2.5787
X7.2969Y-2.6787
X7.2969Y-2.7787
X7.2969Y-2.8787
X7.348Y-1.8258
X7.348Y-1.9258
X7.348Y-2.0258
X7.348Y-2.1258
X7.348Y-2.2258
X7.348Y-2.3258
X7.348Y-2.4258
X7.348Y-2.5258
X7.348Y-2.6258
X7.348Y-2.7258
X7.348Y-2.8258
X7.348Y-2.9258
T4
X7.3594Y-3.0854
X7.3594Y-3.3413
T1
G00X6.9216Y-3.5077
M15
G01X6.8704Y-3.5077
M16
G05
G00X6.9216Y-3.6041
M15
G01X6.8704Y-3.6041
M16
G05
G00X6.9806Y-3.4388
M15
G01X6.9294Y-3.4388
M16
G05
G00X6.9806Y-3.673
M15
G01X6.9294Y-3.673
M16
G05
G00X7.1381Y-3.4388
M15
G01X7.0869Y-3.4388
M16
G05
G00X7.1381Y-3.673
M15
G01X7.0869Y-3.673
M16
G05
G00X7.2562Y-3.4388
M15
G01X7.205Y-3.4388
M16
G05
G00X7.2562Y-3.673
M15
G01X7.205Y-3.673
M16
G05
T0
M30
