%TF.GenerationSoftware,KiCad,Pcbnew,7.0.6*%
%TF.CreationDate,2023-08-21T12:13:53+07:00*%
%TF.ProjectId,GlupV1,476c7570-5631-42e6-9b69-6361645f7063,rev?*%
%TF.SameCoordinates,Original*%
%TF.FileFunction,Soldermask,Top*%
%TF.FilePolarity,Negative*%
%FSLAX46Y46*%
G04 Gerber Fmt 4.6, Leading zero omitted, Abs format (unit mm)*
G04 Created by KiCad (PCBNEW 7.0.6) date 2023-08-21 12:13:53*
%MOMM*%
%LPD*%
G01*
G04 APERTURE LIST*
G04 Aperture macros list*
%AMRotRect*
0 Rectangle, with rotation*
0 The origin of the aperture is its center*
0 $1 length*
0 $2 width*
0 $3 Rotation angle, in degrees counterclockwise*
0 Add horizontal line*
21,1,$1,$2,0,0,$3*%
G04 Aperture macros list end*
%ADD10C,1.900000*%
%ADD11C,1.700000*%
%ADD12C,3.000000*%
%ADD13C,0.100000*%
%ADD14C,4.000000*%
%ADD15R,0.700000X1.500000*%
%ADD16R,2.400000X2.400000*%
%ADD17R,2.000000X2.000000*%
%ADD18R,1.800000X2.000000*%
%ADD19R,2.500000X2.500000*%
%ADD20R,1.397000X1.397000*%
%ADD21R,1.300000X0.950000*%
%ADD22C,1.397000*%
%ADD23C,2.000000*%
%ADD24C,1.524000*%
%ADD25RotRect,1.397000X1.397000X345.000000*%
%ADD26RotRect,1.300000X0.950000X345.000000*%
%ADD27RotRect,1.397000X1.397000X330.000000*%
%ADD28RotRect,1.300000X0.950000X330.000000*%
%ADD29RotRect,0.700000X1.500000X345.000000*%
%ADD30RotRect,2.400000X2.400000X165.000000*%
%ADD31RotRect,2.000000X2.000000X165.000000*%
%ADD32RotRect,1.800000X2.000000X165.000000*%
%ADD33RotRect,2.500000X2.500000X165.000000*%
%ADD34C,1.200000*%
%ADD35R,2.100000X0.800000*%
%ADD36RotRect,0.700000X1.500000X330.000000*%
%ADD37RotRect,2.400000X2.400000X150.000000*%
%ADD38RotRect,2.000000X2.000000X150.000000*%
%ADD39RotRect,1.800000X2.000000X150.000000*%
%ADD40RotRect,2.500000X2.500000X150.000000*%
G04 APERTURE END LIST*
D10*
%TO.C,SW9*%
X91130000Y-87780000D03*
D11*
X91550000Y-87780000D03*
D12*
X91630000Y-91480000D03*
D13*
X92805000Y-85200000D03*
D12*
X92820000Y-85239999D03*
X94090000Y-82700000D03*
D14*
X96630000Y-87780000D03*
D12*
X96630000Y-93680000D03*
X99170000Y-82700000D03*
X100440000Y-85240000D03*
X100440000Y-85240000D03*
D13*
X100455000Y-85200000D03*
D12*
X101630000Y-91480000D03*
D11*
X101710000Y-87780000D03*
D10*
X102130000Y-87780000D03*
D15*
X89430000Y-82680000D03*
D16*
X90930000Y-82700000D03*
D17*
X104730000Y-91480000D03*
D18*
X93830000Y-93680000D03*
D19*
X103530000Y-85239999D03*
D15*
X105130000Y-85280000D03*
%TD*%
D10*
%TO.C,SW13*%
X115835400Y-108266000D03*
D11*
X116255400Y-108266000D03*
D12*
X116335400Y-111966000D03*
D13*
X117510400Y-105686000D03*
D12*
X117525400Y-105725999D03*
X118795400Y-103186000D03*
D14*
X121335400Y-108266000D03*
D12*
X121335400Y-114166000D03*
X123875400Y-103186000D03*
X125145400Y-105726000D03*
X125145400Y-105726000D03*
D13*
X125160400Y-105686000D03*
D12*
X126335400Y-111966000D03*
D11*
X126415400Y-108266000D03*
D10*
X126835400Y-108266000D03*
D15*
X114135400Y-103166000D03*
D16*
X115635400Y-103186000D03*
D17*
X129435400Y-111966000D03*
D18*
X118535400Y-114166000D03*
D19*
X128235400Y-105725999D03*
D15*
X129835400Y-105766000D03*
%TD*%
D20*
%TO.C,D14*%
X144160000Y-56134000D03*
D21*
X142125000Y-56134000D03*
X138575000Y-56134000D03*
D22*
X136540000Y-56134000D03*
%TD*%
D23*
%TO.C,RSW1*%
X186930000Y-78370000D03*
X186930000Y-84870000D03*
%TD*%
D24*
%TO.C,U1*%
X170100000Y-45180000D03*
X186638815Y-46375745D03*
X170100000Y-47720000D03*
X186638815Y-48915745D03*
X170100000Y-50260000D03*
X186638815Y-51455745D03*
X170100000Y-52800000D03*
X186638815Y-53995745D03*
X170100000Y-55340000D03*
X186638815Y-56535745D03*
X170100000Y-57880000D03*
X186638815Y-59075745D03*
X170100000Y-60420000D03*
X186638815Y-61615745D03*
X170100000Y-62960000D03*
X186638815Y-64155745D03*
X170100000Y-65500000D03*
X186638815Y-66695745D03*
X170100000Y-68040000D03*
X186638815Y-69235745D03*
X170100000Y-70580000D03*
X186638815Y-71775745D03*
X170100000Y-73120000D03*
X186638815Y-74315745D03*
X171398815Y-74315745D03*
X185340000Y-73120000D03*
X171398815Y-71775745D03*
X185340000Y-70580000D03*
X171398815Y-69235745D03*
X185340000Y-68040000D03*
X171398815Y-66695745D03*
X185340000Y-65500000D03*
X171398815Y-64155745D03*
X185340000Y-62960000D03*
X171398815Y-61615745D03*
X185340000Y-60420000D03*
X171398815Y-59075745D03*
X185340000Y-57880000D03*
X171398815Y-56535745D03*
X185340000Y-55340000D03*
X171398815Y-53995745D03*
X185340000Y-52800000D03*
X171398815Y-51455745D03*
X185340000Y-50260000D03*
X171398815Y-48915745D03*
X185340000Y-47720000D03*
X171398815Y-46375745D03*
X185340000Y-45180000D03*
%TD*%
D20*
%TO.C,D16*%
X144550000Y-78930000D03*
D21*
X142515000Y-78930000D03*
X138965000Y-78930000D03*
D22*
X136930000Y-78930000D03*
%TD*%
D14*
%TO.C,MH1*%
X66080000Y-116780000D03*
%TD*%
%TO.C,MH2*%
X66080000Y-46760000D03*
%TD*%
D10*
%TO.C,SW6*%
X71200000Y-99756000D03*
D11*
X71620000Y-99756000D03*
D12*
X71700000Y-103456000D03*
D13*
X72875000Y-97176000D03*
D12*
X72890000Y-97215999D03*
X74160000Y-94676000D03*
D14*
X76700000Y-99756000D03*
D12*
X76700000Y-105656000D03*
X79240000Y-94676000D03*
X80510000Y-97216000D03*
X80510000Y-97216000D03*
D13*
X80525000Y-97176000D03*
D12*
X81700000Y-103456000D03*
D11*
X81780000Y-99756000D03*
D10*
X82200000Y-99756000D03*
D15*
X69500000Y-94656000D03*
D16*
X71000000Y-94676000D03*
D17*
X84800000Y-103456000D03*
D18*
X73900000Y-105656000D03*
D19*
X83600000Y-97215999D03*
D15*
X85200000Y-97256000D03*
%TD*%
D10*
%TO.C,SW5*%
X71150000Y-79856000D03*
D11*
X71570000Y-79856000D03*
D12*
X71650000Y-83556000D03*
D13*
X72825000Y-77276000D03*
D12*
X72840000Y-77315999D03*
X74110000Y-74776000D03*
D14*
X76650000Y-79856000D03*
D12*
X76650000Y-85756000D03*
X79190000Y-74776000D03*
X80460000Y-77316000D03*
X80460000Y-77316000D03*
D13*
X80475000Y-77276000D03*
D12*
X81650000Y-83556000D03*
D11*
X81730000Y-79856000D03*
D10*
X82150000Y-79856000D03*
D15*
X69450000Y-74756000D03*
D16*
X70950000Y-74776000D03*
D17*
X84750000Y-83556000D03*
D18*
X73850000Y-85756000D03*
D19*
X83550000Y-77315999D03*
D15*
X85150000Y-77356000D03*
%TD*%
D20*
%TO.C,D11*%
X124470000Y-50110000D03*
D21*
X122435000Y-50110000D03*
X118885000Y-50110000D03*
D22*
X116850000Y-50110000D03*
%TD*%
D10*
%TO.C,SW4*%
X71170000Y-59806000D03*
D11*
X71590000Y-59806000D03*
D12*
X71670000Y-63506000D03*
D13*
X72845000Y-57226000D03*
D12*
X72860000Y-57265999D03*
X74130000Y-54726000D03*
D14*
X76670000Y-59806000D03*
D12*
X76670000Y-65706000D03*
X79210000Y-54726000D03*
X80480000Y-57266000D03*
X80480000Y-57266000D03*
D13*
X80495000Y-57226000D03*
D12*
X81670000Y-63506000D03*
D11*
X81750000Y-59806000D03*
D10*
X82170000Y-59806000D03*
D15*
X69470000Y-54706000D03*
D16*
X70970000Y-54726000D03*
D17*
X84770000Y-63506000D03*
D18*
X73870000Y-65706000D03*
D19*
X83570000Y-57265999D03*
D15*
X85170000Y-57306000D03*
%TD*%
D20*
%TO.C,D20*%
X164115000Y-82910000D03*
D21*
X162080000Y-82910000D03*
X158530000Y-82910000D03*
D22*
X156495000Y-82910000D03*
%TD*%
D20*
%TO.C,D13*%
X129290000Y-100320000D03*
D21*
X127255000Y-100320000D03*
X123705000Y-100320000D03*
D22*
X121670000Y-100320000D03*
%TD*%
D20*
%TO.C,D7*%
X104394000Y-57150000D03*
D21*
X102359000Y-57150000D03*
X98809000Y-57150000D03*
D22*
X96774000Y-57150000D03*
%TD*%
D20*
%TO.C,D1*%
X62200000Y-79356000D03*
D21*
X60165000Y-79356000D03*
X56615000Y-79356000D03*
D22*
X54580000Y-79356000D03*
%TD*%
D10*
%TO.C,SW11*%
X111270000Y-58040000D03*
D11*
X111690000Y-58040000D03*
D12*
X111770000Y-61740000D03*
D13*
X112945000Y-55460000D03*
D12*
X112960000Y-55499999D03*
X114230000Y-52960000D03*
D14*
X116770000Y-58040000D03*
D12*
X116770000Y-63940000D03*
X119310000Y-52960000D03*
X120580000Y-55500000D03*
X120580000Y-55500000D03*
D13*
X120595000Y-55460000D03*
D12*
X121770000Y-61740000D03*
D11*
X121850000Y-58040000D03*
D10*
X122270000Y-58040000D03*
D15*
X109570000Y-52940000D03*
D16*
X111070000Y-52960000D03*
D17*
X124870000Y-61740000D03*
D18*
X113970000Y-63940000D03*
D19*
X123670000Y-55499999D03*
D15*
X125270000Y-55540000D03*
%TD*%
D10*
%TO.C,SW3*%
X48780000Y-109406000D03*
D11*
X49200000Y-109406000D03*
D12*
X49280000Y-113106000D03*
D13*
X50455000Y-106826000D03*
D12*
X50470000Y-106865999D03*
X51740000Y-104326000D03*
D14*
X54280000Y-109406000D03*
D12*
X54280000Y-115306000D03*
X56820000Y-104326000D03*
X58090000Y-106866000D03*
X58090000Y-106866000D03*
D13*
X58105000Y-106826000D03*
D12*
X59280000Y-113106000D03*
D11*
X59360000Y-109406000D03*
D10*
X59780000Y-109406000D03*
D15*
X47080000Y-104306000D03*
D16*
X48580000Y-104326000D03*
D17*
X62380000Y-113106000D03*
D18*
X51480000Y-115306000D03*
D19*
X61180000Y-106865999D03*
D15*
X62780000Y-106906000D03*
%TD*%
D25*
%TO.C,D17*%
X154071685Y-105967609D03*
D26*
X152106026Y-105440912D03*
X148676990Y-104522104D03*
D22*
X146711331Y-103995407D03*
%TD*%
D14*
%TO.C,MH4*%
X107340000Y-114900000D03*
%TD*%
D10*
%TO.C,SW20*%
X151210000Y-90930000D03*
D11*
X151630000Y-90930000D03*
D12*
X151710000Y-94630000D03*
D13*
X152885000Y-88350000D03*
D12*
X152900000Y-88389999D03*
X154170000Y-85850000D03*
D14*
X156710000Y-90930000D03*
D12*
X156710000Y-96830000D03*
X159250000Y-85850000D03*
X160520000Y-88390000D03*
X160520000Y-88390000D03*
D13*
X160535000Y-88350000D03*
D12*
X161710000Y-94630000D03*
D11*
X161790000Y-90930000D03*
D10*
X162210000Y-90930000D03*
D15*
X149510000Y-85830000D03*
D16*
X151010000Y-85850000D03*
D17*
X164810000Y-94630000D03*
D18*
X153910000Y-96830000D03*
D19*
X163610000Y-88389999D03*
D15*
X165210000Y-88430000D03*
%TD*%
D20*
%TO.C,D9*%
X104555000Y-79810000D03*
D21*
X102520000Y-79810000D03*
X98970000Y-79810000D03*
D22*
X96935000Y-79810000D03*
%TD*%
D20*
%TO.C,D5*%
X84350000Y-71930000D03*
D21*
X82315000Y-71930000D03*
X78765000Y-71930000D03*
D22*
X76730000Y-71930000D03*
%TD*%
D10*
%TO.C,SW15*%
X131150000Y-66840000D03*
D11*
X131570000Y-66840000D03*
D12*
X131650000Y-70540000D03*
D13*
X132825000Y-64260000D03*
D12*
X132840000Y-64299999D03*
X134110000Y-61760000D03*
D14*
X136650000Y-66840000D03*
D12*
X136650000Y-72740000D03*
X139190000Y-61760000D03*
X140460000Y-64300000D03*
X140460000Y-64300000D03*
D13*
X140475000Y-64260000D03*
D12*
X141650000Y-70540000D03*
D11*
X141730000Y-66840000D03*
D10*
X142150000Y-66840000D03*
D15*
X129450000Y-61740000D03*
D16*
X130950000Y-61760000D03*
D17*
X144750000Y-70540000D03*
D18*
X133850000Y-72740000D03*
D19*
X143550000Y-64299999D03*
D15*
X145150000Y-64340000D03*
%TD*%
D10*
%TO.C,SW8*%
X91240000Y-67760000D03*
D11*
X91660000Y-67760000D03*
D12*
X91740000Y-71460000D03*
D13*
X92915000Y-65180000D03*
D12*
X92930000Y-65219999D03*
X94200000Y-62680000D03*
D14*
X96740000Y-67760000D03*
D12*
X96740000Y-73660000D03*
X99280000Y-62680000D03*
X100550000Y-65220000D03*
X100550000Y-65220000D03*
D13*
X100565000Y-65180000D03*
D12*
X101740000Y-71460000D03*
D11*
X101820000Y-67760000D03*
D10*
X102240000Y-67760000D03*
D15*
X89540000Y-62660000D03*
D16*
X91040000Y-62680000D03*
D17*
X104840000Y-71460000D03*
D18*
X93940000Y-73660000D03*
D19*
X103640000Y-65219999D03*
D15*
X105240000Y-65260000D03*
%TD*%
D10*
%TO.C,SW12*%
X111360000Y-78120000D03*
D11*
X111780000Y-78120000D03*
D12*
X111860000Y-81820000D03*
D13*
X113035000Y-75540000D03*
D12*
X113050000Y-75579999D03*
X114320000Y-73040000D03*
D14*
X116860000Y-78120000D03*
D12*
X116860000Y-84020000D03*
X119400000Y-73040000D03*
X120670000Y-75580000D03*
X120670000Y-75580000D03*
D13*
X120685000Y-75540000D03*
D12*
X121860000Y-81820000D03*
D11*
X121940000Y-78120000D03*
D10*
X122360000Y-78120000D03*
D15*
X109660000Y-73020000D03*
D16*
X111160000Y-73040000D03*
D17*
X124960000Y-81820000D03*
D18*
X114060000Y-84020000D03*
D19*
X123760000Y-75579999D03*
D15*
X125360000Y-75620000D03*
%TD*%
D20*
%TO.C,D19*%
X164565000Y-63040000D03*
D21*
X162530000Y-63040000D03*
X158980000Y-63040000D03*
D22*
X156945000Y-63040000D03*
%TD*%
D27*
%TO.C,D21*%
X176582362Y-117397500D03*
D28*
X174820000Y-116380000D03*
X171745610Y-114605000D03*
D22*
X169983248Y-113587500D03*
%TD*%
D20*
%TO.C,D8*%
X104625000Y-59780000D03*
D21*
X102590000Y-59780000D03*
X99040000Y-59780000D03*
D22*
X97005000Y-59780000D03*
%TD*%
D14*
%TO.C,MH3*%
X148336000Y-39624000D03*
%TD*%
D10*
%TO.C,SW2*%
X48840000Y-89390000D03*
D11*
X49260000Y-89390000D03*
D12*
X49340000Y-93090000D03*
D13*
X50515000Y-86810000D03*
D12*
X50530000Y-86849999D03*
X51800000Y-84310000D03*
D14*
X54340000Y-89390000D03*
D12*
X54340000Y-95290000D03*
X56880000Y-84310000D03*
X58150000Y-86850000D03*
X58150000Y-86850000D03*
D13*
X58165000Y-86810000D03*
D12*
X59340000Y-93090000D03*
D11*
X59420000Y-89390000D03*
D10*
X59840000Y-89390000D03*
D15*
X47140000Y-84290000D03*
D16*
X48640000Y-84310000D03*
D17*
X62440000Y-93090000D03*
D18*
X51540000Y-95290000D03*
D19*
X61240000Y-86849999D03*
D15*
X62840000Y-86890000D03*
%TD*%
D20*
%TO.C,D4*%
X84320000Y-69342000D03*
D21*
X82285000Y-69342000D03*
X78735000Y-69342000D03*
D22*
X76700000Y-69342000D03*
%TD*%
D14*
%TO.C,MH5*%
X165540000Y-102860000D03*
%TD*%
D10*
%TO.C,SW17*%
X139023608Y-110223195D03*
D11*
X139429297Y-110331899D03*
D12*
X138548940Y-113926530D03*
D13*
X141309287Y-108164629D03*
D12*
X141313423Y-108207147D03*
X143197549Y-106082396D03*
D14*
X144336200Y-111646700D03*
D12*
X142809168Y-117345662D03*
X148104452Y-107397197D03*
X148673778Y-110179349D03*
X148673778Y-110179349D03*
D13*
X148698619Y-110144594D03*
D12*
X148208199Y-116514721D03*
D11*
X149243103Y-112961501D03*
D10*
X149648792Y-113070205D03*
D29*
X138701511Y-104856981D03*
D30*
X140145224Y-105264528D03*
D31*
X151202569Y-117317060D03*
D32*
X140104575Y-116620969D03*
D33*
X151658489Y-110979099D03*
D29*
X153193617Y-111431847D03*
%TD*%
D20*
%TO.C,D10*%
X124460000Y-47498000D03*
D21*
X122425000Y-47498000D03*
X118875000Y-47498000D03*
D22*
X116840000Y-47498000D03*
%TD*%
D10*
%TO.C,SW19*%
X151280000Y-71020000D03*
D11*
X151700000Y-71020000D03*
D12*
X151780000Y-74720000D03*
D13*
X152955000Y-68440000D03*
D12*
X152970000Y-68479999D03*
X154240000Y-65940000D03*
D14*
X156780000Y-71020000D03*
D12*
X156780000Y-76920000D03*
X159320000Y-65940000D03*
X160590000Y-68480000D03*
X160590000Y-68480000D03*
D13*
X160605000Y-68440000D03*
D12*
X161780000Y-74720000D03*
D11*
X161860000Y-71020000D03*
D10*
X162280000Y-71020000D03*
D15*
X149580000Y-65920000D03*
D16*
X151080000Y-65940000D03*
D17*
X164880000Y-74720000D03*
D18*
X153980000Y-76920000D03*
D19*
X163680000Y-68479999D03*
D15*
X165280000Y-68520000D03*
%TD*%
D20*
%TO.C,D12*%
X124595000Y-70140000D03*
D21*
X122560000Y-70140000D03*
X119010000Y-70140000D03*
D22*
X116975000Y-70140000D03*
%TD*%
D34*
%TO.C,J2*%
X185457500Y-89445000D03*
X178457500Y-89445000D03*
X185457500Y-91195000D03*
X178457500Y-91195000D03*
D35*
X175157500Y-89095000D03*
X175157500Y-91545000D03*
X183657500Y-87345000D03*
X183657500Y-93295000D03*
X180657500Y-87345000D03*
X180657500Y-93295000D03*
X176657500Y-87345000D03*
X176657500Y-93295000D03*
%TD*%
D10*
%TO.C,SW18*%
X151280000Y-51010000D03*
D11*
X151700000Y-51010000D03*
D12*
X151780000Y-54710000D03*
D13*
X152955000Y-48430000D03*
D12*
X152970000Y-48469999D03*
X154240000Y-45930000D03*
D14*
X156780000Y-51010000D03*
D12*
X156780000Y-56910000D03*
X159320000Y-45930000D03*
X160590000Y-48470000D03*
X160590000Y-48470000D03*
D13*
X160605000Y-48430000D03*
D12*
X161780000Y-54710000D03*
D11*
X161860000Y-51010000D03*
D10*
X162280000Y-51010000D03*
D15*
X149580000Y-45910000D03*
D16*
X151080000Y-45930000D03*
D17*
X164880000Y-54710000D03*
D18*
X153980000Y-56910000D03*
D19*
X163680000Y-48469999D03*
D15*
X165280000Y-48510000D03*
%TD*%
D10*
%TO.C,SW10*%
X111270000Y-38060000D03*
D11*
X111690000Y-38060000D03*
D12*
X111770000Y-41760000D03*
D13*
X112945000Y-35480000D03*
D12*
X112960000Y-35519999D03*
X114230000Y-32980000D03*
D14*
X116770000Y-38060000D03*
D12*
X116770000Y-43960000D03*
X119310000Y-32980000D03*
X120580000Y-35520000D03*
X120580000Y-35520000D03*
D13*
X120595000Y-35480000D03*
D12*
X121770000Y-41760000D03*
D11*
X121850000Y-38060000D03*
D10*
X122270000Y-38060000D03*
D15*
X109570000Y-32960000D03*
D16*
X111070000Y-32980000D03*
D17*
X124870000Y-41760000D03*
D18*
X113970000Y-43960000D03*
D19*
X123670000Y-35519999D03*
D15*
X125270000Y-35560000D03*
%TD*%
D10*
%TO.C,SW21*%
X161081960Y-117680400D03*
D11*
X161445691Y-117890400D03*
D12*
X159664973Y-121134694D03*
D13*
X163822553Y-116283554D03*
D12*
X163815544Y-116325695D03*
X166185395Y-114760991D03*
D14*
X165845100Y-120430400D03*
D12*
X162895100Y-125539950D03*
X170584805Y-117300991D03*
X170414657Y-120135695D03*
X170414657Y-120135695D03*
D13*
X170447647Y-120108554D03*
D12*
X168325227Y-126134694D03*
D11*
X170244509Y-122970400D03*
D10*
X170608240Y-123180400D03*
D36*
X162159717Y-112413670D03*
D37*
X163448755Y-113180991D03*
D38*
X171009906Y-127684694D03*
D39*
X160470229Y-124139950D03*
D40*
X173090676Y-121680695D03*
D36*
X174456316Y-122515336D03*
%TD*%
D20*
%TO.C,D2*%
X62155000Y-81436000D03*
D21*
X60120000Y-81436000D03*
X56570000Y-81436000D03*
D22*
X54535000Y-81436000D03*
%TD*%
D20*
%TO.C,D18*%
X164849000Y-60452000D03*
D21*
X162814000Y-60452000D03*
X159264000Y-60452000D03*
D22*
X157229000Y-60452000D03*
%TD*%
D10*
%TO.C,SW14*%
X131170000Y-46850000D03*
D11*
X131590000Y-46850000D03*
D12*
X131670000Y-50550000D03*
D13*
X132845000Y-44270000D03*
D12*
X132860000Y-44309999D03*
X134130000Y-41770000D03*
D14*
X136670000Y-46850000D03*
D12*
X136670000Y-52750000D03*
X139210000Y-41770000D03*
X140480000Y-44310000D03*
X140480000Y-44310000D03*
D13*
X140495000Y-44270000D03*
D12*
X141670000Y-50550000D03*
D11*
X141750000Y-46850000D03*
D10*
X142170000Y-46850000D03*
D15*
X129470000Y-41750000D03*
D16*
X130970000Y-41770000D03*
D17*
X144770000Y-50550000D03*
D18*
X133870000Y-52750000D03*
D19*
X143570000Y-44309999D03*
D15*
X145170000Y-44350000D03*
%TD*%
D20*
%TO.C,D3*%
X62305000Y-101406000D03*
D21*
X60270000Y-101406000D03*
X56720000Y-101406000D03*
D22*
X54685000Y-101406000D03*
%TD*%
D20*
%TO.C,D6*%
X84250000Y-91900000D03*
D21*
X82215000Y-91900000D03*
X78665000Y-91900000D03*
D22*
X76630000Y-91900000D03*
%TD*%
D20*
%TO.C,D15*%
X144110000Y-58840000D03*
D21*
X142075000Y-58840000D03*
X138525000Y-58840000D03*
D22*
X136490000Y-58840000D03*
%TD*%
D10*
%TO.C,SW16*%
X131230000Y-86930000D03*
D11*
X131650000Y-86930000D03*
D12*
X131730000Y-90630000D03*
D13*
X132905000Y-84350000D03*
D12*
X132920000Y-84389999D03*
X134190000Y-81850000D03*
D14*
X136730000Y-86930000D03*
D12*
X136730000Y-92830000D03*
X139270000Y-81850000D03*
X140540000Y-84390000D03*
X140540000Y-84390000D03*
D13*
X140555000Y-84350000D03*
D12*
X141730000Y-90630000D03*
D11*
X141810000Y-86930000D03*
D10*
X142230000Y-86930000D03*
D15*
X129530000Y-81830000D03*
D16*
X131030000Y-81850000D03*
D17*
X144830000Y-90630000D03*
D18*
X133930000Y-92830000D03*
D19*
X143630000Y-84389999D03*
D15*
X145230000Y-84430000D03*
%TD*%
D10*
%TO.C,SW7*%
X91270000Y-47750000D03*
D11*
X91690000Y-47750000D03*
D12*
X91770000Y-51450000D03*
D13*
X92945000Y-45170000D03*
D12*
X92960000Y-45209999D03*
X94230000Y-42670000D03*
D14*
X96770000Y-47750000D03*
D12*
X96770000Y-53650000D03*
X99310000Y-42670000D03*
X100580000Y-45210000D03*
X100580000Y-45210000D03*
D13*
X100595000Y-45170000D03*
D12*
X101770000Y-51450000D03*
D11*
X101850000Y-47750000D03*
D10*
X102270000Y-47750000D03*
D15*
X89570000Y-42650000D03*
D16*
X91070000Y-42670000D03*
D17*
X104870000Y-51450000D03*
D18*
X93970000Y-53650000D03*
D19*
X103670000Y-45209999D03*
D15*
X105270000Y-45250000D03*
%TD*%
D10*
%TO.C,SW1*%
X48868000Y-69417500D03*
D11*
X49288000Y-69417500D03*
D12*
X49368000Y-73117500D03*
D13*
X50543000Y-66837500D03*
D12*
X50558000Y-66877499D03*
X51828000Y-64337500D03*
D14*
X54368000Y-69417500D03*
D12*
X54368000Y-75317500D03*
X56908000Y-64337500D03*
X58178000Y-66877500D03*
X58178000Y-66877500D03*
D13*
X58193000Y-66837500D03*
D12*
X59368000Y-73117500D03*
D11*
X59448000Y-69417500D03*
D10*
X59868000Y-69417500D03*
D15*
X47168000Y-64317500D03*
D16*
X48668000Y-64337500D03*
D17*
X62468000Y-73117500D03*
D18*
X51568000Y-75317500D03*
D19*
X61268000Y-66877499D03*
D15*
X62868000Y-66917500D03*
%TD*%
M02*
