M48
; DRILL file {KiCad 7.0.6} date Mon Aug 21 12:13:53 2023
; FORMAT={-:-/ absolute / inch / decimal}
; #@! TF.CreationDate,2023-08-21T12:13:53+07:00
; #@! TF.GenerationSoftware,Kicad,Pcbnew,7.0.6
; #@! TF.FileFunction,NonPlated,1,2,NPTH
FMAT,2
INCH
; #@! TA.AperFunction,NonPlated,NPTH,ComponentDrill
T1C0.0039
; #@! TA.AperFunction,NonPlated,NPTH,ComponentDrill
T2C0.0472
; #@! TA.AperFunction,NonPlated,NPTH,ComponentDrill
T3C0.0669
; #@! TA.AperFunction,NonPlated,NPTH,ComponentDrill
T4C0.0748
; #@! TA.AperFunction,NonPlated,NPTH,ComponentDrill
T5C0.1181
; #@! TA.AperFunction,NonPlated,NPTH,ComponentDrill
T6C0.1575
%
G90
G05
T1
X1.9864Y-4.2057
X1.9888Y-3.4177
X1.9899Y-2.6314
X2.2876Y-4.2057
X2.29Y-3.4177
X2.2911Y-2.6314
X2.8671Y-3.0424
X2.8679Y-2.253
X2.8691Y-3.8258
X3.1683Y-3.0424
X3.1691Y-2.253
X3.1703Y-3.8258
X3.6537Y-3.3543
X3.6581Y-2.5661
X3.6593Y-1.7783
X3.9549Y-3.3543
X3.9593Y-2.5661
X3.9604Y-1.7783
X4.4467Y-1.3969
X4.4467Y-2.1835
X4.4502Y-2.974
X4.6264Y-4.1609
X4.7478Y-1.3969
X4.7478Y-2.1835
X4.7514Y-2.974
X4.9276Y-4.1609
X5.2293Y-2.5299
X5.2301Y-1.7429
X5.2325Y-3.3209
X5.5305Y-2.5299
X5.5313Y-1.7429
X5.5337Y-3.3209
X5.5634Y-4.2584
X5.8543Y-4.3364
X6.0191Y-3.4783
X6.0219Y-1.9067
X6.0219Y-2.6945
X6.3203Y-3.4783
X6.323Y-1.9067
X6.323Y-2.6945
X6.4497Y-4.5781
X6.7105Y-4.7287
T2
X7.0259Y-3.5215
X7.0259Y-3.5904
X7.3015Y-3.5215
X7.3015Y-3.5904
T3
X1.937Y-4.3073
X1.9394Y-3.5193
X1.9405Y-2.733
X2.337Y-4.3073
X2.3394Y-3.5193
X2.3405Y-2.733
X2.8177Y-3.1439
X2.8185Y-2.3546
X2.8197Y-3.9274
X3.2177Y-3.1439
X3.2185Y-2.3546
X3.2197Y-3.9274
X3.6043Y-3.4559
X3.6087Y-2.6677
X3.6098Y-1.8799
X4.0043Y-3.4559
X4.0087Y-2.6677
X4.0098Y-1.8799
X4.3972Y-1.4984
X4.3972Y-2.285
X4.4008Y-3.0756
X4.577Y-4.2624
X4.7972Y-1.4984
X4.7972Y-2.285
X4.8008Y-3.0756
X4.977Y-4.2624
X5.1799Y-2.6315
X5.1807Y-1.8445
X5.1831Y-3.4224
X5.4893Y-4.3438
X5.5799Y-2.6315
X5.5807Y-1.8445
X5.5831Y-3.4224
X5.8757Y-4.4473
X5.9697Y-3.5799
X5.9724Y-2.0083
X5.9724Y-2.7961
X6.3561Y-4.6414
X6.3697Y-3.5799
X6.3724Y-2.0083
X6.3724Y-2.7961
X6.7025Y-4.8414
T4
X1.9205Y-4.3073
X1.9228Y-3.5193
X1.9239Y-2.733
X2.3535Y-4.3073
X2.3559Y-3.5193
X2.357Y-2.733
X2.8012Y-3.1439
X2.802Y-2.3546
X2.8031Y-3.9274
X3.2343Y-3.1439
X3.235Y-2.3546
X3.2362Y-3.9274
X3.5878Y-3.4559
X3.5921Y-2.6677
X3.5933Y-1.8799
X4.0209Y-3.4559
X4.0252Y-2.6677
X4.0264Y-1.8799
X4.3807Y-1.4984
X4.3807Y-2.285
X4.3843Y-3.0756
X4.5604Y-4.2624
X4.8138Y-1.4984
X4.8138Y-2.285
X4.8173Y-3.0756
X4.9935Y-4.2624
X5.1634Y-2.6315
X5.1642Y-1.8445
X5.1665Y-3.4224
X5.4734Y-4.3395
X5.5965Y-2.6315
X5.5972Y-1.8445
X5.5996Y-3.4224
X5.8917Y-4.4516
X5.9531Y-3.5799
X5.9559Y-2.0083
X5.9559Y-2.7961
X6.3418Y-4.6331
X6.3862Y-3.5799
X6.389Y-2.0083
X6.389Y-2.7961
X6.7169Y-4.8496
T5
X1.9402Y-4.453
X1.9425Y-3.665
X1.9436Y-2.8786
X1.987Y-4.2073
X1.9894Y-3.4193
X1.9905Y-2.633
X2.037Y-4.1073
X2.0394Y-3.3193
X2.0405Y-2.533
X2.137Y-4.5396
X2.1394Y-3.7516
X2.1405Y-2.9653
X2.237Y-4.1073
X2.2394Y-3.3193
X2.2405Y-2.533
X2.287Y-4.2073
X2.287Y-4.2073
X2.2894Y-3.4193
X2.2894Y-3.4193
X2.2905Y-2.633
X2.2905Y-2.633
X2.3339Y-4.453
X2.3362Y-3.665
X2.3373Y-2.8786
X2.8209Y-3.2896
X2.8217Y-2.5002
X2.8228Y-4.0731
X2.8677Y-3.0439
X2.8685Y-2.2546
X2.8697Y-3.8274
X2.9177Y-2.9439
X2.9185Y-2.1546
X2.9197Y-3.7274
X3.0177Y-3.3762
X3.0185Y-2.5869
X3.0197Y-4.1597
X3.1177Y-2.9439
X3.1185Y-2.1546
X3.1197Y-3.7274
X3.1677Y-3.0439
X3.1677Y-3.0439
X3.1685Y-2.2546
X3.1685Y-2.2546
X3.1697Y-3.8274
X3.1697Y-3.8274
X3.2146Y-3.2896
X3.2154Y-2.5002
X3.2165Y-4.0731
X3.6075Y-3.6016
X3.6118Y-2.8134
X3.613Y-2.0256
X3.6543Y-3.3559
X3.6587Y-2.5677
X3.6598Y-1.7799
X3.7043Y-3.2559
X3.7087Y-2.4677
X3.7098Y-1.6799
X3.8043Y-3.6882
X3.8087Y-2.9
X3.8098Y-2.1122
X3.9043Y-3.2559
X3.9087Y-2.4677
X3.9098Y-1.6799
X3.9543Y-3.3559
X3.9543Y-3.3559
X3.9587Y-2.5677
X3.9587Y-2.5677
X3.9598Y-1.7799
X3.9598Y-1.7799
X4.0012Y-3.6016
X4.0055Y-2.8134
X4.0067Y-2.0256
X4.4004Y-1.6441
X4.4004Y-2.4307
X4.4039Y-3.2213
X4.4472Y-1.3984
X4.4472Y-2.185
X4.4508Y-2.9756
X4.4972Y-1.2984
X4.4972Y-2.085
X4.5008Y-2.8756
X4.5801Y-4.4081
X4.5972Y-1.7307
X4.5972Y-2.5173
X4.6008Y-3.3079
X4.627Y-4.1624
X4.677Y-4.0624
X4.6972Y-1.2984
X4.6972Y-2.085
X4.7008Y-2.8756
X4.7472Y-1.3984
X4.7472Y-1.3984
X4.7472Y-2.185
X4.7472Y-2.185
X4.7508Y-2.9756
X4.7508Y-2.9756
X4.777Y-4.4947
X4.7941Y-1.6441
X4.7941Y-2.4307
X4.7976Y-3.2213
X4.877Y-4.0624
X4.927Y-4.1624
X4.927Y-4.1624
X4.9738Y-4.4081
X5.1831Y-2.7772
X5.1839Y-1.9902
X5.1862Y-3.5681
X5.2299Y-2.5315
X5.2307Y-1.7445
X5.2331Y-3.3224
X5.2799Y-2.4315
X5.2807Y-1.6445
X5.2831Y-3.2224
X5.3799Y-2.8638
X5.3807Y-2.0768
X5.3831Y-3.6547
X5.4547Y-4.4853
X5.4799Y-2.4315
X5.4807Y-1.6445
X5.4831Y-3.2224
X5.5299Y-2.5315
X5.5299Y-2.5315
X5.5307Y-1.7445
X5.5307Y-1.7445
X5.5331Y-3.3224
X5.5331Y-3.3224
X5.5635Y-4.2601
X5.5768Y-2.7772
X5.5776Y-1.9902
X5.5799Y-3.5681
X5.6224Y-4.6199
X5.6377Y-4.1765
X5.8309Y-4.2282
X5.835Y-4.5872
X5.8533Y-4.3378
X5.8533Y-4.3378
X5.9728Y-3.7256
X5.9756Y-2.1539
X5.9756Y-2.9417
X6.0197Y-3.4799
X6.0224Y-1.9083
X6.0224Y-2.6961
X6.0697Y-3.3799
X6.0724Y-1.8083
X6.0724Y-2.5961
X6.1697Y-3.8122
X6.1724Y-2.2406
X6.1724Y-3.0283
X6.2697Y-3.3799
X6.2724Y-1.8083
X6.2724Y-2.5961
X6.286Y-4.7691
X6.3197Y-3.4799
X6.3197Y-3.4799
X6.3224Y-1.9083
X6.3224Y-1.9083
X6.3224Y-2.6961
X6.3224Y-2.6961
X6.3665Y-3.7256
X6.3693Y-2.1539
X6.3693Y-2.9417
X6.4132Y-4.9425
X6.4494Y-4.5798
X6.5427Y-4.5181
X6.627Y-4.9659
X6.7092Y-4.7298
X6.7092Y-4.7298
X6.7159Y-4.6181
T6
X2.137Y-4.3073
X2.1394Y-3.5193
X2.1405Y-2.733
X2.6016Y-1.8409
X2.6016Y-4.5976
X3.0177Y-3.1439
X3.0185Y-2.3546
X3.0197Y-3.9274
X3.8043Y-3.4559
X3.8087Y-2.6677
X3.8098Y-1.8799
X4.226Y-4.5236
X4.5972Y-1.4984
X4.5972Y-2.285
X4.6008Y-3.0756
X4.777Y-4.2624
X5.3799Y-2.6315
X5.3807Y-1.8445
X5.3831Y-3.4224
X5.6825Y-4.3955
X5.84Y-1.56
X6.1697Y-3.5799
X6.1724Y-2.0083
X6.1724Y-2.7961
X6.5173Y-4.0496
X6.5293Y-4.7414
T0
M30
