%TF.GenerationSoftware,KiCad,Pcbnew,7.0.6*%
%TF.CreationDate,2023-08-21T12:13:53+07:00*%
%TF.ProjectId,GlupV1,476c7570-5631-42e6-9b69-6361645f7063,rev?*%
%TF.SameCoordinates,Original*%
%TF.FileFunction,Paste,Top*%
%TF.FilePolarity,Positive*%
%FSLAX46Y46*%
G04 Gerber Fmt 4.6, Leading zero omitted, Abs format (unit mm)*
G04 Created by KiCad (PCBNEW 7.0.6) date 2023-08-21 12:13:53*
%MOMM*%
%LPD*%
G01*
G04 APERTURE LIST*
G04 Aperture macros list*
%AMRotRect*
0 Rectangle, with rotation*
0 The origin of the aperture is its center*
0 $1 length*
0 $2 width*
0 $3 Rotation angle, in degrees counterclockwise*
0 Add horizontal line*
21,1,$1,$2,0,0,$3*%
G04 Aperture macros list end*
%ADD10R,0.700000X1.500000*%
%ADD11R,2.400000X2.400000*%
%ADD12R,2.000000X2.000000*%
%ADD13R,1.800000X2.000000*%
%ADD14R,2.500000X2.500000*%
%ADD15R,1.300000X0.950000*%
%ADD16RotRect,1.300000X0.950000X345.000000*%
%ADD17RotRect,1.300000X0.950000X330.000000*%
%ADD18RotRect,0.700000X1.500000X345.000000*%
%ADD19RotRect,2.400000X2.400000X165.000000*%
%ADD20RotRect,2.000000X2.000000X165.000000*%
%ADD21RotRect,1.800000X2.000000X165.000000*%
%ADD22RotRect,2.500000X2.500000X165.000000*%
%ADD23RotRect,0.700000X1.500000X330.000000*%
%ADD24RotRect,2.400000X2.400000X150.000000*%
%ADD25RotRect,2.000000X2.000000X150.000000*%
%ADD26RotRect,1.800000X2.000000X150.000000*%
%ADD27RotRect,2.500000X2.500000X150.000000*%
G04 APERTURE END LIST*
D10*
%TO.C,SW9*%
X89430000Y-82680000D03*
D11*
X90930000Y-82700000D03*
D12*
X104730000Y-91480000D03*
D13*
X93830000Y-93680000D03*
D14*
X103530000Y-85239999D03*
D10*
X105130000Y-85280000D03*
%TD*%
%TO.C,SW13*%
X114135400Y-103166000D03*
D11*
X115635400Y-103186000D03*
D12*
X129435400Y-111966000D03*
D13*
X118535400Y-114166000D03*
D14*
X128235400Y-105725999D03*
D10*
X129835400Y-105766000D03*
%TD*%
D15*
%TO.C,D14*%
X142125000Y-56134000D03*
X138575000Y-56134000D03*
%TD*%
%TO.C,D16*%
X142515000Y-78930000D03*
X138965000Y-78930000D03*
%TD*%
D10*
%TO.C,SW6*%
X69500000Y-94656000D03*
D11*
X71000000Y-94676000D03*
D12*
X84800000Y-103456000D03*
D13*
X73900000Y-105656000D03*
D14*
X83600000Y-97215999D03*
D10*
X85200000Y-97256000D03*
%TD*%
%TO.C,SW5*%
X69450000Y-74756000D03*
D11*
X70950000Y-74776000D03*
D12*
X84750000Y-83556000D03*
D13*
X73850000Y-85756000D03*
D14*
X83550000Y-77315999D03*
D10*
X85150000Y-77356000D03*
%TD*%
D15*
%TO.C,D11*%
X122435000Y-50110000D03*
X118885000Y-50110000D03*
%TD*%
D10*
%TO.C,SW4*%
X69470000Y-54706000D03*
D11*
X70970000Y-54726000D03*
D12*
X84770000Y-63506000D03*
D13*
X73870000Y-65706000D03*
D14*
X83570000Y-57265999D03*
D10*
X85170000Y-57306000D03*
%TD*%
D15*
%TO.C,D20*%
X162080000Y-82910000D03*
X158530000Y-82910000D03*
%TD*%
%TO.C,D13*%
X127255000Y-100320000D03*
X123705000Y-100320000D03*
%TD*%
%TO.C,D7*%
X102359000Y-57150000D03*
X98809000Y-57150000D03*
%TD*%
%TO.C,D1*%
X60165000Y-79356000D03*
X56615000Y-79356000D03*
%TD*%
D10*
%TO.C,SW11*%
X109570000Y-52940000D03*
D11*
X111070000Y-52960000D03*
D12*
X124870000Y-61740000D03*
D13*
X113970000Y-63940000D03*
D14*
X123670000Y-55499999D03*
D10*
X125270000Y-55540000D03*
%TD*%
%TO.C,SW3*%
X47080000Y-104306000D03*
D11*
X48580000Y-104326000D03*
D12*
X62380000Y-113106000D03*
D13*
X51480000Y-115306000D03*
D14*
X61180000Y-106865999D03*
D10*
X62780000Y-106906000D03*
%TD*%
D16*
%TO.C,D17*%
X152106026Y-105440912D03*
X148676990Y-104522104D03*
%TD*%
D10*
%TO.C,SW20*%
X149510000Y-85830000D03*
D11*
X151010000Y-85850000D03*
D12*
X164810000Y-94630000D03*
D13*
X153910000Y-96830000D03*
D14*
X163610000Y-88389999D03*
D10*
X165210000Y-88430000D03*
%TD*%
D15*
%TO.C,D9*%
X102520000Y-79810000D03*
X98970000Y-79810000D03*
%TD*%
%TO.C,D5*%
X82315000Y-71930000D03*
X78765000Y-71930000D03*
%TD*%
D10*
%TO.C,SW15*%
X129450000Y-61740000D03*
D11*
X130950000Y-61760000D03*
D12*
X144750000Y-70540000D03*
D13*
X133850000Y-72740000D03*
D14*
X143550000Y-64299999D03*
D10*
X145150000Y-64340000D03*
%TD*%
%TO.C,SW8*%
X89540000Y-62660000D03*
D11*
X91040000Y-62680000D03*
D12*
X104840000Y-71460000D03*
D13*
X93940000Y-73660000D03*
D14*
X103640000Y-65219999D03*
D10*
X105240000Y-65260000D03*
%TD*%
%TO.C,SW12*%
X109660000Y-73020000D03*
D11*
X111160000Y-73040000D03*
D12*
X124960000Y-81820000D03*
D13*
X114060000Y-84020000D03*
D14*
X123760000Y-75579999D03*
D10*
X125360000Y-75620000D03*
%TD*%
D15*
%TO.C,D19*%
X162530000Y-63040000D03*
X158980000Y-63040000D03*
%TD*%
D17*
%TO.C,D21*%
X174820000Y-116380000D03*
X171745610Y-114605000D03*
%TD*%
D15*
%TO.C,D8*%
X102590000Y-59780000D03*
X99040000Y-59780000D03*
%TD*%
D10*
%TO.C,SW2*%
X47140000Y-84290000D03*
D11*
X48640000Y-84310000D03*
D12*
X62440000Y-93090000D03*
D13*
X51540000Y-95290000D03*
D14*
X61240000Y-86849999D03*
D10*
X62840000Y-86890000D03*
%TD*%
D15*
%TO.C,D4*%
X82285000Y-69342000D03*
X78735000Y-69342000D03*
%TD*%
D18*
%TO.C,SW17*%
X138701511Y-104856981D03*
D19*
X140145224Y-105264528D03*
D20*
X151202569Y-117317060D03*
D21*
X140104575Y-116620969D03*
D22*
X151658489Y-110979099D03*
D18*
X153193617Y-111431847D03*
%TD*%
D15*
%TO.C,D10*%
X122425000Y-47498000D03*
X118875000Y-47498000D03*
%TD*%
D10*
%TO.C,SW19*%
X149580000Y-65920000D03*
D11*
X151080000Y-65940000D03*
D12*
X164880000Y-74720000D03*
D13*
X153980000Y-76920000D03*
D14*
X163680000Y-68479999D03*
D10*
X165280000Y-68520000D03*
%TD*%
D15*
%TO.C,D12*%
X122560000Y-70140000D03*
X119010000Y-70140000D03*
%TD*%
D10*
%TO.C,SW18*%
X149580000Y-45910000D03*
D11*
X151080000Y-45930000D03*
D12*
X164880000Y-54710000D03*
D13*
X153980000Y-56910000D03*
D14*
X163680000Y-48469999D03*
D10*
X165280000Y-48510000D03*
%TD*%
%TO.C,SW10*%
X109570000Y-32960000D03*
D11*
X111070000Y-32980000D03*
D12*
X124870000Y-41760000D03*
D13*
X113970000Y-43960000D03*
D14*
X123670000Y-35519999D03*
D10*
X125270000Y-35560000D03*
%TD*%
D23*
%TO.C,SW21*%
X162159717Y-112413670D03*
D24*
X163448755Y-113180991D03*
D25*
X171009906Y-127684694D03*
D26*
X160470229Y-124139950D03*
D27*
X173090676Y-121680695D03*
D23*
X174456316Y-122515336D03*
%TD*%
D15*
%TO.C,D2*%
X60120000Y-81436000D03*
X56570000Y-81436000D03*
%TD*%
%TO.C,D18*%
X162814000Y-60452000D03*
X159264000Y-60452000D03*
%TD*%
D10*
%TO.C,SW14*%
X129470000Y-41750000D03*
D11*
X130970000Y-41770000D03*
D12*
X144770000Y-50550000D03*
D13*
X133870000Y-52750000D03*
D14*
X143570000Y-44309999D03*
D10*
X145170000Y-44350000D03*
%TD*%
D15*
%TO.C,D3*%
X60270000Y-101406000D03*
X56720000Y-101406000D03*
%TD*%
%TO.C,D6*%
X82215000Y-91900000D03*
X78665000Y-91900000D03*
%TD*%
%TO.C,D15*%
X142075000Y-58840000D03*
X138525000Y-58840000D03*
%TD*%
D10*
%TO.C,SW16*%
X129530000Y-81830000D03*
D11*
X131030000Y-81850000D03*
D12*
X144830000Y-90630000D03*
D13*
X133930000Y-92830000D03*
D14*
X143630000Y-84389999D03*
D10*
X145230000Y-84430000D03*
%TD*%
%TO.C,SW7*%
X89570000Y-42650000D03*
D11*
X91070000Y-42670000D03*
D12*
X104870000Y-51450000D03*
D13*
X93970000Y-53650000D03*
D14*
X103670000Y-45209999D03*
D10*
X105270000Y-45250000D03*
%TD*%
%TO.C,SW1*%
X47168000Y-64317500D03*
D11*
X48668000Y-64337500D03*
D12*
X62468000Y-73117500D03*
D13*
X51568000Y-75317500D03*
D14*
X61268000Y-66877499D03*
D10*
X62868000Y-66917500D03*
%TD*%
M02*
