%TF.GenerationSoftware,KiCad,Pcbnew,7.0.6*%
%TF.CreationDate,2023-08-11T19:59:34+07:00*%
%TF.ProjectId,keyboard_pcb,6b657962-6f61-4726-945f-7063622e6b69,rev1.0*%
%TF.SameCoordinates,Original*%
%TF.FileFunction,Copper,L2,Bot*%
%TF.FilePolarity,Positive*%
%FSLAX46Y46*%
G04 Gerber Fmt 4.6, Leading zero omitted, Abs format (unit mm)*
G04 Created by KiCad (PCBNEW 7.0.6) date 2023-08-11 19:59:34*
%MOMM*%
%LPD*%
G01*
G04 APERTURE LIST*
G04 Aperture macros list*
%AMRotRect*
0 Rectangle, with rotation*
0 The origin of the aperture is its center*
0 $1 length*
0 $2 width*
0 $3 Rotation angle, in degrees counterclockwise*
0 Add horizontal line*
21,1,$1,$2,0,0,$3*%
G04 Aperture macros list end*
%TA.AperFunction,SMDPad,CuDef*%
%ADD10R,2.400000X2.400000*%
%TD*%
%TA.AperFunction,SMDPad,CuDef*%
%ADD11R,1.900000X2.000000*%
%TD*%
%TA.AperFunction,SMDPad,CuDef*%
%ADD12R,2.500000X2.500000*%
%TD*%
%TA.AperFunction,SMDPad,CuDef*%
%ADD13R,2.000000X2.000000*%
%TD*%
%TA.AperFunction,SMDPad,CuDef*%
%ADD14RotRect,2.000000X2.000000X350.000000*%
%TD*%
%TA.AperFunction,SMDPad,CuDef*%
%ADD15RotRect,2.500000X2.500000X350.000000*%
%TD*%
%TA.AperFunction,SMDPad,CuDef*%
%ADD16RotRect,1.900000X2.000000X350.000000*%
%TD*%
%TA.AperFunction,SMDPad,CuDef*%
%ADD17RotRect,2.400000X2.400000X350.000000*%
%TD*%
%TA.AperFunction,SMDPad,CuDef*%
%ADD18RotRect,2.000000X2.000000X335.000000*%
%TD*%
%TA.AperFunction,SMDPad,CuDef*%
%ADD19RotRect,2.500000X2.500000X335.000000*%
%TD*%
%TA.AperFunction,SMDPad,CuDef*%
%ADD20RotRect,1.900000X2.000000X335.000000*%
%TD*%
%TA.AperFunction,SMDPad,CuDef*%
%ADD21RotRect,2.400000X2.400000X335.000000*%
%TD*%
%TA.AperFunction,SMDPad,CuDef*%
%ADD22RotRect,2.000000X2.000000X5.000000*%
%TD*%
%TA.AperFunction,SMDPad,CuDef*%
%ADD23RotRect,2.500000X2.500000X5.000000*%
%TD*%
%TA.AperFunction,SMDPad,CuDef*%
%ADD24RotRect,1.900000X2.000000X5.000000*%
%TD*%
%TA.AperFunction,SMDPad,CuDef*%
%ADD25RotRect,2.400000X2.400000X5.000000*%
%TD*%
%TA.AperFunction,ComponentPad*%
%ADD26O,2.000000X1.600000*%
%TD*%
%TA.AperFunction,ComponentPad*%
%ADD27C,1.700000*%
%TD*%
%TA.AperFunction,ComponentPad*%
%ADD28R,1.700000X1.700000*%
%TD*%
%TA.AperFunction,ViaPad*%
%ADD29C,0.800000*%
%TD*%
%TA.AperFunction,Conductor*%
%ADD30C,0.250000*%
%TD*%
G04 APERTURE END LIST*
D10*
%TO.P,K03,2*%
%TO.N,GND*%
X156576000Y-40894000D03*
D11*
X153676000Y-51874000D03*
D12*
%TO.P,K03,1*%
%TO.N,/k03*%
X143976000Y-43434000D03*
D13*
X142776000Y-49674000D03*
%TD*%
D14*
%TO.P,K31,1*%
%TO.N,/k31*%
X180130559Y-114987238D03*
D15*
X182395893Y-109050416D03*
D16*
%TO.P,K31,2*%
%TO.N,GND*%
X190482937Y-119046581D03*
D17*
X195245537Y-108736971D03*
%TD*%
D18*
%TO.P,K32,1*%
%TO.N,/k32*%
X200596319Y-119210231D03*
D19*
X204321027Y-114062012D03*
D20*
%TO.P,K32,2*%
%TO.N,GND*%
X209545314Y-125810647D03*
D21*
X216813955Y-117084981D03*
%TD*%
D22*
%TO.P,K30,1*%
%TO.N,/k30*%
X159099699Y-116608382D03*
D23*
X159751281Y-110287540D03*
D24*
%TO.P,K30,2*%
%TO.N,GND*%
X170149964Y-117850013D03*
D25*
X172081959Y-106659043D03*
%TD*%
D10*
%TO.P,K25,2*%
%TO.N,GND*%
X195630000Y-85664000D03*
D11*
X192730000Y-96644000D03*
D12*
%TO.P,K25,1*%
%TO.N,/k25*%
X183030000Y-88204000D03*
D13*
X181830000Y-94444000D03*
%TD*%
D10*
%TO.P,K24,2*%
%TO.N,GND*%
X176054000Y-84564000D03*
D11*
X173154000Y-95544000D03*
D12*
%TO.P,K24,1*%
%TO.N,/k24*%
X163454000Y-87104000D03*
D13*
X162254000Y-93344000D03*
%TD*%
D10*
%TO.P,K23,2*%
%TO.N,GND*%
X156530000Y-79818000D03*
D11*
X153630000Y-90798000D03*
D12*
%TO.P,K23,1*%
%TO.N,/k23*%
X143930000Y-82358000D03*
D13*
X142730000Y-88598000D03*
%TD*%
D10*
%TO.P,K22,2*%
%TO.N,GND*%
X136966000Y-84974000D03*
D11*
X134066000Y-95954000D03*
D12*
%TO.P,K22,1*%
%TO.N,/k22*%
X124366000Y-87514000D03*
D13*
X123166000Y-93754000D03*
%TD*%
D10*
%TO.P,K21,2*%
%TO.N,GND*%
X117567000Y-97310000D03*
D11*
X114667000Y-108290000D03*
D12*
%TO.P,K21,1*%
%TO.N,/k21*%
X104967000Y-99850000D03*
D13*
X103767000Y-106090000D03*
%TD*%
D10*
%TO.P,K20,2*%
%TO.N,GND*%
X98257000Y-97234000D03*
D11*
X95357000Y-108214000D03*
D12*
%TO.P,K20,1*%
%TO.N,/k20*%
X85657000Y-99774000D03*
D13*
X84457000Y-106014000D03*
%TD*%
%TO.P,K15,1*%
%TO.N,/k15*%
X182004000Y-75074000D03*
D12*
X183204000Y-68834000D03*
D11*
%TO.P,K15,2*%
%TO.N,GND*%
X192904000Y-77274000D03*
D10*
X195804000Y-66294000D03*
%TD*%
D13*
%TO.P,K14,1*%
%TO.N,/k14*%
X162428000Y-73974000D03*
D12*
X163628000Y-67734000D03*
D11*
%TO.P,K14,2*%
%TO.N,GND*%
X173328000Y-76174000D03*
D10*
X176228000Y-65194000D03*
%TD*%
D13*
%TO.P,K13,1*%
%TO.N,/k13*%
X142904000Y-69228000D03*
D12*
X144104000Y-62988000D03*
D11*
%TO.P,K13,2*%
%TO.N,GND*%
X153804000Y-71428000D03*
D10*
X156704000Y-60448000D03*
%TD*%
D13*
%TO.P,K12,1*%
%TO.N,/k12*%
X123340000Y-74384000D03*
D12*
X124540000Y-68144000D03*
D11*
%TO.P,K12,2*%
%TO.N,GND*%
X134240000Y-76584000D03*
D10*
X137140000Y-65604000D03*
%TD*%
D13*
%TO.P,K11,1*%
%TO.N,/k11*%
X103941000Y-86720000D03*
D12*
X105141000Y-80480000D03*
D11*
%TO.P,K11,2*%
%TO.N,GND*%
X114841000Y-88920000D03*
D10*
X117741000Y-77940000D03*
%TD*%
D13*
%TO.P,K10,1*%
%TO.N,/k10*%
X84631000Y-86644000D03*
D12*
X85831000Y-80404000D03*
D11*
%TO.P,K10,2*%
%TO.N,GND*%
X95531000Y-88844000D03*
D10*
X98431000Y-77864000D03*
%TD*%
%TO.P,K05,2*%
%TO.N,GND*%
X195676000Y-46740000D03*
D11*
X192776000Y-57720000D03*
D12*
%TO.P,K05,1*%
%TO.N,/k05*%
X183076000Y-49280000D03*
D13*
X181876000Y-55520000D03*
%TD*%
D10*
%TO.P,K04,2*%
%TO.N,GND*%
X176100000Y-45640000D03*
D11*
X173200000Y-56620000D03*
D12*
%TO.P,K04,1*%
%TO.N,/k04*%
X163500000Y-48180000D03*
D13*
X162300000Y-54420000D03*
%TD*%
D10*
%TO.P,K02,2*%
%TO.N,GND*%
X137012000Y-46050000D03*
D11*
X134112000Y-57030000D03*
D12*
%TO.P,K02,1*%
%TO.N,/k02*%
X124412000Y-48590000D03*
D13*
X123212000Y-54830000D03*
%TD*%
D10*
%TO.P,K01,2*%
%TO.N,GND*%
X117613000Y-58386000D03*
D11*
X114713000Y-69366000D03*
D12*
%TO.P,K01,1*%
%TO.N,/k01*%
X105013000Y-60926000D03*
D13*
X103813000Y-67166000D03*
%TD*%
D10*
%TO.P,K00,2*%
%TO.N,GND*%
X98303000Y-58310000D03*
D11*
X95403000Y-69290000D03*
D12*
%TO.P,K00,1*%
%TO.N,/k00*%
X85703000Y-60850000D03*
D13*
X84503000Y-67090000D03*
%TD*%
D26*
%TO.P,J1,4,RING2*%
%TO.N,/TX*%
X225580000Y-102444000D03*
X222580000Y-109144000D03*
%TO.P,J1,3,RING1*%
%TO.N,/RX*%
X222580000Y-102444000D03*
X225580000Y-109144000D03*
%TO.P,J1,2,TIP*%
%TO.N,GND*%
X218580000Y-102444000D03*
X218580000Y-109144000D03*
%TO.P,J1,1,SLEEVE*%
%TO.N,+3V3*%
X217480000Y-107044000D03*
X217480000Y-104544000D03*
%TD*%
D27*
%TO.P,U1,40,5V*%
%TO.N,unconnected-(U1-5V-Pad40)*%
X221000000Y-47380000D03*
X208420000Y-47360000D03*
%TO.P,U1,39,GND*%
%TO.N,GND*%
X221000000Y-49920000D03*
X208420000Y-49900000D03*
%TO.P,U1,38,3V3*%
%TO.N,+3V3*%
X221000000Y-52460000D03*
X208420000Y-52440000D03*
%TO.P,U1,37,PB10*%
%TO.N,/k01*%
X208420000Y-54980000D03*
X221000000Y-55000000D03*
%TO.P,U1,36,PB2*%
%TO.N,unconnected-(U1-PB2-Pad36)*%
X221000000Y-57540000D03*
X208420000Y-57520000D03*
%TO.P,U1,35,PB1*%
%TO.N,/k00*%
X208420000Y-60060000D03*
X221000000Y-60080000D03*
%TO.P,U1,34,PB0*%
%TO.N,/k25*%
X208420000Y-62600000D03*
X221000000Y-62620000D03*
%TO.P,U1,33,PA7*%
%TO.N,/k24*%
X221000000Y-65160000D03*
X208420000Y-65140000D03*
%TO.P,U1,32,PA6*%
%TO.N,/k23*%
X221000000Y-67700000D03*
X208420000Y-67680000D03*
%TO.P,U1,31,PA5*%
%TO.N,/k22*%
X208420000Y-70220000D03*
X221000000Y-70240000D03*
%TO.P,U1,30,PA4*%
%TO.N,/k21*%
X221000000Y-72780000D03*
X208420000Y-72760000D03*
%TO.P,U1,29,PA3*%
%TO.N,/k20*%
X221000000Y-75320000D03*
X208420000Y-75300000D03*
%TO.P,U1,28,PA2*%
%TO.N,/k30*%
X208420000Y-77840000D03*
X221000000Y-77860000D03*
%TO.P,U1,27,PA1*%
%TO.N,/k31*%
X208420000Y-80380000D03*
X221000000Y-80400000D03*
%TO.P,U1,26,PA0*%
%TO.N,/k32*%
X208420000Y-82920000D03*
X221000000Y-82940000D03*
%TO.P,U1,25,RES*%
%TO.N,unconnected-(U1-RES-Pad25)*%
X208420000Y-85460000D03*
X221000000Y-85480000D03*
%TO.P,U1,24,PC15*%
%TO.N,unconnected-(U1-PC15-Pad24)*%
X208420000Y-88000000D03*
X221000000Y-88020000D03*
%TO.P,U1,23,PC14*%
%TO.N,unconnected-(U1-PC14-Pad23)*%
X221000000Y-90560000D03*
X208420000Y-90540000D03*
%TO.P,U1,22,PC13*%
%TO.N,unconnected-(U1-PC13-Pad22)*%
X221000000Y-93100000D03*
X208420000Y-93080000D03*
%TO.P,U1,21,VBat*%
%TO.N,unconnected-(U1-VBat-Pad21)*%
X208420000Y-95620000D03*
X221000000Y-95640000D03*
%TO.P,U1,20,3V3*%
%TO.N,+3V3*%
X205760000Y-95640000D03*
X223660000Y-95620000D03*
%TO.P,U1,19,GND*%
%TO.N,GND*%
X205760000Y-93100000D03*
X223660000Y-93080000D03*
%TO.P,U1,18,5V*%
%TO.N,unconnected-(U1-5V-Pad18)*%
X223660000Y-90540000D03*
X205760000Y-90560000D03*
%TO.P,U1,17,PB9*%
%TO.N,/k10*%
X205760000Y-88020000D03*
X223660000Y-88000000D03*
%TO.P,U1,16,PB8*%
%TO.N,/k11*%
X205760000Y-85480000D03*
X223660000Y-85460000D03*
%TO.P,U1,15,PB7*%
%TO.N,/RX*%
X223660000Y-82920000D03*
X205760000Y-82940000D03*
%TO.P,U1,14,PB6*%
%TO.N,/TX*%
X223660000Y-80380000D03*
X205760000Y-80400000D03*
%TO.P,U1,13,PB5*%
%TO.N,/k12*%
X205760000Y-77860000D03*
X223660000Y-77840000D03*
%TO.P,U1,12,PB4*%
%TO.N,/k13*%
X223660000Y-75300000D03*
X205760000Y-75320000D03*
%TO.P,U1,11,PB3*%
%TO.N,/k14*%
X223660000Y-72760000D03*
X205760000Y-72780000D03*
%TO.P,U1,10,PA15*%
%TO.N,/k15*%
X205760000Y-70240000D03*
X223660000Y-70220000D03*
%TO.P,U1,9,PA12*%
%TO.N,unconnected-(U1-PA12-Pad9)*%
X223660000Y-67680000D03*
X205760000Y-67700000D03*
%TO.P,U1,8,PA11*%
%TO.N,unconnected-(U1-PA11-Pad8)*%
X205760000Y-65160000D03*
X223660000Y-65140000D03*
%TO.P,U1,7,PA10*%
%TO.N,unconnected-(U1-PA10-Pad7)*%
X205760000Y-62620000D03*
X223660000Y-62600000D03*
%TO.P,U1,6,PA9*%
%TO.N,unconnected-(U1-PA9-Pad6)*%
X205760000Y-60080000D03*
X223660000Y-60060000D03*
%TO.P,U1,5,PA8*%
%TO.N,/k02*%
X223660000Y-57520000D03*
X205760000Y-57540000D03*
%TO.P,U1,4,PB15*%
%TO.N,/k03*%
X205760000Y-55000000D03*
X223660000Y-54980000D03*
%TO.P,U1,3,PB14*%
%TO.N,/k04*%
X223660000Y-52440000D03*
X205760000Y-52460000D03*
%TO.P,U1,2,PB13*%
%TO.N,/k05*%
X205760000Y-49920000D03*
X223660000Y-49900000D03*
D28*
%TO.P,U1,1,PB12*%
%TO.N,unconnected-(U1-PB12-Pad1)*%
X223660000Y-47360000D03*
X205760000Y-47380000D03*
%TD*%
D29*
%TO.N,/k32*%
X204512000Y-110086000D03*
%TO.N,/k31*%
X181988000Y-106494000D03*
%TO.N,/k30*%
X157760000Y-107598000D03*
%TO.N,/k25*%
X182419000Y-85760300D03*
%TO.N,/k24*%
X162826000Y-84564000D03*
X197157000Y-83587100D03*
%TO.N,/k23*%
X145092000Y-78005100D03*
X159484000Y-66529300D03*
%TO.N,/k22*%
X123476000Y-85364100D03*
X196292000Y-82485600D03*
%TO.N,/k21*%
X103923000Y-97422100D03*
X209783000Y-94350000D03*
%TO.N,/k20*%
X85039800Y-97384100D03*
X204800000Y-101494000D03*
%TO.N,/k15*%
X182455000Y-66207300D03*
%TO.N,/k14*%
X162813000Y-65657300D03*
%TO.N,/k13*%
X143512000Y-64842800D03*
X200275000Y-80805200D03*
X143261000Y-75559900D03*
%TO.N,/k12*%
X123088000Y-75997400D03*
%TO.N,/k11*%
X105125000Y-84155500D03*
%TO.N,/k10*%
X85210100Y-77965700D03*
%TO.N,/k04*%
X162749000Y-46063600D03*
%TO.N,/k03*%
X142114000Y-40894000D03*
%TO.N,/k02*%
X123499000Y-46268600D03*
%TO.N,/k01*%
X102399000Y-58260100D03*
X199062000Y-62623100D03*
%TO.N,/k00*%
X85084200Y-58310000D03*
X202901000Y-61480900D03*
%TO.N,GND*%
X220054000Y-94319000D03*
X219121000Y-105481000D03*
X100252000Y-78164700D03*
X89931000Y-90471600D03*
X120798000Y-80480000D03*
X113877000Y-86502800D03*
X140193000Y-68144000D03*
X159786000Y-62896300D03*
X152890000Y-69305200D03*
X178034000Y-65844700D03*
X167728000Y-77814900D03*
X197631000Y-66438700D03*
X191850000Y-74578400D03*
X174000000Y-106142000D03*
X169601000Y-115922000D03*
X219026000Y-117841000D03*
X209541000Y-122204000D03*
X198044000Y-111846000D03*
X189527000Y-116484000D03*
X89803000Y-70904500D03*
X97102700Y-70989600D03*
X100135000Y-58920700D03*
X102427000Y-70989600D03*
X109113000Y-71419900D03*
X128640000Y-78192000D03*
X120671000Y-60926000D03*
X119489000Y-57782700D03*
X132876000Y-54951700D03*
X138853000Y-46709000D03*
X167600000Y-58258500D03*
X160065000Y-58258500D03*
X177910000Y-45813700D03*
X179603000Y-57720000D03*
X191420000Y-55314300D03*
X197486000Y-47424400D03*
X89757000Y-109823000D03*
X94858000Y-110676000D03*
X100065000Y-97384100D03*
X98257000Y-90583500D03*
X109067000Y-109898000D03*
X98247400Y-110085000D03*
X119173000Y-101761000D03*
X134092000Y-98048100D03*
X120255000Y-97233200D03*
X138785000Y-85319100D03*
X140193000Y-71456000D03*
X153144000Y-88670600D03*
X159594000Y-82358000D03*
X173419000Y-97513600D03*
X177895000Y-85240600D03*
X163119000Y-77814900D03*
X191351000Y-94363200D03*
X197690000Y-85739400D03*
X195803000Y-78989200D03*
X154953000Y-54323800D03*
X158396000Y-41575200D03*
X216828000Y-122167000D03*
X202676000Y-47543800D03*
X177366000Y-97513600D03*
X180984000Y-98518700D03*
X197703000Y-122721000D03*
X195780000Y-97640300D03*
X194303000Y-97325700D03*
%TD*%
D30*
%TO.N,/k32*%
X205230000Y-112113000D02*
X204321000Y-114062000D01*
X204512000Y-111394000D02*
X205230000Y-112113000D01*
X204512000Y-110086000D02*
X204512000Y-111394000D01*
X204060000Y-109634000D02*
X204512000Y-110086000D01*
X204060000Y-87981700D02*
X204060000Y-109634000D01*
X205292000Y-86750000D02*
X204060000Y-87981700D01*
X206226000Y-86750000D02*
X205292000Y-86750000D01*
X207005000Y-85970600D02*
X206226000Y-86750000D01*
X207005000Y-84334600D02*
X207005000Y-85970600D01*
X208420000Y-82920000D02*
X207005000Y-84334600D01*
X200596000Y-119210000D02*
X200978500Y-118390000D01*
X201361000Y-117022000D02*
X204321000Y-114062000D01*
X201361000Y-117570000D02*
X201361000Y-117022000D01*
X200978500Y-118390000D02*
X201361000Y-117570000D01*
X200596300Y-118772200D02*
X200596300Y-119210200D01*
X200978500Y-118390000D02*
X200596300Y-118772200D01*
%TO.N,/k31*%
X181988000Y-106494000D02*
X182718000Y-107224000D01*
X207090000Y-81710000D02*
X208420000Y-80380000D01*
X205326000Y-81710000D02*
X207090000Y-81710000D01*
X197693000Y-89342600D02*
X205326000Y-81710000D01*
X197693000Y-92327000D02*
X197693000Y-89342600D01*
X197241000Y-92778700D02*
X197693000Y-92327000D01*
X197241000Y-95149300D02*
X197241000Y-92778700D01*
X195030000Y-97360300D02*
X197241000Y-95149300D01*
X195030000Y-97626800D02*
X195030000Y-97360300D01*
X194604000Y-98052600D02*
X195030000Y-97626800D01*
X194338000Y-98052600D02*
X194604000Y-98052600D01*
X189901000Y-102490000D02*
X194338000Y-98052600D01*
X188957000Y-102490000D02*
X189901000Y-102490000D01*
X184223000Y-107224000D02*
X188957000Y-102490000D01*
X182718000Y-107224000D02*
X184223000Y-107224000D01*
X182396000Y-109050000D02*
X182395900Y-109050400D01*
X182718000Y-107224000D02*
X182396000Y-109050000D01*
X180402000Y-113450000D02*
X180131000Y-114987000D01*
X180402000Y-112550000D02*
X180402000Y-113450000D01*
X182074000Y-110877000D02*
X180402000Y-112550000D01*
X182395900Y-109050400D02*
X182074000Y-110877000D01*
X180130800Y-114987200D02*
X180131000Y-114987000D01*
X180130600Y-114987200D02*
X180130800Y-114987200D01*
%TO.N,/k30*%
X157760000Y-109074000D02*
X157760000Y-107598000D01*
X158974000Y-110288000D02*
X157760000Y-109074000D01*
X159602000Y-108579000D02*
X159676500Y-109433500D01*
X169919000Y-98262300D02*
X159602000Y-108579000D01*
X169919000Y-98262200D02*
X169919000Y-98262300D01*
X180213000Y-98262200D02*
X169919000Y-98262200D01*
X180684000Y-97791800D02*
X180213000Y-98262200D01*
X184749000Y-97791800D02*
X180684000Y-97791800D01*
X188092000Y-94448600D02*
X184749000Y-97791800D01*
X190237000Y-94448600D02*
X188092000Y-94448600D01*
X191050000Y-93636300D02*
X190237000Y-94448600D01*
X191516000Y-93636300D02*
X191050000Y-93636300D01*
X192833000Y-92319000D02*
X191516000Y-93636300D01*
X196112000Y-92319000D02*
X192833000Y-92319000D01*
X197016000Y-91414700D02*
X196112000Y-92319000D01*
X197016000Y-87457300D02*
X197016000Y-91414700D01*
X205344000Y-79130000D02*
X197016000Y-87457300D01*
X207130000Y-79130000D02*
X205344000Y-79130000D01*
X208420000Y-77840000D02*
X207130000Y-79130000D01*
X159751000Y-110288000D02*
X158974000Y-110288000D01*
X159676500Y-109433500D02*
X159751000Y-110288000D01*
X159751300Y-109508300D02*
X159751300Y-110287500D01*
X159676500Y-109433500D02*
X159751300Y-109508300D01*
X159100000Y-116608000D02*
X159037000Y-115889500D01*
X158974000Y-115171000D02*
X158974000Y-110288000D01*
X159037000Y-115889500D02*
X158974000Y-115171000D01*
X159099700Y-115952200D02*
X159099700Y-116608400D01*
X159037000Y-115889500D02*
X159099700Y-115952200D01*
%TO.N,/k25*%
X181830000Y-90980900D02*
X181830000Y-94444000D01*
X183030000Y-89780900D02*
X181830000Y-90980900D01*
X183030000Y-88204000D02*
X183030000Y-89780900D01*
X183030000Y-86371400D02*
X182419000Y-85760300D01*
X183030000Y-88204000D02*
X183030000Y-86371400D01*
X185019000Y-83160100D02*
X182419000Y-85760300D01*
X190594000Y-83160100D02*
X185019000Y-83160100D01*
X197850000Y-75903800D02*
X190594000Y-83160100D01*
X197850000Y-73931900D02*
X197850000Y-75903800D01*
X205352000Y-66430000D02*
X197850000Y-73931900D01*
X206160000Y-66430000D02*
X205352000Y-66430000D01*
X207100000Y-65489500D02*
X206160000Y-66430000D01*
X207100000Y-63920000D02*
X207100000Y-65489500D01*
X208420000Y-62600000D02*
X207100000Y-63920000D01*
%TO.N,/k24*%
X163454000Y-88680900D02*
X163454000Y-87892400D01*
X162254000Y-89880900D02*
X163454000Y-88680900D01*
X162254000Y-93344000D02*
X162254000Y-89880900D01*
X162826000Y-87264900D02*
X162826000Y-84564000D01*
X163454000Y-87892400D02*
X162826000Y-87264900D01*
X197157000Y-82232700D02*
X197157000Y-83587100D01*
X205340000Y-74050000D02*
X197157000Y-82232700D01*
X206226000Y-74050000D02*
X205340000Y-74050000D01*
X207005000Y-73270600D02*
X206226000Y-74050000D01*
X207005000Y-72510300D02*
X207005000Y-73270600D01*
X208006000Y-71509800D02*
X207005000Y-72510300D01*
X208809000Y-71509800D02*
X208006000Y-71509800D01*
X209633000Y-70685800D02*
X208809000Y-71509800D01*
X209633000Y-66352600D02*
X209633000Y-70685800D01*
X208420000Y-65140000D02*
X209633000Y-66352600D01*
X163454000Y-87104000D02*
X163454000Y-87892400D01*
%TO.N,/k23*%
X143930000Y-83934900D02*
X143930000Y-82358000D01*
X142730000Y-85134900D02*
X143930000Y-83934900D01*
X142730000Y-88598000D02*
X142730000Y-85134900D01*
X143930000Y-79167600D02*
X145092000Y-78005100D01*
X143930000Y-82358000D02*
X143930000Y-79167600D01*
X158862000Y-67151100D02*
X159484000Y-66529300D01*
X155144000Y-67151100D02*
X158862000Y-67151100D01*
X153717000Y-68578200D02*
X155144000Y-67151100D01*
X150916000Y-68578200D02*
X153717000Y-68578200D01*
X145092000Y-74401900D02*
X150916000Y-68578200D01*
X145092000Y-78005100D02*
X145092000Y-74401900D01*
%TO.N,/k22*%
X124366000Y-89090900D02*
X124366000Y-87750800D01*
X123166000Y-90290900D02*
X124366000Y-89090900D01*
X123166000Y-93754000D02*
X123166000Y-90290900D01*
X123476000Y-86860600D02*
X123476000Y-85364100D01*
X124366000Y-87750800D02*
X123476000Y-86860600D01*
X196292000Y-81926600D02*
X196292000Y-82485600D01*
X199032000Y-79186900D02*
X196292000Y-81926600D01*
X199032000Y-75303500D02*
X199032000Y-79186900D01*
X205273000Y-69063100D02*
X199032000Y-75303500D01*
X206248000Y-69063100D02*
X205273000Y-69063100D01*
X207404000Y-70219900D02*
X206248000Y-69063100D01*
X207404000Y-70220000D02*
X207404000Y-70219900D01*
X208420000Y-70220000D02*
X207404000Y-70220000D01*
X124366000Y-87514000D02*
X124366000Y-87750800D01*
%TO.N,/k21*%
X104967000Y-101427000D02*
X104967000Y-100087000D01*
X103767000Y-102627000D02*
X104967000Y-101427000D01*
X103767000Y-106090000D02*
X103767000Y-102627000D01*
X103923000Y-99042900D02*
X103923000Y-97422100D01*
X104967000Y-100087000D02*
X103923000Y-99042900D01*
X210102000Y-74442100D02*
X208420000Y-72760000D01*
X210102000Y-94030500D02*
X210102000Y-74442100D01*
X209783000Y-94350000D02*
X210102000Y-94030500D01*
X104967000Y-99850000D02*
X104967000Y-100087000D01*
%TO.N,/k20*%
X85657000Y-101351000D02*
X85657000Y-100011000D01*
X84457000Y-102551000D02*
X85657000Y-101351000D01*
X84457000Y-106014000D02*
X84457000Y-102551000D01*
X85039800Y-99393600D02*
X85039800Y-97384100D01*
X85657000Y-100011000D02*
X85039800Y-99393600D01*
X204568000Y-101262000D02*
X204800000Y-101494000D01*
X204568000Y-92582500D02*
X204568000Y-101262000D01*
X205320000Y-91830000D02*
X204568000Y-92582500D01*
X208852000Y-91830000D02*
X205320000Y-91830000D01*
X209614000Y-91068400D02*
X208852000Y-91830000D01*
X209614000Y-76493800D02*
X209614000Y-91068400D01*
X208420000Y-75300000D02*
X209614000Y-76493800D01*
X85657000Y-99774000D02*
X85657000Y-100011000D01*
%TO.N,/k15*%
X182004000Y-71610900D02*
X182004000Y-75074000D01*
X183204000Y-70410900D02*
X182004000Y-71610900D01*
X183204000Y-69070800D02*
X183204000Y-70410900D01*
X182455000Y-68321400D02*
X182455000Y-66207300D01*
X183204000Y-69070800D02*
X182455000Y-68321400D01*
X183204000Y-68834000D02*
X183204000Y-69070800D01*
%TO.N,/k14*%
X162428000Y-70510900D02*
X162428000Y-73974000D01*
X163628000Y-69310900D02*
X162428000Y-70510900D01*
X163628000Y-67970800D02*
X163628000Y-69310900D01*
X162813000Y-67156100D02*
X162813000Y-65657300D01*
X163628000Y-67970800D02*
X162813000Y-67156100D01*
X163628000Y-67734000D02*
X163628000Y-67970800D01*
%TO.N,/k13*%
X142904000Y-65450800D02*
X143512000Y-64842800D01*
X142904000Y-69228000D02*
X142904000Y-65450800D01*
X143790000Y-64564900D02*
X143512000Y-64842800D01*
X144104000Y-64564900D02*
X143790000Y-64564900D01*
X144104000Y-62988000D02*
X144104000Y-64564900D01*
X142904000Y-75202500D02*
X143261000Y-75559900D01*
X142904000Y-69228000D02*
X142904000Y-75202500D01*
X205760000Y-75320000D02*
X200275000Y-80805200D01*
%TO.N,/k12*%
X123340000Y-75745200D02*
X123340000Y-74384000D01*
X123088000Y-75997400D02*
X123340000Y-75745200D01*
X123340000Y-70920900D02*
X123340000Y-74384000D01*
X124540000Y-69720900D02*
X123340000Y-70920900D01*
X124540000Y-68144000D02*
X124540000Y-69720900D01*
%TO.N,/k11*%
X105125000Y-84208900D02*
X105125000Y-84155500D01*
X103941000Y-85393100D02*
X105125000Y-84208900D01*
X103941000Y-86720000D02*
X103941000Y-85393100D01*
X104957000Y-83987200D02*
X105125000Y-84155500D01*
X104957000Y-82241000D02*
X104957000Y-83987200D01*
X105141000Y-82056900D02*
X104957000Y-82241000D01*
X105141000Y-80480000D02*
X105141000Y-82056900D01*
%TO.N,/k10*%
X85831000Y-78586600D02*
X85831000Y-80404000D01*
X85210100Y-77965700D02*
X85831000Y-78586600D01*
X84631000Y-83180900D02*
X84631000Y-86644000D01*
X85831000Y-81980900D02*
X84631000Y-83180900D01*
X85831000Y-80404000D02*
X85831000Y-81980900D01*
%TO.N,/k05*%
X202285000Y-53395100D02*
X205760000Y-49920000D01*
X192879000Y-53395100D02*
X202285000Y-53395100D01*
X191877000Y-54396900D02*
X192879000Y-53395100D01*
X189036000Y-54396900D02*
X191877000Y-54396900D01*
X185836000Y-57596900D02*
X189036000Y-54396900D01*
X184116000Y-57596900D02*
X185836000Y-57596900D01*
X181958000Y-55438500D02*
X184116000Y-57596900D01*
X181876000Y-55520000D02*
X181958000Y-55438500D01*
X183076000Y-50856900D02*
X183076000Y-49280000D01*
X182912000Y-51020500D02*
X183076000Y-50856900D01*
X182912000Y-54483600D02*
X182912000Y-51020500D01*
X181958000Y-55438500D02*
X182912000Y-54483600D01*
%TO.N,/k04*%
X163500000Y-49756900D02*
X163500000Y-48416800D01*
X162300000Y-50956900D02*
X163500000Y-49756900D01*
X162300000Y-54420000D02*
X162300000Y-50956900D01*
X162749000Y-47666100D02*
X162749000Y-46063600D01*
X163500000Y-48416800D02*
X162749000Y-47666100D01*
X163500000Y-48180000D02*
X163500000Y-48416800D01*
%TO.N,/k03*%
X143976000Y-45010900D02*
X143976000Y-43670800D01*
X142776000Y-46210900D02*
X143976000Y-45010900D01*
X142776000Y-49674000D02*
X142776000Y-46210900D01*
X142114000Y-41808400D02*
X142114000Y-40894000D01*
X143976000Y-43670800D02*
X142114000Y-41808400D01*
X143976000Y-43434000D02*
X143976000Y-43670800D01*
%TO.N,/k02*%
X124412000Y-50166900D02*
X124412000Y-48826800D01*
X123212000Y-51366900D02*
X124412000Y-50166900D01*
X123212000Y-54830000D02*
X123212000Y-51366900D01*
X123499000Y-47913600D02*
X123499000Y-46268600D01*
X124412000Y-48826800D02*
X123499000Y-47913600D01*
X124412000Y-48590000D02*
X124412000Y-48826800D01*
%TO.N,/k01*%
X105013000Y-62502900D02*
X105013000Y-61162800D01*
X103813000Y-63702900D02*
X105013000Y-62502900D01*
X103813000Y-67166000D02*
X103813000Y-63702900D01*
X102399000Y-58548400D02*
X102399000Y-58260100D01*
X105013000Y-61162800D02*
X102399000Y-58548400D01*
X199062000Y-62504000D02*
X199062000Y-62623100D01*
X205296000Y-56270000D02*
X199062000Y-62504000D01*
X207130000Y-56270000D02*
X205296000Y-56270000D01*
X208420000Y-54980000D02*
X207130000Y-56270000D01*
X105013000Y-60926000D02*
X105013000Y-61162800D01*
%TO.N,/k00*%
X85703000Y-62426900D02*
X85703000Y-61638400D01*
X84503000Y-63626900D02*
X85703000Y-62426900D01*
X84503000Y-67090000D02*
X84503000Y-63626900D01*
X85084200Y-61019600D02*
X85084200Y-58310000D01*
X85703000Y-61638400D02*
X85084200Y-61019600D01*
X203105000Y-61276900D02*
X202901000Y-61480900D01*
X207203000Y-61276900D02*
X203105000Y-61276900D01*
X208420000Y-60060000D02*
X207203000Y-61276900D01*
X85703000Y-60850000D02*
X85703000Y-61638400D01*
%TO.N,/RX*%
X222460000Y-84120000D02*
X223660000Y-82920000D01*
X222460000Y-101197000D02*
X222460000Y-84120000D01*
X222580000Y-101317000D02*
X222460000Y-101197000D01*
X222580000Y-102444000D02*
X222580000Y-101317000D01*
%TO.N,/TX*%
X225580000Y-82300000D02*
X223660000Y-80380000D01*
X225580000Y-102444000D02*
X225580000Y-82300000D01*
X225580000Y-105017000D02*
X225580000Y-102444000D01*
X222580000Y-108017000D02*
X225580000Y-105017000D01*
X222580000Y-109144000D02*
X222580000Y-108017000D01*
%TO.N,+3V3*%
X218400000Y-103624000D02*
X217480000Y-104544000D01*
X223252000Y-103624000D02*
X218400000Y-103624000D01*
X223922000Y-102954000D02*
X223252000Y-103624000D01*
X223922000Y-95882500D02*
X223922000Y-102954000D01*
X223660000Y-95620000D02*
X223922000Y-95882500D01*
X224847000Y-94433000D02*
X223660000Y-95620000D01*
X224847000Y-82324300D02*
X224847000Y-94433000D01*
X224266000Y-81743100D02*
X224847000Y-82324300D01*
X223297000Y-81743100D02*
X224266000Y-81743100D01*
X222435000Y-80880600D02*
X223297000Y-81743100D01*
X222435000Y-53894600D02*
X222435000Y-80880600D01*
X221000000Y-52460000D02*
X222435000Y-53894600D01*
X214664000Y-104544000D02*
X216072000Y-104544000D01*
X205760000Y-95640000D02*
X214664000Y-104544000D01*
X216072000Y-104544000D02*
X217480000Y-104544000D01*
X217445000Y-105917000D02*
X216072000Y-104544000D01*
X217480000Y-105917000D02*
X217445000Y-105917000D01*
X217480000Y-107044000D02*
X217480000Y-105917000D01*
%TO.N,GND*%
X218580000Y-95792600D02*
X220054000Y-94319000D01*
X218580000Y-102444000D02*
X218580000Y-95792600D01*
X219121000Y-109166000D02*
X219121000Y-105481000D01*
X218580000Y-109707000D02*
X219121000Y-109166000D01*
X99957900Y-77870500D02*
X100252000Y-78164700D01*
X99957900Y-77864000D02*
X99957900Y-77870500D01*
X98431000Y-77864000D02*
X99957900Y-77864000D01*
X90405800Y-90946400D02*
X89931000Y-90471600D01*
X94067100Y-90946400D02*
X90405800Y-90946400D01*
X96169500Y-88844000D02*
X94067100Y-90946400D01*
X114841000Y-88920000D02*
X114976000Y-88920000D01*
X114976000Y-87601900D02*
X113877000Y-86502800D01*
X114976000Y-88920000D02*
X114976000Y-87601900D01*
X138667000Y-66618000D02*
X140193000Y-68144000D01*
X138667000Y-65604000D02*
X138667000Y-66618000D01*
X137140000Y-65604000D02*
X138667000Y-65604000D01*
X153676000Y-51874000D02*
X154953000Y-51874000D01*
X153804000Y-71428000D02*
X153939000Y-71428000D01*
X177755000Y-65566100D02*
X178034000Y-65844700D01*
X177755000Y-65194000D02*
X177755000Y-65566100D01*
X176228000Y-65194000D02*
X177755000Y-65194000D01*
X173966000Y-76174000D02*
X173966000Y-78289500D01*
X173328000Y-76174000D02*
X173966000Y-76174000D01*
X176054000Y-80377000D02*
X173966000Y-78289500D01*
X176054000Y-84564000D02*
X176054000Y-80377000D01*
X168203000Y-78289500D02*
X167728000Y-77814900D01*
X173966000Y-78289500D02*
X168203000Y-78289500D01*
X194053000Y-57720000D02*
X192776000Y-57720000D01*
X194053000Y-63016000D02*
X194053000Y-57720000D01*
X195804000Y-64767100D02*
X194053000Y-63016000D01*
X195804000Y-66294000D02*
X195804000Y-64767100D01*
X218954000Y-117841000D02*
X217254000Y-116141000D01*
X219026000Y-117841000D02*
X218954000Y-117841000D01*
X216814000Y-117085000D02*
X217254000Y-116141000D01*
X90298000Y-71399500D02*
X89803000Y-70904500D01*
X95403000Y-71399500D02*
X90298000Y-71399500D01*
X95403000Y-69290000D02*
X95403000Y-71399500D01*
X98431000Y-76337100D02*
X98431000Y-77864000D01*
X95403000Y-73309100D02*
X98431000Y-76337100D01*
X95403000Y-71399500D02*
X95403000Y-73309100D01*
X96679900Y-70566800D02*
X97102700Y-70989600D01*
X96679900Y-69290000D02*
X96679900Y-70566800D01*
X95403000Y-69290000D02*
X96679900Y-69290000D01*
X100135000Y-58615200D02*
X100135000Y-58920700D01*
X99829900Y-58310000D02*
X100135000Y-58615200D01*
X98303000Y-58310000D02*
X99829900Y-58310000D01*
X102427000Y-61213000D02*
X102427000Y-70989600D01*
X100135000Y-58920700D02*
X102427000Y-61213000D01*
X114713000Y-69366000D02*
X114713000Y-71470700D01*
X117741000Y-76413100D02*
X117741000Y-77940000D01*
X114713000Y-73385100D02*
X117741000Y-76413100D01*
X114713000Y-71470700D02*
X114713000Y-73385100D01*
X129154000Y-78706200D02*
X128640000Y-78192000D01*
X132756000Y-78706200D02*
X129154000Y-78706200D01*
X134878000Y-76584000D02*
X132756000Y-78706200D01*
X119140000Y-59394800D02*
X120671000Y-60926000D01*
X119140000Y-58386000D02*
X119140000Y-59394800D01*
X117613000Y-58386000D02*
X119140000Y-58386000D01*
X134112000Y-57030000D02*
X134247000Y-57030000D01*
X137140000Y-64077100D02*
X137140000Y-65604000D01*
X135389000Y-62326000D02*
X137140000Y-64077100D01*
X135389000Y-57030000D02*
X135389000Y-62326000D01*
X134247000Y-57030000D02*
X135389000Y-57030000D01*
X134247000Y-56322300D02*
X132876000Y-54951700D01*
X134247000Y-57030000D02*
X134247000Y-56322300D01*
X136966000Y-78033100D02*
X136377000Y-77444400D01*
X136966000Y-84974000D02*
X136966000Y-78033100D01*
X138853000Y-46363700D02*
X138853000Y-46709000D01*
X138539000Y-46050000D02*
X138853000Y-46363700D01*
X137012000Y-46050000D02*
X138539000Y-46050000D01*
X173200000Y-56620000D02*
X173838000Y-56620000D01*
X173838000Y-61277600D02*
X173838000Y-58720200D01*
X176228000Y-63667100D02*
X173838000Y-61277600D01*
X176228000Y-65194000D02*
X176228000Y-63667100D01*
X168062000Y-58720200D02*
X167600000Y-58258500D01*
X173838000Y-58720200D02*
X168062000Y-58720200D01*
X156704000Y-60448000D02*
X157875000Y-60448000D01*
X158231000Y-61341400D02*
X159786000Y-62896300D01*
X158231000Y-60448000D02*
X158231000Y-61341400D01*
X157875000Y-60448000D02*
X158231000Y-60448000D01*
X157875000Y-60448000D02*
X160065000Y-58258500D01*
X177910000Y-45813600D02*
X177910000Y-45813700D01*
X177800000Y-45813600D02*
X177910000Y-45813600D01*
X177627000Y-45640000D02*
X177800000Y-45813600D01*
X176100000Y-45640000D02*
X177627000Y-45640000D01*
X173838000Y-56620000D02*
X173838000Y-58720200D01*
X177336000Y-55452900D02*
X179603000Y-57720000D01*
X176169000Y-56620000D02*
X177336000Y-55452900D01*
X173838000Y-56620000D02*
X176169000Y-56620000D01*
X177910000Y-54878800D02*
X177910000Y-45813700D01*
X177336000Y-55452900D02*
X177910000Y-54878800D01*
X192499000Y-56393100D02*
X191420000Y-55314300D01*
X192776000Y-56393100D02*
X192499000Y-56393100D01*
X192776000Y-57720000D02*
X192776000Y-56393100D01*
X94858000Y-110558000D02*
X94598700Y-110299000D01*
X94858000Y-110676000D02*
X94858000Y-110558000D01*
X95357000Y-109541000D02*
X94598700Y-110299000D01*
X95357000Y-108214000D02*
X95357000Y-109541000D01*
X90232900Y-110299000D02*
X89757000Y-109823000D01*
X94598700Y-110299000D02*
X90232900Y-110299000D01*
X98257000Y-97234000D02*
X98257000Y-90583500D01*
X109549000Y-110380000D02*
X109067000Y-109898000D01*
X113904000Y-110380000D02*
X109549000Y-110380000D01*
X114667000Y-109617000D02*
X113904000Y-110380000D01*
X114667000Y-108290000D02*
X114667000Y-109617000D01*
X99934000Y-108399000D02*
X98247400Y-110085000D01*
X99934000Y-97384100D02*
X99934000Y-108399000D01*
X120798000Y-85960400D02*
X116978000Y-89780400D01*
X120798000Y-80480000D02*
X120798000Y-85960400D01*
X116118000Y-88920000D02*
X114976000Y-88920000D01*
X116978000Y-89780400D02*
X116118000Y-88920000D01*
X119268000Y-78949600D02*
X120798000Y-80480000D01*
X119268000Y-77940000D02*
X119268000Y-78949600D01*
X117741000Y-77940000D02*
X119268000Y-77940000D01*
X117567000Y-90369100D02*
X116978000Y-89780400D01*
X117567000Y-97310000D02*
X117567000Y-90369100D01*
X134092000Y-97306700D02*
X134092000Y-98048100D01*
X134066000Y-97280900D02*
X134092000Y-97306700D01*
X134066000Y-95954000D02*
X134066000Y-97280900D01*
X119094000Y-97310000D02*
X119636000Y-97852200D01*
X117567000Y-97310000D02*
X119094000Y-97310000D01*
X119173000Y-98315600D02*
X119636000Y-97852200D01*
X119173000Y-101761000D02*
X119173000Y-98315600D01*
X119636000Y-97852200D02*
X120255000Y-97233200D01*
X138493000Y-85026900D02*
X138785000Y-85319100D01*
X138493000Y-84974000D02*
X138493000Y-85026900D01*
X136966000Y-84974000D02*
X138493000Y-84974000D01*
X140193000Y-73628800D02*
X140193000Y-71456000D01*
X136377000Y-77444400D02*
X140193000Y-73628800D01*
X140193000Y-71456000D02*
X140193000Y-68144000D01*
X157857000Y-81144900D02*
X157857000Y-82358000D01*
X156530000Y-79818000D02*
X157857000Y-81144900D01*
X153630000Y-89156800D02*
X153144000Y-88670600D01*
X153630000Y-90798000D02*
X153630000Y-89156800D01*
X157857000Y-85593800D02*
X157857000Y-82358000D01*
X156978000Y-86473100D02*
X157857000Y-85593800D01*
X154939000Y-86473100D02*
X156978000Y-86473100D01*
X153144000Y-88268600D02*
X154939000Y-86473100D01*
X153144000Y-88670600D02*
X153144000Y-88268600D01*
X173154000Y-97249000D02*
X173419000Y-97513600D01*
X173154000Y-95544000D02*
X173154000Y-97249000D01*
X172082000Y-106659000D02*
X173736000Y-106514000D01*
X177581000Y-84926600D02*
X177895000Y-85240600D01*
X177581000Y-84564000D02*
X177581000Y-84926600D01*
X176054000Y-84564000D02*
X177581000Y-84564000D01*
X157857000Y-82358000D02*
X159594000Y-82358000D01*
X192304000Y-95317100D02*
X191351000Y-94363200D01*
X192730000Y-95317100D02*
X192304000Y-95317100D01*
X192730000Y-96644000D02*
X192730000Y-95317100D01*
X197615000Y-85664000D02*
X197690000Y-85739400D01*
X195630000Y-85664000D02*
X197615000Y-85664000D01*
X156704000Y-58921100D02*
X156704000Y-60448000D01*
X154953000Y-57170000D02*
X156704000Y-58921100D01*
X154953000Y-54323800D02*
X154953000Y-57170000D01*
X156530000Y-72877100D02*
X155941000Y-72288400D01*
X156530000Y-79818000D02*
X156530000Y-72877100D01*
X155081000Y-71428000D02*
X153939000Y-71428000D01*
X155941000Y-72288400D02*
X155081000Y-71428000D01*
X158103000Y-41282100D02*
X158396000Y-41575200D01*
X158103000Y-40894000D02*
X158103000Y-41282100D01*
X156576000Y-40894000D02*
X158103000Y-40894000D01*
X154953000Y-51874000D02*
X154953000Y-54323800D01*
X158396000Y-50156900D02*
X158396000Y-41575200D01*
X156679000Y-51874000D02*
X158396000Y-50156900D01*
X154953000Y-51874000D02*
X156679000Y-51874000D01*
X197486000Y-66438700D02*
X197631000Y-66438700D01*
X197341000Y-66294000D02*
X197486000Y-66438700D01*
X195804000Y-66294000D02*
X197341000Y-66294000D01*
X195964000Y-77150900D02*
X192904000Y-77150900D01*
X197181000Y-75934300D02*
X195964000Y-77150900D01*
X197181000Y-72447300D02*
X197181000Y-75934300D01*
X197486000Y-72142100D02*
X197181000Y-72447300D01*
X197486000Y-66438700D02*
X197486000Y-72142100D01*
X192904000Y-75632000D02*
X192904000Y-77150900D01*
X191850000Y-74578400D02*
X192904000Y-75632000D01*
X192904000Y-77150900D02*
X192904000Y-77274000D01*
X159594000Y-81340100D02*
X163119000Y-77814900D01*
X159594000Y-82358000D02*
X159594000Y-81340100D01*
X195566000Y-79226200D02*
X195803000Y-78989200D01*
X195566000Y-84072700D02*
X195566000Y-79226200D01*
X195630000Y-84137100D02*
X195566000Y-84072700D01*
X195630000Y-85664000D02*
X195630000Y-84137100D01*
X203782000Y-48650000D02*
X202676000Y-47543800D01*
X207170000Y-48650000D02*
X203782000Y-48650000D01*
X208420000Y-49900000D02*
X207170000Y-48650000D01*
X197486000Y-47023500D02*
X197486000Y-47424400D01*
X197203000Y-46740000D02*
X197486000Y-47023500D01*
X195676000Y-46740000D02*
X197203000Y-46740000D01*
X177895000Y-96984800D02*
X177366000Y-97513600D01*
X177895000Y-85240600D02*
X177895000Y-96984800D01*
X173736000Y-106405000D02*
X174000000Y-106142000D01*
X173736000Y-106514000D02*
X173736000Y-106405000D01*
X169601000Y-115993000D02*
X169601000Y-115922000D01*
X170024000Y-116417000D02*
X169601000Y-115993000D01*
X170025000Y-116417000D02*
X170024000Y-116417000D01*
X170150000Y-117850000D02*
X170025000Y-116417000D01*
X173736000Y-109735000D02*
X173736000Y-106514000D01*
X173905000Y-109903000D02*
X173736000Y-109735000D01*
X173905000Y-112332000D02*
X173905000Y-109903000D01*
X172937000Y-113301000D02*
X173905000Y-112332000D01*
X171373000Y-113301000D02*
X172937000Y-113301000D01*
X169601000Y-115072000D02*
X171373000Y-113301000D01*
X169601000Y-115922000D02*
X169601000Y-115072000D01*
X180984000Y-99156900D02*
X174000000Y-106142000D01*
X180984000Y-98518700D02*
X180984000Y-99156900D01*
X109164000Y-71470700D02*
X109113000Y-71419900D01*
X114713000Y-71470700D02*
X109164000Y-71470700D01*
X194107000Y-119125000D02*
X197703000Y-122721000D01*
X198044000Y-115187000D02*
X198044000Y-111846000D01*
X194107000Y-119125000D02*
X198044000Y-115187000D01*
X194007000Y-97029200D02*
X194303000Y-97325700D01*
X194007000Y-96644000D02*
X194007000Y-97029200D01*
X192730000Y-96644000D02*
X194007000Y-96644000D01*
X119140000Y-58131600D02*
X119489000Y-57782700D01*
X119140000Y-58386000D02*
X119140000Y-58131600D01*
X153939000Y-70354100D02*
X152890000Y-69305200D01*
X153939000Y-71428000D02*
X153939000Y-70354100D01*
X160211000Y-63321500D02*
X159786000Y-62896300D01*
X160211000Y-68018700D02*
X160211000Y-63321500D01*
X155941000Y-72288400D02*
X160211000Y-68018700D01*
X100065000Y-97384100D02*
X99934000Y-97384100D01*
X99783900Y-97234000D02*
X98257000Y-97234000D01*
X99934000Y-97384100D02*
X99783900Y-97234000D01*
X96807900Y-88844000D02*
X96169500Y-88844000D01*
X98257000Y-90293100D02*
X96807900Y-88844000D01*
X98257000Y-90583500D02*
X98257000Y-90293100D01*
X96169500Y-88844000D02*
X95531000Y-88844000D01*
X135517000Y-76584000D02*
X134878000Y-76584000D01*
X136377000Y-77444400D02*
X135517000Y-76584000D01*
X134878000Y-76584000D02*
X134240000Y-76584000D01*
X218580000Y-110271000D02*
X218580000Y-109707000D01*
X217694000Y-111157000D02*
X218580000Y-110271000D01*
X217694000Y-115197000D02*
X217694000Y-111157000D01*
X217254000Y-116141000D02*
X217694000Y-115197000D01*
X218580000Y-109707000D02*
X218580000Y-109144000D01*
X195245500Y-108737000D02*
X195246000Y-108737000D01*
X197014000Y-109049000D02*
X195246000Y-108737000D01*
X197014000Y-110506000D02*
X197014000Y-109049000D01*
X198044000Y-111536000D02*
X197014000Y-110506000D01*
X198044000Y-111846000D02*
X198044000Y-111536000D01*
X195557000Y-97863400D02*
X195780000Y-97640300D01*
X195557000Y-106968000D02*
X195557000Y-97863400D01*
X195246000Y-108737000D02*
X195557000Y-106968000D01*
X210302000Y-124187000D02*
X209923500Y-124999000D01*
X209545000Y-123430000D02*
X210302000Y-124187000D01*
X209545000Y-122208000D02*
X209545000Y-123430000D01*
X209541000Y-122204000D02*
X209545000Y-122208000D01*
X216828000Y-123368000D02*
X216828000Y-122167000D01*
X213331000Y-126864000D02*
X216828000Y-123368000D01*
X211450000Y-126864000D02*
X213331000Y-126864000D01*
X211140000Y-126554000D02*
X211450000Y-126864000D01*
X209545000Y-125811000D02*
X211140000Y-126554000D01*
X209923500Y-124999000D02*
X209545000Y-125811000D01*
X209545300Y-125377200D02*
X209545300Y-125810600D01*
X209923500Y-124999000D02*
X209545300Y-125377200D01*
X190482900Y-119046600D02*
X190483100Y-119046600D01*
X190752000Y-117518000D02*
X190483100Y-119046600D01*
X190562000Y-117518000D02*
X190752000Y-117518000D01*
X189527000Y-116484000D02*
X190562000Y-117518000D01*
X193851000Y-119380000D02*
X194107000Y-119125000D01*
X192042000Y-119380000D02*
X193851000Y-119380000D01*
X191971000Y-119309000D02*
X192042000Y-119380000D01*
X190483000Y-119047000D02*
X191971000Y-119309000D01*
X190483100Y-119046600D02*
X190483000Y-119047000D01*
%TD*%
M02*
