M48
; DRILL file {KiCad 7.0.6} date Fri Aug 11 19:59:34 2023
; FORMAT={-:-/ absolute / inch / decimal}
; #@! TF.CreationDate,2023-08-11T19:59:34+07:00
; #@! TF.GenerationSoftware,Kicad,Pcbnew,7.0.6
; #@! TF.FileFunction,NonPlated,1,2,NPTH
FMAT,2
INCH
; #@! TA.AperFunction,NonPlated,NPTH,ComponentDrill
T1C0.0039
; #@! TA.AperFunction,NonPlated,NPTH,ComponentDrill
T2C0.0315
; #@! TA.AperFunction,NonPlated,NPTH,ComponentDrill
T3C0.0669
; #@! TA.AperFunction,NonPlated,NPTH,ComponentDrill
T4C0.0748
; #@! TA.AperFunction,NonPlated,NPTH,ComponentDrill
T5C0.1181
; #@! TA.AperFunction,NonPlated,NPTH,ComponentDrill
T6C0.1575
%
G90
G05
T1
X3.4934Y-3.9265
X3.4952Y-2.3941
X3.5002Y-3.1639
X3.7946Y-3.9265
X3.7964Y-2.3941
X3.8014Y-3.1639
X4.2536Y-3.9295
X4.2554Y-2.3971
X4.2605Y-3.1669
X4.5548Y-3.9295
X4.5566Y-2.3971
X4.5617Y-3.1669
X5.0174Y-3.4439
X5.0192Y-1.9114
X5.0242Y-2.6813
X5.3185Y-3.4439
X5.3204Y-1.9114
X5.3254Y-2.6813
X5.7876Y-3.2409
X5.7894Y-1.7084
X5.7944Y-2.4783
X6.0888Y-3.2409
X6.0906Y-1.7084
X6.0956Y-2.4783
X6.4099Y-4.3299
X6.5563Y-3.4277
X6.5581Y-1.8953
X6.5631Y-2.6651
X6.7099Y-4.3037
X6.8574Y-3.4277
X6.8593Y-1.8953
X6.8643Y-2.6651
X7.3004Y-4.3128
X7.327Y-3.471
X7.3288Y-1.9386
X7.3338Y-2.7084
X7.597Y-4.3651
X7.6281Y-3.471
X7.63Y-1.9386
X7.635Y-2.7084
X8.1545Y-4.5404
X8.4275Y-4.6677
T2
X8.6685Y-4.1238
X8.6685Y-4.2065
X8.9441Y-4.1238
X8.9441Y-4.2065
T3
X3.444Y-4.0281
X3.4458Y-2.4957
X3.4508Y-3.2655
X3.844Y-4.0281
X3.8458Y-2.4957
X3.8508Y-3.2655
X4.2042Y-4.0311
X4.206Y-2.4987
X4.2111Y-3.2685
X4.6042Y-4.0311
X4.606Y-2.4987
X4.6111Y-3.2685
X4.968Y-3.5454
X4.9698Y-2.013
X4.9748Y-2.7828
X5.368Y-3.5454
X5.3698Y-2.013
X5.3748Y-2.7828
X5.7382Y-3.3424
X5.74Y-1.81
X5.745Y-2.5798
X6.1382Y-3.3424
X6.14Y-1.81
X6.145Y-2.5798
X6.3695Y-4.4354
X6.5069Y-3.5293
X6.5087Y-1.9969
X6.5137Y-2.7667
X6.768Y-4.4005
X6.9069Y-3.5293
X6.9087Y-1.9969
X6.9137Y-2.7667
X7.2341Y-4.4042
X7.2776Y-3.5726
X7.2794Y-2.0402
X7.2844Y-2.81
X7.6281Y-4.4737
X7.6776Y-3.5726
X7.6794Y-2.0402
X7.6844Y-2.81
X8.0668Y-4.6115
X8.4293Y-4.7806
T4
X3.4274Y-4.0281
X3.4293Y-2.4957
X3.4343Y-3.2655
X3.8605Y-4.0281
X3.8623Y-2.4957
X3.8674Y-3.2655
X4.1877Y-4.0311
X4.1895Y-2.4987
X4.1945Y-3.2685
X4.6207Y-4.0311
X4.6226Y-2.4987
X4.6276Y-3.2685
X4.9514Y-3.5454
X4.9532Y-2.013
X4.9583Y-2.7828
X5.3845Y-3.5454
X5.3863Y-2.013
X5.3913Y-2.7828
X5.7217Y-3.3424
X5.7235Y-1.81
X5.7285Y-2.5798
X6.1547Y-3.3424
X6.1565Y-1.81
X6.1616Y-2.5798
X6.353Y-4.4368
X6.4903Y-3.5293
X6.4921Y-1.9969
X6.4972Y-2.7667
X6.7845Y-4.3991
X6.9234Y-3.5293
X6.9252Y-1.9969
X6.9302Y-2.7667
X7.2179Y-4.4014
X7.261Y-3.5726
X7.2628Y-2.0402
X7.2679Y-2.81
X7.6443Y-4.4766
X7.6941Y-3.5726
X7.6959Y-2.0402
X7.7009Y-2.81
X8.0518Y-4.6046
X8.4443Y-4.7876
T5
X3.4471Y-4.1738
X3.4489Y-2.6413
X3.454Y-3.4112
X3.494Y-3.9281
X3.4958Y-2.3957
X3.5008Y-3.1655
X3.544Y-3.8281
X3.5458Y-2.2957
X3.5508Y-3.0655
X3.644Y-4.2604
X3.6458Y-2.728
X3.6508Y-3.4978
X3.744Y-3.8281
X3.7458Y-2.2957
X3.7508Y-3.0655
X3.794Y-3.9281
X3.794Y-3.9281
X3.7958Y-2.3957
X3.7958Y-2.3957
X3.8008Y-3.1655
X3.8008Y-3.1655
X3.8408Y-4.1738
X3.8426Y-2.6413
X3.8477Y-3.4112
X4.2074Y-4.1768
X4.2092Y-2.6443
X4.2142Y-3.4142
X4.2542Y-3.9311
X4.256Y-2.3987
X4.2611Y-3.1685
X4.3042Y-3.8311
X4.306Y-2.2987
X4.3111Y-3.0685
X4.4042Y-4.2634
X4.406Y-2.7309
X4.4111Y-3.5008
X4.5042Y-3.8311
X4.506Y-2.2987
X4.5111Y-3.0685
X4.5542Y-3.9311
X4.5542Y-3.9311
X4.556Y-2.3987
X4.556Y-2.3987
X4.5611Y-3.1685
X4.5611Y-3.1685
X4.6011Y-4.1768
X4.6029Y-2.6443
X4.6079Y-3.4142
X4.9711Y-3.6911
X4.9729Y-2.1587
X4.978Y-2.9285
X5.018Y-3.4454
X5.0198Y-1.913
X5.0248Y-2.6828
X5.068Y-3.3454
X5.0698Y-1.813
X5.0748Y-2.5828
X5.168Y-3.7777
X5.1698Y-2.2453
X5.1748Y-3.0151
X5.268Y-3.3454
X5.2698Y-1.813
X5.2748Y-2.5828
X5.318Y-3.4454
X5.318Y-3.4454
X5.3198Y-1.913
X5.3198Y-1.913
X5.3248Y-2.6828
X5.3248Y-2.6828
X5.3648Y-3.6911
X5.3666Y-2.1587
X5.3717Y-2.9285
X5.7413Y-3.4881
X5.7431Y-1.9557
X5.7482Y-2.7255
X5.7882Y-3.2424
X5.79Y-1.71
X5.795Y-2.4798
X5.8382Y-3.1424
X5.84Y-1.61
X5.845Y-2.3798
X5.9382Y-3.5747
X5.94Y-2.0423
X5.945Y-2.8121
X6.0382Y-3.1424
X6.04Y-1.61
X6.045Y-2.3798
X6.0882Y-3.2424
X6.0882Y-3.2424
X6.09Y-1.71
X6.09Y-1.71
X6.095Y-2.4798
X6.095Y-2.4798
X6.135Y-3.4881
X6.1369Y-1.9557
X6.1419Y-2.7255
X6.3854Y-4.5802
X6.4106Y-4.3314
X6.4517Y-4.2274
X6.51Y-3.675
X6.5118Y-2.1425
X6.5169Y-2.9124
X6.5569Y-3.4293
X6.5587Y-1.8969
X6.5637Y-2.6667
X6.589Y-4.6494
X6.6069Y-3.3293
X6.6087Y-1.7969
X6.6137Y-2.5667
X6.6509Y-4.21
X6.7069Y-3.7616
X6.7087Y-2.2291
X6.7095Y-4.3053
X6.7095Y-4.3053
X6.7137Y-2.999
X6.7776Y-4.5459
X6.8069Y-3.3293
X6.8087Y-1.7969
X6.8137Y-2.5667
X6.8569Y-3.4293
X6.8569Y-3.4293
X6.8587Y-1.8969
X6.8587Y-1.8969
X6.8637Y-2.6667
X6.8637Y-2.6667
X6.9037Y-3.675
X6.9055Y-2.1425
X6.9106Y-2.9124
X7.2119Y-4.5482
X7.2807Y-3.7183
X7.2825Y-2.1858
X7.2876Y-2.9557
X7.3007Y-4.3144
X7.3276Y-3.4726
X7.3294Y-1.9402
X7.3344Y-2.71
X7.3674Y-4.2246
X7.3776Y-3.3726
X7.3794Y-1.8402
X7.3844Y-2.61
X7.3908Y-4.6677
X7.4776Y-3.8049
X7.4794Y-2.2724
X7.4844Y-3.0423
X7.5643Y-4.2594
X7.5776Y-3.3726
X7.5794Y-1.8402
X7.5844Y-2.61
X7.5962Y-4.3665
X7.5962Y-4.3665
X7.5997Y-4.6166
X7.6276Y-3.4726
X7.6276Y-3.4726
X7.6294Y-1.9402
X7.6294Y-1.9402
X7.6344Y-2.71
X7.6344Y-2.71
X7.6744Y-3.7183
X7.6762Y-2.1858
X7.6813Y-2.9557
X8.0081Y-4.7449
X8.1499Y-4.9066
X8.1544Y-4.542
X8.242Y-4.4725
X8.3649Y-4.9113
X8.4232Y-4.5571
X8.4263Y-4.6688
X8.4263Y-4.6688
T6
X3.644Y-4.0281
X3.6458Y-2.4957
X3.6508Y-3.2655
X4.4042Y-4.0311
X4.406Y-2.4987
X4.4111Y-3.2685
X5.168Y-3.5454
X5.1698Y-2.013
X5.1748Y-2.7828
X5.9382Y-3.3424
X5.94Y-1.81
X5.945Y-2.5798
X6.5688Y-4.418
X6.7069Y-3.5293
X6.7087Y-1.9969
X6.7137Y-2.7667
X7.4311Y-4.439
X7.4776Y-3.5726
X7.4794Y-2.0402
X7.4844Y-2.81
X8.2481Y-4.6961
T0
M30
