%TF.GenerationSoftware,KiCad,Pcbnew,7.0.6*%
%TF.CreationDate,2023-08-11T19:59:34+07:00*%
%TF.ProjectId,keyboard_pcb,6b657962-6f61-4726-945f-7063622e6b69,rev1.0*%
%TF.SameCoordinates,Original*%
%TF.FileFunction,Legend,Bot*%
%TF.FilePolarity,Positive*%
%FSLAX46Y46*%
G04 Gerber Fmt 4.6, Leading zero omitted, Abs format (unit mm)*
G04 Created by KiCad (PCBNEW 7.0.6) date 2023-08-11 19:59:34*
%MOMM*%
%LPD*%
G01*
G04 APERTURE LIST*
G04 Aperture macros list*
%AMRotRect*
0 Rectangle, with rotation*
0 The origin of the aperture is its center*
0 $1 length*
0 $2 width*
0 $3 Rotation angle, in degrees counterclockwise*
0 Add horizontal line*
21,1,$1,$2,0,0,$3*%
G04 Aperture macros list end*
%ADD10C,0.150000*%
%ADD11C,0.120000*%
%ADD12R,2.400000X2.400000*%
%ADD13R,1.900000X2.000000*%
%ADD14R,2.500000X2.500000*%
%ADD15R,2.000000X2.000000*%
%ADD16C,1.900000*%
%ADD17C,1.700000*%
%ADD18C,3.000000*%
%ADD19C,0.100000*%
%ADD20C,4.000000*%
%ADD21RotRect,2.000000X2.000000X350.000000*%
%ADD22RotRect,2.500000X2.500000X350.000000*%
%ADD23RotRect,1.900000X2.000000X350.000000*%
%ADD24RotRect,2.400000X2.400000X350.000000*%
%ADD25RotRect,2.000000X2.000000X335.000000*%
%ADD26RotRect,2.500000X2.500000X335.000000*%
%ADD27RotRect,1.900000X2.000000X335.000000*%
%ADD28RotRect,2.400000X2.400000X335.000000*%
%ADD29RotRect,2.000000X2.000000X5.000000*%
%ADD30RotRect,2.500000X2.500000X5.000000*%
%ADD31RotRect,1.900000X2.000000X5.000000*%
%ADD32RotRect,2.400000X2.400000X5.000000*%
%ADD33O,2.000000X1.600000*%
%ADD34C,0.800000*%
%ADD35R,1.700000X1.700000*%
G04 APERTURE END LIST*
D10*
X215378095Y-43024819D02*
X215378095Y-43834342D01*
X215378095Y-43834342D02*
X215425714Y-43929580D01*
X215425714Y-43929580D02*
X215473333Y-43977200D01*
X215473333Y-43977200D02*
X215568571Y-44024819D01*
X215568571Y-44024819D02*
X215759047Y-44024819D01*
X215759047Y-44024819D02*
X215854285Y-43977200D01*
X215854285Y-43977200D02*
X215901904Y-43929580D01*
X215901904Y-43929580D02*
X215949523Y-43834342D01*
X215949523Y-43834342D02*
X215949523Y-43024819D01*
X216949523Y-44024819D02*
X216378095Y-44024819D01*
X216663809Y-44024819D02*
X216663809Y-43024819D01*
X216663809Y-43024819D02*
X216568571Y-43167676D01*
X216568571Y-43167676D02*
X216473333Y-43262914D01*
X216473333Y-43262914D02*
X216378095Y-43310533D01*
%TO.C,K03*%
X148306001Y-47374000D02*
G75*
G03*
X150676000Y-49543999I2269999J100000D01*
G01*
X150651000Y-43174001D02*
G75*
G03*
X148391001Y-45053999I-190001J-2069997D01*
G01*
X148596000Y-53424000D02*
G75*
G03*
X147376000Y-52004000I-1320000J100000D01*
G01*
X147051000Y-39170001D02*
G75*
G03*
X144787001Y-41054000I-190000J-2073999D01*
G01*
X155676000Y-43124000D02*
X150626000Y-43170000D01*
X155676000Y-43078000D02*
X155676000Y-39170000D01*
X155676000Y-39170000D02*
X147051000Y-39170000D01*
X153176000Y-49573999D02*
X153176000Y-54174000D01*
X153151000Y-54199000D02*
X148601000Y-54199000D01*
X153151000Y-49549000D02*
X150601000Y-49549000D01*
X148596000Y-53474000D02*
X148596000Y-54174000D01*
X148301000Y-47349000D02*
X143601000Y-47349000D01*
X147376000Y-51999000D02*
X143601000Y-51999000D01*
X144776000Y-45078000D02*
X148386000Y-45078000D01*
X144776000Y-41124000D02*
X144776000Y-45069000D01*
X143601000Y-47374000D02*
X143576001Y-51974000D01*
%TO.C,K31*%
X181342416Y-112865440D02*
X180519015Y-117391215D01*
X183584866Y-106914429D02*
X182899824Y-110799495D01*
X182898261Y-110808358D02*
X186453417Y-111435228D01*
X184256943Y-118075698D02*
X180539293Y-117420176D01*
X185975354Y-113656967D02*
X181346757Y-112840820D01*
X185202277Y-119740140D02*
X185080723Y-120429506D01*
X190369645Y-116665737D02*
X187858386Y-116222934D01*
X189562181Y-121245093D02*
X185081306Y-120454994D01*
X190389925Y-116694698D02*
X189591143Y-121224814D01*
X194658579Y-106882879D02*
X186164613Y-105385164D01*
X193979962Y-110731508D02*
X194658579Y-106882879D01*
X193971975Y-110776809D02*
X188990708Y-109945187D01*
X186164613Y-105385165D02*
G75*
G03*
X183607856Y-106847402I-547260J-2009497D01*
G01*
X185210959Y-119690900D02*
G75*
G03*
X184256074Y-118080623I-1282581J327696D01*
G01*
X189014633Y-109953468D02*
G75*
G03*
X186462510Y-111412460I-546566J-2005556D01*
G01*
X185975937Y-113682455D02*
G75*
G03*
X187933114Y-116231034I2252878J-295701D01*
G01*
%TO.C,K32*%
X202316045Y-117474383D02*
X200349344Y-121632834D01*
X206022321Y-112306536D02*
X204355092Y-115881920D01*
X204351288Y-115890077D02*
X207623060Y-117415729D01*
X203782748Y-123261441D02*
X200361436Y-121666057D01*
X206586257Y-119438031D02*
X202326611Y-117451725D01*
X204265081Y-125113839D02*
X203969248Y-125748254D01*
X210052090Y-123481607D02*
X207741005Y-122403930D01*
X208086915Y-127695938D02*
X203963215Y-125773025D01*
X210064183Y-123514829D02*
X208120138Y-127683846D01*
X216726872Y-115142149D02*
X208909967Y-111497067D01*
X215075280Y-118684000D02*
X216726872Y-115142149D01*
X215055839Y-118725690D02*
X210459545Y-116633158D01*
X208909967Y-111497067D02*
G75*
G03*
X206061874Y-112247743I-1048708J-1799385D01*
G01*
X204286212Y-125068523D02*
G75*
G03*
X203780635Y-123265972I-1154064J648487D01*
G01*
X210480512Y-116647349D02*
G75*
G03*
X207637735Y-117396090I-1047018J-1795758D01*
G01*
X206580224Y-119462802D02*
G75*
G03*
X207811091Y-122431095I2099580J-868713D01*
G01*
%TO.C,K30*%
X159721102Y-114245231D02*
X160097114Y-118829905D01*
X160346907Y-107916606D02*
X160690736Y-111846594D01*
X160691521Y-111855560D02*
X164287784Y-111540927D01*
X163884832Y-118523618D02*
X160124197Y-118852631D01*
X164401038Y-113810694D02*
X159718923Y-114220326D01*
X165228744Y-119886675D02*
X165289753Y-120584012D01*
X169424325Y-115579617D02*
X166884028Y-115801864D01*
X169829599Y-120211922D02*
X165296913Y-120608481D01*
X169451408Y-115602342D02*
X169852325Y-120184838D01*
X171035127Y-105020044D02*
X162442948Y-105771762D01*
X171375732Y-108913173D02*
X171035127Y-105020044D01*
X171379741Y-108958998D02*
X166352967Y-109444959D01*
X162442948Y-105771761D02*
G75*
G03*
X160351764Y-107845913I-8516J-2082668D01*
G01*
X165224386Y-119836866D02*
G75*
G03*
X163885268Y-118528600I-1323692J-15426D01*
G01*
X166378220Y-109446767D02*
G75*
G03*
X164290675Y-111516582I-8866J-2078679D01*
G01*
X164408198Y-113835163D02*
G75*
G03*
X166958307Y-115790346I2252646J297463D01*
G01*
%TO.C,K25*%
X187360001Y-92144000D02*
G75*
G03*
X189730000Y-94313999I2269999J100000D01*
G01*
X189705000Y-87944001D02*
G75*
G03*
X187445001Y-89823999I-190001J-2069997D01*
G01*
X187650000Y-98194000D02*
G75*
G03*
X186430000Y-96774000I-1320000J100000D01*
G01*
X186105000Y-83940001D02*
G75*
G03*
X183841001Y-85824000I-190000J-2073999D01*
G01*
X194730000Y-87894000D02*
X189680000Y-87940000D01*
X194730000Y-87848000D02*
X194730000Y-83940000D01*
X194730000Y-83940000D02*
X186105000Y-83940000D01*
X192230000Y-94343999D02*
X192230000Y-98944000D01*
X192205000Y-98969000D02*
X187655000Y-98969000D01*
X192205000Y-94319000D02*
X189655000Y-94319000D01*
X187650000Y-98244000D02*
X187650000Y-98944000D01*
X187355000Y-92119000D02*
X182655000Y-92119000D01*
X186430000Y-96769000D02*
X182655000Y-96769000D01*
X183830000Y-89848000D02*
X187440000Y-89848000D01*
X183830000Y-85894000D02*
X183830000Y-89839000D01*
X182655000Y-92144000D02*
X182630001Y-96744000D01*
%TO.C,K24*%
X167784001Y-91044000D02*
G75*
G03*
X170154000Y-93213999I2269999J100000D01*
G01*
X170129000Y-86844001D02*
G75*
G03*
X167869001Y-88723999I-190001J-2069997D01*
G01*
X168074000Y-97094000D02*
G75*
G03*
X166854000Y-95674000I-1320000J100000D01*
G01*
X166529000Y-82840001D02*
G75*
G03*
X164265001Y-84724000I-190000J-2073999D01*
G01*
X175154000Y-86794000D02*
X170104000Y-86840000D01*
X175154000Y-86748000D02*
X175154000Y-82840000D01*
X175154000Y-82840000D02*
X166529000Y-82840000D01*
X172654000Y-93243999D02*
X172654000Y-97844000D01*
X172629000Y-97869000D02*
X168079000Y-97869000D01*
X172629000Y-93219000D02*
X170079000Y-93219000D01*
X168074000Y-97144000D02*
X168074000Y-97844000D01*
X167779000Y-91019000D02*
X163079000Y-91019000D01*
X166854000Y-95669000D02*
X163079000Y-95669000D01*
X164254000Y-88748000D02*
X167864000Y-88748000D01*
X164254000Y-84794000D02*
X164254000Y-88739000D01*
X163079000Y-91044000D02*
X163054001Y-95644000D01*
%TO.C,K23*%
X148260001Y-86298000D02*
G75*
G03*
X150630000Y-88467999I2269999J100000D01*
G01*
X150605000Y-82098001D02*
G75*
G03*
X148345001Y-83977999I-190001J-2069997D01*
G01*
X148550000Y-92348000D02*
G75*
G03*
X147330000Y-90928000I-1320000J100000D01*
G01*
X147005000Y-78094001D02*
G75*
G03*
X144741001Y-79978000I-190000J-2073999D01*
G01*
X155630000Y-82048000D02*
X150580000Y-82094000D01*
X155630000Y-82002000D02*
X155630000Y-78094000D01*
X155630000Y-78094000D02*
X147005000Y-78094000D01*
X153130000Y-88497999D02*
X153130000Y-93098000D01*
X153105000Y-93123000D02*
X148555000Y-93123000D01*
X153105000Y-88473000D02*
X150555000Y-88473000D01*
X148550000Y-92398000D02*
X148550000Y-93098000D01*
X148255000Y-86273000D02*
X143555000Y-86273000D01*
X147330000Y-90923000D02*
X143555000Y-90923000D01*
X144730000Y-84002000D02*
X148340000Y-84002000D01*
X144730000Y-80048000D02*
X144730000Y-83993000D01*
X143555000Y-86298000D02*
X143530001Y-90898000D01*
%TO.C,K22*%
X128696001Y-91454000D02*
G75*
G03*
X131066000Y-93623999I2269999J100000D01*
G01*
X131041000Y-87254001D02*
G75*
G03*
X128781001Y-89133999I-190001J-2069997D01*
G01*
X128986000Y-97504000D02*
G75*
G03*
X127766000Y-96084000I-1320000J100000D01*
G01*
X127441000Y-83250001D02*
G75*
G03*
X125177001Y-85134000I-190000J-2073999D01*
G01*
X136066000Y-87204000D02*
X131016000Y-87250000D01*
X136066000Y-87158000D02*
X136066000Y-83250000D01*
X136066000Y-83250000D02*
X127441000Y-83250000D01*
X133566000Y-93653999D02*
X133566000Y-98254000D01*
X133541000Y-98279000D02*
X128991000Y-98279000D01*
X133541000Y-93629000D02*
X130991000Y-93629000D01*
X128986000Y-97554000D02*
X128986000Y-98254000D01*
X128691000Y-91429000D02*
X123991000Y-91429000D01*
X127766000Y-96079000D02*
X123991000Y-96079000D01*
X125166000Y-89158000D02*
X128776000Y-89158000D01*
X125166000Y-85204000D02*
X125166000Y-89149000D01*
X123991000Y-91454000D02*
X123966001Y-96054000D01*
%TO.C,K21*%
X109297001Y-103790000D02*
G75*
G03*
X111667000Y-105959999I2269999J100000D01*
G01*
X111642000Y-99590001D02*
G75*
G03*
X109382001Y-101469999I-190001J-2069997D01*
G01*
X109587000Y-109840000D02*
G75*
G03*
X108367000Y-108420000I-1320000J100000D01*
G01*
X108042000Y-95586001D02*
G75*
G03*
X105778001Y-97470000I-190000J-2073999D01*
G01*
X116667000Y-99540000D02*
X111617000Y-99586000D01*
X116667000Y-99494000D02*
X116667000Y-95586000D01*
X116667000Y-95586000D02*
X108042000Y-95586000D01*
X114167000Y-105989999D02*
X114167000Y-110590000D01*
X114142000Y-110615000D02*
X109592000Y-110615000D01*
X114142000Y-105965000D02*
X111592000Y-105965000D01*
X109587000Y-109890000D02*
X109587000Y-110590000D01*
X109292000Y-103765000D02*
X104592000Y-103765000D01*
X108367000Y-108415000D02*
X104592000Y-108415000D01*
X105767000Y-101494000D02*
X109377000Y-101494000D01*
X105767000Y-97540000D02*
X105767000Y-101485000D01*
X104592000Y-103790000D02*
X104567001Y-108390000D01*
%TO.C,K20*%
X89987001Y-103714000D02*
G75*
G03*
X92357000Y-105883999I2269999J100000D01*
G01*
X92332000Y-99514001D02*
G75*
G03*
X90072001Y-101393999I-190001J-2069997D01*
G01*
X90277000Y-109764000D02*
G75*
G03*
X89057000Y-108344000I-1320000J100000D01*
G01*
X88732000Y-95510001D02*
G75*
G03*
X86468001Y-97394000I-190000J-2073999D01*
G01*
X97357000Y-99464000D02*
X92307000Y-99510000D01*
X97357000Y-99418000D02*
X97357000Y-95510000D01*
X97357000Y-95510000D02*
X88732000Y-95510000D01*
X94857000Y-105913999D02*
X94857000Y-110514000D01*
X94832000Y-110539000D02*
X90282000Y-110539000D01*
X94832000Y-105889000D02*
X92282000Y-105889000D01*
X90277000Y-109814000D02*
X90277000Y-110514000D01*
X89982000Y-103689000D02*
X85282000Y-103689000D01*
X89057000Y-108339000D02*
X85282000Y-108339000D01*
X86457000Y-101418000D02*
X90067000Y-101418000D01*
X86457000Y-97464000D02*
X86457000Y-101409000D01*
X85282000Y-103714000D02*
X85257001Y-108314000D01*
%TO.C,K15*%
X182829000Y-72774000D02*
X182804001Y-77374000D01*
X184004000Y-66524000D02*
X184004000Y-70469000D01*
X184004000Y-70478000D02*
X187614000Y-70478000D01*
X186604000Y-77399000D02*
X182829000Y-77399000D01*
X187529000Y-72749000D02*
X182829000Y-72749000D01*
X187824000Y-78874000D02*
X187824000Y-79574000D01*
X192379000Y-74949000D02*
X189829000Y-74949000D01*
X192379000Y-79599000D02*
X187829000Y-79599000D01*
X192404000Y-74973999D02*
X192404000Y-79574000D01*
X194904000Y-64570000D02*
X186279000Y-64570000D01*
X194904000Y-68478000D02*
X194904000Y-64570000D01*
X194904000Y-68524000D02*
X189854000Y-68570000D01*
X186279000Y-64570001D02*
G75*
G03*
X184015001Y-66454000I-190000J-2073999D01*
G01*
X187824000Y-78824000D02*
G75*
G03*
X186604000Y-77404000I-1320000J100000D01*
G01*
X189879000Y-68574001D02*
G75*
G03*
X187619001Y-70453999I-190001J-2069997D01*
G01*
X187534001Y-72774000D02*
G75*
G03*
X189904000Y-74943999I2269999J100000D01*
G01*
%TO.C,K14*%
X163253000Y-71674000D02*
X163228001Y-76274000D01*
X164428000Y-65424000D02*
X164428000Y-69369000D01*
X164428000Y-69378000D02*
X168038000Y-69378000D01*
X167028000Y-76299000D02*
X163253000Y-76299000D01*
X167953000Y-71649000D02*
X163253000Y-71649000D01*
X168248000Y-77774000D02*
X168248000Y-78474000D01*
X172803000Y-73849000D02*
X170253000Y-73849000D01*
X172803000Y-78499000D02*
X168253000Y-78499000D01*
X172828000Y-73873999D02*
X172828000Y-78474000D01*
X175328000Y-63470000D02*
X166703000Y-63470000D01*
X175328000Y-67378000D02*
X175328000Y-63470000D01*
X175328000Y-67424000D02*
X170278000Y-67470000D01*
X166703000Y-63470001D02*
G75*
G03*
X164439001Y-65354000I-190000J-2073999D01*
G01*
X168248000Y-77724000D02*
G75*
G03*
X167028000Y-76304000I-1320000J100000D01*
G01*
X170303000Y-67474001D02*
G75*
G03*
X168043001Y-69353999I-190001J-2069997D01*
G01*
X167958001Y-71674000D02*
G75*
G03*
X170328000Y-73843999I2269999J100000D01*
G01*
%TO.C,K13*%
X143729000Y-66928000D02*
X143704001Y-71528000D01*
X144904000Y-60678000D02*
X144904000Y-64623000D01*
X144904000Y-64632000D02*
X148514000Y-64632000D01*
X147504000Y-71553000D02*
X143729000Y-71553000D01*
X148429000Y-66903000D02*
X143729000Y-66903000D01*
X148724000Y-73028000D02*
X148724000Y-73728000D01*
X153279000Y-69103000D02*
X150729000Y-69103000D01*
X153279000Y-73753000D02*
X148729000Y-73753000D01*
X153304000Y-69127999D02*
X153304000Y-73728000D01*
X155804000Y-58724000D02*
X147179000Y-58724000D01*
X155804000Y-62632000D02*
X155804000Y-58724000D01*
X155804000Y-62678000D02*
X150754000Y-62724000D01*
X147179000Y-58724001D02*
G75*
G03*
X144915001Y-60608000I-190000J-2073999D01*
G01*
X148724000Y-72978000D02*
G75*
G03*
X147504000Y-71558000I-1320000J100000D01*
G01*
X150779000Y-62728001D02*
G75*
G03*
X148519001Y-64607999I-190001J-2069997D01*
G01*
X148434001Y-66928000D02*
G75*
G03*
X150804000Y-69097999I2269999J100000D01*
G01*
%TO.C,K12*%
X124165000Y-72084000D02*
X124140001Y-76684000D01*
X125340000Y-65834000D02*
X125340000Y-69779000D01*
X125340000Y-69788000D02*
X128950000Y-69788000D01*
X127940000Y-76709000D02*
X124165000Y-76709000D01*
X128865000Y-72059000D02*
X124165000Y-72059000D01*
X129160000Y-78184000D02*
X129160000Y-78884000D01*
X133715000Y-74259000D02*
X131165000Y-74259000D01*
X133715000Y-78909000D02*
X129165000Y-78909000D01*
X133740000Y-74283999D02*
X133740000Y-78884000D01*
X136240000Y-63880000D02*
X127615000Y-63880000D01*
X136240000Y-67788000D02*
X136240000Y-63880000D01*
X136240000Y-67834000D02*
X131190000Y-67880000D01*
X127615000Y-63880001D02*
G75*
G03*
X125351001Y-65764000I-190000J-2073999D01*
G01*
X129160000Y-78134000D02*
G75*
G03*
X127940000Y-76714000I-1320000J100000D01*
G01*
X131215000Y-67884001D02*
G75*
G03*
X128955001Y-69763999I-190001J-2069997D01*
G01*
X128870001Y-72084000D02*
G75*
G03*
X131240000Y-74253999I2269999J100000D01*
G01*
%TO.C,K11*%
X104766000Y-84420000D02*
X104741001Y-89020000D01*
X105941000Y-78170000D02*
X105941000Y-82115000D01*
X105941000Y-82124000D02*
X109551000Y-82124000D01*
X108541000Y-89045000D02*
X104766000Y-89045000D01*
X109466000Y-84395000D02*
X104766000Y-84395000D01*
X109761000Y-90520000D02*
X109761000Y-91220000D01*
X114316000Y-86595000D02*
X111766000Y-86595000D01*
X114316000Y-91245000D02*
X109766000Y-91245000D01*
X114341000Y-86619999D02*
X114341000Y-91220000D01*
X116841000Y-76216000D02*
X108216000Y-76216000D01*
X116841000Y-80124000D02*
X116841000Y-76216000D01*
X116841000Y-80170000D02*
X111791000Y-80216000D01*
X108216000Y-76216001D02*
G75*
G03*
X105952001Y-78100000I-190000J-2073999D01*
G01*
X109761000Y-90470000D02*
G75*
G03*
X108541000Y-89050000I-1320000J100000D01*
G01*
X111816000Y-80220001D02*
G75*
G03*
X109556001Y-82099999I-190001J-2069997D01*
G01*
X109471001Y-84420000D02*
G75*
G03*
X111841000Y-86589999I2269999J100000D01*
G01*
%TO.C,K10*%
X85456000Y-84344000D02*
X85431001Y-88944000D01*
X86631000Y-78094000D02*
X86631000Y-82039000D01*
X86631000Y-82048000D02*
X90241000Y-82048000D01*
X89231000Y-88969000D02*
X85456000Y-88969000D01*
X90156000Y-84319000D02*
X85456000Y-84319000D01*
X90451000Y-90444000D02*
X90451000Y-91144000D01*
X95006000Y-86519000D02*
X92456000Y-86519000D01*
X95006000Y-91169000D02*
X90456000Y-91169000D01*
X95031000Y-86543999D02*
X95031000Y-91144000D01*
X97531000Y-76140000D02*
X88906000Y-76140000D01*
X97531000Y-80048000D02*
X97531000Y-76140000D01*
X97531000Y-80094000D02*
X92481000Y-80140000D01*
X88906000Y-76140001D02*
G75*
G03*
X86642001Y-78024000I-190000J-2073999D01*
G01*
X90451000Y-90394000D02*
G75*
G03*
X89231000Y-88974000I-1320000J100000D01*
G01*
X92506000Y-80144001D02*
G75*
G03*
X90246001Y-82023999I-190001J-2069997D01*
G01*
X90161001Y-84344000D02*
G75*
G03*
X92531000Y-86513999I2269999J100000D01*
G01*
%TO.C,K05*%
X187406001Y-53220000D02*
G75*
G03*
X189776000Y-55389999I2269999J100000D01*
G01*
X189751000Y-49020001D02*
G75*
G03*
X187491001Y-50899999I-190001J-2069997D01*
G01*
X187696000Y-59270000D02*
G75*
G03*
X186476000Y-57850000I-1320000J100000D01*
G01*
X186151000Y-45016001D02*
G75*
G03*
X183887001Y-46900000I-190000J-2073999D01*
G01*
X194776000Y-48970000D02*
X189726000Y-49016000D01*
X194776000Y-48924000D02*
X194776000Y-45016000D01*
X194776000Y-45016000D02*
X186151000Y-45016000D01*
X192276000Y-55419999D02*
X192276000Y-60020000D01*
X192251000Y-60045000D02*
X187701000Y-60045000D01*
X192251000Y-55395000D02*
X189701000Y-55395000D01*
X187696000Y-59320000D02*
X187696000Y-60020000D01*
X187401000Y-53195000D02*
X182701000Y-53195000D01*
X186476000Y-57845000D02*
X182701000Y-57845000D01*
X183876000Y-50924000D02*
X187486000Y-50924000D01*
X183876000Y-46970000D02*
X183876000Y-50915000D01*
X182701000Y-53220000D02*
X182676001Y-57820000D01*
%TO.C,K04*%
X167830001Y-52120000D02*
G75*
G03*
X170200000Y-54289999I2269999J100000D01*
G01*
X170175000Y-47920001D02*
G75*
G03*
X167915001Y-49799999I-190001J-2069997D01*
G01*
X168120000Y-58170000D02*
G75*
G03*
X166900000Y-56750000I-1320000J100000D01*
G01*
X166575000Y-43916001D02*
G75*
G03*
X164311001Y-45800000I-190000J-2073999D01*
G01*
X175200000Y-47870000D02*
X170150000Y-47916000D01*
X175200000Y-47824000D02*
X175200000Y-43916000D01*
X175200000Y-43916000D02*
X166575000Y-43916000D01*
X172700000Y-54319999D02*
X172700000Y-58920000D01*
X172675000Y-58945000D02*
X168125000Y-58945000D01*
X172675000Y-54295000D02*
X170125000Y-54295000D01*
X168120000Y-58220000D02*
X168120000Y-58920000D01*
X167825000Y-52095000D02*
X163125000Y-52095000D01*
X166900000Y-56745000D02*
X163125000Y-56745000D01*
X164300000Y-49824000D02*
X167910000Y-49824000D01*
X164300000Y-45870000D02*
X164300000Y-49815000D01*
X163125000Y-52120000D02*
X163100001Y-56720000D01*
%TO.C,K02*%
X128742001Y-52530000D02*
G75*
G03*
X131112000Y-54699999I2269999J100000D01*
G01*
X131087000Y-48330001D02*
G75*
G03*
X128827001Y-50209999I-190001J-2069997D01*
G01*
X129032000Y-58580000D02*
G75*
G03*
X127812000Y-57160000I-1320000J100000D01*
G01*
X127487000Y-44326001D02*
G75*
G03*
X125223001Y-46210000I-190000J-2073999D01*
G01*
X136112000Y-48280000D02*
X131062000Y-48326000D01*
X136112000Y-48234000D02*
X136112000Y-44326000D01*
X136112000Y-44326000D02*
X127487000Y-44326000D01*
X133612000Y-54729999D02*
X133612000Y-59330000D01*
X133587000Y-59355000D02*
X129037000Y-59355000D01*
X133587000Y-54705000D02*
X131037000Y-54705000D01*
X129032000Y-58630000D02*
X129032000Y-59330000D01*
X128737000Y-52505000D02*
X124037000Y-52505000D01*
X127812000Y-57155000D02*
X124037000Y-57155000D01*
X125212000Y-50234000D02*
X128822000Y-50234000D01*
X125212000Y-46280000D02*
X125212000Y-50225000D01*
X124037000Y-52530000D02*
X124012001Y-57130000D01*
%TO.C,K01*%
X109343001Y-64866000D02*
G75*
G03*
X111713000Y-67035999I2269999J100000D01*
G01*
X111688000Y-60666001D02*
G75*
G03*
X109428001Y-62545999I-190001J-2069997D01*
G01*
X109633000Y-70916000D02*
G75*
G03*
X108413000Y-69496000I-1320000J100000D01*
G01*
X108088000Y-56662001D02*
G75*
G03*
X105824001Y-58546000I-190000J-2073999D01*
G01*
X116713000Y-60616000D02*
X111663000Y-60662000D01*
X116713000Y-60570000D02*
X116713000Y-56662000D01*
X116713000Y-56662000D02*
X108088000Y-56662000D01*
X114213000Y-67065999D02*
X114213000Y-71666000D01*
X114188000Y-71691000D02*
X109638000Y-71691000D01*
X114188000Y-67041000D02*
X111638000Y-67041000D01*
X109633000Y-70966000D02*
X109633000Y-71666000D01*
X109338000Y-64841000D02*
X104638000Y-64841000D01*
X108413000Y-69491000D02*
X104638000Y-69491000D01*
X105813000Y-62570000D02*
X109423000Y-62570000D01*
X105813000Y-58616000D02*
X105813000Y-62561000D01*
X104638000Y-64866000D02*
X104613001Y-69466000D01*
%TO.C,K00*%
X90033001Y-64790000D02*
G75*
G03*
X92403000Y-66959999I2269999J100000D01*
G01*
X92378000Y-60590001D02*
G75*
G03*
X90118001Y-62469999I-190001J-2069997D01*
G01*
X90323000Y-70840000D02*
G75*
G03*
X89103000Y-69420000I-1320000J100000D01*
G01*
X88778000Y-56586001D02*
G75*
G03*
X86514001Y-58470000I-190000J-2073999D01*
G01*
X97403000Y-60540000D02*
X92353000Y-60586000D01*
X97403000Y-60494000D02*
X97403000Y-56586000D01*
X97403000Y-56586000D02*
X88778000Y-56586000D01*
X94903000Y-66989999D02*
X94903000Y-71590000D01*
X94878000Y-71615000D02*
X90328000Y-71615000D01*
X94878000Y-66965000D02*
X92328000Y-66965000D01*
X90323000Y-70890000D02*
X90323000Y-71590000D01*
X90028000Y-64765000D02*
X85328000Y-64765000D01*
X89103000Y-69415000D02*
X85328000Y-69415000D01*
X86503000Y-62494000D02*
X90113000Y-62494000D01*
X86503000Y-58540000D02*
X86503000Y-62485000D01*
X85328000Y-64790000D02*
X85303001Y-69390000D01*
%TO.C,J1*%
X228780000Y-101694000D02*
X216680000Y-101694000D01*
X228780000Y-107794000D02*
X216680000Y-107794000D01*
X228780000Y-101944000D02*
X230780000Y-101944000D01*
X216680000Y-101694000D02*
X216680000Y-107794000D01*
X228780000Y-107544000D02*
X230780000Y-107544000D01*
X228780000Y-101694000D02*
X228780000Y-107794000D01*
X230780000Y-101944000D02*
X230780000Y-107544000D01*
D11*
%TO.C,U1*%
X204430000Y-47380000D02*
X204430000Y-46050000D01*
X207090000Y-96970000D02*
X204430000Y-96970000D01*
X207090000Y-48650000D02*
X207090000Y-96970000D01*
X204430000Y-46050000D02*
X205760000Y-46050000D01*
X219730000Y-96910000D02*
X219730000Y-46110000D01*
X219730000Y-46110000D02*
X222270000Y-46110000D01*
X222270000Y-96910000D02*
X219730000Y-96910000D01*
X204430000Y-96970000D02*
X204430000Y-48650000D01*
X204430000Y-48650000D02*
X207090000Y-48650000D01*
X222270000Y-46110000D02*
X222270000Y-96910000D01*
%TD*%
%LPC*%
D12*
%TO.C,K03*%
X156576000Y-40894000D03*
D13*
X153676000Y-51874000D03*
D14*
X143976000Y-43434000D03*
D15*
X142776000Y-49674000D03*
D16*
X156376000Y-45974000D03*
D17*
X155956000Y-45974000D03*
D18*
X155876000Y-49674000D03*
D19*
X154701000Y-43394000D03*
D18*
X154686000Y-43434000D03*
X154686000Y-43434000D03*
X153416000Y-40894000D03*
X150876000Y-51874000D03*
D20*
X150876000Y-45974000D03*
D18*
X148336000Y-40894000D03*
X147066000Y-43433999D03*
D19*
X147051000Y-43394000D03*
D18*
X145876000Y-49674000D03*
D17*
X145796000Y-45974000D03*
D16*
X145376000Y-45974000D03*
%TD*%
%TO.C,K31*%
X183333557Y-111794935D03*
D17*
X183747177Y-111867867D03*
D18*
X183183463Y-115525548D03*
D19*
X185431123Y-109544992D03*
D18*
X185438949Y-109586988D03*
X187130721Y-107306110D03*
D20*
X188750000Y-112750000D03*
D18*
X187725476Y-118560366D03*
X192133544Y-108188243D03*
X192943184Y-110910188D03*
X192943184Y-110910188D03*
D19*
X192964902Y-110873400D03*
D18*
X193031541Y-117262030D03*
D17*
X193752823Y-113632133D03*
D16*
X194166443Y-113705065D03*
D21*
X180130559Y-114987238D03*
D22*
X182395893Y-109050416D03*
D23*
X190482937Y-119046581D03*
D24*
X195245537Y-108736971D03*
%TD*%
D16*
%TO.C,K32*%
X204516407Y-116955700D03*
D17*
X204897056Y-117133199D03*
D18*
X203405873Y-120520348D03*
D19*
X207124828Y-115325311D03*
D18*
X207121518Y-115367902D03*
X209345979Y-113602606D03*
D20*
X209501100Y-119280100D03*
D18*
X207007652Y-124627316D03*
X213950023Y-115749507D03*
X214027583Y-118588254D03*
X214027583Y-118588254D03*
D19*
X214058082Y-118558341D03*
D18*
X212468951Y-124746530D03*
D17*
X214105144Y-121427001D03*
D16*
X214485793Y-121604500D03*
D25*
X200596319Y-119210231D03*
D26*
X204321027Y-114062012D03*
D27*
X209545314Y-125810647D03*
D28*
X216813955Y-117084981D03*
%TD*%
D16*
%TO.C,K30*%
X161367329Y-112695857D03*
D17*
X161785731Y-112659251D03*
D18*
X162187903Y-116338199D03*
D19*
X162811093Y-109979688D03*
D18*
X162829523Y-110018228D03*
X163873314Y-107377207D03*
D20*
X166846400Y-112216500D03*
D18*
X167360619Y-118094049D03*
X168933983Y-106934455D03*
X170420526Y-109354102D03*
X170420526Y-109354102D03*
D19*
X170431983Y-109312947D03*
D18*
X172149850Y-115466642D03*
D17*
X171907069Y-111773749D03*
D16*
X172325471Y-111737143D03*
D29*
X159099699Y-116608382D03*
D30*
X159751281Y-110287540D03*
D31*
X170149964Y-117850013D03*
D32*
X172081959Y-106659043D03*
%TD*%
D12*
%TO.C,K25*%
X195630000Y-85664000D03*
D13*
X192730000Y-96644000D03*
D14*
X183030000Y-88204000D03*
D15*
X181830000Y-94444000D03*
D16*
X195430000Y-90744000D03*
D17*
X195010000Y-90744000D03*
D18*
X194930000Y-94444000D03*
D19*
X193755000Y-88164000D03*
D18*
X193740000Y-88204000D03*
X193740000Y-88204000D03*
X192470000Y-85664000D03*
X189930000Y-96644000D03*
D20*
X189930000Y-90744000D03*
D18*
X187390000Y-85664000D03*
X186120000Y-88203999D03*
D19*
X186105000Y-88164000D03*
D18*
X184930000Y-94444000D03*
D17*
X184850000Y-90744000D03*
D16*
X184430000Y-90744000D03*
%TD*%
D12*
%TO.C,K24*%
X176054000Y-84564000D03*
D13*
X173154000Y-95544000D03*
D14*
X163454000Y-87104000D03*
D15*
X162254000Y-93344000D03*
D16*
X175854000Y-89644000D03*
D17*
X175434000Y-89644000D03*
D18*
X175354000Y-93344000D03*
D19*
X174179000Y-87064000D03*
D18*
X174164000Y-87104000D03*
X174164000Y-87104000D03*
X172894000Y-84564000D03*
X170354000Y-95544000D03*
D20*
X170354000Y-89644000D03*
D18*
X167814000Y-84564000D03*
X166544000Y-87103999D03*
D19*
X166529000Y-87064000D03*
D18*
X165354000Y-93344000D03*
D17*
X165274000Y-89644000D03*
D16*
X164854000Y-89644000D03*
%TD*%
D12*
%TO.C,K23*%
X156530000Y-79818000D03*
D13*
X153630000Y-90798000D03*
D14*
X143930000Y-82358000D03*
D15*
X142730000Y-88598000D03*
D16*
X156330000Y-84898000D03*
D17*
X155910000Y-84898000D03*
D18*
X155830000Y-88598000D03*
D19*
X154655000Y-82318000D03*
D18*
X154640000Y-82358000D03*
X154640000Y-82358000D03*
X153370000Y-79818000D03*
X150830000Y-90798000D03*
D20*
X150830000Y-84898000D03*
D18*
X148290000Y-79818000D03*
X147020000Y-82357999D03*
D19*
X147005000Y-82318000D03*
D18*
X145830000Y-88598000D03*
D17*
X145750000Y-84898000D03*
D16*
X145330000Y-84898000D03*
%TD*%
D12*
%TO.C,K22*%
X136966000Y-84974000D03*
D13*
X134066000Y-95954000D03*
D14*
X124366000Y-87514000D03*
D15*
X123166000Y-93754000D03*
D16*
X136766000Y-90054000D03*
D17*
X136346000Y-90054000D03*
D18*
X136266000Y-93754000D03*
D19*
X135091000Y-87474000D03*
D18*
X135076000Y-87514000D03*
X135076000Y-87514000D03*
X133806000Y-84974000D03*
X131266000Y-95954000D03*
D20*
X131266000Y-90054000D03*
D18*
X128726000Y-84974000D03*
X127456000Y-87513999D03*
D19*
X127441000Y-87474000D03*
D18*
X126266000Y-93754000D03*
D17*
X126186000Y-90054000D03*
D16*
X125766000Y-90054000D03*
%TD*%
D12*
%TO.C,K21*%
X117567000Y-97310000D03*
D13*
X114667000Y-108290000D03*
D14*
X104967000Y-99850000D03*
D15*
X103767000Y-106090000D03*
D16*
X117367000Y-102390000D03*
D17*
X116947000Y-102390000D03*
D18*
X116867000Y-106090000D03*
D19*
X115692000Y-99810000D03*
D18*
X115677000Y-99850000D03*
X115677000Y-99850000D03*
X114407000Y-97310000D03*
X111867000Y-108290000D03*
D20*
X111867000Y-102390000D03*
D18*
X109327000Y-97310000D03*
X108057000Y-99849999D03*
D19*
X108042000Y-99810000D03*
D18*
X106867000Y-106090000D03*
D17*
X106787000Y-102390000D03*
D16*
X106367000Y-102390000D03*
%TD*%
D12*
%TO.C,K20*%
X98257000Y-97234000D03*
D13*
X95357000Y-108214000D03*
D14*
X85657000Y-99774000D03*
D15*
X84457000Y-106014000D03*
D16*
X98057000Y-102314000D03*
D17*
X97637000Y-102314000D03*
D18*
X97557000Y-106014000D03*
D19*
X96382000Y-99734000D03*
D18*
X96367000Y-99774000D03*
X96367000Y-99774000D03*
X95097000Y-97234000D03*
X92557000Y-108214000D03*
D20*
X92557000Y-102314000D03*
D18*
X90017000Y-97234000D03*
X88747000Y-99773999D03*
D19*
X88732000Y-99734000D03*
D18*
X87557000Y-106014000D03*
D17*
X87477000Y-102314000D03*
D16*
X87057000Y-102314000D03*
%TD*%
%TO.C,K15*%
X184604000Y-71374000D03*
D17*
X185024000Y-71374000D03*
D18*
X185104000Y-75074000D03*
D19*
X186279000Y-68794000D03*
D18*
X186294000Y-68833999D03*
X187564000Y-66294000D03*
D20*
X190104000Y-71374000D03*
D18*
X190104000Y-77274000D03*
X192644000Y-66294000D03*
X193914000Y-68834000D03*
X193914000Y-68834000D03*
D19*
X193929000Y-68794000D03*
D18*
X195104000Y-75074000D03*
D17*
X195184000Y-71374000D03*
D16*
X195604000Y-71374000D03*
D15*
X182004000Y-75074000D03*
D14*
X183204000Y-68834000D03*
D13*
X192904000Y-77274000D03*
D12*
X195804000Y-66294000D03*
%TD*%
D16*
%TO.C,K14*%
X165028000Y-70274000D03*
D17*
X165448000Y-70274000D03*
D18*
X165528000Y-73974000D03*
D19*
X166703000Y-67694000D03*
D18*
X166718000Y-67733999D03*
X167988000Y-65194000D03*
D20*
X170528000Y-70274000D03*
D18*
X170528000Y-76174000D03*
X173068000Y-65194000D03*
X174338000Y-67734000D03*
X174338000Y-67734000D03*
D19*
X174353000Y-67694000D03*
D18*
X175528000Y-73974000D03*
D17*
X175608000Y-70274000D03*
D16*
X176028000Y-70274000D03*
D15*
X162428000Y-73974000D03*
D14*
X163628000Y-67734000D03*
D13*
X173328000Y-76174000D03*
D12*
X176228000Y-65194000D03*
%TD*%
D16*
%TO.C,K13*%
X145504000Y-65528000D03*
D17*
X145924000Y-65528000D03*
D18*
X146004000Y-69228000D03*
D19*
X147179000Y-62948000D03*
D18*
X147194000Y-62987999D03*
X148464000Y-60448000D03*
D20*
X151004000Y-65528000D03*
D18*
X151004000Y-71428000D03*
X153544000Y-60448000D03*
X154814000Y-62988000D03*
X154814000Y-62988000D03*
D19*
X154829000Y-62948000D03*
D18*
X156004000Y-69228000D03*
D17*
X156084000Y-65528000D03*
D16*
X156504000Y-65528000D03*
D15*
X142904000Y-69228000D03*
D14*
X144104000Y-62988000D03*
D13*
X153804000Y-71428000D03*
D12*
X156704000Y-60448000D03*
%TD*%
D16*
%TO.C,K12*%
X125940000Y-70684000D03*
D17*
X126360000Y-70684000D03*
D18*
X126440000Y-74384000D03*
D19*
X127615000Y-68104000D03*
D18*
X127630000Y-68143999D03*
X128900000Y-65604000D03*
D20*
X131440000Y-70684000D03*
D18*
X131440000Y-76584000D03*
X133980000Y-65604000D03*
X135250000Y-68144000D03*
X135250000Y-68144000D03*
D19*
X135265000Y-68104000D03*
D18*
X136440000Y-74384000D03*
D17*
X136520000Y-70684000D03*
D16*
X136940000Y-70684000D03*
D15*
X123340000Y-74384000D03*
D14*
X124540000Y-68144000D03*
D13*
X134240000Y-76584000D03*
D12*
X137140000Y-65604000D03*
%TD*%
D16*
%TO.C,K11*%
X106541000Y-83020000D03*
D17*
X106961000Y-83020000D03*
D18*
X107041000Y-86720000D03*
D19*
X108216000Y-80440000D03*
D18*
X108231000Y-80479999D03*
X109501000Y-77940000D03*
D20*
X112041000Y-83020000D03*
D18*
X112041000Y-88920000D03*
X114581000Y-77940000D03*
X115851000Y-80480000D03*
X115851000Y-80480000D03*
D19*
X115866000Y-80440000D03*
D18*
X117041000Y-86720000D03*
D17*
X117121000Y-83020000D03*
D16*
X117541000Y-83020000D03*
D15*
X103941000Y-86720000D03*
D14*
X105141000Y-80480000D03*
D13*
X114841000Y-88920000D03*
D12*
X117741000Y-77940000D03*
%TD*%
D16*
%TO.C,K10*%
X87231000Y-82944000D03*
D17*
X87651000Y-82944000D03*
D18*
X87731000Y-86644000D03*
D19*
X88906000Y-80364000D03*
D18*
X88921000Y-80403999D03*
X90191000Y-77864000D03*
D20*
X92731000Y-82944000D03*
D18*
X92731000Y-88844000D03*
X95271000Y-77864000D03*
X96541000Y-80404000D03*
X96541000Y-80404000D03*
D19*
X96556000Y-80364000D03*
D18*
X97731000Y-86644000D03*
D17*
X97811000Y-82944000D03*
D16*
X98231000Y-82944000D03*
D15*
X84631000Y-86644000D03*
D14*
X85831000Y-80404000D03*
D13*
X95531000Y-88844000D03*
D12*
X98431000Y-77864000D03*
%TD*%
%TO.C,K05*%
X195676000Y-46740000D03*
D13*
X192776000Y-57720000D03*
D14*
X183076000Y-49280000D03*
D15*
X181876000Y-55520000D03*
D16*
X195476000Y-51820000D03*
D17*
X195056000Y-51820000D03*
D18*
X194976000Y-55520000D03*
D19*
X193801000Y-49240000D03*
D18*
X193786000Y-49280000D03*
X193786000Y-49280000D03*
X192516000Y-46740000D03*
X189976000Y-57720000D03*
D20*
X189976000Y-51820000D03*
D18*
X187436000Y-46740000D03*
X186166000Y-49279999D03*
D19*
X186151000Y-49240000D03*
D18*
X184976000Y-55520000D03*
D17*
X184896000Y-51820000D03*
D16*
X184476000Y-51820000D03*
%TD*%
D12*
%TO.C,K04*%
X176100000Y-45640000D03*
D13*
X173200000Y-56620000D03*
D14*
X163500000Y-48180000D03*
D15*
X162300000Y-54420000D03*
D16*
X175900000Y-50720000D03*
D17*
X175480000Y-50720000D03*
D18*
X175400000Y-54420000D03*
D19*
X174225000Y-48140000D03*
D18*
X174210000Y-48180000D03*
X174210000Y-48180000D03*
X172940000Y-45640000D03*
X170400000Y-56620000D03*
D20*
X170400000Y-50720000D03*
D18*
X167860000Y-45640000D03*
X166590000Y-48179999D03*
D19*
X166575000Y-48140000D03*
D18*
X165400000Y-54420000D03*
D17*
X165320000Y-50720000D03*
D16*
X164900000Y-50720000D03*
%TD*%
D12*
%TO.C,K02*%
X137012000Y-46050000D03*
D13*
X134112000Y-57030000D03*
D14*
X124412000Y-48590000D03*
D15*
X123212000Y-54830000D03*
D16*
X136812000Y-51130000D03*
D17*
X136392000Y-51130000D03*
D18*
X136312000Y-54830000D03*
D19*
X135137000Y-48550000D03*
D18*
X135122000Y-48590000D03*
X135122000Y-48590000D03*
X133852000Y-46050000D03*
X131312000Y-57030000D03*
D20*
X131312000Y-51130000D03*
D18*
X128772000Y-46050000D03*
X127502000Y-48589999D03*
D19*
X127487000Y-48550000D03*
D18*
X126312000Y-54830000D03*
D17*
X126232000Y-51130000D03*
D16*
X125812000Y-51130000D03*
%TD*%
D12*
%TO.C,K01*%
X117613000Y-58386000D03*
D13*
X114713000Y-69366000D03*
D14*
X105013000Y-60926000D03*
D15*
X103813000Y-67166000D03*
D16*
X117413000Y-63466000D03*
D17*
X116993000Y-63466000D03*
D18*
X116913000Y-67166000D03*
D19*
X115738000Y-60886000D03*
D18*
X115723000Y-60926000D03*
X115723000Y-60926000D03*
X114453000Y-58386000D03*
X111913000Y-69366000D03*
D20*
X111913000Y-63466000D03*
D18*
X109373000Y-58386000D03*
X108103000Y-60925999D03*
D19*
X108088000Y-60886000D03*
D18*
X106913000Y-67166000D03*
D17*
X106833000Y-63466000D03*
D16*
X106413000Y-63466000D03*
%TD*%
D12*
%TO.C,K00*%
X98303000Y-58310000D03*
D13*
X95403000Y-69290000D03*
D14*
X85703000Y-60850000D03*
D15*
X84503000Y-67090000D03*
D16*
X98103000Y-63390000D03*
D17*
X97683000Y-63390000D03*
D18*
X97603000Y-67090000D03*
D19*
X96428000Y-60810000D03*
D18*
X96413000Y-60850000D03*
X96413000Y-60850000D03*
X95143000Y-58310000D03*
X92603000Y-69290000D03*
D20*
X92603000Y-63390000D03*
D18*
X90063000Y-58310000D03*
X88793000Y-60849999D03*
D19*
X88778000Y-60810000D03*
D18*
X87603000Y-67090000D03*
D17*
X87523000Y-63390000D03*
D16*
X87103000Y-63390000D03*
%TD*%
D33*
%TO.C,J1*%
X225580000Y-102444000D03*
X222580000Y-109144000D03*
X222580000Y-102444000D03*
X225580000Y-109144000D03*
X218580000Y-102444000D03*
X218580000Y-109144000D03*
X217480000Y-107044000D03*
X217480000Y-104544000D03*
D34*
X227180000Y-104744000D03*
X220180000Y-106844000D03*
X220180000Y-104744000D03*
X227180000Y-106844000D03*
%TD*%
D17*
%TO.C,U1*%
X221000000Y-47380000D03*
X208420000Y-47360000D03*
X221000000Y-49920000D03*
X208420000Y-49900000D03*
X221000000Y-52460000D03*
X208420000Y-52440000D03*
X208420000Y-54980000D03*
X221000000Y-55000000D03*
X221000000Y-57540000D03*
X208420000Y-57520000D03*
X208420000Y-60060000D03*
X221000000Y-60080000D03*
X208420000Y-62600000D03*
X221000000Y-62620000D03*
X221000000Y-65160000D03*
X208420000Y-65140000D03*
X221000000Y-67700000D03*
X208420000Y-67680000D03*
X208420000Y-70220000D03*
X221000000Y-70240000D03*
X221000000Y-72780000D03*
X208420000Y-72760000D03*
X221000000Y-75320000D03*
X208420000Y-75300000D03*
X208420000Y-77840000D03*
X221000000Y-77860000D03*
X208420000Y-80380000D03*
X221000000Y-80400000D03*
X208420000Y-82920000D03*
X221000000Y-82940000D03*
X208420000Y-85460000D03*
X221000000Y-85480000D03*
X208420000Y-88000000D03*
X221000000Y-88020000D03*
X221000000Y-90560000D03*
X208420000Y-90540000D03*
X221000000Y-93100000D03*
X208420000Y-93080000D03*
X208420000Y-95620000D03*
X221000000Y-95640000D03*
X205760000Y-95640000D03*
X223660000Y-95620000D03*
X205760000Y-93100000D03*
X223660000Y-93080000D03*
X223660000Y-90540000D03*
X205760000Y-90560000D03*
X205760000Y-88020000D03*
X223660000Y-88000000D03*
X205760000Y-85480000D03*
X223660000Y-85460000D03*
X223660000Y-82920000D03*
X205760000Y-82940000D03*
X223660000Y-80380000D03*
X205760000Y-80400000D03*
X205760000Y-77860000D03*
X223660000Y-77840000D03*
X223660000Y-75300000D03*
X205760000Y-75320000D03*
X223660000Y-72760000D03*
X205760000Y-72780000D03*
X205760000Y-70240000D03*
X223660000Y-70220000D03*
X223660000Y-67680000D03*
X205760000Y-67700000D03*
X205760000Y-65160000D03*
X223660000Y-65140000D03*
X205760000Y-62620000D03*
X223660000Y-62600000D03*
X205760000Y-60080000D03*
X223660000Y-60060000D03*
X223660000Y-57520000D03*
X205760000Y-57540000D03*
X205760000Y-55000000D03*
X223660000Y-54980000D03*
X223660000Y-52440000D03*
X205760000Y-52460000D03*
X205760000Y-49920000D03*
X223660000Y-49900000D03*
D35*
X223660000Y-47360000D03*
X205760000Y-47380000D03*
%TD*%
%LPD*%
M02*
