%TF.GenerationSoftware,KiCad,Pcbnew,7.0.6*%
%TF.CreationDate,2023-08-11T19:59:34+07:00*%
%TF.ProjectId,keyboard_pcb,6b657962-6f61-4726-945f-7063622e6b69,rev1.0*%
%TF.SameCoordinates,Original*%
%TF.FileFunction,Legend,Top*%
%TF.FilePolarity,Positive*%
%FSLAX46Y46*%
G04 Gerber Fmt 4.6, Leading zero omitted, Abs format (unit mm)*
G04 Created by KiCad (PCBNEW 7.0.6) date 2023-08-11 19:59:34*
%MOMM*%
%LPD*%
G01*
G04 APERTURE LIST*
G04 Aperture macros list*
%AMRotRect*
0 Rectangle, with rotation*
0 The origin of the aperture is its center*
0 $1 length*
0 $2 width*
0 $3 Rotation angle, in degrees counterclockwise*
0 Add horizontal line*
21,1,$1,$2,0,0,$3*%
G04 Aperture macros list end*
%ADD10C,0.150000*%
%ADD11C,0.120000*%
%ADD12R,2.500000X2.500000*%
%ADD13R,1.800000X2.000000*%
%ADD14R,2.000000X2.000000*%
%ADD15R,2.400000X2.400000*%
%ADD16C,1.900000*%
%ADD17C,1.700000*%
%ADD18C,3.000000*%
%ADD19C,0.100000*%
%ADD20C,4.000000*%
%ADD21RotRect,2.400000X2.400000X350.000000*%
%ADD22RotRect,2.000000X2.000000X350.000000*%
%ADD23RotRect,1.800000X2.000000X350.000000*%
%ADD24RotRect,2.500000X2.500000X350.000000*%
%ADD25RotRect,2.400000X2.400000X335.000000*%
%ADD26RotRect,2.000000X2.000000X335.000000*%
%ADD27RotRect,1.800000X2.000000X335.000000*%
%ADD28RotRect,2.500000X2.500000X335.000000*%
%ADD29RotRect,2.400000X2.400000X5.000000*%
%ADD30RotRect,2.000000X2.000000X5.000000*%
%ADD31RotRect,1.800000X2.000000X5.000000*%
%ADD32RotRect,2.500000X2.500000X5.000000*%
%ADD33O,2.000000X1.600000*%
%ADD34C,0.800000*%
%ADD35R,1.700000X1.700000*%
G04 APERTURE END LIST*
D10*
%TO.C,K03*%
X156964999Y-41054000D02*
G75*
G03*
X154701000Y-39170001I-2073999J-190000D01*
G01*
X151076000Y-49543999D02*
G75*
G03*
X153445999Y-47374000I100000J2269999D01*
G01*
X154376000Y-52003999D02*
G75*
G03*
X153155999Y-53423999I100000J-1320001D01*
G01*
X153360999Y-45053999D02*
G75*
G03*
X151101000Y-43174001I-2069999J-190001D01*
G01*
X158151000Y-47374000D02*
X158176000Y-51973999D01*
X156976000Y-45078000D02*
X153366000Y-45078000D01*
X156976000Y-41124000D02*
X156976000Y-45069000D01*
X154376000Y-51999000D02*
X158151000Y-51999000D01*
X153451000Y-47349000D02*
X158151000Y-47349000D01*
X153156000Y-53474000D02*
X153156000Y-54174000D01*
X148601000Y-54199000D02*
X153151000Y-54199000D01*
X148601000Y-49549000D02*
X151151000Y-49549000D01*
X148576001Y-49574000D02*
X148576001Y-54174000D01*
X146076000Y-43124000D02*
X151126000Y-43170000D01*
X146076000Y-43078000D02*
X146076000Y-39170000D01*
X146076000Y-39170000D02*
X154701000Y-39170000D01*
%TO.C,K31*%
X185204425Y-105215857D02*
X193698392Y-106713572D01*
X184525808Y-109064485D02*
X185204425Y-105215857D01*
X184517820Y-109109787D02*
X189483111Y-110032011D01*
X185859810Y-115895917D02*
X185061028Y-120426033D01*
X185888770Y-115875638D02*
X188400030Y-116318441D01*
X185081306Y-120454994D02*
X189562181Y-121245093D01*
X189693000Y-120531976D02*
X189571447Y-121221341D01*
X191047114Y-114551255D02*
X195675710Y-115367401D01*
X191150597Y-119291235D02*
X194868246Y-119946757D01*
X195599521Y-109032936D02*
X194914479Y-112918003D01*
X194912916Y-112926866D02*
X191357760Y-112299996D01*
X195671369Y-115392021D02*
X194897208Y-119926477D01*
X191357003Y-112275492D02*
G75*
G03*
X189457797Y-110031609I-2071545J172338D01*
G01*
X191149729Y-119296158D02*
G75*
G03*
X189701683Y-120482734I-130735J-1317312D01*
G01*
X188327038Y-116300492D02*
G75*
G03*
X191037847Y-114575007I492662J2218147D01*
G01*
X195600844Y-108962090D02*
G75*
G03*
X193698392Y-106713572I-2075485J173033D01*
G01*
%TO.C,K32*%
X208026317Y-111085014D02*
X215843222Y-114730097D01*
X206374725Y-114626865D02*
X208026317Y-111085014D01*
X206355285Y-114668555D02*
X210912699Y-116844468D01*
X205895167Y-121570786D02*
X203951123Y-125739802D01*
X205928389Y-121558694D02*
X208239474Y-122636370D01*
X203963215Y-125773025D02*
X208086915Y-127695938D01*
X208397845Y-127040978D02*
X208102012Y-127675393D01*
X211253742Y-121614515D02*
X215513389Y-123600821D01*
X210126902Y-126219768D02*
X213548214Y-127815152D01*
X217079276Y-117462479D02*
X215412047Y-121037863D01*
X215408243Y-121046020D02*
X212136472Y-119520368D01*
X215502824Y-123623479D02*
X213581438Y-127803059D01*
X212142083Y-119496502D02*
G75*
G03*
X210888350Y-116837528I-1956354J702620D01*
G01*
X210124789Y-126224299D02*
G75*
G03*
X208418976Y-126995661I-467225J-1238589D01*
G01*
X208173615Y-122600141D02*
G75*
G03*
X211238644Y-121635060I1049974J2015055D01*
G01*
X217098889Y-117394388D02*
G75*
G03*
X215843222Y-114730097I-1959979J704312D01*
G01*
%TO.C,K30*%
X161471658Y-105856739D02*
X170063837Y-105105021D01*
X161812262Y-109749868D02*
X161471658Y-105856739D01*
X161816272Y-109795693D02*
X166851064Y-109401381D01*
X164868914Y-116003259D02*
X165269830Y-120585755D01*
X164891639Y-115976175D02*
X167431935Y-115753928D01*
X165296913Y-120608481D02*
X169829599Y-120211922D01*
X169771392Y-119489245D02*
X169832401Y-120186581D01*
X169531440Y-113361842D02*
X174213556Y-112952210D01*
X170858195Y-117913528D02*
X174618830Y-117584515D01*
X172500482Y-106853306D02*
X172844312Y-110783294D01*
X172845096Y-110792260D02*
X169248833Y-111106892D01*
X174215734Y-112977115D02*
X174641556Y-117557430D01*
X169241760Y-111083418D02*
G75*
G03*
X166826508Y-109407545I-2045563J-369690D01*
G01*
X170858631Y-117918508D02*
G75*
G03*
X169767034Y-119439434I214665J-1306262D01*
G01*
X167356785Y-115755483D02*
G75*
G03*
X169528638Y-113387182I-98224J2270077D01*
G01*
X172483422Y-106784531D02*
G75*
G03*
X170063837Y-105105022I-2049547J-370038D01*
G01*
%TO.C,K25*%
X196018999Y-85824000D02*
G75*
G03*
X193755000Y-83940001I-2073999J-190000D01*
G01*
X190130000Y-94313999D02*
G75*
G03*
X192499999Y-92144000I100000J2269999D01*
G01*
X193430000Y-96773999D02*
G75*
G03*
X192209999Y-98193999I100000J-1320001D01*
G01*
X192414999Y-89823999D02*
G75*
G03*
X190155000Y-87944001I-2069999J-190001D01*
G01*
X197205000Y-92144000D02*
X197230000Y-96743999D01*
X196030000Y-89848000D02*
X192420000Y-89848000D01*
X196030000Y-85894000D02*
X196030000Y-89839000D01*
X193430000Y-96769000D02*
X197205000Y-96769000D01*
X192505000Y-92119000D02*
X197205000Y-92119000D01*
X192210000Y-98244000D02*
X192210000Y-98944000D01*
X187655000Y-98969000D02*
X192205000Y-98969000D01*
X187655000Y-94319000D02*
X190205000Y-94319000D01*
X187630001Y-94344000D02*
X187630001Y-98944000D01*
X185130000Y-87894000D02*
X190180000Y-87940000D01*
X185130000Y-87848000D02*
X185130000Y-83940000D01*
X185130000Y-83940000D02*
X193755000Y-83940000D01*
%TO.C,K24*%
X176442999Y-84724000D02*
G75*
G03*
X174179000Y-82840001I-2073999J-190000D01*
G01*
X170554000Y-93213999D02*
G75*
G03*
X172923999Y-91044000I100000J2269999D01*
G01*
X173854000Y-95673999D02*
G75*
G03*
X172633999Y-97093999I100000J-1320001D01*
G01*
X172838999Y-88723999D02*
G75*
G03*
X170579000Y-86844001I-2069999J-190001D01*
G01*
X177629000Y-91044000D02*
X177654000Y-95643999D01*
X176454000Y-88748000D02*
X172844000Y-88748000D01*
X176454000Y-84794000D02*
X176454000Y-88739000D01*
X173854000Y-95669000D02*
X177629000Y-95669000D01*
X172929000Y-91019000D02*
X177629000Y-91019000D01*
X172634000Y-97144000D02*
X172634000Y-97844000D01*
X168079000Y-97869000D02*
X172629000Y-97869000D01*
X168079000Y-93219000D02*
X170629000Y-93219000D01*
X168054001Y-93244000D02*
X168054001Y-97844000D01*
X165554000Y-86794000D02*
X170604000Y-86840000D01*
X165554000Y-86748000D02*
X165554000Y-82840000D01*
X165554000Y-82840000D02*
X174179000Y-82840000D01*
%TO.C,K23*%
X156918999Y-79978000D02*
G75*
G03*
X154655000Y-78094001I-2073999J-190000D01*
G01*
X151030000Y-88467999D02*
G75*
G03*
X153399999Y-86298000I100000J2269999D01*
G01*
X154330000Y-90927999D02*
G75*
G03*
X153109999Y-92347999I100000J-1320001D01*
G01*
X153314999Y-83977999D02*
G75*
G03*
X151055000Y-82098001I-2069999J-190001D01*
G01*
X158105000Y-86298000D02*
X158130000Y-90897999D01*
X156930000Y-84002000D02*
X153320000Y-84002000D01*
X156930000Y-80048000D02*
X156930000Y-83993000D01*
X154330000Y-90923000D02*
X158105000Y-90923000D01*
X153405000Y-86273000D02*
X158105000Y-86273000D01*
X153110000Y-92398000D02*
X153110000Y-93098000D01*
X148555000Y-93123000D02*
X153105000Y-93123000D01*
X148555000Y-88473000D02*
X151105000Y-88473000D01*
X148530001Y-88498000D02*
X148530001Y-93098000D01*
X146030000Y-82048000D02*
X151080000Y-82094000D01*
X146030000Y-82002000D02*
X146030000Y-78094000D01*
X146030000Y-78094000D02*
X154655000Y-78094000D01*
%TO.C,K22*%
X137354999Y-85134000D02*
G75*
G03*
X135091000Y-83250001I-2073999J-190000D01*
G01*
X131466000Y-93623999D02*
G75*
G03*
X133835999Y-91454000I100000J2269999D01*
G01*
X134766000Y-96083999D02*
G75*
G03*
X133545999Y-97503999I100000J-1320001D01*
G01*
X133750999Y-89133999D02*
G75*
G03*
X131491000Y-87254001I-2069999J-190001D01*
G01*
X138541000Y-91454000D02*
X138566000Y-96053999D01*
X137366000Y-89158000D02*
X133756000Y-89158000D01*
X137366000Y-85204000D02*
X137366000Y-89149000D01*
X134766000Y-96079000D02*
X138541000Y-96079000D01*
X133841000Y-91429000D02*
X138541000Y-91429000D01*
X133546000Y-97554000D02*
X133546000Y-98254000D01*
X128991000Y-98279000D02*
X133541000Y-98279000D01*
X128991000Y-93629000D02*
X131541000Y-93629000D01*
X128966001Y-93654000D02*
X128966001Y-98254000D01*
X126466000Y-87204000D02*
X131516000Y-87250000D01*
X126466000Y-87158000D02*
X126466000Y-83250000D01*
X126466000Y-83250000D02*
X135091000Y-83250000D01*
%TO.C,K21*%
X117955999Y-97470000D02*
G75*
G03*
X115692000Y-95586001I-2073999J-190000D01*
G01*
X112067000Y-105959999D02*
G75*
G03*
X114436999Y-103790000I100000J2269999D01*
G01*
X115367000Y-108419999D02*
G75*
G03*
X114146999Y-109839999I100000J-1320001D01*
G01*
X114351999Y-101469999D02*
G75*
G03*
X112092000Y-99590001I-2069999J-190001D01*
G01*
X119142000Y-103790000D02*
X119167000Y-108389999D01*
X117967000Y-101494000D02*
X114357000Y-101494000D01*
X117967000Y-97540000D02*
X117967000Y-101485000D01*
X115367000Y-108415000D02*
X119142000Y-108415000D01*
X114442000Y-103765000D02*
X119142000Y-103765000D01*
X114147000Y-109890000D02*
X114147000Y-110590000D01*
X109592000Y-110615000D02*
X114142000Y-110615000D01*
X109592000Y-105965000D02*
X112142000Y-105965000D01*
X109567001Y-105990000D02*
X109567001Y-110590000D01*
X107067000Y-99540000D02*
X112117000Y-99586000D01*
X107067000Y-99494000D02*
X107067000Y-95586000D01*
X107067000Y-95586000D02*
X115692000Y-95586000D01*
%TO.C,K20*%
X98645999Y-97394000D02*
G75*
G03*
X96382000Y-95510001I-2073999J-190000D01*
G01*
X92757000Y-105883999D02*
G75*
G03*
X95126999Y-103714000I100000J2269999D01*
G01*
X96057000Y-108343999D02*
G75*
G03*
X94836999Y-109763999I100000J-1320001D01*
G01*
X95041999Y-101393999D02*
G75*
G03*
X92782000Y-99514001I-2069999J-190001D01*
G01*
X99832000Y-103714000D02*
X99857000Y-108313999D01*
X98657000Y-101418000D02*
X95047000Y-101418000D01*
X98657000Y-97464000D02*
X98657000Y-101409000D01*
X96057000Y-108339000D02*
X99832000Y-108339000D01*
X95132000Y-103689000D02*
X99832000Y-103689000D01*
X94837000Y-109814000D02*
X94837000Y-110514000D01*
X90282000Y-110539000D02*
X94832000Y-110539000D01*
X90282000Y-105889000D02*
X92832000Y-105889000D01*
X90257001Y-105914000D02*
X90257001Y-110514000D01*
X87757000Y-99464000D02*
X92807000Y-99510000D01*
X87757000Y-99418000D02*
X87757000Y-95510000D01*
X87757000Y-95510000D02*
X96382000Y-95510000D01*
%TO.C,K15*%
X185304000Y-64570000D02*
X193929000Y-64570000D01*
X185304000Y-68478000D02*
X185304000Y-64570000D01*
X185304000Y-68524000D02*
X190354000Y-68570000D01*
X187804001Y-74974000D02*
X187804001Y-79574000D01*
X187829000Y-74949000D02*
X190379000Y-74949000D01*
X187829000Y-79599000D02*
X192379000Y-79599000D01*
X192384000Y-78874000D02*
X192384000Y-79574000D01*
X192679000Y-72749000D02*
X197379000Y-72749000D01*
X193604000Y-77399000D02*
X197379000Y-77399000D01*
X196204000Y-66524000D02*
X196204000Y-70469000D01*
X196204000Y-70478000D02*
X192594000Y-70478000D01*
X197379000Y-72774000D02*
X197404000Y-77373999D01*
X192588999Y-70453999D02*
G75*
G03*
X190329000Y-68574001I-2069999J-190001D01*
G01*
X193604000Y-77403999D02*
G75*
G03*
X192383999Y-78823999I100000J-1320001D01*
G01*
X190304000Y-74943999D02*
G75*
G03*
X192673999Y-72774000I100000J2269999D01*
G01*
X196192999Y-66454000D02*
G75*
G03*
X193929000Y-64570001I-2073999J-190000D01*
G01*
%TO.C,K14*%
X165728000Y-63470000D02*
X174353000Y-63470000D01*
X165728000Y-67378000D02*
X165728000Y-63470000D01*
X165728000Y-67424000D02*
X170778000Y-67470000D01*
X168228001Y-73874000D02*
X168228001Y-78474000D01*
X168253000Y-73849000D02*
X170803000Y-73849000D01*
X168253000Y-78499000D02*
X172803000Y-78499000D01*
X172808000Y-77774000D02*
X172808000Y-78474000D01*
X173103000Y-71649000D02*
X177803000Y-71649000D01*
X174028000Y-76299000D02*
X177803000Y-76299000D01*
X176628000Y-65424000D02*
X176628000Y-69369000D01*
X176628000Y-69378000D02*
X173018000Y-69378000D01*
X177803000Y-71674000D02*
X177828000Y-76273999D01*
X173012999Y-69353999D02*
G75*
G03*
X170753000Y-67474001I-2069999J-190001D01*
G01*
X174028000Y-76303999D02*
G75*
G03*
X172807999Y-77723999I100000J-1320001D01*
G01*
X170728000Y-73843999D02*
G75*
G03*
X173097999Y-71674000I100000J2269999D01*
G01*
X176616999Y-65354000D02*
G75*
G03*
X174353000Y-63470001I-2073999J-190000D01*
G01*
%TO.C,K13*%
X146204000Y-58724000D02*
X154829000Y-58724000D01*
X146204000Y-62632000D02*
X146204000Y-58724000D01*
X146204000Y-62678000D02*
X151254000Y-62724000D01*
X148704001Y-69128000D02*
X148704001Y-73728000D01*
X148729000Y-69103000D02*
X151279000Y-69103000D01*
X148729000Y-73753000D02*
X153279000Y-73753000D01*
X153284000Y-73028000D02*
X153284000Y-73728000D01*
X153579000Y-66903000D02*
X158279000Y-66903000D01*
X154504000Y-71553000D02*
X158279000Y-71553000D01*
X157104000Y-60678000D02*
X157104000Y-64623000D01*
X157104000Y-64632000D02*
X153494000Y-64632000D01*
X158279000Y-66928000D02*
X158304000Y-71527999D01*
X153488999Y-64607999D02*
G75*
G03*
X151229000Y-62728001I-2069999J-190001D01*
G01*
X154504000Y-71557999D02*
G75*
G03*
X153283999Y-72977999I100000J-1320001D01*
G01*
X151204000Y-69097999D02*
G75*
G03*
X153573999Y-66928000I100000J2269999D01*
G01*
X157092999Y-60608000D02*
G75*
G03*
X154829000Y-58724001I-2073999J-190000D01*
G01*
%TO.C,K12*%
X126640000Y-63880000D02*
X135265000Y-63880000D01*
X126640000Y-67788000D02*
X126640000Y-63880000D01*
X126640000Y-67834000D02*
X131690000Y-67880000D01*
X129140001Y-74284000D02*
X129140001Y-78884000D01*
X129165000Y-74259000D02*
X131715000Y-74259000D01*
X129165000Y-78909000D02*
X133715000Y-78909000D01*
X133720000Y-78184000D02*
X133720000Y-78884000D01*
X134015000Y-72059000D02*
X138715000Y-72059000D01*
X134940000Y-76709000D02*
X138715000Y-76709000D01*
X137540000Y-65834000D02*
X137540000Y-69779000D01*
X137540000Y-69788000D02*
X133930000Y-69788000D01*
X138715000Y-72084000D02*
X138740000Y-76683999D01*
X133924999Y-69763999D02*
G75*
G03*
X131665000Y-67884001I-2069999J-190001D01*
G01*
X134940000Y-76713999D02*
G75*
G03*
X133719999Y-78133999I100000J-1320001D01*
G01*
X131640000Y-74253999D02*
G75*
G03*
X134009999Y-72084000I100000J2269999D01*
G01*
X137528999Y-65764000D02*
G75*
G03*
X135265000Y-63880001I-2073999J-190000D01*
G01*
%TO.C,K11*%
X107241000Y-76216000D02*
X115866000Y-76216000D01*
X107241000Y-80124000D02*
X107241000Y-76216000D01*
X107241000Y-80170000D02*
X112291000Y-80216000D01*
X109741001Y-86620000D02*
X109741001Y-91220000D01*
X109766000Y-86595000D02*
X112316000Y-86595000D01*
X109766000Y-91245000D02*
X114316000Y-91245000D01*
X114321000Y-90520000D02*
X114321000Y-91220000D01*
X114616000Y-84395000D02*
X119316000Y-84395000D01*
X115541000Y-89045000D02*
X119316000Y-89045000D01*
X118141000Y-78170000D02*
X118141000Y-82115000D01*
X118141000Y-82124000D02*
X114531000Y-82124000D01*
X119316000Y-84420000D02*
X119341000Y-89019999D01*
X114525999Y-82099999D02*
G75*
G03*
X112266000Y-80220001I-2069999J-190001D01*
G01*
X115541000Y-89049999D02*
G75*
G03*
X114320999Y-90469999I100000J-1320001D01*
G01*
X112241000Y-86589999D02*
G75*
G03*
X114610999Y-84420000I100000J2269999D01*
G01*
X118129999Y-78100000D02*
G75*
G03*
X115866000Y-76216001I-2073999J-190000D01*
G01*
%TO.C,K10*%
X87931000Y-76140000D02*
X96556000Y-76140000D01*
X87931000Y-80048000D02*
X87931000Y-76140000D01*
X87931000Y-80094000D02*
X92981000Y-80140000D01*
X90431001Y-86544000D02*
X90431001Y-91144000D01*
X90456000Y-86519000D02*
X93006000Y-86519000D01*
X90456000Y-91169000D02*
X95006000Y-91169000D01*
X95011000Y-90444000D02*
X95011000Y-91144000D01*
X95306000Y-84319000D02*
X100006000Y-84319000D01*
X96231000Y-88969000D02*
X100006000Y-88969000D01*
X98831000Y-78094000D02*
X98831000Y-82039000D01*
X98831000Y-82048000D02*
X95221000Y-82048000D01*
X100006000Y-84344000D02*
X100031000Y-88943999D01*
X95215999Y-82023999D02*
G75*
G03*
X92956000Y-80144001I-2069999J-190001D01*
G01*
X96231000Y-88973999D02*
G75*
G03*
X95010999Y-90393999I100000J-1320001D01*
G01*
X92931000Y-86513999D02*
G75*
G03*
X95300999Y-84344000I100000J2269999D01*
G01*
X98819999Y-78024000D02*
G75*
G03*
X96556000Y-76140001I-2073999J-190000D01*
G01*
%TO.C,K05*%
X196064999Y-46900000D02*
G75*
G03*
X193801000Y-45016001I-2073999J-190000D01*
G01*
X190176000Y-55389999D02*
G75*
G03*
X192545999Y-53220000I100000J2269999D01*
G01*
X193476000Y-57849999D02*
G75*
G03*
X192255999Y-59269999I100000J-1320001D01*
G01*
X192460999Y-50899999D02*
G75*
G03*
X190201000Y-49020001I-2069999J-190001D01*
G01*
X197251000Y-53220000D02*
X197276000Y-57819999D01*
X196076000Y-50924000D02*
X192466000Y-50924000D01*
X196076000Y-46970000D02*
X196076000Y-50915000D01*
X193476000Y-57845000D02*
X197251000Y-57845000D01*
X192551000Y-53195000D02*
X197251000Y-53195000D01*
X192256000Y-59320000D02*
X192256000Y-60020000D01*
X187701000Y-60045000D02*
X192251000Y-60045000D01*
X187701000Y-55395000D02*
X190251000Y-55395000D01*
X187676001Y-55420000D02*
X187676001Y-60020000D01*
X185176000Y-48970000D02*
X190226000Y-49016000D01*
X185176000Y-48924000D02*
X185176000Y-45016000D01*
X185176000Y-45016000D02*
X193801000Y-45016000D01*
%TO.C,K04*%
X176488999Y-45800000D02*
G75*
G03*
X174225000Y-43916001I-2073999J-190000D01*
G01*
X170600000Y-54289999D02*
G75*
G03*
X172969999Y-52120000I100000J2269999D01*
G01*
X173900000Y-56749999D02*
G75*
G03*
X172679999Y-58169999I100000J-1320001D01*
G01*
X172884999Y-49799999D02*
G75*
G03*
X170625000Y-47920001I-2069999J-190001D01*
G01*
X177675000Y-52120000D02*
X177700000Y-56719999D01*
X176500000Y-49824000D02*
X172890000Y-49824000D01*
X176500000Y-45870000D02*
X176500000Y-49815000D01*
X173900000Y-56745000D02*
X177675000Y-56745000D01*
X172975000Y-52095000D02*
X177675000Y-52095000D01*
X172680000Y-58220000D02*
X172680000Y-58920000D01*
X168125000Y-58945000D02*
X172675000Y-58945000D01*
X168125000Y-54295000D02*
X170675000Y-54295000D01*
X168100001Y-54320000D02*
X168100001Y-58920000D01*
X165600000Y-47870000D02*
X170650000Y-47916000D01*
X165600000Y-47824000D02*
X165600000Y-43916000D01*
X165600000Y-43916000D02*
X174225000Y-43916000D01*
%TO.C,K02*%
X137400999Y-46210000D02*
G75*
G03*
X135137000Y-44326001I-2073999J-190000D01*
G01*
X131512000Y-54699999D02*
G75*
G03*
X133881999Y-52530000I100000J2269999D01*
G01*
X134812000Y-57159999D02*
G75*
G03*
X133591999Y-58579999I100000J-1320001D01*
G01*
X133796999Y-50209999D02*
G75*
G03*
X131537000Y-48330001I-2069999J-190001D01*
G01*
X138587000Y-52530000D02*
X138612000Y-57129999D01*
X137412000Y-50234000D02*
X133802000Y-50234000D01*
X137412000Y-46280000D02*
X137412000Y-50225000D01*
X134812000Y-57155000D02*
X138587000Y-57155000D01*
X133887000Y-52505000D02*
X138587000Y-52505000D01*
X133592000Y-58630000D02*
X133592000Y-59330000D01*
X129037000Y-59355000D02*
X133587000Y-59355000D01*
X129037000Y-54705000D02*
X131587000Y-54705000D01*
X129012001Y-54730000D02*
X129012001Y-59330000D01*
X126512000Y-48280000D02*
X131562000Y-48326000D01*
X126512000Y-48234000D02*
X126512000Y-44326000D01*
X126512000Y-44326000D02*
X135137000Y-44326000D01*
%TO.C,K01*%
X118001999Y-58546000D02*
G75*
G03*
X115738000Y-56662001I-2073999J-190000D01*
G01*
X112113000Y-67035999D02*
G75*
G03*
X114482999Y-64866000I100000J2269999D01*
G01*
X115413000Y-69495999D02*
G75*
G03*
X114192999Y-70915999I100000J-1320001D01*
G01*
X114397999Y-62545999D02*
G75*
G03*
X112138000Y-60666001I-2069999J-190001D01*
G01*
X119188000Y-64866000D02*
X119213000Y-69465999D01*
X118013000Y-62570000D02*
X114403000Y-62570000D01*
X118013000Y-58616000D02*
X118013000Y-62561000D01*
X115413000Y-69491000D02*
X119188000Y-69491000D01*
X114488000Y-64841000D02*
X119188000Y-64841000D01*
X114193000Y-70966000D02*
X114193000Y-71666000D01*
X109638000Y-71691000D02*
X114188000Y-71691000D01*
X109638000Y-67041000D02*
X112188000Y-67041000D01*
X109613001Y-67066000D02*
X109613001Y-71666000D01*
X107113000Y-60616000D02*
X112163000Y-60662000D01*
X107113000Y-60570000D02*
X107113000Y-56662000D01*
X107113000Y-56662000D02*
X115738000Y-56662000D01*
%TO.C,K00*%
X98691999Y-58470000D02*
G75*
G03*
X96428000Y-56586001I-2073999J-190000D01*
G01*
X92803000Y-66959999D02*
G75*
G03*
X95172999Y-64790000I100000J2269999D01*
G01*
X96103000Y-69419999D02*
G75*
G03*
X94882999Y-70839999I100000J-1320001D01*
G01*
X95087999Y-62469999D02*
G75*
G03*
X92828000Y-60590001I-2069999J-190001D01*
G01*
X99878000Y-64790000D02*
X99903000Y-69389999D01*
X98703000Y-62494000D02*
X95093000Y-62494000D01*
X98703000Y-58540000D02*
X98703000Y-62485000D01*
X96103000Y-69415000D02*
X99878000Y-69415000D01*
X95178000Y-64765000D02*
X99878000Y-64765000D01*
X94883000Y-70890000D02*
X94883000Y-71590000D01*
X90328000Y-71615000D02*
X94878000Y-71615000D01*
X90328000Y-66965000D02*
X92878000Y-66965000D01*
X90303001Y-66990000D02*
X90303001Y-71590000D01*
X87803000Y-60540000D02*
X92853000Y-60586000D01*
X87803000Y-60494000D02*
X87803000Y-56586000D01*
X87803000Y-56586000D02*
X96428000Y-56586000D01*
%TO.C,J1*%
X230780000Y-109644000D02*
X230780000Y-104044000D01*
X228780000Y-104044000D02*
X230780000Y-104044000D01*
X228780000Y-109894000D02*
X216680000Y-109894000D01*
X228780000Y-103794000D02*
X216680000Y-103794000D01*
X228780000Y-109644000D02*
X230780000Y-109644000D01*
X228780000Y-109894000D02*
X228780000Y-103794000D01*
X216680000Y-109894000D02*
X216680000Y-103794000D01*
D11*
%TO.C,U1*%
X224990000Y-48630000D02*
X222330000Y-48630000D01*
X224990000Y-46030000D02*
X223660000Y-46030000D01*
X207150000Y-46090000D02*
X207150000Y-96890000D01*
X222330000Y-48630000D02*
X222330000Y-96950000D01*
X209690000Y-96890000D02*
X209690000Y-46090000D01*
X209690000Y-46090000D02*
X207150000Y-46090000D01*
X224990000Y-47360000D02*
X224990000Y-46030000D01*
X209690000Y-96890000D02*
X207150000Y-96890000D01*
X224990000Y-96950000D02*
X224990000Y-48630000D01*
X222330000Y-96950000D02*
X224990000Y-96950000D01*
%TD*%
%LPC*%
%TO.C,U1*%
X207150000Y-96890000D02*
X209690000Y-96890000D01*
%TD*%
D12*
%TO.C,K03*%
X157776000Y-43433999D03*
D13*
X148076000Y-51874000D03*
D14*
X158976000Y-49674000D03*
D15*
X145176000Y-40894000D03*
D16*
X156376000Y-45974000D03*
D17*
X155956000Y-45974000D03*
D18*
X155876000Y-49674000D03*
D19*
X154701000Y-43394000D03*
D18*
X154686000Y-43434000D03*
X154686000Y-43434000D03*
X153416000Y-40894000D03*
X150876000Y-51874000D03*
D20*
X150876000Y-45974000D03*
D18*
X148336000Y-40894000D03*
X147066000Y-43433999D03*
D19*
X147051000Y-43394000D03*
D18*
X145876000Y-49674000D03*
D17*
X145796000Y-45974000D03*
D16*
X145376000Y-45974000D03*
%TD*%
%TO.C,K31*%
X183333557Y-111794935D03*
D17*
X183747177Y-111867867D03*
D18*
X183183463Y-115525548D03*
D19*
X185431123Y-109544992D03*
D18*
X185438949Y-109586988D03*
X187130721Y-107306110D03*
D20*
X188750000Y-112750000D03*
D18*
X187725476Y-118560366D03*
X192133544Y-108188243D03*
X192943184Y-110910188D03*
X192943184Y-110910188D03*
D19*
X192964902Y-110873400D03*
D18*
X193031541Y-117262030D03*
D17*
X193752823Y-113632133D03*
D16*
X194166443Y-113705065D03*
D21*
X184018729Y-106757382D03*
D22*
X196084445Y-117800339D03*
D23*
X184968014Y-118074151D03*
D24*
X195986240Y-111446760D03*
%TD*%
D16*
%TO.C,K32*%
X204516407Y-116955700D03*
D17*
X204897056Y-117133199D03*
D18*
X203405873Y-120520348D03*
D19*
X207124828Y-115325311D03*
D18*
X207121518Y-115367902D03*
X209345979Y-113602606D03*
D20*
X209501100Y-119280100D03*
D18*
X207007652Y-124627316D03*
X213950023Y-115749507D03*
X214027583Y-118588254D03*
X214027583Y-118588254D03*
D19*
X214058082Y-118558341D03*
D18*
X212468951Y-124746530D03*
D17*
X214105144Y-121427001D03*
D16*
X214485793Y-121604500D03*
D25*
X206482046Y-112267132D03*
D26*
X215278506Y-126056647D03*
D27*
X204469990Y-123443985D03*
D28*
X216828075Y-119894143D03*
%TD*%
D16*
%TO.C,K30*%
X161367329Y-112695857D03*
D17*
X161785731Y-112659251D03*
D18*
X162187903Y-116338199D03*
D19*
X162811093Y-109979688D03*
D18*
X162829523Y-110018228D03*
X163873314Y-107377207D03*
D20*
X166846400Y-112216500D03*
D18*
X167360619Y-118094049D03*
X168933983Y-106934455D03*
X170420526Y-109354102D03*
X170420526Y-109354102D03*
D19*
X170431983Y-109312947D03*
D18*
X172149850Y-115466642D03*
D17*
X171907069Y-111773749D03*
D16*
X172325471Y-111737143D03*
D29*
X160725339Y-107652619D03*
D30*
X175238053Y-115196459D03*
D31*
X164571274Y-118338085D03*
D32*
X173498768Y-109084790D03*
%TD*%
D12*
%TO.C,K25*%
X196830000Y-88203999D03*
D13*
X187130000Y-96644000D03*
D14*
X198030000Y-94444000D03*
D15*
X184230000Y-85664000D03*
D16*
X195430000Y-90744000D03*
D17*
X195010000Y-90744000D03*
D18*
X194930000Y-94444000D03*
D19*
X193755000Y-88164000D03*
D18*
X193740000Y-88204000D03*
X193740000Y-88204000D03*
X192470000Y-85664000D03*
X189930000Y-96644000D03*
D20*
X189930000Y-90744000D03*
D18*
X187390000Y-85664000D03*
X186120000Y-88203999D03*
D19*
X186105000Y-88164000D03*
D18*
X184930000Y-94444000D03*
D17*
X184850000Y-90744000D03*
D16*
X184430000Y-90744000D03*
%TD*%
D12*
%TO.C,K24*%
X177254000Y-87103999D03*
D13*
X167554000Y-95544000D03*
D14*
X178454000Y-93344000D03*
D15*
X164654000Y-84564000D03*
D16*
X175854000Y-89644000D03*
D17*
X175434000Y-89644000D03*
D18*
X175354000Y-93344000D03*
D19*
X174179000Y-87064000D03*
D18*
X174164000Y-87104000D03*
X174164000Y-87104000D03*
X172894000Y-84564000D03*
X170354000Y-95544000D03*
D20*
X170354000Y-89644000D03*
D18*
X167814000Y-84564000D03*
X166544000Y-87103999D03*
D19*
X166529000Y-87064000D03*
D18*
X165354000Y-93344000D03*
D17*
X165274000Y-89644000D03*
D16*
X164854000Y-89644000D03*
%TD*%
D12*
%TO.C,K23*%
X157730000Y-82357999D03*
D13*
X148030000Y-90798000D03*
D14*
X158930000Y-88598000D03*
D15*
X145130000Y-79818000D03*
D16*
X156330000Y-84898000D03*
D17*
X155910000Y-84898000D03*
D18*
X155830000Y-88598000D03*
D19*
X154655000Y-82318000D03*
D18*
X154640000Y-82358000D03*
X154640000Y-82358000D03*
X153370000Y-79818000D03*
X150830000Y-90798000D03*
D20*
X150830000Y-84898000D03*
D18*
X148290000Y-79818000D03*
X147020000Y-82357999D03*
D19*
X147005000Y-82318000D03*
D18*
X145830000Y-88598000D03*
D17*
X145750000Y-84898000D03*
D16*
X145330000Y-84898000D03*
%TD*%
D12*
%TO.C,K22*%
X138166000Y-87513999D03*
D13*
X128466000Y-95954000D03*
D14*
X139366000Y-93754000D03*
D15*
X125566000Y-84974000D03*
D16*
X136766000Y-90054000D03*
D17*
X136346000Y-90054000D03*
D18*
X136266000Y-93754000D03*
D19*
X135091000Y-87474000D03*
D18*
X135076000Y-87514000D03*
X135076000Y-87514000D03*
X133806000Y-84974000D03*
X131266000Y-95954000D03*
D20*
X131266000Y-90054000D03*
D18*
X128726000Y-84974000D03*
X127456000Y-87513999D03*
D19*
X127441000Y-87474000D03*
D18*
X126266000Y-93754000D03*
D17*
X126186000Y-90054000D03*
D16*
X125766000Y-90054000D03*
%TD*%
D12*
%TO.C,K21*%
X118767000Y-99849999D03*
D13*
X109067000Y-108290000D03*
D14*
X119967000Y-106090000D03*
D15*
X106167000Y-97310000D03*
D16*
X117367000Y-102390000D03*
D17*
X116947000Y-102390000D03*
D18*
X116867000Y-106090000D03*
D19*
X115692000Y-99810000D03*
D18*
X115677000Y-99850000D03*
X115677000Y-99850000D03*
X114407000Y-97310000D03*
X111867000Y-108290000D03*
D20*
X111867000Y-102390000D03*
D18*
X109327000Y-97310000D03*
X108057000Y-99849999D03*
D19*
X108042000Y-99810000D03*
D18*
X106867000Y-106090000D03*
D17*
X106787000Y-102390000D03*
D16*
X106367000Y-102390000D03*
%TD*%
D12*
%TO.C,K20*%
X99457000Y-99773999D03*
D13*
X89757000Y-108214000D03*
D14*
X100657000Y-106014000D03*
D15*
X86857000Y-97234000D03*
D16*
X98057000Y-102314000D03*
D17*
X97637000Y-102314000D03*
D18*
X97557000Y-106014000D03*
D19*
X96382000Y-99734000D03*
D18*
X96367000Y-99774000D03*
X96367000Y-99774000D03*
X95097000Y-97234000D03*
X92557000Y-108214000D03*
D20*
X92557000Y-102314000D03*
D18*
X90017000Y-97234000D03*
X88747000Y-99773999D03*
D19*
X88732000Y-99734000D03*
D18*
X87557000Y-106014000D03*
D17*
X87477000Y-102314000D03*
D16*
X87057000Y-102314000D03*
%TD*%
%TO.C,K15*%
X184604000Y-71374000D03*
D17*
X185024000Y-71374000D03*
D18*
X185104000Y-75074000D03*
D19*
X186279000Y-68794000D03*
D18*
X186294000Y-68833999D03*
X187564000Y-66294000D03*
D20*
X190104000Y-71374000D03*
D18*
X190104000Y-77274000D03*
X192644000Y-66294000D03*
X193914000Y-68834000D03*
X193914000Y-68834000D03*
D19*
X193929000Y-68794000D03*
D18*
X195104000Y-75074000D03*
D17*
X195184000Y-71374000D03*
D16*
X195604000Y-71374000D03*
D15*
X184404000Y-66294000D03*
D14*
X198204000Y-75074000D03*
D13*
X187304000Y-77274000D03*
D12*
X197004000Y-68833999D03*
%TD*%
D16*
%TO.C,K14*%
X165028000Y-70274000D03*
D17*
X165448000Y-70274000D03*
D18*
X165528000Y-73974000D03*
D19*
X166703000Y-67694000D03*
D18*
X166718000Y-67733999D03*
X167988000Y-65194000D03*
D20*
X170528000Y-70274000D03*
D18*
X170528000Y-76174000D03*
X173068000Y-65194000D03*
X174338000Y-67734000D03*
X174338000Y-67734000D03*
D19*
X174353000Y-67694000D03*
D18*
X175528000Y-73974000D03*
D17*
X175608000Y-70274000D03*
D16*
X176028000Y-70274000D03*
D15*
X164828000Y-65194000D03*
D14*
X178628000Y-73974000D03*
D13*
X167728000Y-76174000D03*
D12*
X177428000Y-67733999D03*
%TD*%
D16*
%TO.C,K13*%
X145504000Y-65528000D03*
D17*
X145924000Y-65528000D03*
D18*
X146004000Y-69228000D03*
D19*
X147179000Y-62948000D03*
D18*
X147194000Y-62987999D03*
X148464000Y-60448000D03*
D20*
X151004000Y-65528000D03*
D18*
X151004000Y-71428000D03*
X153544000Y-60448000D03*
X154814000Y-62988000D03*
X154814000Y-62988000D03*
D19*
X154829000Y-62948000D03*
D18*
X156004000Y-69228000D03*
D17*
X156084000Y-65528000D03*
D16*
X156504000Y-65528000D03*
D15*
X145304000Y-60448000D03*
D14*
X159104000Y-69228000D03*
D13*
X148204000Y-71428000D03*
D12*
X157904000Y-62987999D03*
%TD*%
D16*
%TO.C,K12*%
X125940000Y-70684000D03*
D17*
X126360000Y-70684000D03*
D18*
X126440000Y-74384000D03*
D19*
X127615000Y-68104000D03*
D18*
X127630000Y-68143999D03*
X128900000Y-65604000D03*
D20*
X131440000Y-70684000D03*
D18*
X131440000Y-76584000D03*
X133980000Y-65604000D03*
X135250000Y-68144000D03*
X135250000Y-68144000D03*
D19*
X135265000Y-68104000D03*
D18*
X136440000Y-74384000D03*
D17*
X136520000Y-70684000D03*
D16*
X136940000Y-70684000D03*
D15*
X125740000Y-65604000D03*
D14*
X139540000Y-74384000D03*
D13*
X128640000Y-76584000D03*
D12*
X138340000Y-68143999D03*
%TD*%
D16*
%TO.C,K11*%
X106541000Y-83020000D03*
D17*
X106961000Y-83020000D03*
D18*
X107041000Y-86720000D03*
D19*
X108216000Y-80440000D03*
D18*
X108231000Y-80479999D03*
X109501000Y-77940000D03*
D20*
X112041000Y-83020000D03*
D18*
X112041000Y-88920000D03*
X114581000Y-77940000D03*
X115851000Y-80480000D03*
X115851000Y-80480000D03*
D19*
X115866000Y-80440000D03*
D18*
X117041000Y-86720000D03*
D17*
X117121000Y-83020000D03*
D16*
X117541000Y-83020000D03*
D15*
X106341000Y-77940000D03*
D14*
X120141000Y-86720000D03*
D13*
X109241000Y-88920000D03*
D12*
X118941000Y-80479999D03*
%TD*%
D16*
%TO.C,K10*%
X87231000Y-82944000D03*
D17*
X87651000Y-82944000D03*
D18*
X87731000Y-86644000D03*
D19*
X88906000Y-80364000D03*
D18*
X88921000Y-80403999D03*
X90191000Y-77864000D03*
D20*
X92731000Y-82944000D03*
D18*
X92731000Y-88844000D03*
X95271000Y-77864000D03*
X96541000Y-80404000D03*
X96541000Y-80404000D03*
D19*
X96556000Y-80364000D03*
D18*
X97731000Y-86644000D03*
D17*
X97811000Y-82944000D03*
D16*
X98231000Y-82944000D03*
D15*
X87031000Y-77864000D03*
D14*
X100831000Y-86644000D03*
D13*
X89931000Y-88844000D03*
D12*
X99631000Y-80403999D03*
%TD*%
%TO.C,K05*%
X196876000Y-49279999D03*
D13*
X187176000Y-57720000D03*
D14*
X198076000Y-55520000D03*
D15*
X184276000Y-46740000D03*
D16*
X195476000Y-51820000D03*
D17*
X195056000Y-51820000D03*
D18*
X194976000Y-55520000D03*
D19*
X193801000Y-49240000D03*
D18*
X193786000Y-49280000D03*
X193786000Y-49280000D03*
X192516000Y-46740000D03*
X189976000Y-57720000D03*
D20*
X189976000Y-51820000D03*
D18*
X187436000Y-46740000D03*
X186166000Y-49279999D03*
D19*
X186151000Y-49240000D03*
D18*
X184976000Y-55520000D03*
D17*
X184896000Y-51820000D03*
D16*
X184476000Y-51820000D03*
%TD*%
D12*
%TO.C,K04*%
X177300000Y-48179999D03*
D13*
X167600000Y-56620000D03*
D14*
X178500000Y-54420000D03*
D15*
X164700000Y-45640000D03*
D16*
X175900000Y-50720000D03*
D17*
X175480000Y-50720000D03*
D18*
X175400000Y-54420000D03*
D19*
X174225000Y-48140000D03*
D18*
X174210000Y-48180000D03*
X174210000Y-48180000D03*
X172940000Y-45640000D03*
X170400000Y-56620000D03*
D20*
X170400000Y-50720000D03*
D18*
X167860000Y-45640000D03*
X166590000Y-48179999D03*
D19*
X166575000Y-48140000D03*
D18*
X165400000Y-54420000D03*
D17*
X165320000Y-50720000D03*
D16*
X164900000Y-50720000D03*
%TD*%
D12*
%TO.C,K02*%
X138212000Y-48589999D03*
D13*
X128512000Y-57030000D03*
D14*
X139412000Y-54830000D03*
D15*
X125612000Y-46050000D03*
D16*
X136812000Y-51130000D03*
D17*
X136392000Y-51130000D03*
D18*
X136312000Y-54830000D03*
D19*
X135137000Y-48550000D03*
D18*
X135122000Y-48590000D03*
X135122000Y-48590000D03*
X133852000Y-46050000D03*
X131312000Y-57030000D03*
D20*
X131312000Y-51130000D03*
D18*
X128772000Y-46050000D03*
X127502000Y-48589999D03*
D19*
X127487000Y-48550000D03*
D18*
X126312000Y-54830000D03*
D17*
X126232000Y-51130000D03*
D16*
X125812000Y-51130000D03*
%TD*%
D12*
%TO.C,K01*%
X118813000Y-60925999D03*
D13*
X109113000Y-69366000D03*
D14*
X120013000Y-67166000D03*
D15*
X106213000Y-58386000D03*
D16*
X117413000Y-63466000D03*
D17*
X116993000Y-63466000D03*
D18*
X116913000Y-67166000D03*
D19*
X115738000Y-60886000D03*
D18*
X115723000Y-60926000D03*
X115723000Y-60926000D03*
X114453000Y-58386000D03*
X111913000Y-69366000D03*
D20*
X111913000Y-63466000D03*
D18*
X109373000Y-58386000D03*
X108103000Y-60925999D03*
D19*
X108088000Y-60886000D03*
D18*
X106913000Y-67166000D03*
D17*
X106833000Y-63466000D03*
D16*
X106413000Y-63466000D03*
%TD*%
D12*
%TO.C,K00*%
X99503000Y-60849999D03*
D13*
X89803000Y-69290000D03*
D14*
X100703000Y-67090000D03*
D15*
X86903000Y-58310000D03*
D16*
X98103000Y-63390000D03*
D17*
X97683000Y-63390000D03*
D18*
X97603000Y-67090000D03*
D19*
X96428000Y-60810000D03*
D18*
X96413000Y-60850000D03*
X96413000Y-60850000D03*
X95143000Y-58310000D03*
X92603000Y-69290000D03*
D20*
X92603000Y-63390000D03*
D18*
X90063000Y-58310000D03*
X88793000Y-60849999D03*
D19*
X88778000Y-60810000D03*
D18*
X87603000Y-67090000D03*
D17*
X87523000Y-63390000D03*
D16*
X87103000Y-63390000D03*
%TD*%
D33*
%TO.C,J1*%
X225580000Y-102444000D03*
X222580000Y-109144000D03*
X222580000Y-102444000D03*
X225580000Y-109144000D03*
X218580000Y-102444000D03*
X218580000Y-109144000D03*
X217480000Y-107044000D03*
X217480000Y-104544000D03*
D34*
X227180000Y-104744000D03*
X220180000Y-106844000D03*
X220180000Y-104744000D03*
X227180000Y-106844000D03*
%TD*%
D17*
%TO.C,U1*%
X221000000Y-47380000D03*
X208420000Y-47360000D03*
X221000000Y-49920000D03*
X208420000Y-49900000D03*
X221000000Y-52460000D03*
X208420000Y-52440000D03*
X208420000Y-54980000D03*
X221000000Y-55000000D03*
X221000000Y-57540000D03*
X208420000Y-57520000D03*
X208420000Y-60060000D03*
X221000000Y-60080000D03*
X208420000Y-62600000D03*
X221000000Y-62620000D03*
X221000000Y-65160000D03*
X208420000Y-65140000D03*
X221000000Y-67700000D03*
X208420000Y-67680000D03*
X208420000Y-70220000D03*
X221000000Y-70240000D03*
X221000000Y-72780000D03*
X208420000Y-72760000D03*
X221000000Y-75320000D03*
X208420000Y-75300000D03*
X208420000Y-77840000D03*
X221000000Y-77860000D03*
X208420000Y-80380000D03*
X221000000Y-80400000D03*
X208420000Y-82920000D03*
X221000000Y-82940000D03*
X208420000Y-85460000D03*
X221000000Y-85480000D03*
X208420000Y-88000000D03*
X221000000Y-88020000D03*
X221000000Y-90560000D03*
X208420000Y-90540000D03*
X221000000Y-93100000D03*
X208420000Y-93080000D03*
X208420000Y-95620000D03*
X221000000Y-95640000D03*
X205760000Y-95640000D03*
X223660000Y-95620000D03*
X205760000Y-93100000D03*
X223660000Y-93080000D03*
X223660000Y-90540000D03*
X205760000Y-90560000D03*
X205760000Y-88020000D03*
X223660000Y-88000000D03*
X205760000Y-85480000D03*
X223660000Y-85460000D03*
X223660000Y-82920000D03*
X205760000Y-82940000D03*
X223660000Y-80380000D03*
X205760000Y-80400000D03*
X205760000Y-77860000D03*
X223660000Y-77840000D03*
X223660000Y-75300000D03*
X205760000Y-75320000D03*
X223660000Y-72760000D03*
X205760000Y-72780000D03*
X205760000Y-70240000D03*
X223660000Y-70220000D03*
X223660000Y-67680000D03*
X205760000Y-67700000D03*
X205760000Y-65160000D03*
X223660000Y-65140000D03*
X205760000Y-62620000D03*
X223660000Y-62600000D03*
X205760000Y-60080000D03*
X223660000Y-60060000D03*
X223660000Y-57520000D03*
X205760000Y-57540000D03*
X205760000Y-55000000D03*
X223660000Y-54980000D03*
X223660000Y-52440000D03*
X205760000Y-52460000D03*
X205760000Y-49920000D03*
X223660000Y-49900000D03*
D35*
X223660000Y-47360000D03*
X205760000Y-47380000D03*
%TD*%
%LPD*%
M02*
