%TF.GenerationSoftware,KiCad,Pcbnew,7.0.6*%
%TF.CreationDate,2023-08-11T19:59:34+07:00*%
%TF.ProjectId,keyboard_pcb,6b657962-6f61-4726-945f-7063622e6b69,rev1.0*%
%TF.SameCoordinates,Original*%
%TF.FileFunction,Paste,Top*%
%TF.FilePolarity,Positive*%
%FSLAX46Y46*%
G04 Gerber Fmt 4.6, Leading zero omitted, Abs format (unit mm)*
G04 Created by KiCad (PCBNEW 7.0.6) date 2023-08-11 19:59:34*
%MOMM*%
%LPD*%
G01*
G04 APERTURE LIST*
G04 Aperture macros list*
%AMRotRect*
0 Rectangle, with rotation*
0 The origin of the aperture is its center*
0 $1 length*
0 $2 width*
0 $3 Rotation angle, in degrees counterclockwise*
0 Add horizontal line*
21,1,$1,$2,0,0,$3*%
G04 Aperture macros list end*
%ADD10R,2.500000X2.500000*%
%ADD11R,1.800000X2.000000*%
%ADD12R,2.000000X2.000000*%
%ADD13R,2.400000X2.400000*%
%ADD14RotRect,2.400000X2.400000X350.000000*%
%ADD15RotRect,2.000000X2.000000X350.000000*%
%ADD16RotRect,1.800000X2.000000X350.000000*%
%ADD17RotRect,2.500000X2.500000X350.000000*%
%ADD18RotRect,2.400000X2.400000X335.000000*%
%ADD19RotRect,2.000000X2.000000X335.000000*%
%ADD20RotRect,1.800000X2.000000X335.000000*%
%ADD21RotRect,2.500000X2.500000X335.000000*%
%ADD22RotRect,2.400000X2.400000X5.000000*%
%ADD23RotRect,2.000000X2.000000X5.000000*%
%ADD24RotRect,1.800000X2.000000X5.000000*%
%ADD25RotRect,2.500000X2.500000X5.000000*%
G04 APERTURE END LIST*
D10*
%TO.C,K03*%
X157776000Y-43433999D03*
D11*
X148076000Y-51874000D03*
D12*
X158976000Y-49674000D03*
D13*
X145176000Y-40894000D03*
%TD*%
D14*
%TO.C,K31*%
X184018729Y-106757382D03*
D15*
X196084445Y-117800339D03*
D16*
X184968014Y-118074151D03*
D17*
X195986240Y-111446760D03*
%TD*%
D18*
%TO.C,K32*%
X206482046Y-112267132D03*
D19*
X215278506Y-126056647D03*
D20*
X204469990Y-123443985D03*
D21*
X216828075Y-119894143D03*
%TD*%
D22*
%TO.C,K30*%
X160725339Y-107652619D03*
D23*
X175238053Y-115196459D03*
D24*
X164571274Y-118338085D03*
D25*
X173498768Y-109084790D03*
%TD*%
D10*
%TO.C,K25*%
X196830000Y-88203999D03*
D11*
X187130000Y-96644000D03*
D12*
X198030000Y-94444000D03*
D13*
X184230000Y-85664000D03*
%TD*%
D10*
%TO.C,K24*%
X177254000Y-87103999D03*
D11*
X167554000Y-95544000D03*
D12*
X178454000Y-93344000D03*
D13*
X164654000Y-84564000D03*
%TD*%
D10*
%TO.C,K23*%
X157730000Y-82357999D03*
D11*
X148030000Y-90798000D03*
D12*
X158930000Y-88598000D03*
D13*
X145130000Y-79818000D03*
%TD*%
D10*
%TO.C,K22*%
X138166000Y-87513999D03*
D11*
X128466000Y-95954000D03*
D12*
X139366000Y-93754000D03*
D13*
X125566000Y-84974000D03*
%TD*%
D10*
%TO.C,K21*%
X118767000Y-99849999D03*
D11*
X109067000Y-108290000D03*
D12*
X119967000Y-106090000D03*
D13*
X106167000Y-97310000D03*
%TD*%
D10*
%TO.C,K20*%
X99457000Y-99773999D03*
D11*
X89757000Y-108214000D03*
D12*
X100657000Y-106014000D03*
D13*
X86857000Y-97234000D03*
%TD*%
%TO.C,K15*%
X184404000Y-66294000D03*
D12*
X198204000Y-75074000D03*
D11*
X187304000Y-77274000D03*
D10*
X197004000Y-68833999D03*
%TD*%
D13*
%TO.C,K14*%
X164828000Y-65194000D03*
D12*
X178628000Y-73974000D03*
D11*
X167728000Y-76174000D03*
D10*
X177428000Y-67733999D03*
%TD*%
D13*
%TO.C,K13*%
X145304000Y-60448000D03*
D12*
X159104000Y-69228000D03*
D11*
X148204000Y-71428000D03*
D10*
X157904000Y-62987999D03*
%TD*%
D13*
%TO.C,K12*%
X125740000Y-65604000D03*
D12*
X139540000Y-74384000D03*
D11*
X128640000Y-76584000D03*
D10*
X138340000Y-68143999D03*
%TD*%
D13*
%TO.C,K11*%
X106341000Y-77940000D03*
D12*
X120141000Y-86720000D03*
D11*
X109241000Y-88920000D03*
D10*
X118941000Y-80479999D03*
%TD*%
D13*
%TO.C,K10*%
X87031000Y-77864000D03*
D12*
X100831000Y-86644000D03*
D11*
X89931000Y-88844000D03*
D10*
X99631000Y-80403999D03*
%TD*%
%TO.C,K05*%
X196876000Y-49279999D03*
D11*
X187176000Y-57720000D03*
D12*
X198076000Y-55520000D03*
D13*
X184276000Y-46740000D03*
%TD*%
D10*
%TO.C,K04*%
X177300000Y-48179999D03*
D11*
X167600000Y-56620000D03*
D12*
X178500000Y-54420000D03*
D13*
X164700000Y-45640000D03*
%TD*%
D10*
%TO.C,K02*%
X138212000Y-48589999D03*
D11*
X128512000Y-57030000D03*
D12*
X139412000Y-54830000D03*
D13*
X125612000Y-46050000D03*
%TD*%
D10*
%TO.C,K01*%
X118813000Y-60925999D03*
D11*
X109113000Y-69366000D03*
D12*
X120013000Y-67166000D03*
D13*
X106213000Y-58386000D03*
%TD*%
D10*
%TO.C,K00*%
X99503000Y-60849999D03*
D11*
X89803000Y-69290000D03*
D12*
X100703000Y-67090000D03*
D13*
X86903000Y-58310000D03*
%TD*%
M02*
